<svg width="76" height="76" viewBox="0 0 76 76" fill="none" xmlns="http://www.w3.org/2000/svg">
<circle cx="38" cy="38" r="38" fill="white"/>
<g clip-path="url(#clip0_5449_5633)">
<path fill-rule="evenodd" clip-rule="evenodd" d="M24.875 38C24.875 41.481 26.2578 44.8194 28.7192 47.2808C31.1806 49.7422 34.519 51.125 38 51.125C41.481 51.125 44.8194 49.7422 47.2808 47.2808C49.7422 44.8194 51.125 41.481 51.125 38C51.125 34.519 49.7422 31.1806 47.2808 28.7192C44.8194 26.2578 41.481 24.875 38 24.875C34.519 24.875 31.1806 26.2578 28.7192 28.7192C26.2578 31.1806 24.875 34.519 24.875 38V38ZM53 38C53 41.9782 51.4196 45.7936 48.6066 48.6066C45.7936 51.4196 41.9782 53 38 53C34.0218 53 30.2064 51.4196 27.3934 48.6066C24.5804 45.7936 23 41.9782 23 38C23 34.0218 24.5804 30.2064 27.3934 27.3934C30.2064 24.5804 34.0218 23 38 23C41.9782 23 45.7936 24.5804 48.6066 27.3934C51.4196 30.2064 53 34.0218 53 38V38ZM38.9375 31.4375C38.9375 31.1889 38.8387 30.9504 38.6629 30.7746C38.4871 30.5988 38.2486 30.5 38 30.5C37.7514 30.5 37.5129 30.5988 37.3371 30.7746C37.1613 30.9504 37.0625 31.1889 37.0625 31.4375V42.2994L33.0388 38.2737C32.8627 38.0977 32.624 37.9988 32.375 37.9988C32.126 37.9988 31.8873 38.0977 31.7112 38.2737C31.5352 38.4498 31.4363 38.6885 31.4363 38.9375C31.4363 39.1865 31.5352 39.4252 31.7112 39.6013L37.3362 45.2263C37.4233 45.3136 37.5268 45.3828 37.6407 45.4301C37.7546 45.4773 37.8767 45.5017 38 45.5017C38.1233 45.5017 38.2454 45.4773 38.3593 45.4301C38.4732 45.3828 38.5767 45.3136 38.6638 45.2263L44.2888 39.6013C44.4648 39.4252 44.5637 39.1865 44.5637 38.9375C44.5637 38.6885 44.4648 38.4498 44.2888 38.2737C44.1127 38.0977 43.874 37.9988 43.625 37.9988C43.376 37.9988 43.1373 38.0977 42.9612 38.2737L38.9375 42.2994V31.4375Z" fill="#3E80FA"/>
</g>
<defs>
<clipPath id="clip0_5449_5633">
<rect width="30" height="30" fill="white" transform="translate(23 23)"/>
</clipPath>
</defs>
</svg>
