<svg width="104" height="33" viewBox="0 0 104 33" fill="none" xmlns="http://www.w3.org/2000/svg">
<path d="M0.233643 25.0553V16.4581C0.233643 12.2472 3.03656 9.26455 7.12416 9.26455C11.095 9.26455 13.7227 12.0133 14.0147 15.9902C14.0731 16.3411 13.8395 16.5751 13.4307 16.5751H10.803C10.4526 16.5751 10.219 16.3996 10.1607 15.9902C9.98547 14.0018 8.87598 12.8321 7.06576 12.8321C5.13875 12.8321 3.91248 14.1772 3.91248 16.2827V25.1723C3.91248 27.2192 5.08036 28.6228 7.06576 28.6228C8.93437 28.6228 10.1023 27.3362 10.2774 25.1723C10.3358 24.7044 10.511 24.5289 10.8614 24.5289H13.4891C13.8395 24.5289 14.0731 24.7629 14.0731 25.1723C13.7811 29.3247 11.095 32.1904 7.12416 32.1904C3.03656 32.2489 0.233643 29.2662 0.233643 25.0553Z" fill="#261D3F"/>
<path d="M16.7592 25.1138C16.7592 21.4293 19.5621 18.622 23.7081 18.622H27.0365V16.2242C27.0365 14.2357 25.8687 12.8906 23.8832 12.8906C22.0146 12.8906 21.0219 14.1187 20.9051 15.9318C20.8467 16.3411 20.6716 16.4581 20.2628 16.4581H17.6935C17.3431 16.4581 17.1095 16.1657 17.1095 15.8148C17.4015 11.9548 19.9708 9.26455 23.8832 9.26455C28.0876 9.26455 30.7738 12.2472 30.7738 16.3996V25.2892C30.7738 29.3247 28.146 32.2489 23.8832 32.2489C19.6205 32.2489 16.7592 29.2662 16.7592 25.1138ZM27.0365 25.2308V22.0141H23.8832C21.8394 22.0141 20.5548 23.3593 20.5548 25.1138C20.5548 27.2192 21.7811 28.6228 23.8832 28.6228C25.8687 28.6228 27.0365 27.2777 27.0365 25.2308Z" fill="#261D3F"/>
<path d="M34.9198 31.1961V1.48609C34.9198 1.13518 35.1534 0.901245 35.5621 0.901245H38.1315C38.5402 0.901245 38.7738 1.13518 38.7738 1.48609V31.1961C38.7738 31.6055 38.5402 31.8394 38.1315 31.8394H35.5621C35.1534 31.7809 34.9198 31.547 34.9198 31.1961Z" fill="#261D3F"/>
<path d="M42.3938 25.1138C42.3938 21.4293 45.1967 18.622 49.3427 18.622H52.6712V16.2242C52.6712 14.2357 51.5033 12.8906 49.5179 12.8906C47.6493 12.8906 46.6566 14.1187 46.5398 15.9318C46.4814 16.3411 46.3062 16.4581 45.8974 16.4581H43.3281C42.9777 16.4581 42.7442 16.1657 42.7442 15.8148C43.0361 11.9548 45.6055 9.26455 49.5179 9.26455C53.7223 9.26455 56.4084 12.2472 56.4084 16.3996V25.2892C56.4084 29.3247 53.7807 32.2489 49.5179 32.2489C45.2551 32.2489 42.3938 29.2662 42.3938 25.1138ZM52.6712 25.2308V22.0141H49.5179C47.4741 22.0141 46.1894 23.3593 46.1894 25.1138C46.1894 27.2192 47.4157 28.6228 49.5179 28.6228C51.5033 28.6228 52.6712 27.2777 52.6712 25.2308Z" fill="#261D3F"/>
<path d="M69.9559 28.9151V31.313C69.9559 31.6639 69.7223 31.8978 69.3135 31.8978H68.6712C64.2916 31.8978 61.7223 28.9151 61.7223 24.0609V13.1829H59.2113C58.861 13.1829 58.6274 12.9489 58.6274 12.598V10.3171C58.6274 9.96623 58.861 9.7323 59.2113 9.7323H61.6639V4.05932C61.6639 3.64993 61.8975 3.41599 62.3062 3.41599H64.8756C65.2259 3.41599 65.4595 3.64993 65.4595 4.05932V9.7323H68.8464C69.1967 9.7323 69.4303 9.96623 69.4303 10.3171V12.598C69.4303 12.9489 69.1967 13.1829 68.8464 13.1829H65.4595V24.1779C65.4595 26.9852 66.6274 28.3888 68.8464 28.3888H69.3135C69.7223 28.3303 69.9559 28.5642 69.9559 28.9151Z" fill="#261D3F"/>
<path d="M72.2916 25.0553V16.4581C72.2916 12.2472 75.0945 9.26455 79.3573 9.26455C83.62 9.26455 86.423 12.2472 86.423 16.4581V25.1138C86.423 29.3247 83.62 32.3074 79.3573 32.3074C75.0945 32.2489 72.2916 29.2662 72.2916 25.0553ZM82.569 25.2308V16.2827C82.569 14.2357 81.3427 12.7736 79.2989 12.7736C77.2551 12.7736 76.0872 14.1772 76.0872 16.2827V25.1723C76.0872 27.2192 77.2551 28.6813 79.2989 28.6813C81.3427 28.6813 82.569 27.2777 82.569 25.2308Z" fill="#261D3F"/>
<path d="M90.2189 31.1962V16.4581C90.2189 12.2472 93.0218 9.26455 97.1094 9.26455C101.197 9.26455 104 12.2472 104 16.4581V31.1962C104 31.6055 103.766 31.8395 103.358 31.8395H100.788C100.379 31.8395 100.146 31.6055 100.146 31.1962V16.2827C100.146 14.2357 98.978 12.7736 97.051 12.7736C95.124 12.7736 93.9561 14.1772 93.9561 16.2827V31.1377C93.9561 31.5471 93.7226 31.781 93.3138 31.781H90.7445C90.4525 31.781 90.2189 31.5471 90.2189 31.1962Z" fill="#261D3F"/>
</svg>
