<svg width="50" height="50" viewBox="0 0 50 50" fill="none" xmlns="http://www.w3.org/2000/svg">
<rect x="0.5" y="0.5" width="49" height="49" rx="5.5" stroke="#261D3F"/>
<path d="M31 15.5517C31 15.4071 30.9425 15.2684 30.8402 15.1662C30.7379 15.0639 30.5992 15.0064 30.4545 15.0064H27.7272C26.3539 14.9381 25.0093 15.4158 23.9873 16.3354C22.9653 17.2549 22.3488 18.5415 22.2727 19.9139V22.8584H19.5454C19.4008 22.8584 19.262 22.9159 19.1597 23.0181C19.0574 23.1204 19 23.2591 19 23.4037V26.2391C19 26.3837 19.0574 26.5224 19.1597 26.6247C19.262 26.7269 19.4008 26.7844 19.5454 26.7844H22.2727V34.0911C22.2727 34.2357 22.3302 34.3744 22.4325 34.4767C22.5347 34.5789 22.6735 34.6364 22.8182 34.6364H26.0909C26.2355 34.6364 26.3743 34.5789 26.4766 34.4767C26.5789 34.3744 26.6363 34.2357 26.6363 34.0911V26.7844H29.4945C29.6158 26.7861 29.7342 26.7474 29.831 26.6743C29.9279 26.6013 29.9975 26.498 30.0291 26.3809L30.8145 23.5455C30.8362 23.4649 30.8391 23.3804 30.823 23.2985C30.8069 23.2167 30.7723 23.1396 30.7217 23.0732C30.6711 23.0069 30.606 22.953 30.5313 22.9157C30.4566 22.8785 30.3743 22.8589 30.2909 22.8584H26.6363V19.9139C26.6635 19.644 26.7903 19.3939 26.992 19.2124C27.1937 19.0309 27.4559 18.9311 27.7272 18.9324H30.4545C30.5992 18.9324 30.7379 18.875 30.8402 18.7727C30.9425 18.6705 31 18.5318 31 18.3872V15.5517Z" fill="#261D3F"/>
</svg>
