<svg width="50" height="50" viewBox="0 0 50 50" fill="none" xmlns="http://www.w3.org/2000/svg">
<rect x="0.5" y="0.5" width="49" height="49" rx="5.5" stroke="#261D3F"/>
<path d="M19.4773 35.0007H15.3308V21.6474H19.4773V35.0007ZM17.4015 19.8259C16.0758 19.8259 15 18.7273 15 17.4015C15 16.7646 15.253 16.1538 15.7034 15.7034C16.1538 15.253 16.7646 15 17.4015 15C18.0385 15 18.6493 15.253 19.0997 15.7034C19.55 16.1538 19.8031 16.7646 19.8031 17.4015C19.8031 18.7273 18.7273 19.8259 17.4015 19.8259ZM34.9965 35.0007H30.8592V28.5005C30.8592 26.9511 30.8277 24.9646 28.7034 24.9646C26.5476 24.9646 26.2169 26.6476 26.2169 28.389V35.0007H22.0746V21.6474H26.0511V23.4689H26.109C26.6626 22.4196 28.0148 21.3124 30.032 21.3124C34.2286 21.3124 35 24.076 35 27.6655V35.0007H34.9965Z" fill="#261D3F"/>
</svg>
