<svg width="24" height="24" viewBox="0 0 24 24" fill="none" xmlns="http://www.w3.org/2000/svg">
<path d="M19.8651 12.832L18.4676 7.7056C18.058 6.20377 17.1677 4.88463 15.9383 3.95788C14.7089 3.03112 13.2109 2.54993 11.6825 2.59078C10.1541 2.63164 8.6829 3.1922 7.50283 4.18336C6.32276 5.17452 5.50151 6.53941 5.16963 8.06105L4.08763 13.0217C3.96812 13.5699 3.97088 14.1384 4.09572 14.6853C4.22056 15.2322 4.46428 15.7435 4.8089 16.1815C5.15352 16.6196 5.59023 16.9731 6.08679 17.216C6.58335 17.4589 7.12708 17.585 7.67784 17.585H8.49724C8.66606 18.4326 9.11711 19.1946 9.77397 19.742C10.4308 20.2894 11.2531 20.5884 12.1014 20.5884C12.9498 20.5884 13.772 20.2894 14.4289 19.742C15.0857 19.1946 15.5368 18.4326 15.7056 17.585H16.322C16.889 17.585 17.4483 17.4514 17.9562 17.1946C18.4642 16.9378 18.907 16.5647 19.2501 16.1045C19.5932 15.6444 19.8273 15.1095 19.9341 14.5418C20.041 13.9742 20.0176 13.389 19.8659 12.832H19.8651ZM12.1014 19.0848C11.6467 19.0829 11.2036 18.9377 10.8328 18.6693C10.4621 18.4008 10.1817 18.0221 10.0301 17.585H14.1727C14.0211 18.0221 13.7408 18.4008 13.37 18.6693C12.9993 18.9377 12.5562 19.0829 12.1014 19.0848ZM18.0785 15.1965C17.8735 15.4737 17.608 15.6984 17.3029 15.8526C16.9979 16.0069 16.6618 16.0865 16.3213 16.0851H7.67784C7.34742 16.0851 7.02124 16.0094 6.72335 15.8636C6.42547 15.7178 6.1635 15.5057 5.95678 15.2429C5.75006 14.9801 5.60386 14.6733 5.52899 14.3452C5.45411 14.0171 5.45246 13.676 5.52416 13.3472L6.60542 8.38577C6.86606 7.19056 7.5111 6.11848 8.438 5.33995C9.3649 4.56143 10.5205 4.12113 11.721 4.08907C12.9215 4.05701 14.0981 4.43501 15.0637 5.16299C16.0293 5.89097 16.7285 6.92714 17.0502 8.1068L18.4477 13.2332C18.5401 13.5672 18.5548 13.9185 18.4907 14.2593C18.4266 14.6001 18.2855 14.921 18.0785 15.1965Z" fill="#261D3F"/>
<ellipse cx="17" cy="4.875" rx="3" ry="3.1875" fill="#F19876"/>
</svg>
