<svg width="296" height="267" viewBox="0 0 296 267" fill="none" xmlns="http://www.w3.org/2000/svg">
<g clip-path="url(#clip0_5451_6040)">
<path opacity="0.05" d="M12.2026 26.2723C11.0607 31.0406 13.7309 35.2567 15.4359 37.9541C22.1658 48.5782 37.999 57.4602 55.3445 56.1513C59.4046 55.8423 79.8675 53.7514 87.2413 38.5164C93.7624 25.0563 85.8197 10.0905 75.3569 2.36119C66.6882 -4.03536 52.2933 -8.41069 42.4347 -3.78406C36.2369 -0.87073 38.3444 2.54182 28.1837 11.5086C19.3968 19.276 13.6024 20.4449 12.2026 26.2723Z" fill="white"/>
<path opacity="0.1" d="M10.1391 151.328C13.727 154.766 18.9376 155.238 22.2694 155.543C35.4002 156.733 52.0315 150.607 60.4805 137.781C62.4559 134.777 71.9394 119.344 62.5395 105.761C54.2381 93.7563 36.5928 91.008 23.9564 94.0259C13.4935 96.5304 1.64768 104.149 0.282056 113.59C-0.57233 119.527 3.61539 119.947 5.92385 132.002C7.93157 142.434 5.75672 147.124 10.1391 151.328Z" fill="white"/>
<g clip-path="url(#clip1_5451_6040)">
<path d="M136.881 30.8746C123.418 33.0809 72.7327 41.3841 49.7226 86.5062C27.5101 130.039 39.6436 191.127 77.3492 215.182C137.896 253.781 234.649 178.008 230.154 147.001C228.486 135.4 213.089 133.408 210.503 117.56C206.418 92.4845 241.852 78.9621 238.589 60.3154C234.794 38.7982 181.741 23.5203 136.881 30.8746Z" fill="white"/>
<path d="M185.004 173.002C180.411 169.799 175.674 166.81 170.864 163.963C161.075 158.175 150.924 153.003 140.699 147.998C135.334 145.364 129.799 142.968 124.336 140.525C118.85 138.057 113.339 135.614 107.828 133.17C102.801 130.94 97.7731 128.71 92.7215 126.457C75.9957 91.6305 57.5054 52.202 59.7774 52.202L231.29 47.4336C235.35 47.4336 238.637 50.66 238.637 54.6455V171.223C238.637 175.185 235.326 178.435 231.29 178.435H192.931C190.321 176.561 187.614 174.829 185.004 173.002Z" fill="#99B9FF"/>
<path d="M231.29 178.767H192.811L192.714 178.696C191.264 177.652 189.741 176.632 188.267 175.635C187.131 174.876 185.946 174.07 184.786 173.263C180.556 170.321 175.94 167.356 170.646 164.224C160.326 158.127 149.618 152.742 140.506 148.258C136.349 146.218 132.047 144.297 127.865 142.446C126.632 141.9 125.4 141.355 124.167 140.785C118.705 138.342 113.242 135.898 107.659 133.431C102.752 131.249 97.6764 128.995 92.5523 126.717L92.4315 126.67L92.3831 126.551C57.7471 54.5505 58.9556 52.7001 59.3423 52.0833C59.439 51.941 59.6082 51.8461 59.7774 51.8461L231.266 47.0776C235.544 47.0776 239 50.4701 239 54.6454V171.223C239 175.374 235.544 178.767 231.29 178.767ZM193.052 178.055H231.29C235.157 178.055 238.275 174.995 238.275 171.199V54.6454C238.275 50.8734 235.133 47.7893 231.29 47.7893L59.9466 52.5578C59.8741 53.4355 61.2276 58.0142 70.0981 77.5623C75.6089 89.7088 83.3193 106.078 93.0115 126.172C98.0873 128.426 103.115 130.679 107.973 132.838C113.556 135.329 119.019 137.749 124.481 140.192C125.714 140.738 126.947 141.307 128.179 141.853C132.361 143.703 136.663 145.625 140.845 147.689C149.957 152.173 160.688 157.558 171.033 163.679C176.326 166.81 180.967 169.776 185.197 172.741C186.333 173.548 187.517 174.331 188.653 175.09C190.128 176.039 191.602 177.035 193.052 178.055Z" fill="#261D3F"/>
<path d="M54.0732 47.481H227.785C231.628 47.481 234.722 50.5413 234.722 54.2896V171.175C234.722 174.947 231.604 177.984 227.785 177.984H54.0732C50.2301 177.984 47.1364 174.924 47.1364 171.175V54.3133C47.1364 50.5413 50.2543 47.481 54.0732 47.481Z" fill="white"/>
<path d="M59.1731 52.1543H222.782C226.383 52.1543 229.332 54.9774 229.332 58.4885V167.047C229.332 170.535 226.407 173.381 222.782 173.381H59.1731C55.5718 173.381 52.623 170.558 52.623 167.047V58.4885C52.623 54.9774 55.5476 52.1543 59.1731 52.1543Z" fill="#CADDFF"/>
<path d="M227.785 178.363H54.0732C50.0368 178.363 46.7738 175.137 46.7738 171.199V54.3132C46.7738 50.3514 50.061 47.1487 54.0732 47.1487L169.172 47.125C169.365 47.125 169.535 47.291 169.535 47.4808C169.535 47.6706 169.365 47.8367 169.172 47.8367H54.0732C50.4477 47.8367 47.4989 50.7309 47.4989 54.2895V171.175C47.4989 174.734 50.4477 177.628 54.0732 177.628H227.785C231.411 177.628 234.359 174.734 234.359 171.175V54.3132C234.359 50.7547 231.411 47.8604 227.785 47.8604L210.987 47.7181C210.793 47.7181 210.624 47.552 210.624 47.3622C210.624 47.1724 210.793 47.0063 210.987 47.0063L227.785 47.1487C231.821 47.1487 235.084 50.3751 235.084 54.3132V171.199C235.084 175.161 231.797 178.363 227.785 178.363Z" fill="#261D3F"/>
<path d="M229.066 62.7114L229.259 58.7496C229.259 55.2623 226.214 52.4629 222.588 52.4629H59.0523C55.4509 52.4629 52.478 55.2385 52.478 58.7496L52.2846 63.6129L229.066 62.7114Z" fill="#99B9FF"/>
<path d="M59.5598 59.9594C60.7212 59.9594 61.6627 59.0354 61.6627 57.8955C61.6627 56.7556 60.7212 55.8315 59.5598 55.8315C58.3985 55.8315 57.457 56.7556 57.457 57.8955C57.457 59.0354 58.3985 59.9594 59.5598 59.9594Z" fill="#CADDFF"/>
<path d="M66.255 59.8408C67.4164 59.8408 68.3578 58.9167 68.3578 57.7768C68.3578 56.637 67.4164 55.7129 66.255 55.7129C65.0937 55.7129 64.1522 56.637 64.1522 57.7768C64.1522 58.9167 65.0937 59.8408 66.255 59.8408Z" fill="#CADDFF"/>
<path d="M73.5061 60.1015C74.6674 60.1015 75.6089 59.1775 75.6089 58.0376C75.6089 56.8977 74.6674 55.9736 73.5061 55.9736C72.3447 55.9736 71.4033 56.8977 71.4033 58.0376C71.4033 59.1775 72.3447 60.1015 73.5061 60.1015Z" fill="#CADDFF"/>
<path d="M94.0992 99.7915H69.9772V105.794H94.0992V99.7915Z" fill="#99B9FF"/>
<path d="M194.648 100.052H108.916V106.054H194.648V100.052Z" fill="#99B9FF"/>
<path d="M93.8333 129.707H69.7114V135.709H93.8333V129.707Z" fill="#99B9FF"/>
<path d="M194.358 129.968H108.626V135.97H194.358V129.968Z" fill="#99B9FF"/>
<path d="M93.2774 159.076H69.1555V165.078H93.2774V159.076Z" fill="#99B9FF"/>
<path d="M193.802 159.337H108.07V165.339H193.802V159.337Z" fill="#99B9FF"/>
<path d="M131.249 110.206H108.795V116.208H131.249V110.206Z" fill="#99B9FF"/>
<path d="M214.177 110.467H134.367V116.469H214.177V110.467Z" fill="#99B9FF"/>
<path d="M130.983 120.075H108.529V126.077H130.983V120.075Z" fill="#99B9FF"/>
<path d="M213.911 120.359H134.101V126.361H213.911V120.359Z" fill="#99B9FF"/>
<path d="M94.0992 70.73H69.9772V76.732H94.0992V70.73Z" fill="#99B9FF"/>
<path d="M194.648 70.9907H108.916V76.9928H194.648V70.9907Z" fill="#99B9FF"/>
<path d="M131.273 81.1445H108.819V87.1466H131.273V81.1445Z" fill="#99B9FF"/>
<path d="M214.177 81.4058H134.367V87.4078H214.177V81.4058Z" fill="#99B9FF"/>
<path d="M130.983 91.0371H108.529V97.0392H130.983V91.0371Z" fill="#99B9FF"/>
<path d="M213.911 91.2983H134.101V97.3004H213.911V91.2983Z" fill="#99B9FF"/>
<path d="M130.983 139.836H108.529V145.838H130.983V139.836Z" fill="#99B9FF"/>
<path d="M213.911 140.121H134.101V146.123H213.911V140.121Z" fill="#99B9FF"/>
<path d="M130.693 149.729H108.239V155.732H130.693V149.729Z" fill="#99B9FF"/>
<path d="M213.621 149.99H133.811V155.992H213.621V149.99Z" fill="#99B9FF"/>
<path d="M93.6158 97.3953C101.679 97.3953 108.215 90.98 108.215 83.0663C108.215 75.1526 101.679 68.7373 93.6158 68.7373C85.5531 68.7373 79.017 75.1526 79.017 83.0663C79.017 90.98 85.5531 97.3953 93.6158 97.3953Z" fill="#3E80FA"/>
<path d="M93.6158 97.751C85.3738 97.751 78.6544 91.1559 78.6544 83.0662C78.6544 74.9765 85.3738 68.3813 93.6158 68.3813C101.858 68.3813 108.577 74.9765 108.577 83.0662C108.577 91.1559 101.882 97.751 93.6158 97.751ZM93.6158 69.0931C85.7605 69.0931 79.3795 75.3561 79.3795 83.0662C79.3795 90.7763 85.7605 97.0393 93.6158 97.0393C101.471 97.0393 107.852 90.7763 107.852 83.0662C107.852 75.3561 101.471 69.0931 93.6158 69.0931Z" fill="#261D3F"/>
<path d="M157.111 126.006C165.174 126.006 171.71 119.59 171.71 111.677C171.71 103.763 165.174 97.3477 157.111 97.3477C149.048 97.3477 142.512 103.763 142.512 111.677C142.512 119.59 149.048 126.006 157.111 126.006Z" fill="#3E80FA"/>
<path d="M157.111 126.361C148.869 126.361 142.15 119.766 142.15 111.677C142.15 103.587 148.869 96.9917 157.111 96.9917C165.353 96.9917 172.073 103.587 172.073 111.677C172.073 119.766 165.377 126.361 157.111 126.361ZM157.111 97.7034C149.256 97.7034 142.875 103.966 142.875 111.677C142.875 119.387 149.256 125.65 157.111 125.65C164.966 125.65 171.347 119.387 171.347 111.677C171.347 103.966 164.966 97.7034 157.111 97.7034Z" fill="#261D3F"/>
<path d="M132.361 98.2967C140.423 98.2967 146.96 91.8814 146.96 83.9677C146.96 76.054 140.423 69.6387 132.361 69.6387C124.298 69.6387 117.762 76.054 117.762 83.9677C117.762 91.8814 124.298 98.2967 132.361 98.2967Z" fill="white"/>
<path d="M132.361 98.6524C124.119 98.6524 117.399 92.0573 117.399 83.9676C117.399 75.8778 124.119 69.2827 132.361 69.2827C140.603 69.2827 147.322 75.8778 147.322 83.9676C147.322 92.081 140.627 98.6524 132.361 98.6524ZM132.361 69.9944C124.505 69.9944 118.124 76.2574 118.124 83.9676C118.124 91.6777 124.505 97.9407 132.361 97.9407C140.216 97.9407 146.597 91.6777 146.597 83.9676C146.597 76.2574 140.216 69.9944 132.361 69.9944Z" fill="#261D3F"/>
<path d="M221.066 68.476C221.042 68.3337 220.896 68.2388 220.751 68.2388L218.624 68.215C218.504 68.215 218.383 68.1439 218.334 68.0253C218.165 67.6457 217.972 67.2898 217.779 66.934C217.706 66.8391 217.73 66.6967 217.779 66.6018L219.011 64.8938C219.108 64.7751 219.084 64.6091 218.987 64.5142L217.73 63.1619C217.633 63.0433 217.464 63.0196 217.343 63.0908L215.482 64.1109C215.386 64.182 215.241 64.1583 215.144 64.0872C214.806 63.8499 214.467 63.6127 214.105 63.4229C214.008 63.3517 213.935 63.2568 213.935 63.1382L214.129 61.0505C214.153 60.9082 214.056 60.7659 213.911 60.7184L212.147 60.1491C212.002 60.1016 211.857 60.1728 211.784 60.2914L210.697 62.0944C210.624 62.1893 210.503 62.2604 210.382 62.2367C209.972 62.1893 209.561 62.1655 209.15 62.1655C209.029 62.1655 208.908 62.0944 208.86 61.9995L207.965 60.1016C207.893 59.9593 207.748 59.8881 207.603 59.9355L205.79 60.3151C205.645 60.3388 205.548 60.4575 205.548 60.6235L205.524 62.7112C205.524 62.8298 205.452 62.9484 205.331 62.9959C204.944 63.1619 204.582 63.3517 204.219 63.5415C204.122 63.6127 203.977 63.589 203.881 63.5415L202.14 62.3316C202.019 62.2367 201.85 62.2604 201.754 62.3553L200.376 63.589C200.255 63.6839 200.231 63.8499 200.303 63.9685L201.343 65.7952C201.415 65.8901 201.391 66.0325 201.319 66.1274C201.077 66.4595 200.835 66.7916 200.642 67.1475C200.569 67.2424 200.473 67.3135 200.352 67.3135L198.225 67.1238C198.08 67.1 197.935 67.1949 197.886 67.3373L197.306 69.0691C197.258 69.2114 197.33 69.3538 197.451 69.4249L199.288 70.4925C199.385 70.5637 199.457 70.6823 199.433 70.8009C199.385 71.2042 199.361 71.6075 199.361 72.0108C199.361 72.1294 199.288 72.248 199.192 72.2955L197.258 73.1733C197.113 73.2444 197.04 73.3868 197.089 73.5291L197.475 75.3321C197.5 75.4744 197.645 75.5693 197.79 75.5693L199.917 75.5931C200.038 75.5931 200.158 75.6642 200.207 75.7828C200.376 76.1624 200.569 76.5183 200.763 76.8741C200.835 76.969 200.811 77.1114 200.763 77.2063L199.53 78.9143C199.433 79.033 199.457 79.199 199.554 79.2939L200.811 80.6462C200.908 80.7648 201.077 80.7885 201.198 80.7173L203.059 79.6972C203.156 79.626 203.301 79.6498 203.397 79.7209C203.736 79.9582 204.074 80.1954 204.437 80.3852C204.533 80.4564 204.606 80.5513 204.606 80.6699L204.412 82.7576C204.388 82.8999 204.485 83.0422 204.63 83.0897L206.394 83.659C206.539 83.7065 206.684 83.6353 206.757 83.5167L207.845 81.7137C207.917 81.6188 208.038 81.5477 208.159 81.5714C208.57 81.6188 208.981 81.6425 209.391 81.6425C209.512 81.6425 209.633 81.7137 209.681 81.8086L210.576 83.7065C210.648 83.8488 210.793 83.92 210.938 83.8726L212.751 83.493C212.896 83.4693 212.993 83.3506 212.993 83.1846L213.017 81.0969C213.017 80.9783 213.089 80.8597 213.21 80.8122C213.597 80.6462 213.96 80.4564 214.322 80.2666C214.419 80.1954 214.564 80.2191 214.661 80.2666L216.401 81.4765C216.522 81.5714 216.691 81.5477 216.788 81.4528L218.165 80.2191C218.286 80.1242 218.31 79.9582 218.238 79.8396L217.198 78.0129C217.126 77.918 217.15 77.7756 217.223 77.6807C217.464 77.3486 217.706 77.0165 217.899 76.6606C217.972 76.5657 218.069 76.4945 218.189 76.4945L220.316 76.6843C220.461 76.7081 220.606 76.6132 220.655 76.4708L221.235 74.739C221.283 74.5967 221.211 74.4543 221.09 74.3832L219.253 73.3156C219.156 73.2444 219.084 73.1258 219.108 73.0072C219.156 72.6039 219.18 72.2006 219.18 71.7973C219.18 71.6787 219.253 71.5601 219.35 71.5126L221.283 70.6348C221.428 70.5637 221.501 70.4213 221.452 70.279L221.066 68.476ZM209.706 77.9891C206.273 78.2264 203.301 75.6879 203.059 72.3192C202.817 68.9505 205.403 66.0325 208.836 65.7952C212.268 65.558 215.241 68.0964 215.482 71.4652C215.748 74.8102 213.138 77.7519 209.706 77.9891Z" fill="white"/>
<path d="M210.842 84.2049C210.576 84.2049 210.334 84.0626 210.237 83.8253L209.367 81.9512C208.956 81.9512 208.545 81.9275 208.135 81.88L207.071 83.6593C206.902 83.9202 206.588 84.0389 206.273 83.944L204.509 83.3746C204.195 83.2797 204.026 82.995 204.05 82.6866L204.243 80.6227C203.881 80.4329 203.542 80.1956 203.204 79.9584L201.367 80.9785C201.077 81.1209 200.738 81.0734 200.521 80.8362L199.264 79.4839C199.047 79.2467 199.022 78.9146 199.216 78.6536L200.424 76.9692C200.207 76.6134 200.038 76.2575 199.868 75.9017L197.766 75.878C197.451 75.878 197.185 75.6645 197.113 75.356L196.726 73.5768C196.654 73.2684 196.823 72.96 197.113 72.8414L199.022 71.9873C199.022 71.584 199.047 71.1807 199.095 70.7774L197.282 69.7336C197.016 69.5675 196.895 69.2591 196.992 68.9507L197.572 67.2189C197.669 66.9105 197.959 66.7207 198.273 66.7681L200.352 66.9579C200.545 66.6021 200.787 66.2699 201.029 65.9378L199.989 64.1348C199.844 63.8739 199.893 63.518 200.134 63.3045L201.512 62.0709C201.754 61.8574 202.092 61.8336 202.358 62.0234L204.074 63.2096C204.412 63.0198 204.799 62.83 205.162 62.664L205.186 60.6C205.186 60.2916 205.403 60.0307 205.718 59.9595L207.53 59.5799C207.845 59.5087 208.159 59.6748 208.28 59.9595L209.15 61.8336C209.561 61.8336 209.972 61.8574 210.382 61.9048L211.446 60.1256C211.615 59.8646 211.929 59.746 212.244 59.8409L214.008 60.4102C214.322 60.5051 214.491 60.7898 214.467 61.0982L214.274 63.1622C214.636 63.352 214.975 63.5892 215.313 63.8264L217.15 62.8063C217.416 62.664 217.779 62.7114 217.996 62.9487L219.253 64.3009C219.47 64.5381 219.495 64.8703 219.301 65.1312L218.093 66.8156C218.31 67.1477 218.479 67.5273 218.649 67.8831L220.751 67.9069C221.066 67.9069 221.332 68.1204 221.404 68.4288L221.791 70.2318C221.863 70.5402 221.694 70.8486 221.404 70.9672L219.495 71.8212C219.495 72.2245 219.47 72.6278 219.422 73.0311L221.235 74.075C221.501 74.241 221.622 74.5494 221.525 74.8579L220.945 76.5897C220.848 76.8981 220.558 77.0879 220.244 77.0404L218.165 76.8506C217.972 77.2065 217.73 77.5386 217.488 77.8707L218.528 79.6737C218.673 79.9584 218.624 80.2905 218.383 80.504L217.005 81.7377C216.763 81.9512 216.425 81.9749 216.159 81.7851L214.443 80.5989C214.105 80.7887 213.718 80.9785 213.355 81.1446L213.331 83.2085C213.331 83.5169 213.114 83.7779 212.799 83.8491L210.987 84.2286C210.938 84.1812 210.89 84.2049 210.842 84.2049ZM209.391 81.2158C209.657 81.2158 209.899 81.3581 209.996 81.5953L210.866 83.4695L212.606 83.1136L212.63 81.0497C212.63 80.7887 212.799 80.5515 213.041 80.4566C213.404 80.2905 213.766 80.1245 214.105 79.9347C214.346 79.7923 214.612 79.8161 214.83 79.9584L216.546 81.1446L217.875 79.9584L216.86 78.1554C216.739 77.9182 216.739 77.6572 216.908 77.4437C217.15 77.1353 217.368 76.8032 217.561 76.4473C217.682 76.2101 217.948 76.0915 218.214 76.1152L220.292 76.305L220.848 74.6443L219.06 73.6005C218.842 73.4582 218.697 73.2209 218.745 72.96C218.794 72.5804 218.818 72.1771 218.794 71.7738C218.794 71.5128 218.939 71.2756 219.18 71.157L221.09 70.3029L220.727 68.5948L218.624 68.5711C218.359 68.5711 218.117 68.4051 218.02 68.1678C217.851 67.812 217.682 67.4561 217.488 67.124C217.343 66.9105 217.368 66.6258 217.513 66.4123L218.721 64.7279L217.513 63.4231L215.7 64.4195C215.458 64.5381 215.192 64.5381 214.975 64.3721C214.661 64.1348 214.322 63.9213 213.96 63.7315C213.718 63.6129 213.597 63.352 213.621 63.091L213.815 61.0508L212.123 60.5051L211.059 62.2607C210.914 62.4742 210.672 62.6165 210.407 62.5691C210.02 62.5216 209.609 62.4979 209.222 62.5216C208.956 62.5216 208.715 62.3793 208.618 62.1421L207.748 60.2679L206.008 60.6238L205.983 62.6877C205.983 62.9487 205.814 63.1859 205.573 63.2808C205.21 63.4468 204.847 63.6129 204.509 63.8027C204.267 63.945 204.001 63.9213 203.784 63.779L202.068 62.5928L200.738 63.779L201.754 65.582C201.874 65.8192 201.874 66.0802 201.705 66.2937C201.464 66.6021 201.246 66.9342 201.053 67.2901C200.932 67.5273 200.666 67.6459 200.4 67.6222L198.249 67.4324L197.693 69.093L199.482 70.1369C199.699 70.2792 199.844 70.5165 199.796 70.7774C199.748 71.157 199.723 71.5603 199.748 71.9636C199.748 72.2245 199.602 72.4618 199.361 72.5804L197.451 73.4344L197.814 75.1425L199.917 75.1663C200.183 75.1663 200.424 75.3323 200.521 75.5696C200.69 75.9254 200.859 76.2813 201.053 76.6134C201.198 76.8269 201.174 77.1116 201.029 77.3251L199.82 79.0095L201.029 80.3143L202.841 79.3179C203.083 79.1993 203.349 79.1993 203.566 79.3653C203.881 79.6026 204.219 79.8161 204.582 80.0059C204.823 80.1245 204.944 80.3854 204.92 80.6464L204.727 82.6866L206.418 83.2323L207.482 81.4767C207.627 81.2632 207.869 81.1209 208.135 81.1683C208.57 81.2158 208.981 81.2395 209.391 81.2158ZM209.271 78.3452C205.838 78.3452 202.938 75.7356 202.696 72.3194C202.43 68.7609 205.186 65.6531 208.811 65.4159C212.437 65.1549 215.603 67.8594 215.845 71.4179C216.111 74.9765 213.355 78.0842 209.73 78.3215C209.585 78.3452 209.416 78.3452 209.271 78.3452ZM209.681 77.6335L209.706 77.9894L209.681 77.6335C212.92 77.42 215.361 74.6443 215.12 71.4891C214.902 68.3102 212.074 65.9141 208.86 66.1513C205.621 66.3648 203.18 69.1405 203.421 72.2957C203.639 75.4509 206.443 77.847 209.681 77.6335Z" fill="#261D3F"/>
<path d="M206.926 43.4004L205.814 40.3164L202.213 40.7197C201.826 40.0554 201.391 39.4149 200.908 38.8455L202.6 35.6903L200.086 33.5552L197.161 35.6903C196.485 35.3107 195.808 34.9786 195.083 34.6939L194.962 31.1354L191.699 30.5186L190.249 33.7924C189.475 33.7924 188.702 33.8398 187.928 33.9585L185.995 30.9219L182.852 32.0131L183.263 35.5717C182.587 35.9512 181.934 36.3783 181.354 36.8527L178.139 35.1684L175.964 37.6356L178.139 40.5062C177.753 41.1704 177.414 41.8584 177.124 42.5464L173.499 42.665L172.87 45.8677L176.206 47.2911C176.206 48.0502 176.254 48.8094 176.375 49.5685L173.305 51.4664L174.417 54.5505L178.018 54.1472C178.405 54.8114 178.84 55.452 179.324 56.0213L177.632 59.1765L180.145 61.3117L183.07 59.1765C183.747 59.5561 184.424 59.8883 185.149 60.1729L185.27 63.7315L188.533 64.3483L189.983 61.0744C190.756 61.0744 191.53 61.027 192.303 60.9084L194.237 63.945L197.379 62.8537L196.968 59.2952C197.645 58.9156 198.297 58.4886 198.877 58.0141L202.092 59.6985L204.267 57.2312L202.092 54.3607C202.479 53.6964 202.817 53.0084 203.107 52.3205L206.733 52.2018L207.361 48.9992L204.026 47.5758C204.026 46.8166 203.977 46.0575 203.856 45.2983L206.926 43.4004ZM192.956 55.4045C188.484 56.9465 183.602 54.6216 182.031 50.2565C180.46 45.8677 182.804 41.0755 187.276 39.5335C191.747 37.9915 196.63 40.3164 198.201 44.6815C199.772 49.0703 197.427 53.8625 192.956 55.4045Z" fill="#3E80FA"/>
<path d="M188.557 64.7278C188.533 64.7278 188.508 64.7278 188.484 64.7278L185.221 64.1109C185.052 64.0872 184.931 63.9449 184.931 63.7788L184.81 60.4338C184.23 60.1966 183.65 59.9356 183.094 59.6272L180.363 61.62C180.218 61.7149 180.049 61.7149 179.904 61.5963L177.39 59.4611C177.269 59.3425 177.221 59.1765 177.317 59.0341L178.913 56.0924C178.526 55.6179 178.163 55.096 177.849 54.5504L174.465 54.9299C174.296 54.9537 174.127 54.8588 174.079 54.6927L172.967 51.6087C172.919 51.4426 172.967 51.2765 173.112 51.1816L175.988 49.4024C175.891 48.7856 175.843 48.1687 175.843 47.5519L172.725 46.2234C172.58 46.1523 172.483 45.9862 172.508 45.8201L173.136 42.6174C173.16 42.4514 173.305 42.3328 173.474 42.3328L176.858 42.2141C177.1 41.6448 177.366 41.0754 177.68 40.5298L175.65 37.849C175.553 37.7067 175.553 37.5406 175.674 37.3983L177.849 34.931C177.97 34.8124 178.139 34.765 178.284 34.8599L181.281 36.4256C181.765 36.046 182.297 35.6902 182.852 35.3818L182.466 32.0605C182.442 31.8944 182.538 31.7284 182.707 31.6809L185.85 30.5896C186.019 30.5422 186.188 30.5896 186.285 30.732L188.097 33.5551C188.726 33.4602 189.354 33.4127 189.983 33.4127L191.336 30.3524C191.409 30.2101 191.578 30.1152 191.747 30.1389L195.01 30.7557C195.179 30.7794 195.3 30.9218 195.3 31.0878L195.421 34.4328C196.001 34.6701 196.581 34.931 197.137 35.2394L199.868 33.2467C200.013 33.1518 200.183 33.1518 200.328 33.2704L202.841 35.4055C202.962 35.5241 203.01 35.6902 202.914 35.8325L201.319 38.7742C201.705 39.2487 202.068 39.7706 202.382 40.3163L205.766 39.9367C205.935 39.913 206.104 40.0079 206.153 40.1739L207.264 43.258C207.313 43.424 207.264 43.5901 207.119 43.685L204.243 45.4643C204.34 46.0811 204.388 46.6979 204.388 47.3147L207.506 48.6432C207.651 48.7144 207.748 48.8805 207.724 49.0465L207.095 52.2492C207.071 52.4153 206.926 52.5339 206.757 52.5339L203.373 52.6525C203.131 53.2219 202.865 53.7912 202.551 54.3369L204.582 57.0176C204.678 57.16 204.678 57.326 204.557 57.4684L202.382 59.9356C202.261 60.0542 202.092 60.1017 201.947 60.0068L198.95 58.441C198.466 58.8206 197.935 59.1765 197.379 59.4849L197.766 62.8062C197.79 62.9722 197.693 63.1383 197.524 63.1857L194.382 64.277C194.213 64.3245 194.043 64.277 193.947 64.1347L192.134 61.3116C191.505 61.4065 190.877 61.4539 190.249 61.4539L188.895 64.5142C188.847 64.6566 188.702 64.7278 188.557 64.7278ZM185.632 63.4704L188.339 63.9686L189.669 60.9557C189.717 60.8134 189.862 60.7422 190.007 60.7422C190.756 60.7422 191.505 60.6948 192.255 60.5761C192.4 60.5524 192.545 60.6236 192.617 60.7422L194.382 63.5179L196.968 62.6164L196.581 59.3425C196.557 59.2002 196.63 59.0578 196.775 58.9867C197.427 58.6071 198.056 58.2038 198.636 57.7293C198.757 57.6344 198.902 57.6344 199.047 57.6819L201.995 59.2239L203.784 57.1837L201.778 54.5504C201.681 54.4318 201.681 54.2894 201.754 54.1471C202.14 53.5065 202.455 52.8423 202.72 52.1543C202.769 52.012 202.89 51.9408 203.035 51.9171L206.37 51.7984L206.878 49.1414L203.808 47.8366C203.663 47.7892 203.591 47.6468 203.591 47.5045C203.591 46.7691 203.542 46.0336 203.421 45.2982C203.397 45.1559 203.47 45.0135 203.591 44.9424L206.419 43.2105L205.5 40.6721L202.237 41.0991C202.092 41.1229 201.947 41.0517 201.874 40.9094C201.488 40.2451 201.077 39.6283 200.593 39.0826C200.497 38.964 200.497 38.8217 200.545 38.7031L202.116 35.8088L200.038 34.0533L197.355 36.0223C197.234 36.1172 197.089 36.1172 196.944 36.046C196.291 35.6665 195.614 35.3581 194.913 35.0971C194.768 35.0497 194.696 34.931 194.672 34.7887L194.551 31.5149L191.844 31.0167L190.514 34.0295C190.466 34.1482 190.321 34.2431 190.176 34.2431C189.451 34.2431 188.678 34.2905 187.928 34.4091C187.783 34.4328 187.638 34.3617 187.566 34.2431L185.801 31.4674L183.215 32.3689L183.602 35.6427C183.626 35.7851 183.553 35.9274 183.408 35.9986C182.756 36.3782 182.127 36.7815 181.547 37.2559C181.426 37.3508 181.281 37.3508 181.136 37.3034L178.236 35.6427L176.447 37.683L178.453 40.3163C178.55 40.4349 178.55 40.5772 178.478 40.7196C178.091 41.3601 177.777 42.0244 177.511 42.7123C177.463 42.8547 177.342 42.9259 177.197 42.9496L173.861 43.0682L173.354 45.7252L176.423 47.03C176.568 47.0775 176.641 47.2198 176.641 47.3622C176.641 48.0976 176.689 48.833 176.81 49.5684C176.834 49.7108 176.762 49.8531 176.641 49.9243L173.813 51.6561L174.731 54.1945L178.043 53.8149C178.188 53.7912 178.333 53.8624 178.405 54.0047C178.792 54.669 179.203 55.2858 179.686 55.8314C179.783 55.9501 179.783 56.0924 179.735 56.211L178.163 59.1053L180.242 60.8608L182.925 58.8918C183.046 58.7969 183.191 58.7969 183.336 58.868C183.988 59.2476 184.665 59.556 185.366 59.817C185.511 59.8644 185.584 59.9831 185.608 60.1254L185.632 63.4704ZM190.104 56.2347C188.774 56.2347 187.469 55.9501 186.236 55.357C184.085 54.3369 182.466 52.5576 181.668 50.3513C180.049 45.7964 182.49 40.767 187.131 39.1775C189.378 38.3947 191.795 38.537 193.947 39.5571C196.098 40.5772 197.717 42.3565 198.515 44.5628C200.134 49.1177 197.693 54.1471 193.052 55.7365C192.11 56.0687 191.095 56.2347 190.104 56.2347ZM190.128 39.3911C189.209 39.3911 188.291 39.5334 187.396 39.8418C183.118 41.3127 180.871 45.915 182.369 50.1141C183.094 52.1543 184.593 53.7675 186.551 54.7164C188.532 55.6417 190.756 55.7603 192.811 55.0486C197.089 53.5777 199.337 48.9753 197.838 44.7763C197.113 42.7361 195.614 41.1229 193.657 40.1739C192.545 39.6757 191.336 39.3911 190.128 39.3911Z" fill="#261D3F"/>
<path d="M90.5703 188.706L56.7077 188.374C50.5927 188.374 45.3477 184.46 44.2842 178.482L38.4592 146.194C37.7582 142.351 40.7554 138.816 44.6951 138.816H66.7867L90.5703 188.706Z" fill="#99B9FF"/>
<path d="M91.1264 189.062L56.6838 188.73C50.2303 188.73 44.9612 184.531 43.8977 178.529L38.0969 146.242C37.7585 144.296 38.2902 142.303 39.5712 140.785C40.8523 139.291 42.7134 138.437 44.6712 138.437H67.0045L91.1264 189.062ZM44.6953 139.172C42.9309 139.172 41.2873 139.931 40.1272 141.26C38.967 142.612 38.4836 144.391 38.7978 146.123L44.5987 178.411C45.6138 184.057 50.5687 188.019 56.6838 188.019L89.9663 188.351L66.5453 139.172H44.6953Z" fill="#3E80FA"/>
<path d="M70.364 220.116H64.7806V188.303L70.364 188.469V220.116Z" fill="#99B9FF"/>
<path d="M70.7265 220.472H64.4181V187.947L70.7265 188.137V220.472ZM65.1432 219.76H70.0014V188.825L65.1432 188.683V219.76Z" fill="#3E80FA"/>
<path d="M80.733 217.009H55.6684C51.7529 217.009 48.5865 220.117 48.5865 223.96H87.8149C87.8149 220.117 84.6486 217.009 80.733 217.009Z" fill="#99B9FF"/>
<path d="M88.1775 224.292H48.224V223.936C48.224 219.903 51.5595 216.629 55.6684 216.629H80.733C84.842 216.629 88.1775 219.903 88.1775 223.936V224.292ZM48.9491 223.58H87.4282C87.2348 220.117 84.3102 217.341 80.7088 217.341H55.6684C52.0912 217.365 49.1425 220.117 48.9491 223.58Z" fill="#3E80FA"/>
<path d="M47.6197 164.105C47.4506 164.105 47.3055 163.987 47.2572 163.82L44.4534 148.139C44.4293 147.949 44.5501 147.76 44.7435 147.736C44.9368 147.712 45.1302 147.831 45.1544 148.021L47.9581 163.702C47.9823 163.892 47.8615 164.081 47.6681 164.105C47.6681 164.081 47.6439 164.105 47.6197 164.105Z" fill="#3E80FA"/>
<path d="M73.7236 128.639C73.7236 128.639 77.2042 124.487 80.7814 126.551C82.86 127.761 84.6728 129.801 87.5007 131.082C88.685 131.604 89.3618 131.723 89.3618 131.723C89.3618 131.723 87.404 132.885 81.7723 133.075C76.189 133.265 73.7236 128.639 73.7236 128.639Z" fill="#261D3F"/>
<path d="M83.6576 125.033C80.8055 124.582 79.0652 121.806 78.5335 120.264C78.1709 119.22 78.3643 118.651 78.461 118.414C78.8477 117.56 79.8145 117.251 80.2254 117.109C83.851 115.828 83.996 113.124 86.8239 112.839C89.1201 112.602 89.1684 114.357 92.9873 114.689C93.7608 114.76 94.9451 114.784 96.1295 115.543C96.7095 115.899 97.5072 116.421 97.628 117.109C97.7489 117.821 97.1688 118.888 89.7002 122.803C85.422 125.009 84.6244 125.175 83.6576 125.033Z" fill="#261D3F"/>
<path d="M91.1987 120.122C91.1987 120.122 87.0173 118.627 85.567 118.698C84.1168 118.793 84.1652 122.423 84.1652 122.423C84.1652 122.423 82.6666 120.762 81.7723 121.83C80.878 122.897 83.1983 124.107 83.1983 124.107L75.8506 130.702L82.6666 132.434L86.123 128.733C86.123 128.733 87.2831 130.038 88.3466 129.777C89.4101 129.516 90.9328 126.788 90.9328 126.788C91.5129 126.693 91.8755 126.147 91.7305 125.602L91.4646 124.629C91.2954 124.036 91.2954 123.396 91.4404 122.802C91.6338 121.996 91.5854 121.166 91.2954 120.383L91.1987 120.122Z" fill="white"/>
<path d="M82.6908 132.79C82.6666 132.79 82.6183 132.79 82.5941 132.79L75.7781 131.058C75.6572 131.035 75.5605 130.916 75.5122 130.797C75.488 130.679 75.5122 130.536 75.6089 130.442L82.5941 124.155C82.1107 123.846 81.3614 123.253 81.2164 122.565C81.1439 122.21 81.2406 121.877 81.4823 121.593C81.7481 121.284 82.0865 121.118 82.4491 121.095C82.9566 121.071 83.44 121.355 83.8026 121.616C83.8751 120.43 84.2135 118.414 85.5187 118.319C87.0414 118.224 91.1262 119.695 91.2954 119.766C91.3921 119.79 91.4646 119.885 91.5129 119.979L91.6096 120.24C91.9238 121.071 91.9963 121.996 91.7788 122.874C91.6338 123.419 91.6579 123.989 91.803 124.534L92.0688 125.507C92.1655 125.863 92.1172 126.243 91.8996 126.575C91.7305 126.836 91.4646 127.025 91.1745 127.12C90.7636 127.808 89.5068 129.872 88.4433 130.157C87.5248 130.394 86.6064 129.706 86.1471 129.279L82.9566 132.695C82.8841 132.766 82.7874 132.79 82.6908 132.79ZM76.624 130.536L82.5699 132.055L85.8812 128.52C85.9538 128.449 86.0504 128.401 86.1471 128.401C86.2438 128.401 86.3405 128.449 86.413 128.52C86.703 128.828 87.5732 129.635 88.2499 129.445C88.9025 129.279 90.0627 127.618 90.6186 126.622C90.667 126.527 90.7636 126.456 90.8845 126.432C91.0537 126.409 91.1987 126.314 91.2954 126.171C91.3921 126.029 91.4162 125.863 91.3679 125.697L91.102 124.724C90.9328 124.06 90.9087 123.372 91.0779 122.731C91.2712 121.996 91.2229 121.237 90.9328 120.525L90.8845 120.43C89.6276 119.979 86.6305 119.031 85.5429 119.078C84.6969 119.125 84.4794 121.355 84.4794 122.447C84.4794 122.589 84.3827 122.731 84.2377 122.779C84.0926 122.826 83.9235 122.803 83.8268 122.684C83.6334 122.47 82.9566 121.854 82.4491 121.854C82.4491 121.854 82.4491 121.854 82.4249 121.854C82.2557 121.854 82.1107 121.925 81.9898 122.091C81.8931 122.21 81.8448 122.352 81.869 122.47C81.9657 122.969 82.8116 123.562 83.295 123.823C83.3917 123.87 83.4642 123.989 83.4884 124.084C83.5126 124.202 83.4642 124.321 83.3675 124.392L76.624 130.536Z" fill="#261D3F"/>
<path d="M86.1471 129.113C86.0505 129.113 85.9538 129.066 85.8813 128.995C84.9145 127.903 84.7211 126.836 84.6969 126.788C84.6486 126.598 84.7936 126.409 84.987 126.361C85.1803 126.314 85.3737 126.456 85.422 126.646C85.422 126.67 85.6154 127.571 86.4372 128.52C86.558 128.662 86.558 128.9 86.3888 129.018C86.3163 129.066 86.2197 129.113 86.1471 129.113Z" fill="#261D3F"/>
<path d="M93.4949 213.545C93.9783 213.07 96.7579 204.554 96.7579 204.554L102.269 208.421L96.2262 216.392L93.4949 213.545Z" fill="white"/>
<path d="M96.2503 216.724C96.1537 216.724 96.057 216.677 95.9845 216.605L93.2532 213.782C93.1324 213.64 93.1324 213.426 93.2532 213.284C93.5674 212.857 95.1385 208.421 96.4437 204.435C96.4679 204.317 96.5646 204.245 96.6854 204.198C96.8063 204.151 96.9271 204.174 96.9996 204.245L102.51 208.112C102.583 208.16 102.631 208.255 102.655 208.35C102.68 208.445 102.655 208.539 102.583 208.611L96.5404 216.582C96.4679 216.677 96.3712 216.724 96.2503 216.724ZM93.9542 213.474L96.202 215.799L101.761 208.468L96.9755 205.123C96.2503 207.282 94.6309 212.169 93.9542 213.474Z" fill="#261D3F"/>
<path d="M103.429 224.292L99.7792 224.268C97.3622 224.244 95.1143 223.034 93.785 221.042L90.1594 215.419C89.1684 213.853 89.7243 211.813 91.3679 210.935C92.8907 210.153 94.4617 209.37 94.8243 209.417C95.5736 209.488 95.8878 212.976 95.8878 212.976L99.1508 213.094C99.1508 213.094 100.77 219.666 102.172 220.425C103.211 220.97 103.936 221.777 104.42 222.489C104.927 223.295 104.347 224.292 103.429 224.292Z" fill="#261D3F"/>
<path d="M103.066 223.248C103.042 223.248 103.042 223.248 103.018 223.248L98.0148 222.513C96.7821 222.323 95.6944 221.611 95.066 220.567L90.6428 213.308C90.5462 213.142 90.5945 212.928 90.7637 212.81C90.9329 212.715 91.1504 212.762 91.2713 212.928L95.6944 220.188C96.2262 221.065 97.1205 221.635 98.1356 221.801L103.139 222.536C103.332 222.56 103.477 222.75 103.453 222.94C103.381 223.129 103.236 223.248 103.066 223.248Z" fill="white"/>
<path d="M96.8788 217.791C96.7096 217.791 96.5646 217.696 96.5404 217.53C96.492 217.341 96.6129 217.151 96.8063 217.103L99.5858 216.368C99.7792 216.32 99.9726 216.439 100.021 216.629C100.069 216.819 99.9484 217.008 99.755 217.056L96.9754 217.791C96.9513 217.791 96.9029 217.791 96.8788 217.791Z" fill="white"/>
<path d="M98.329 219.191C98.1598 219.191 98.0147 219.073 97.9664 218.93C97.9181 218.74 98.0389 218.551 98.2323 218.503L100.093 218.052C100.287 218.005 100.48 218.124 100.528 218.313C100.577 218.503 100.456 218.693 100.263 218.74L98.4015 219.191C98.3773 219.191 98.3531 219.191 98.329 219.191Z" fill="white"/>
<path d="M112.299 211.908L118.68 218.219L122.064 216.985L116.191 208.943L112.299 211.908Z" fill="white"/>
<path d="M118.68 218.574C118.584 218.574 118.487 218.527 118.414 218.48L112.034 212.169C111.961 212.098 111.913 212.003 111.937 211.884C111.937 211.789 111.985 211.695 112.082 211.623L115.973 208.634C116.046 208.563 116.142 208.539 116.239 208.563C116.336 208.587 116.433 208.634 116.481 208.705L122.378 216.771C122.451 216.866 122.475 216.985 122.427 217.08C122.403 217.175 122.306 217.27 122.209 217.317L118.825 218.527C118.777 218.574 118.729 218.574 118.68 218.574ZM112.831 211.956L118.777 217.815L121.508 216.843L116.118 209.465L112.831 211.956Z" fill="#261D3F"/>
<path d="M116.674 217.222C116.674 217.222 116.36 219.903 116.892 222.275C117.182 223.533 118.342 224.434 119.647 224.434H135.334C136.446 224.434 136.953 223.058 136.107 222.347C133.328 220.045 128.179 216.558 121.871 215.514L120.106 217.934L116.674 217.222Z" fill="#261D3F"/>
<path d="M134.584 222.679H118.318C118.124 222.679 117.955 222.512 117.955 222.323C117.955 222.133 118.124 221.967 118.318 221.967H134.584C134.778 221.967 134.947 222.133 134.947 222.323C134.947 222.512 134.778 222.679 134.584 222.679Z" fill="white"/>
<path d="M125.496 219.832C125.448 219.832 125.4 219.832 125.351 219.808C125.158 219.737 125.086 219.524 125.158 219.334L126.028 217.294C126.101 217.104 126.318 217.033 126.512 217.104C126.705 217.175 126.777 217.388 126.705 217.578L125.835 219.618C125.786 219.761 125.641 219.832 125.496 219.832Z" fill="white"/>
<path d="M128.324 220.377C128.276 220.377 128.252 220.377 128.203 220.354C128.01 220.283 127.913 220.093 127.962 219.903L128.59 218.053C128.663 217.863 128.856 217.768 129.049 217.815C129.243 217.886 129.339 218.076 129.291 218.266L128.663 220.116C128.638 220.283 128.493 220.377 128.324 220.377Z" fill="white"/>
<path d="M78.461 167.806C78.461 167.806 107.683 164.461 116.36 171.839C125.037 179.217 102.655 210.959 102.655 210.959L95.5735 205.811L102.293 183.368L75.2705 175.848L78.461 167.806Z" fill="#261D3F"/>
<path d="M62.3878 182.42C66.6417 183.748 74.2312 185.456 84.842 185.314C87.8632 185.267 90.6428 186.903 92.0205 189.537C95.1627 195.586 101.979 206.475 113.049 213.545L118.342 210.746L104.831 180.901C103.598 178.173 101.302 176.062 98.4498 175.042L71.6692 165.41C71.6692 165.41 63.3787 163.132 59.294 170.416C58.5689 171.72 58.0613 172.883 57.7471 173.927C56.6352 177.485 58.7381 181.281 62.3878 182.42Z" fill="#261D3F"/>
<path d="M110.922 194.732C110.777 194.732 110.656 194.661 110.583 194.519L104.468 181.044C103.284 178.411 101.036 176.347 98.2806 175.374L85.4704 170.748C85.277 170.677 85.1803 170.487 85.2528 170.297C85.3253 170.107 85.5187 170.013 85.7121 170.084L98.5223 174.71C101.447 175.754 103.864 177.984 105.121 180.759L111.236 194.258C111.308 194.448 111.236 194.638 111.043 194.732C111.018 194.732 110.97 194.732 110.922 194.732Z" fill="white"/>
<path d="M103.791 206.333C103.695 206.333 103.598 206.285 103.526 206.214C102.293 204.957 101.084 203.605 99.9242 202.205C99.8033 202.063 99.8275 201.825 99.9725 201.707C100.118 201.588 100.359 201.612 100.48 201.754C101.616 203.154 102.825 204.482 104.033 205.716C104.178 205.858 104.178 206.072 104.033 206.214C103.961 206.285 103.888 206.333 103.791 206.333Z" fill="white"/>
<path d="M100.214 202.347C100.118 202.347 99.9967 202.3 99.9242 202.205C99.3683 201.517 98.7882 200.805 98.2323 200.07C98.1114 199.904 98.1356 199.69 98.3048 199.572C98.474 199.453 98.6915 199.477 98.8124 199.643C99.3683 200.355 99.9242 201.066 100.48 201.754C100.601 201.897 100.577 202.134 100.432 202.252C100.359 202.324 100.287 202.347 100.214 202.347Z" fill="white"/>
<path d="M116.602 122.613C116.747 122.328 117.472 121.474 117.81 121.237L121.315 118.034C121.315 118.034 121.774 119.576 121.218 120.478C122.306 120.501 123.152 120.691 123.152 120.691C123.152 120.691 124.747 119.315 125.158 119.054C125.569 118.817 126.076 118.437 126.608 118.437C127.14 118.437 127.672 118.841 127.672 118.841L124.602 122.708L118.994 124.226L117.834 133.692L115.272 130.323L116.602 122.613Z" fill="white"/>
<path d="M117.834 134.048C117.713 134.048 117.617 134 117.544 133.905L114.982 130.537C114.934 130.465 114.91 130.37 114.91 130.276L116.239 122.565C116.239 122.542 116.263 122.494 116.263 122.471C116.432 122.138 117.182 121.261 117.568 120.976L121.073 117.797C121.17 117.702 121.291 117.678 121.412 117.726C121.532 117.75 121.629 117.844 121.653 117.963C121.677 118.011 122.016 119.197 121.726 120.193C122.306 120.241 122.765 120.312 123.031 120.359C123.442 120.003 124.602 119.031 124.94 118.817C124.989 118.793 125.061 118.746 125.11 118.722C125.52 118.461 126.028 118.153 126.584 118.153C127.237 118.153 127.817 118.58 127.865 118.627C127.938 118.675 127.986 118.77 128.01 118.865C128.01 118.959 127.986 119.054 127.938 119.126L124.844 122.969C124.795 123.04 124.723 123.064 124.65 123.087L119.285 124.535L118.149 133.763C118.124 133.905 118.028 134.024 117.883 134.071C117.883 134.048 117.858 134.048 117.834 134.048ZM115.659 130.252L117.568 132.767L118.632 124.179C118.656 124.036 118.753 123.918 118.898 123.87L124.384 122.376L127.14 118.959C126.971 118.888 126.777 118.817 126.608 118.817C126.246 118.817 125.859 119.054 125.52 119.268C125.448 119.315 125.4 119.339 125.351 119.387C125.085 119.553 124.046 120.43 123.393 120.976C123.297 121.047 123.2 121.071 123.079 121.047C123.079 121.047 122.233 120.881 121.218 120.834C121.097 120.834 120.976 120.762 120.904 120.644C120.831 120.525 120.856 120.407 120.904 120.288C121.17 119.861 121.146 119.22 121.097 118.722L118.052 121.498L118.028 121.522C117.762 121.711 117.109 122.447 116.94 122.732L115.659 130.252Z" fill="#261D3F"/>
<path d="M87.9841 132.743C87.9841 132.743 93.6882 138.247 104.517 136.99C115.345 135.756 115.659 124.653 115.659 124.653H119.212C119.212 124.653 124.457 144.035 105.725 150.132C86.9931 156.229 80.878 145.53 80.878 145.53L87.9841 132.743Z" fill="#3E80FA"/>
<path d="M72.9018 177.722C72.9018 177.722 61.3726 182.23 54.895 177.888C46.7012 172.385 50.9794 156.727 53.8798 150.132C56.466 144.296 60.4058 140.216 66.1825 134.19C67.8261 132.482 68.8412 131.58 70.3639 130.868C76.4065 128.022 83.7301 131.248 87.3315 132.838C90.0627 134.047 92.1655 135.376 93.5674 136.372C93.5674 136.372 82.014 150.369 82.2315 158.862C82.4732 167.355 86.0263 166.999 86.0263 166.999C86.0263 166.999 81.1439 174.733 72.9018 177.722Z" fill="#3E80FA"/>
<path d="M82.4732 138.057C82.8116 140.595 83.5851 143.798 85.4462 147.095C91.3921 157.629 103.356 160.167 105.725 160.618L103.356 163.204C103.356 163.204 77.9776 167.284 70.6056 144.533C70.6056 144.533 67.8019 136.04 74.0378 133.929C75.343 133.502 77.0349 133.241 78.6543 133.858C81.4823 134.925 82.3766 137.677 82.4732 138.057Z" fill="#3E80FA"/>
<path d="M103.115 162.705C103.308 162.587 105.072 159.906 107.03 159.337C108.988 158.767 113.218 162.966 113.218 162.966L103.115 162.705Z" fill="white"/>
<path d="M113.194 163.323L103.09 163.062C102.921 163.062 102.8 162.943 102.752 162.801C102.704 162.658 102.776 162.516 102.873 162.421C102.921 162.374 103.018 162.231 103.115 162.113C103.743 161.33 105.242 159.456 106.885 158.981C108.988 158.364 112.976 162.255 113.435 162.706C113.532 162.801 113.58 162.967 113.508 163.109C113.484 163.228 113.339 163.323 113.194 163.323ZM103.864 162.35L112.275 162.563C110.632 161.069 108.239 159.337 107.127 159.645C105.822 160.049 104.517 161.543 103.864 162.35Z" fill="#261D3F"/>
<path d="M65.7957 134.641C65.7957 134.641 62.146 128.211 75.2705 127.452C77.4458 127.334 78.1467 127.618 81.1922 129.326C87.7665 133.004 89.3859 131.746 89.3859 131.746L87.984 136.183L65.7957 134.641Z" fill="#3E80FA"/>
<path d="M67.391 133.882C67.3426 133.882 67.2701 133.858 67.2218 133.834C67.0526 133.739 66.9801 133.526 67.0768 133.36C67.1009 133.289 70.7265 126.978 78.3884 130.086C78.5818 130.157 78.6543 130.371 78.5818 130.56C78.5093 130.75 78.2918 130.821 78.0984 130.75C71.0407 127.903 67.826 133.455 67.7052 133.692C67.6327 133.811 67.5118 133.882 67.391 133.882Z" fill="#261D3F"/>
<path d="M82.2557 159.218C82.1832 159.218 82.1107 159.195 82.0382 159.147C81.5789 158.815 71.0407 151.176 69.4696 142.659C69.4454 142.469 69.5663 142.28 69.7597 142.256C69.953 142.232 70.1464 142.351 70.1706 142.541C71.6933 150.773 82.3524 158.507 82.4732 158.578C82.6424 158.696 82.6666 158.91 82.5457 159.076C82.4732 159.171 82.3524 159.218 82.2557 159.218Z" fill="#261D3F"/>
<path d="M86.7514 150.037C86.6547 150.037 86.5822 150.014 86.5097 149.943C86.3646 149.8 86.3405 149.587 86.4855 149.444C90.2561 145.316 89.5793 139.48 89.5551 139.409C89.5309 139.22 89.676 139.03 89.8693 139.006C90.0627 138.982 90.2561 139.125 90.2802 139.314C90.3044 139.575 91.0053 145.53 87.0172 149.895C86.9447 150.014 86.848 150.037 86.7514 150.037Z" fill="#261D3F"/>
<path d="M86.1471 148.875C86.0263 148.875 85.8813 148.804 85.8329 148.685L82.2315 141.615C82.1349 141.449 82.2074 141.236 82.4007 141.141C82.5699 141.046 82.7875 141.117 82.8841 141.307L86.4855 148.377C86.5822 148.543 86.5097 148.756 86.3163 148.851C86.268 148.851 86.1955 148.875 86.1471 148.875Z" fill="#261D3F"/>
<path d="M62.2911 180.142C59.6082 180.142 56.9011 179.644 54.7016 178.173C51.0519 175.73 49.3841 170.961 49.8675 164.39C50.2784 159.029 52.0429 153.43 53.5656 149.99C56.1035 144.249 59.9949 140.168 65.3849 134.57C65.119 134 64.9981 133.051 64.9981 132.885C64.9256 130.94 66.1583 127.619 75.2705 127.073C77.5183 126.931 78.2434 127.239 81.3614 128.995C87.4765 132.434 89.1442 131.438 89.1684 131.438C89.2893 131.343 89.4585 131.343 89.6035 131.438C89.7243 131.533 89.7968 131.699 89.7485 131.841L89.2893 133.312C89.4343 133.407 89.5793 133.526 89.7485 133.644C90.4011 134 91.0053 134.356 91.6096 134.712C94.2442 135.993 98.619 137.393 104.492 136.728C108.843 136.23 111.985 134.095 113.822 130.347C115.224 127.547 115.321 124.843 115.321 124.819C115.321 124.629 115.49 124.463 115.683 124.463H119.212C119.381 124.463 119.526 124.582 119.55 124.724C119.599 124.914 120.88 129.683 119.84 135.305C118.874 140.5 115.683 147.357 105.822 150.583L105.701 150.251L105.822 150.583C99.5375 152.623 94.0025 153.003 89.2893 151.722C94.9693 157.653 102.631 159.693 105.773 160.31C105.894 160.333 106.015 160.428 106.039 160.547C106.088 160.665 106.063 160.808 105.967 160.903L103.598 163.489C103.55 163.56 103.477 163.583 103.381 163.607C103.26 163.631 92.2139 165.315 82.6183 160.096C82.8841 163.821 83.8751 165.434 84.6727 166.146C85.3495 166.739 85.9296 166.715 85.9538 166.691C86.0988 166.691 86.2196 166.739 86.2921 166.857C86.3647 166.976 86.3647 167.118 86.2921 167.237C86.2438 167.308 81.2164 175.113 72.9743 178.102C72.7326 178.173 67.6085 180.142 62.2911 180.142ZM76.1165 127.761C75.8748 127.761 75.6089 127.761 75.3188 127.785C70.3639 128.069 67.1976 129.232 66.1341 131.153C65.2157 132.767 66.1583 134.451 66.1583 134.451C66.2308 134.593 66.2066 134.759 66.11 134.878C60.6717 140.524 56.7561 144.605 54.2424 150.275C51.7045 156.016 46.9188 172.1 55.1125 177.58C61.3726 181.779 72.6601 177.438 72.781 177.391C79.6453 174.9 84.2135 168.969 85.422 167.261C85.1078 167.166 84.6969 167 84.286 166.644C82.8841 165.458 82.0865 163.014 81.9173 159.432C81.9173 159.313 81.9898 159.171 82.0865 159.1C82.2074 159.029 82.3524 159.029 82.4491 159.1C91.4162 164.271 101.93 163.038 103.187 162.848L105.048 160.832C101.326 160.025 93.4465 157.653 87.8874 151.176C87.7907 151.057 87.7665 150.868 87.8632 150.749C87.9599 150.607 88.1291 150.559 88.2741 150.607C93.084 152.291 98.909 152.054 105.604 149.871C113.242 147.38 117.786 142.422 119.14 135.163C120.01 130.442 119.164 126.243 118.922 125.175H115.997C115.828 127.097 114.475 136.301 104.565 137.416C98.5223 138.104 94.0025 136.657 91.2712 135.329C91.2712 135.329 91.2471 135.329 91.2471 135.305C90.6428 134.949 90.0385 134.593 89.3859 134.237C89.3859 134.237 89.3618 134.237 89.3618 134.214C89.0959 134.048 88.8542 133.882 88.6608 133.716L88.6367 133.692C88.5158 133.597 88.4675 133.455 88.5158 133.312L88.8542 132.245C87.8149 132.387 85.5187 132.126 81.023 129.588C78.3885 128.141 77.615 127.761 76.1165 127.761Z" fill="#261D3F"/>
<path d="M138.21 162.255H116.723L132.651 138.199C133.158 137.44 134.004 136.989 134.947 136.989H152.398C153.51 136.989 154.186 138.152 153.582 139.053L138.21 162.255Z" fill="#261D3F"/>
<path d="M142.802 145.435C142.101 146.479 140.603 147.333 139.443 147.333C138.282 147.333 137.92 146.479 138.621 145.435C139.322 144.391 140.82 143.537 141.98 143.537C143.141 143.537 143.503 144.391 142.802 145.435Z" fill="white"/>
<path d="M136.59 164.271H99.7791C98.8365 164.271 98.063 163.512 98.063 162.587V162.089H138.307V162.587C138.307 163.512 137.533 164.271 136.59 164.271Z" fill="#261D3F"/>
<path d="M137.098 162.635H118.632C118.439 162.635 118.269 162.468 118.269 162.279C118.269 162.089 118.439 161.923 118.632 161.923H137.098C137.291 161.923 137.461 162.089 137.461 162.279C137.461 162.468 137.291 162.635 137.098 162.635Z" fill="white"/>
<path d="M147.685 164.295H67.0768C65.5783 164.295 64.4181 165.837 64.5873 167.592L70.1464 225.288H74.1587L70.6782 171.127C70.6057 170.178 71.2583 169.348 72.0559 169.348H141.255C142.464 169.348 143.431 170.558 143.334 172.005L139.878 225.62H143.89L149.546 166.762C149.691 165.457 148.821 164.295 147.685 164.295Z" fill="white"/>
<path d="M143.914 226H139.902C139.805 226 139.708 225.952 139.636 225.881C139.563 225.81 139.539 225.715 139.539 225.62L142.996 172.005C143.044 171.317 142.826 170.677 142.391 170.25C142.077 169.917 141.69 169.751 141.28 169.751H72.0559C71.7417 169.751 71.5241 169.917 71.4033 170.06C71.1374 170.321 71.0166 170.748 71.0407 171.151L74.5213 225.312C74.5213 225.407 74.4971 225.502 74.4246 225.573C74.3521 225.644 74.2554 225.691 74.1587 225.691H70.1464C69.9531 225.691 69.8081 225.549 69.7839 225.359L64.2247 167.664C64.128 166.596 64.4423 165.576 65.119 164.864C65.6508 164.295 66.3517 163.963 67.0768 163.963H147.709C148.289 163.963 148.845 164.224 149.256 164.675C149.787 165.244 150.029 166.027 149.957 166.857L144.301 225.715C144.252 225.858 144.107 226 143.914 226ZM140.289 225.288H143.6L149.232 166.762C149.28 166.145 149.087 165.529 148.724 165.125C148.434 164.817 148.096 164.651 147.709 164.651H67.0768C66.5451 164.651 66.0375 164.888 65.6508 165.315C65.119 165.884 64.8531 166.739 64.9498 167.569L70.4607 224.956H73.772L70.3156 171.175C70.2673 170.558 70.4848 169.965 70.8715 169.562C71.1858 169.23 71.6208 169.04 72.0559 169.04H141.255C141.86 169.04 142.44 169.301 142.899 169.775C143.455 170.368 143.745 171.199 143.697 172.076L140.289 225.288Z" fill="#261D3F"/>
<path d="M113.774 45.2269C113.629 45.2269 113.508 45.1557 113.435 45.0134C113.339 44.8473 113.435 44.6338 113.605 44.5389C129.46 37.1135 149.957 34.6462 163.202 35.5003C163.395 35.524 163.565 35.69 163.54 35.8798C163.516 36.0696 163.347 36.212 163.154 36.212C149.981 35.3579 129.654 37.8252 113.919 45.2032C113.895 45.2032 113.846 45.2269 113.774 45.2269Z" fill="#261D3F"/>
<path d="M116.577 40.6246C116.432 40.6246 116.312 40.5535 116.263 40.4348C116.167 40.2688 116.239 40.0553 116.432 39.9604C127.672 34.5514 141.352 32.9145 146.21 32.9619C146.404 32.9619 146.573 33.128 146.573 33.3178C146.573 33.5076 146.404 33.6736 146.21 33.6736C141.4 33.6262 127.889 35.2394 116.747 40.6009C116.698 40.6246 116.65 40.6246 116.577 40.6246Z" fill="#261D3F"/>
<path d="M176.085 196.299C175.964 196.299 175.867 196.251 175.795 196.156C175.674 195.99 175.722 195.777 175.891 195.658C182.248 191.364 187.735 186.738 192.158 181.922C192.303 181.78 192.521 181.756 192.666 181.898C192.811 182.041 192.835 182.254 192.69 182.397C188.242 187.236 182.707 191.91 176.302 196.227C176.23 196.275 176.157 196.299 176.085 196.299Z" fill="#261D3F"/>
<path d="M163.009 208.824C162.864 208.824 162.719 208.73 162.67 208.587C162.598 208.397 162.719 208.208 162.912 208.136C169.148 206.191 184.085 198.505 192.037 188.826C192.158 188.683 192.4 188.659 192.545 188.778C192.69 188.897 192.714 189.134 192.593 189.276C184.061 199.643 168.785 207.021 163.129 208.801C163.081 208.824 163.033 208.824 163.009 208.824Z" fill="#261D3F"/>
<path d="M159.431 201.684C159.407 201.684 159.383 201.684 159.359 201.684C159.166 201.636 159.045 201.446 159.069 201.257L159.407 199.667C159.456 199.477 159.649 199.359 159.842 199.382C160.036 199.43 160.157 199.62 160.132 199.809L159.794 201.399C159.746 201.565 159.601 201.684 159.431 201.684Z" fill="#261D3F"/>
<path d="M158.295 207.235C158.271 207.235 158.247 207.235 158.223 207.235C158.03 207.187 157.909 206.998 157.933 206.808L158.271 205.218C158.32 205.029 158.513 204.91 158.706 204.934C158.9 204.981 159.021 205.171 158.996 205.361L158.658 206.95C158.61 207.116 158.465 207.235 158.295 207.235Z" fill="#261D3F"/>
<path d="M157.039 203.225C157.014 203.225 156.99 203.225 156.966 203.225L155.371 202.893C155.177 202.846 155.057 202.656 155.105 202.466C155.153 202.276 155.347 202.158 155.54 202.205L157.135 202.537C157.329 202.585 157.449 202.775 157.401 202.964C157.353 203.131 157.208 203.225 157.039 203.225Z" fill="#261D3F"/>
<path d="M162.598 204.435C162.574 204.435 162.549 204.435 162.525 204.435L160.93 204.103C160.737 204.056 160.616 203.866 160.664 203.676C160.712 203.486 160.906 203.368 161.099 203.415L162.694 203.747C162.888 203.795 163.009 203.985 162.96 204.174C162.912 204.317 162.767 204.435 162.598 204.435Z" fill="#261D3F"/>
<path d="M170.477 201.304C170.211 201.304 169.945 201.257 169.68 201.162C169.124 200.948 168.664 200.521 168.423 199.952C167.915 198.813 168.447 197.484 169.583 196.986C170.139 196.749 170.743 196.725 171.299 196.939C171.855 197.152 172.314 197.579 172.556 198.149C173.063 199.287 172.532 200.616 171.396 201.114C171.106 201.233 170.791 201.304 170.477 201.304ZM169.873 197.627C169.1 197.959 168.737 198.884 169.1 199.667C169.269 200.047 169.559 200.331 169.946 200.474C170.332 200.616 170.719 200.616 171.106 200.45C171.879 200.118 172.242 199.193 171.879 198.41C171.71 198.03 171.42 197.745 171.033 197.603C170.646 197.461 170.236 197.461 169.873 197.627Z" fill="#261D3F"/>
</g>
<ellipse cx="18.4407" cy="261.542" rx="4.33705" ry="4.08181" fill="#3E80FA"/>
<ellipse cx="278.663" cy="197.764" rx="4.33705" ry="4.08181" fill="#3E80FA"/>
<ellipse cx="55.3062" cy="0.306424" rx="4.33705" ry="4.08181" fill="white"/>
<path d="M260.78 34.268C258.908 35.7605 256.673 36.5606 254.263 36.6828C253.457 36.7529 252.756 36.1669 252.732 35.368C252.657 34.6095 253.28 33.9495 254.129 33.9271C255.877 33.8419 257.578 33.2216 258.944 32.1325C259.298 31.8501 259.559 31.5605 259.871 31.2305C260.392 30.6512 261.291 30.5885 261.907 31.0792C262.522 31.5699 262.589 32.4164 262.068 32.9957C261.647 33.4943 261.235 33.905 260.78 34.268Z" fill="#3E80FA"/>
<path d="M22.5929 90.1413C24.6551 91.3922 26.119 93.1712 26.945 95.3056C27.2509 96.0109 26.8595 96.8129 26.0544 97.067C25.305 97.3549 24.4529 96.9865 24.1829 96.2287C23.5872 94.6795 22.4614 93.3284 20.9565 92.4155C20.5664 92.1789 20.196 92.0285 19.77 91.8443C19.0293 91.5435 18.7036 90.7519 19.0232 90.0548C19.3428 89.3578 20.1838 89.0512 20.9245 89.352C21.5537 89.5852 22.0912 89.837 22.5929 90.1413Z" fill="#3E80FA"/>
<path d="M251.915 262.088C253.977 263.338 255.441 265.117 256.267 267.252C256.573 267.957 256.182 268.759 255.376 269.013C254.627 269.301 253.775 268.933 253.505 268.175C252.909 266.626 251.783 265.275 250.279 264.362C249.888 264.125 249.518 263.975 249.092 263.791C248.351 263.49 248.026 262.698 248.345 262.001C248.665 261.304 249.506 260.998 250.247 261.298C250.876 261.531 251.413 261.783 251.915 262.088Z" fill="white"/>
</g>
<defs>
<clipPath id="clip0_5451_6040">
<rect width="296" height="267" fill="white"/>
</clipPath>
<clipPath id="clip1_5451_6040">
<rect width="201" height="197" fill="white" transform="translate(38 29)"/>
</clipPath>
</defs>
</svg>
