<svg width="305" height="275" viewBox="0 0 305 275" fill="none" xmlns="http://www.w3.org/2000/svg">
<g clip-path="url(#clip0_5410_5174)">
<path opacity="0.05" d="M8.42978 133.653C4.1726 153.091 14.0098 170.253 20.2912 181.233C45.0851 224.479 103.54 260.566 167.663 255.117C182.673 253.831 258.324 245.175 285.697 183.046C309.903 128.155 280.66 67.2256 242.046 35.7999C210.054 9.79294 156.88 -7.9399 120.405 10.9783C97.4743 22.8908 105.238 36.7822 67.6131 73.3876C35.0747 105.097 13.6486 109.898 8.42978 133.653Z" fill="white"/>
<path opacity="0.1" d="M67.2291 253.376C80.4765 267.353 99.7124 269.276 112.013 270.516C160.488 275.359 221.882 250.463 253.066 198.327C260.357 186.117 295.358 123.38 260.649 68.1576C229.996 19.3505 164.854 8.16887 118.206 20.4317C79.5813 30.6081 35.8547 61.5751 30.8185 99.9519C27.6678 124.089 43.1278 125.798 51.6567 174.806C59.0744 217.218 51.0482 236.282 67.2291 253.376Z" fill="white"/>
<path d="M52.4946 203.569C58.682 218.229 73.1024 225.176 82.3204 229.625C118.662 247.128 173.869 245.077 213.594 213.21C222.888 205.744 268.725 166.684 258.017 113.755C248.572 66.9813 201.118 39.8121 161.14 36.178C128.031 33.1867 84.7954 44.979 69.5163 73.5078C59.9195 91.4558 71.4609 97.1665 63.6067 137.834C56.8384 173.037 44.9434 185.646 52.4946 203.569Z" fill="white"/>
<path d="M112.899 67.8095L235.028 67.4897C237.75 67.4897 239.914 69.3626 239.658 71.5553L232.515 183.312C232.306 185.23 230.282 186.715 227.885 186.715H222.534L221.417 186.144L68.0168 186.692C65.2945 186.692 63.1074 184.614 63.3633 182.421L70.5064 71.1898C70.7158 69.2713 72.6469 67.5811 75.0667 67.5811L112.899 67.8095Z" fill="#3E80FA"/>
<path d="M107.78 67.4209H229.583C232.306 67.4209 234.446 69.3166 234.214 71.5093L227.117 183.266C226.908 185.207 224.907 186.692 222.487 186.692H63.0143C60.292 186.692 58.1514 184.796 58.3841 182.604L65.4806 70.8469C65.69 68.9055 67.6909 67.4209 70.1107 67.4209H107.78Z" fill="#99B9FF"/>
<path d="M110.177 72.4458H223.534C226.07 72.4458 228.071 74.1816 227.838 76.1687L221.231 178.31C221.021 180.068 219.16 181.439 216.926 181.439H68.5286C65.9925 181.439 63.9915 179.703 64.2242 177.716L70.832 75.5749C71.0415 73.8162 72.9028 72.4458 75.1365 72.4458H110.177Z" fill="#CADDFF"/>
<path d="M75.2763 187.034H63.0145C61.4323 187.034 59.9665 186.441 59.0126 185.39C58.268 184.591 57.919 183.586 58.0353 182.558L65.1318 70.8012C65.3412 68.9055 67.0863 67.3752 69.3664 67.1011C69.5526 67.0783 69.7387 67.2153 69.762 67.398C69.7852 67.5808 69.6456 67.7635 69.4595 67.7863C67.5051 68.0147 66.016 69.2938 65.8298 70.8697L58.7566 182.626C58.6636 183.449 58.9428 184.271 59.5477 184.933C60.3621 185.824 61.6417 186.349 63.0145 186.349H75.253C75.4391 186.349 75.602 186.509 75.602 186.692C75.6253 186.897 75.4624 187.034 75.2763 187.034Z" fill="#261D3F"/>
<path d="M131.257 187.035H114.202C114.016 187.035 113.853 186.875 113.853 186.692C113.853 186.509 114.016 186.35 114.202 186.35H131.257C131.443 186.35 131.606 186.509 131.606 186.692C131.606 186.898 131.443 187.035 131.257 187.035Z" fill="#261D3F"/>
<path d="M231.631 112.325C231.421 112.302 231.259 112.142 231.282 111.959L233.84 71.4865C233.863 71.3038 234.026 71.1439 234.212 71.1667C234.398 71.1896 234.561 71.3495 234.538 71.5322L231.98 112.005C231.98 112.188 231.817 112.325 231.631 112.325Z" fill="#261D3F"/>
<path d="M159.503 67.7633H128.046C127.86 67.7633 127.697 67.6034 127.697 67.4207C127.697 67.238 127.86 67.0781 128.046 67.0781H159.503C159.689 67.0781 159.852 67.238 159.852 67.4207C159.852 67.6263 159.689 67.7633 159.503 67.7633Z" fill="#261D3F"/>
<path d="M219.811 149.12H198.336C197.428 149.12 196.707 148.366 196.754 147.475C196.8 146.653 197.498 146.014 198.336 146.014H219.811C220.719 146.014 221.44 146.767 221.393 147.658C221.347 148.48 220.649 149.12 219.811 149.12Z" fill="#CADDFF"/>
<path d="M157.711 149.12H148.428C147.52 149.12 146.799 148.366 146.846 147.475C146.892 146.653 147.59 146.014 148.428 146.014H157.711C158.619 146.014 159.34 146.767 159.294 147.658C159.247 148.48 158.549 149.12 157.711 149.12Z" fill="#CADDFF"/>
<path d="M218.439 168.397H209.155C208.248 168.397 207.526 167.644 207.573 166.753C207.619 165.931 208.317 165.291 209.155 165.291H218.439C219.346 165.291 220.067 166.045 220.021 166.936C219.974 167.758 219.276 168.397 218.439 168.397Z" fill="#CADDFF"/>
<path d="M219.369 155.447H191.193C190.286 155.447 189.564 154.693 189.611 153.802C189.657 152.98 190.355 152.34 191.193 152.34H219.369C220.277 152.34 220.998 153.094 220.952 153.985C220.905 154.807 220.207 155.447 219.369 155.447Z" fill="#CADDFF"/>
<path d="M218.951 161.773H190.774C189.867 161.773 189.145 161.02 189.192 160.129C189.239 159.307 189.937 158.667 190.774 158.667H218.951C219.858 158.667 220.579 159.421 220.533 160.311C220.486 161.134 219.788 161.773 218.951 161.773Z" fill="#CADDFF"/>
<path d="M102.033 116.938H79.1617L79.6503 111.137H102.522L102.033 116.938Z" fill="#99B9FF"/>
<path d="M197.335 117.189H116.063L116.529 111.388H197.824L197.335 117.189Z" fill="#99B9FF"/>
<path d="M99.4039 145.854H76.5324L77.021 140.029H99.8926L99.4039 145.854Z" fill="#99B9FF"/>
<path d="M194.706 146.105H113.434L113.899 140.303H195.195L194.706 146.105Z" fill="#99B9FF"/>
<path d="M96.5656 174.244H73.694L74.1594 168.442H97.0309L96.5656 174.244Z" fill="#99B9FF"/>
<path d="M191.868 174.495H110.572L111.061 168.694H192.333L191.868 174.495Z" fill="#99B9FF"/>
<path d="M136.445 127.01H115.156L115.621 121.186H136.934L136.445 127.01Z" fill="#99B9FF"/>
<path d="M215.041 127.262H139.377L139.865 121.46H215.53L215.041 127.262Z" fill="#99B9FF"/>
<path d="M135.398 136.558H114.109L114.574 130.733H135.887L135.398 136.558Z" fill="#99B9FF"/>
<path d="M213.995 136.809H138.33L138.819 131.008H214.483L213.995 136.809Z" fill="#99B9FF"/>
<path d="M104.337 88.8448H81.4651L81.9304 83.0435H104.802L104.337 88.8448Z" fill="#99B9FF"/>
<path d="M199.639 89.1187H118.344L118.832 83.2944H200.104L199.639 89.1187Z" fill="#99B9FF"/>
<path d="M138.749 98.9176H117.459L117.925 93.1162H139.214L138.749 98.9176Z" fill="#99B9FF"/>
<path d="M217.345 99.1686H141.68L142.146 93.3672H217.81L217.345 99.1686Z" fill="#99B9FF"/>
<path d="M137.701 108.464H116.412L116.877 102.663H138.167L137.701 108.464Z" fill="#99B9FF"/>
<path d="M216.298 108.739H140.634L141.099 102.915H216.764L216.298 108.739Z" fill="#99B9FF"/>
<path d="M133.839 155.652H112.55L113.015 149.851H134.328L133.839 155.652Z" fill="#99B9FF"/>
<path d="M212.436 155.926H136.771L137.236 150.102H212.924L212.436 155.926Z" fill="#99B9FF"/>
<path d="M132.792 165.199H111.503L111.968 159.398H133.281L132.792 165.199Z" fill="#99B9FF"/>
<path d="M211.389 165.473H135.724L136.213 159.649H211.877L211.389 165.473Z" fill="#99B9FF"/>
<path d="M91.377 73.0852V71.1895L89.3295 70.7327C89.2596 70.2987 89.1433 69.8648 88.9804 69.4536L90.5393 68.0604L89.5854 66.4159L87.5844 67.0097C87.3052 66.6671 86.9795 66.3702 86.6305 66.0733L87.2587 64.1091L85.6067 63.1498L84.1642 64.6572C83.7453 64.4973 83.3033 64.3831 82.8612 64.3146L82.3959 62.3047H80.4647L79.9993 64.3146C79.5573 64.3831 79.1152 64.4973 78.6964 64.6572L77.2771 63.1269L75.6484 64.0862L76.2533 66.0505C75.9043 66.3245 75.6019 66.6443 75.2994 66.9869L73.2984 66.3702L72.3212 67.9919L73.8568 69.408C73.694 69.8191 73.5776 70.253 73.5078 70.687L71.4603 71.1438V73.0395L73.5078 73.4963C73.5776 73.9303 73.694 74.3643 73.8568 74.7754L72.2979 76.1686L73.2519 77.8131L75.2529 77.2193C75.5321 77.5619 75.8578 77.8588 76.2068 78.1557L75.5786 80.12L77.2306 81.0792L78.6731 79.5718C79.0919 79.7317 79.534 79.8459 79.9761 79.9144L80.4414 81.9243H82.3726L82.8379 79.9144C83.28 79.8459 83.7221 79.7317 84.1409 79.5718L85.5602 81.1021L87.2354 80.1656L86.6305 78.2014C86.9795 77.9273 87.2819 77.6076 87.5844 77.265L89.5854 77.8816L90.5626 76.26L88.9804 74.8211C89.1433 74.4099 89.2596 73.976 89.3295 73.542L91.377 73.0852ZM81.4186 76.968C78.6731 76.9452 76.4627 74.7754 76.486 72.0802C76.5093 69.3851 78.7196 67.2153 81.4652 67.2382C84.2107 67.261 86.4211 69.4308 86.3978 72.1259C86.3745 74.8211 84.1409 76.9909 81.4186 76.968Z" fill="#3E80FA"/>
<path d="M81.6746 81.5814H79.7434C79.5806 81.5814 79.441 81.4672 79.3944 81.3073L78.9989 79.503C78.6964 79.4345 78.394 79.3659 78.0915 79.2746L76.8118 80.6221C76.6955 80.7363 76.5326 80.7592 76.3697 80.6907L74.7178 79.7314C74.5781 79.64 74.5083 79.4801 74.5549 79.3431L75.1133 77.5844C74.8806 77.3789 74.6712 77.1733 74.4618 76.9449L72.6702 77.4931C72.5074 77.5387 72.3445 77.4702 72.2747 77.3332L71.3208 75.6887C71.251 75.5516 71.2742 75.3689 71.3906 75.2547L72.7633 74.0214C72.6702 73.7244 72.6004 73.4275 72.5306 73.1306L70.6925 72.7195C70.5297 72.6738 70.4133 72.5368 70.4133 72.3769V70.4811C70.4133 70.3213 70.5297 70.1842 70.6925 70.1385L72.5306 69.7503C72.6004 69.4533 72.6702 69.1564 72.7633 68.8595L71.3906 67.6033C71.2742 67.4891 71.251 67.3292 71.3208 67.1693L72.298 65.5477C72.391 65.4106 72.5539 65.3421 72.6935 65.3878L74.4851 65.936C74.6945 65.7076 74.9039 65.502 75.1366 65.2964L74.5781 63.5378C74.5316 63.3779 74.6014 63.218 74.741 63.1495L76.4163 62.213C76.5559 62.1445 76.742 62.1673 76.8583 62.2815L78.1148 63.6291C78.4172 63.5378 78.7197 63.4692 79.0222 63.4007L79.441 61.5963C79.4875 61.4365 79.6271 61.3223 79.79 61.3223H81.7212C81.884 61.3223 82.0236 61.4365 82.0702 61.5963L82.4657 63.4007C82.7682 63.4692 83.0706 63.5378 83.3731 63.6291L84.6528 62.2815C84.7691 62.1673 84.932 62.1445 85.0949 62.213L86.7468 63.1723C86.8864 63.2637 86.9562 63.4236 86.9097 63.5606L86.3513 65.3193C86.584 65.5248 86.7934 65.7304 87.0028 65.9588L88.7944 65.4106C88.9572 65.365 89.1201 65.4335 89.1899 65.5705L90.1438 67.215C90.2136 67.352 90.1904 67.5348 90.074 67.649L88.7013 68.8823C88.7944 69.1793 88.8642 69.4762 88.934 69.7731L90.7721 70.1842C90.9349 70.2299 91.0513 70.3669 91.0513 70.5268V72.4226C91.0513 72.5824 90.9349 72.7195 90.7721 72.7652L88.934 73.1534C88.8642 73.4504 88.7944 73.7473 88.7013 74.0442L90.074 75.3004C90.1904 75.4146 90.2136 75.5745 90.1438 75.7344L89.1666 77.356C89.0736 77.4931 88.9107 77.5616 88.7711 77.5159L86.9795 76.9677C86.7701 77.1961 86.5607 77.4017 86.328 77.6073L86.8864 79.3659C86.933 79.5258 86.8632 79.6857 86.7236 79.7542L85.0483 80.6907C84.9087 80.7592 84.7226 80.7363 84.6063 80.6221L83.3498 79.2746C83.0474 79.3659 82.7449 79.4345 82.4424 79.503L82.0236 81.3073C82.0004 81.4672 81.8375 81.5814 81.6746 81.5814ZM80.0459 80.8734H81.4187L81.8375 79.1375C81.8608 79.0005 81.9771 78.9091 82.1167 78.8863C82.5355 78.8178 82.9543 78.7036 83.3498 78.5665C83.4895 78.5209 83.6291 78.5665 83.7221 78.6579L84.9553 79.9826L86.1419 79.3203L85.6068 77.6073C85.5602 77.4702 85.6068 77.3332 85.7231 77.2418C86.0488 76.9677 86.3513 76.6708 86.6305 76.351C86.7236 76.2368 86.8632 76.214 87.0028 76.2368L88.7478 76.785L89.4458 75.6202L88.1196 74.4096C88.0265 74.3183 87.98 74.1812 88.0265 74.0442C88.1661 73.6559 88.2825 73.2448 88.3523 72.8337C88.3755 72.6966 88.4919 72.5824 88.6315 72.5596L90.423 72.1713V70.8237L88.6548 70.4126C88.5151 70.3898 88.4221 70.2756 88.3988 70.1385C88.329 69.7274 88.2127 69.3163 88.0731 68.928C88.0265 68.791 88.0731 68.6539 88.1661 68.5626L89.5156 67.3521L88.8409 66.1872L87.0959 66.7125C86.9562 66.7582 86.8166 66.7125 86.7236 66.5983C86.4444 66.2786 86.1419 65.9816 85.8162 65.7076C85.6998 65.6162 85.6766 65.4792 85.6998 65.3421L86.1884 63.6291L85.0018 62.9439L83.7687 64.2458C83.6756 64.3372 83.536 64.3828 83.3964 64.3372C83.0008 64.2001 82.582 64.0859 82.1632 64.0174C82.0236 63.9946 81.9073 63.8804 81.884 63.7433L81.4885 61.9846H80.1157L79.6969 63.7205C79.6736 63.8575 79.5573 63.9489 79.4177 63.9717C78.9989 64.0402 78.5801 64.1544 78.1846 64.2915C78.0449 64.3372 77.9053 64.2915 77.8123 64.2001L76.5791 62.8754L75.3925 63.5378L75.9276 65.2508C75.9742 65.3878 75.9276 65.5248 75.8113 65.6162C75.4856 65.8903 75.1831 66.1872 74.9039 66.507C74.8108 66.6212 74.6712 66.644 74.5316 66.6212L72.7866 66.073L72.0886 67.2379L73.4148 68.4484C73.5079 68.5397 73.5544 68.6768 73.5079 68.8138C73.3683 69.2021 73.2519 69.6132 73.1821 70.0243C73.1589 70.1614 73.0425 70.2756 72.9029 70.2984L71.1114 70.6867V72.0343L72.8797 72.4454C73.0193 72.4682 73.1123 72.5824 73.1356 72.7195C73.2054 73.1306 73.3217 73.5417 73.4613 73.93C73.5079 74.067 73.4613 74.2041 73.3683 74.2954L72.0188 75.506L72.6935 76.6708L74.4385 76.1455C74.5781 76.0998 74.7178 76.1455 74.8108 76.2597C75.09 76.5795 75.3925 76.8764 75.7182 77.1505C75.8346 77.2418 75.8578 77.3789 75.8346 77.5159L75.2762 79.2289L76.4628 79.9141L77.6959 78.6122C77.789 78.5209 77.9286 78.4752 78.0682 78.5209C78.4638 78.6579 78.8826 78.7721 79.3014 78.8406C79.441 78.8635 79.5573 78.9777 79.5806 79.1147L80.0459 80.8734ZM80.7672 76.648H80.7439C79.3246 76.648 77.9984 76.0998 76.9979 75.1177C75.9974 74.1356 75.4623 72.8108 75.4623 71.4176C75.4623 70.0243 76.0207 68.7225 77.0212 67.7403C78.0217 66.7582 79.3712 66.2329 80.7905 66.2329C82.2098 66.2329 83.536 66.781 84.5365 67.7632C85.537 68.7453 86.0721 70.07 86.0721 71.4633C86.0721 72.8565 85.5137 74.1584 84.5132 75.1405C83.4895 76.1226 82.1632 76.648 80.7672 76.648ZM80.7439 75.9628C80.7439 75.9628 80.7672 75.9628 80.7439 75.9628C81.9771 75.9628 83.1404 75.506 84.0013 74.6609C84.8855 73.8158 85.3508 72.6738 85.3741 71.4633C85.3741 70.2527 84.9087 69.1107 84.0479 68.2657C83.187 67.3977 82.0236 66.9409 80.7905 66.9181H80.7672C79.534 66.9181 78.394 67.3749 77.5331 68.22C76.6489 69.0651 76.1836 70.2071 76.1603 71.4176C76.1603 72.6281 76.6257 73.7701 77.4865 74.6152C78.3707 75.4831 79.5108 75.9628 80.7439 75.9628Z" fill="#261D3F"/>
<path d="M126.673 63.4919L126.696 60.2486L123.182 59.4492C123.043 58.6955 122.857 57.9646 122.601 57.2794L125.253 54.904L123.625 52.0947L120.181 53.1225C119.692 52.5515 119.157 52.0033 118.576 51.5237L119.669 48.1434L116.831 46.5217L114.388 49.1026C113.666 48.8514 112.945 48.6458 112.177 48.5088L111.409 45.0599L108.105 45.0371L107.291 48.486C106.523 48.623 105.779 48.8057 105.081 49.057L102.661 46.4532L99.799 48.052L100.846 51.4323C100.264 51.912 99.706 52.4373 99.2174 53.0083L95.7971 51.9348L94.0986 54.767L96.7278 57.1652C96.4718 57.8732 96.2624 58.5813 96.1228 59.335L92.6095 60.0887L92.5862 63.332L96.0996 64.1314C96.2392 64.8851 96.4253 65.616 96.6812 66.3012L94.0288 68.6766L95.6575 71.4859L99.101 70.4581C99.5896 71.0291 100.125 71.5773 100.706 72.0569L99.6129 75.4144L102.451 77.0361L104.895 74.4551C105.616 74.7064 106.337 74.9119 107.105 75.049L107.873 78.4978L111.177 78.5207L111.991 75.0718C112.759 74.9348 113.503 74.7521 114.201 74.5008L116.621 77.1046L119.483 75.5058L118.436 72.1255C119.018 71.6458 119.576 71.1205 120.065 70.5495L123.508 71.623L125.16 68.8365L122.531 66.4383C122.787 65.7302 122.996 65.0222 123.136 64.2685L126.673 63.4919ZM109.618 70.1155C104.941 70.0927 101.149 66.3469 101.172 61.7561C101.195 57.1652 105.011 53.4423 109.688 53.4651C114.364 53.4879 118.157 57.2337 118.134 61.8246C118.11 66.4383 114.294 70.1384 109.618 70.1155Z" fill="#3E80FA"/>
<path d="M110.084 77.7446L106.78 77.7217C106.617 77.7217 106.477 77.6075 106.431 77.4477L105.709 74.2272C105.081 74.113 104.476 73.9531 103.894 73.7476L101.591 76.1686C101.475 76.2828 101.312 76.3056 101.149 76.2371L98.3104 74.6155C98.1708 74.5241 98.101 74.3642 98.1475 74.2272L99.1712 71.0753C98.7059 70.6641 98.2638 70.2302 97.845 69.7505L94.6342 70.7098C94.4713 70.7555 94.3084 70.687 94.2386 70.5499L92.6099 67.7406C92.5401 67.6036 92.5634 67.4208 92.6797 67.3066L95.1693 65.0683C94.9599 64.4973 94.8203 63.8806 94.6807 63.264L91.4 62.5331C91.2372 62.4874 91.1208 62.3503 91.1208 62.1905L91.1441 58.9472C91.1441 58.7873 91.2604 58.6503 91.4233 58.6046L94.704 57.8965C94.8203 57.2798 94.9832 56.686 95.1926 56.115L92.703 53.8767C92.5866 53.7625 92.5634 53.6026 92.6332 53.4427L94.2851 50.6562C94.3782 50.5192 94.5411 50.4507 94.6807 50.4963L97.8915 51.5013C98.3104 51.0445 98.7524 50.6105 99.241 50.1994L98.2871 47.0475C98.2406 46.8876 98.3104 46.7277 98.45 46.6592L101.312 45.0604C101.451 44.9919 101.638 45.0147 101.754 45.1289L104.034 47.5728C104.616 47.3672 105.244 47.2302 105.872 47.0932L106.617 43.8727C106.663 43.7128 106.803 43.5986 106.966 43.5986L110.27 43.6215C110.433 43.6215 110.572 43.7357 110.619 43.8956L111.34 47.116C111.968 47.2302 112.573 47.3901 113.155 47.5956L115.458 45.1746C115.575 45.0604 115.737 45.0376 115.9 45.1061L118.739 46.7277C118.878 46.8191 118.948 46.979 118.902 47.116L117.831 50.2908C118.297 50.7019 118.739 51.1359 119.158 51.6155L122.369 50.6562C122.531 50.6105 122.694 50.6791 122.764 50.8161L124.393 53.6254C124.463 53.7625 124.439 53.9452 124.323 54.0594L121.833 56.2977C122.043 56.8687 122.182 57.4854 122.322 58.1021L125.603 58.833C125.766 58.8787 125.882 59.0157 125.882 59.1756L125.859 62.4189C125.859 62.5787 125.742 62.7158 125.579 62.7615L122.322 63.401C122.206 64.0177 122.043 64.6115 121.833 65.1825L124.3 67.4437C124.416 67.5579 124.439 67.7178 124.37 67.8777L122.718 70.6641C122.624 70.8012 122.462 70.8697 122.322 70.824L119.111 69.8191C118.692 70.2759 118.25 70.7098 117.762 71.1209L118.739 74.2729C118.785 74.4328 118.716 74.5926 118.576 74.6612L115.714 76.26C115.575 76.3285 115.388 76.3056 115.272 76.1914L112.992 73.7476C112.41 73.9531 111.782 74.0902 111.154 74.2272L110.409 77.4477C110.386 77.6304 110.246 77.7446 110.084 77.7446ZM107.059 77.0365L109.804 77.0594L110.549 73.8846C110.572 73.7476 110.688 73.6562 110.828 73.6334C111.573 73.4963 112.294 73.3136 112.992 73.0852C113.132 73.0395 113.271 73.0852 113.364 73.1766L115.598 75.5748L117.971 74.25L116.994 71.1438C116.947 71.0067 116.994 70.8697 117.11 70.7783C117.669 70.2987 118.204 69.7962 118.692 69.2252C118.785 69.111 118.925 69.0882 119.065 69.111L122.229 70.0931L123.602 67.7635L121.182 65.548C121.089 65.4566 121.042 65.3196 121.089 65.1825C121.345 64.4973 121.531 63.7893 121.671 63.0584C121.694 62.9214 121.81 62.8072 121.95 62.7843L125.184 62.0763L125.207 59.3811L121.973 58.6503C121.833 58.6274 121.74 58.5132 121.717 58.3762C121.577 57.6453 121.391 56.9372 121.159 56.252C121.112 56.115 121.159 55.978 121.252 55.8866L123.695 53.694L122.345 51.3643L119.181 52.3235C119.041 52.3692 118.902 52.3235 118.809 52.2093C118.32 51.6612 117.808 51.1359 117.227 50.6562C117.11 50.5649 117.087 50.4278 117.11 50.2908L118.111 47.1845L115.737 45.837L113.481 48.2123C113.387 48.3037 113.248 48.3494 113.108 48.3037C112.41 48.0525 111.689 47.8697 110.944 47.7327C110.805 47.7098 110.688 47.5956 110.665 47.4586L109.944 44.2838L107.198 44.261L106.454 47.4358C106.431 47.5728 106.314 47.6642 106.175 47.687C105.43 47.8241 104.709 48.0068 104.011 48.2352C103.871 48.2809 103.732 48.2352 103.639 48.1438L101.405 45.7456L99.0316 47.0703L100.009 50.1766C100.055 50.3136 100.009 50.4507 99.8925 50.542C99.3108 51.0217 98.799 51.5241 98.3104 52.0951C98.2173 52.2093 98.0777 52.2322 97.9381 52.2093L94.7738 51.2272L93.401 53.5798L95.8208 55.7952C95.9138 55.8866 95.9604 56.0236 95.9138 56.1607C95.6579 56.8459 95.4718 57.5539 95.3322 58.2848C95.3089 58.4219 95.1926 58.5361 95.053 58.5589L91.8188 59.2669L91.7956 61.9621L95.0297 62.693C95.1693 62.7158 95.2624 62.83 95.2856 62.967C95.4252 63.6979 95.6114 64.406 95.844 65.0912C95.8906 65.2282 95.844 65.3652 95.751 65.4566L93.3079 67.6493L94.6574 69.9789L97.8217 69.0197C97.9613 68.974 98.101 69.0197 98.194 69.1339C98.6826 69.682 99.1945 70.2073 99.7762 70.687C99.8925 70.7783 99.9158 70.9154 99.8925 71.0524L98.892 74.1587L101.265 75.5062L103.522 73.1309C103.615 73.0395 103.755 72.9938 103.894 73.0395C104.592 73.2908 105.314 73.4735 106.058 73.6105C106.198 73.6334 106.314 73.7476 106.338 73.8846L107.059 77.0365ZM108.501 69.3394C108.478 69.3394 108.478 69.3394 108.455 69.3394C106.105 69.3394 103.871 68.4258 102.219 66.7813C100.567 65.1368 99.6598 62.967 99.6598 60.6373C99.6598 58.3305 100.591 56.1378 102.266 54.5162C103.941 52.8946 106.151 52.0038 108.525 52.0038C113.387 52.0266 117.343 55.9323 117.32 60.7059C117.32 65.4566 113.364 69.3394 108.501 69.3394ZM108.478 68.6542C108.501 68.6542 108.501 68.6542 108.525 68.6542C112.992 68.6542 116.645 65.0912 116.645 60.7059C116.668 56.2977 113.038 52.7118 108.548 52.689C108.525 52.689 108.525 52.689 108.501 52.689C106.338 52.689 104.313 53.5112 102.778 54.9958C101.242 56.5033 100.381 58.4904 100.381 60.6373C100.381 62.7615 101.219 64.7714 102.731 66.3017C104.267 67.8091 106.291 68.6314 108.478 68.6542Z" fill="#261D3F"/>
<path d="M229.071 50.0854H165.831C164.226 50.0854 162.83 51.4102 162.69 53.009L160.387 81.3764C160.247 82.998 161.457 84.2999 163.039 84.2999H226.279C227.885 84.2999 229.281 82.9752 229.42 81.3764L231.724 53.009C231.863 51.3873 230.677 50.0854 229.071 50.0854Z" fill="white"/>
<path d="M226.279 84.6652H163.039C162.179 84.6652 161.411 84.3226 160.829 83.7287C160.247 83.0892 159.945 82.267 160.015 81.3534L162.318 52.986C162.458 51.2044 164.04 49.7427 165.808 49.7427H229.048C229.909 49.7427 230.677 50.0853 231.259 50.6791C231.84 51.3186 232.143 52.1409 232.073 53.0545L229.769 81.4219C229.63 83.2034 228.071 84.6652 226.279 84.6652ZM165.831 50.4279C164.412 50.4279 163.156 51.5927 163.039 53.0545L160.736 81.4219C160.689 82.1299 160.899 82.7923 161.364 83.2719C161.806 83.7287 162.388 83.98 163.063 83.98H226.303C227.722 83.98 228.978 82.8151 229.095 81.3534L231.398 52.986C231.445 52.2779 231.235 51.6156 230.77 51.1359C230.328 50.6791 229.746 50.4279 229.071 50.4279H165.831Z" fill="#261D3F"/>
<path d="M229.258 55.2467H164.831C164.645 55.2467 164.482 55.0868 164.482 54.9041C164.482 54.7214 164.645 54.5615 164.831 54.5615H229.258C229.444 54.5615 229.607 54.7214 229.607 54.9041C229.607 55.0868 229.444 55.2467 229.258 55.2467Z" fill="#CADDFF"/>
<path d="M167.902 52.346C167.878 52.7571 167.506 53.0997 167.088 53.0997C166.669 53.0997 166.367 52.7571 166.413 52.346C166.436 51.9349 166.808 51.5923 167.227 51.5923C167.646 51.5923 167.948 51.912 167.902 52.346Z" fill="#CADDFF"/>
<path d="M170.88 52.346C170.856 52.7571 170.484 53.0997 170.066 53.0997C169.647 53.0997 169.345 52.7571 169.391 52.346C169.415 51.9349 169.787 51.5923 170.205 51.5923C170.624 51.5923 170.926 51.912 170.88 52.346Z" fill="#CADDFF"/>
<path d="M173.858 52.346C173.835 52.7571 173.463 53.0997 173.044 53.0997C172.625 53.0997 172.323 52.7571 172.369 52.346C172.393 51.9349 172.765 51.5923 173.183 51.5923C173.579 51.5923 173.904 51.912 173.858 52.346Z" fill="#CADDFF"/>
<path d="M229.467 52.5519H225.372C225.186 52.5519 225.023 52.392 225.023 52.2093C225.023 52.0266 225.186 51.8667 225.372 51.8667H229.467C229.653 51.8667 229.816 52.0266 229.816 52.2093C229.816 52.4149 229.653 52.5519 229.467 52.5519Z" fill="#CADDFF"/>
<path d="M223.441 52.5519H183.864C183.677 52.5519 183.515 52.392 183.515 52.2093C183.515 52.0266 183.677 51.8667 183.864 51.8667H223.441C223.627 51.8667 223.79 52.0266 223.79 52.2093C223.79 52.4149 223.627 52.5519 223.441 52.5519Z" fill="#CADDFF"/>
<path d="M179.28 52.5519H175.65C175.464 52.5519 175.301 52.392 175.301 52.2093C175.301 52.0266 175.464 51.8667 175.65 51.8667H179.28C179.466 51.8667 179.629 52.0266 179.629 52.2093C179.629 52.4149 179.489 52.5519 179.28 52.5519Z" fill="#CADDFF"/>
<path d="M184.143 78.4754H164.831L166.39 59.4268H185.702L184.143 78.4754Z" fill="#CADDFF"/>
<path d="M192.961 63.5838H188.796L189.122 59.3584H193.287L192.961 63.5838Z" fill="#CADDFF"/>
<path d="M226.605 63.5608H195.986L196.312 59.4268H226.954L226.605 63.5608Z" fill="#CADDFF"/>
<path d="M192.333 71.1209H188.168L188.517 66.8955H192.682L192.333 71.1209Z" fill="#CADDFF"/>
<path d="M226.001 71.1437H195.358L195.707 66.9868H226.326L226.001 71.1437Z" fill="#CADDFF"/>
<path d="M191.728 78.658H187.563L187.912 74.4326H192.054L191.728 78.658Z" fill="#CADDFF"/>
<path d="M225.395 78.4753H194.753L195.102 74.3184H225.744L225.395 78.4753Z" fill="#CADDFF"/>
<path d="M244.335 119.542C244.149 119.542 243.986 119.382 243.986 119.199V117.418C243.986 117.235 244.149 117.075 244.335 117.075C244.521 117.075 244.684 117.235 244.684 117.418V119.199C244.684 119.382 244.521 119.542 244.335 119.542Z" fill="#261D3F"/>
<path d="M244.335 123.676C244.149 123.676 243.986 123.516 243.986 123.334V121.552C243.986 121.369 244.149 121.209 244.335 121.209C244.521 121.209 244.684 121.369 244.684 121.552V123.334C244.684 123.516 244.521 123.676 244.335 123.676Z" fill="#261D3F"/>
<path d="M243.147 120.73H241.333C241.147 120.73 240.984 120.57 240.984 120.387C240.984 120.204 241.147 120.044 241.333 120.044H243.147C243.333 120.044 243.496 120.204 243.496 120.387C243.496 120.57 243.333 120.73 243.147 120.73Z" fill="#261D3F"/>
<path d="M247.335 120.73H245.521C245.335 120.73 245.172 120.57 245.172 120.387C245.172 120.204 245.335 120.044 245.521 120.044H247.335C247.521 120.044 247.684 120.204 247.684 120.387C247.684 120.57 247.544 120.73 247.335 120.73Z" fill="#261D3F"/>
<path d="M132.373 53.2372C132.141 53.2372 131.908 53.1916 131.675 53.1002C131.187 52.9175 130.791 52.552 130.582 52.0724C130.163 51.0903 130.605 49.9483 131.582 49.5143C132.048 49.3087 132.583 49.2859 133.071 49.4686C133.56 49.6513 133.956 50.0168 134.165 50.4964C134.584 51.4786 134.142 52.6206 133.164 53.0545C132.909 53.1916 132.629 53.2372 132.373 53.2372ZM132.373 50.0396C132.211 50.0396 132.024 50.0853 131.885 50.1538C131.257 50.4279 130.977 51.1816 131.257 51.7983C131.396 52.1181 131.629 52.3465 131.955 52.4607C132.257 52.5749 132.583 52.5749 132.885 52.4378C133.514 52.1638 133.793 51.41 133.514 50.7933C133.374 50.4736 133.141 50.2452 132.815 50.131C132.676 50.0853 132.513 50.0396 132.373 50.0396Z" fill="#261D3F"/>
<path d="M145.589 198.386C147.753 192.608 147.963 183.175 145.589 177.282L147.288 175.227L212.11 176.803L210.505 198.798L147.171 199.072L145.589 198.386Z" fill="white"/>
<path d="M147.194 199.437C147.148 199.437 147.101 199.437 147.055 199.414L145.473 198.706C145.31 198.638 145.217 198.455 145.286 198.272C147.52 192.311 147.52 182.946 145.286 177.419C145.24 177.305 145.263 177.168 145.333 177.077L147.031 175.021C147.101 174.93 147.194 174.884 147.311 174.907L212.133 176.483C212.226 176.483 212.319 176.528 212.389 176.597C212.459 176.665 212.482 176.757 212.482 176.848L210.876 198.843C210.853 199.026 210.714 199.163 210.527 199.163L147.194 199.437ZM146.031 198.204L147.264 198.752L210.202 198.478L211.761 177.168L147.474 175.592L146.008 177.351C148.172 182.946 148.195 192.174 146.031 198.204Z" fill="#261D3F"/>
<path d="M241.17 174.13H179.582H144.728C143.705 174.13 142.89 174.381 142.89 175.706C142.89 177.031 143.705 177.282 144.728 177.282H204.408C207.317 177.282 209.69 179.543 209.69 183.312V192.356C209.69 196.125 207.317 198.181 204.408 198.181H144.728C143.705 198.181 142.89 198.249 142.89 199.551C142.89 200.853 143.705 201.127 144.728 201.127H241.17C246.545 201.127 250.919 195.485 250.919 188.519V186.738C250.919 179.771 246.545 174.13 241.17 174.13Z" fill="#3E80FA"/>
<path d="M241.17 201.47H144.728C144.193 201.47 142.541 201.47 142.541 199.551C142.541 197.838 143.867 197.838 144.728 197.838H204.408C207.41 197.838 209.341 195.691 209.341 192.357V183.312C209.341 179.954 207.317 177.625 204.408 177.625H184.375C184.189 177.625 184.026 177.465 184.026 177.282C184.026 177.099 184.189 176.94 184.375 176.94H204.408C207.736 176.94 210.039 179.566 210.039 183.312V192.357C210.039 196.057 207.782 198.523 204.408 198.523H144.728C143.658 198.523 143.239 198.615 143.239 199.551C143.239 200.465 143.635 200.785 144.728 200.785H241.17C246.359 200.785 250.57 195.28 250.57 188.519V186.738C250.57 179.977 246.359 174.473 241.17 174.473H184.841C184.655 174.473 184.492 174.313 184.492 174.13C184.492 173.947 184.655 173.788 184.841 173.788H241.17C246.731 173.788 251.268 179.589 251.268 186.738V188.542C251.268 195.668 246.731 201.47 241.17 201.47Z" fill="#261D3F"/>
<path d="M184.375 177.625H144.728C144.193 177.625 142.541 177.625 142.541 175.706C142.541 173.788 144.193 173.788 144.728 173.788H184.841C185.027 173.788 185.19 173.947 185.19 174.13C185.19 174.313 185.027 174.473 184.841 174.473H144.728C143.635 174.473 143.239 174.793 143.239 175.706C143.239 176.62 143.635 176.94 144.728 176.94H184.375C184.562 176.94 184.724 177.099 184.724 177.282C184.724 177.465 184.562 177.625 184.375 177.625Z" fill="#261D3F"/>
<path d="M188.773 184.317H182.584C182.398 184.317 182.235 184.157 182.235 183.974C182.235 183.791 182.398 183.631 182.584 183.631H188.773C188.959 183.631 189.122 183.791 189.122 183.974C189.122 184.157 188.983 184.317 188.773 184.317Z" fill="#CADDFF"/>
<path d="M176.93 184.317H150.103C149.917 184.317 149.754 184.157 149.754 183.974C149.754 183.791 149.917 183.631 150.103 183.631H176.93C177.116 183.631 177.279 183.791 177.279 183.974C177.279 184.157 177.116 184.317 176.93 184.317Z" fill="#CADDFF"/>
<path d="M180.397 187.172H150.266C150.08 187.172 149.917 187.012 149.917 186.829C149.917 186.646 150.08 186.486 150.266 186.486H180.397C180.583 186.486 180.746 186.646 180.746 186.829C180.746 187.012 180.606 187.172 180.397 187.172Z" fill="#CADDFF"/>
<path d="M188.843 192.288H184.957C184.771 192.288 184.608 192.128 184.608 191.945C184.608 191.762 184.771 191.603 184.957 191.603H188.843C189.029 191.603 189.192 191.762 189.192 191.945C189.192 192.128 189.052 192.288 188.843 192.288Z" fill="#CADDFF"/>
<path d="M180.234 192.288H150.103C149.917 192.288 149.754 192.128 149.754 191.945C149.754 191.762 149.917 191.603 150.103 191.603H180.234C180.42 191.603 180.583 191.762 180.583 191.945C180.583 192.128 180.444 192.288 180.234 192.288Z" fill="#CADDFF"/>
<path d="M148.614 218.257H233.957V202.84H148.614C150.871 208.048 150.917 213.187 148.614 218.257Z" fill="white"/>
<path d="M233.981 218.6H148.614C148.497 218.6 148.381 218.531 148.311 218.44C148.241 218.349 148.241 218.212 148.288 218.12C150.498 213.232 150.498 208.139 148.288 202.977C148.241 202.863 148.265 202.749 148.311 202.657C148.381 202.566 148.474 202.498 148.614 202.498H233.958C234.144 202.498 234.307 202.657 234.307 202.84V218.257C234.33 218.44 234.167 218.6 233.981 218.6ZM149.149 217.915H233.632V203.183H149.149C151.173 208.208 151.173 213.164 149.149 217.915Z" fill="#261D3F"/>
<path d="M224.837 203.617H148.102C147.288 203.617 146.636 203.069 146.636 202.406C146.636 201.744 147.288 201.196 148.102 201.196H244.87C248.43 201.196 251.315 203.594 251.315 206.54V214.923C251.315 217.869 248.43 220.267 244.87 220.267H148.102C147.288 220.267 146.636 219.719 146.636 219.057C146.636 218.394 147.288 217.846 148.102 217.846H224.837C227.35 217.846 229.397 216.156 229.397 214.078V207.408C229.374 205.307 227.35 203.617 224.837 203.617Z" fill="#99B9FF"/>
<path d="M244.87 220.587H148.102C147.102 220.587 146.287 219.879 146.287 219.034C146.287 218.189 147.102 217.481 148.102 217.481H224.837C227.164 217.481 229.048 215.95 229.048 214.055V207.385C229.048 205.49 227.164 203.959 224.837 203.959H148.102C147.102 203.959 146.287 203.251 146.287 202.406C146.287 201.561 147.102 200.853 148.102 200.853H244.87C248.616 200.853 251.664 203.411 251.664 206.54V214.923C251.664 218.029 248.616 220.587 244.87 220.587ZM148.102 218.166C147.497 218.166 146.985 218.554 146.985 219.034C146.985 219.513 147.497 219.902 148.102 219.902H244.87C248.221 219.902 250.966 217.663 250.966 214.9V206.517C250.966 203.754 248.244 201.515 244.87 201.515H148.102C147.497 201.515 146.985 201.904 146.985 202.383C146.985 202.863 147.497 203.251 148.102 203.251H224.837C227.536 203.251 229.746 205.101 229.746 207.362V214.032C229.746 216.293 227.559 218.143 224.837 218.143H148.102V218.166Z" fill="#261D3F"/>
<path d="M172.044 206.86H153.663C153.477 206.86 153.314 206.7 153.314 206.517C153.314 206.335 153.477 206.175 153.663 206.175H172.044C172.23 206.175 172.393 206.335 172.393 206.517C172.393 206.7 172.23 206.86 172.044 206.86Z" fill="#99B9FF"/>
<path d="M219.462 206.86H199.08C198.894 206.86 198.731 206.7 198.731 206.517C198.731 206.335 198.894 206.175 199.08 206.175H219.462C219.649 206.175 219.811 206.335 219.811 206.517C219.811 206.7 219.649 206.86 219.462 206.86Z" fill="#99B9FF"/>
<path d="M173.603 210.103H153.895C153.709 210.103 153.546 209.943 153.546 209.761C153.546 209.578 153.709 209.418 153.895 209.418H173.603C173.789 209.418 173.952 209.578 173.952 209.761C173.952 209.966 173.812 210.103 173.603 210.103Z" fill="#99B9FF"/>
<path d="M222.487 210.103H197.172C196.986 210.103 196.823 209.943 196.823 209.761C196.823 209.578 196.986 209.418 197.172 209.418H222.487C222.673 209.418 222.836 209.578 222.836 209.761C222.836 209.966 222.673 210.103 222.487 210.103Z" fill="#99B9FF"/>
<path d="M190.774 214.603H153.919C153.733 214.603 153.57 214.443 153.57 214.26C153.57 214.077 153.733 213.917 153.919 213.917H190.797C190.983 213.917 191.146 214.077 191.146 214.26C191.146 214.443 190.983 214.603 190.774 214.603Z" fill="#99B9FF"/>
<path d="M222.394 214.603H198.778C198.592 214.603 198.429 214.443 198.429 214.26C198.429 214.077 198.592 213.917 198.778 213.917H222.394C222.58 213.917 222.743 214.077 222.743 214.26C222.743 214.443 222.58 214.603 222.394 214.603Z" fill="#99B9FF"/>
<path d="M170.648 173.628C170.648 173.628 175.162 175.272 176.93 173.879C178.698 172.486 174.184 170.156 173.137 170.316C172.044 170.521 170.648 173.628 170.648 173.628Z" fill="#261D3F"/>
<path d="M147.986 208.984L152.243 216.27L154.524 213.164L150.824 206.038L147.986 208.984Z" fill="white"/>
<path d="M152.243 216.612C152.22 216.612 152.22 216.612 152.243 216.612C152.104 216.612 152.011 216.544 151.941 216.43L147.706 209.144C147.637 209.007 147.66 208.847 147.753 208.732L150.591 205.786C150.661 205.695 150.778 205.672 150.894 205.672C151.01 205.695 151.103 205.763 151.15 205.855L154.849 212.958C154.919 213.072 154.896 213.209 154.826 213.323L152.523 216.452C152.453 216.567 152.336 216.612 152.243 216.612ZM148.428 209.052L152.267 215.653L154.128 213.141L150.731 206.654L148.428 209.052Z" fill="#261D3F"/>
<path d="M150.754 215.174C151.871 217.435 154.71 222.916 157.432 225.566C158.107 226.205 159.224 225.909 159.456 225.018C160.317 221.843 160.876 215.242 157.688 210.035C157.688 210.035 156.176 209.852 153.36 210.377L153.989 212.981L153.64 212.73C153.128 212.364 152.406 212.387 151.918 212.798L151.103 213.484C150.638 213.917 150.475 214.603 150.754 215.174Z" fill="#261D3F"/>
<path d="M157.897 224.949C157.85 224.949 157.804 224.949 157.781 224.926C157.595 224.858 157.502 224.652 157.571 224.493C159.967 218.28 156.734 210.948 156.688 210.88C156.618 210.697 156.688 210.514 156.874 210.423C157.06 210.355 157.246 210.423 157.339 210.606C157.478 210.926 160.734 218.257 158.223 224.744C158.153 224.858 158.036 224.949 157.897 224.949Z" fill="white"/>
<path d="M152.406 218.668C152.29 218.668 152.174 218.622 152.104 218.508C151.988 218.348 152.034 218.142 152.197 218.028L154.313 216.681C154.476 216.566 154.685 216.612 154.802 216.772C154.918 216.932 154.871 217.137 154.709 217.252L152.592 218.599C152.546 218.645 152.476 218.668 152.406 218.668Z" fill="white"/>
<path d="M153.476 220.518C153.36 220.518 153.267 220.472 153.197 220.381C153.081 220.221 153.104 220.016 153.267 219.901L155.221 218.44C155.384 218.325 155.593 218.348 155.709 218.508C155.825 218.668 155.802 218.874 155.639 218.988L153.686 220.449C153.616 220.495 153.546 220.518 153.476 220.518Z" fill="white"/>
<path d="M134.56 209.167C134.56 209.35 130.675 217.664 130.675 217.664L135.095 218.006L138.097 210.903L134.56 209.167Z" fill="white"/>
<path d="M135.096 218.349H135.072L130.652 218.006C130.535 218.006 130.442 217.938 130.372 217.846C130.326 217.755 130.303 217.641 130.349 217.526C131.838 214.352 134.072 209.51 134.212 209.099C134.235 209.007 134.281 208.916 134.374 208.87C134.467 208.802 134.607 208.802 134.723 208.847L138.26 210.583C138.423 210.674 138.493 210.857 138.423 211.017L135.421 218.12C135.375 218.28 135.235 218.349 135.096 218.349ZM131.21 217.367L134.886 217.664L137.678 211.086L134.77 209.67C134.444 210.355 133.583 212.25 131.21 217.367Z" fill="#261D3F"/>
<path d="M134.747 215.927C134.747 215.927 133.863 213.848 131.559 214.876C131.559 214.876 127.348 220.86 125.766 225.794C125.324 227.187 126.789 228.443 128.139 227.849C131.326 226.433 136.306 223.487 139.144 218.005C139.144 218.005 138.26 215.744 136.841 214.716L134.747 215.927Z" fill="#261D3F"/>
<path d="M127.068 226.685C126.882 226.685 126.766 226.662 126.742 226.662C126.556 226.639 126.417 226.457 126.44 226.274C126.463 226.091 126.649 225.954 126.835 225.977C126.882 225.977 131.512 226.48 137.818 217.96C137.934 217.8 138.143 217.777 138.306 217.892C138.469 218.006 138.492 218.211 138.376 218.371C132.676 226.114 128.278 226.685 127.068 226.685Z" fill="white"/>
<path d="M130.674 222.002C130.604 222.002 130.558 221.98 130.488 221.957L128.371 220.746C128.209 220.655 128.139 220.449 128.255 220.267C128.348 220.107 128.557 220.038 128.743 220.152L130.86 221.363C131.023 221.454 131.092 221.66 130.976 221.843C130.906 221.934 130.79 222.002 130.674 222.002Z" fill="white"/>
<path d="M131.744 220.427C131.698 220.427 131.628 220.404 131.581 220.381L129.279 219.17C129.116 219.079 129.046 218.873 129.139 218.714C129.233 218.554 129.442 218.485 129.605 218.577L131.907 219.787C132.07 219.878 132.14 220.084 132.047 220.244C131.977 220.381 131.861 220.427 131.744 220.427Z" fill="white"/>
<path d="M157.176 167.187C157.176 167.187 145.659 169.196 137.352 177.739C135.258 179.886 134.514 182.992 135.421 185.847C137.259 191.694 141.285 202.337 147.986 210.377L153.104 206.038C153.104 206.038 151.871 195.988 148.521 189.73C145.17 183.494 164.784 169.95 164.784 169.95L157.176 167.187Z" fill="white"/>
<path d="M147.986 210.72H147.962C147.869 210.72 147.776 210.674 147.73 210.605C140.959 202.497 136.911 191.694 135.096 185.961C134.165 182.992 134.933 179.771 137.12 177.51C145.403 168.991 157.013 166.867 157.13 166.844C157.199 166.844 157.246 166.844 157.316 166.867L164.924 169.653C165.04 169.699 165.134 169.813 165.157 169.927C165.18 170.064 165.11 170.178 165.017 170.247C164.831 170.384 145.682 183.677 148.87 189.57C152.22 195.805 153.5 205.9 153.5 205.992C153.523 206.106 153.477 206.22 153.384 206.289L148.265 210.628C148.149 210.697 148.079 210.72 147.986 210.72ZM157.153 167.552C156.059 167.757 145.357 170.041 137.609 177.99C135.608 180.045 134.886 183.037 135.747 185.755C137.516 191.374 141.448 201.903 148.032 209.897L152.732 205.9C152.546 204.53 151.243 195.554 148.195 189.889C145.008 183.974 160.806 172.348 164.017 170.041L157.153 167.552Z" fill="#261D3F"/>
<path d="M133.141 210.72L139.144 212.456C139.144 212.456 150.103 189.73 153.29 186.441C156.478 183.152 162.644 177.762 169.182 175.866C175.72 173.947 175.72 169.105 175.72 169.105L164.598 165.976C164.598 165.976 149.056 172.577 143.914 180.023C138.795 187.491 133.141 210.72 133.141 210.72Z" fill="white"/>
<path d="M139.167 212.798C139.144 212.798 139.098 212.798 139.074 212.775L133.071 211.04C132.885 210.994 132.792 210.811 132.839 210.628C133.071 209.669 138.562 187.24 143.658 179.817C148.777 172.371 163.854 165.908 164.482 165.656C164.552 165.633 164.645 165.611 164.715 165.633L175.836 168.763C175.976 168.808 176.092 168.945 176.092 169.082C176.092 169.128 176.022 174.221 169.298 176.186C162.039 178.31 155.408 184.751 153.546 186.669C150.452 189.89 139.586 212.364 139.47 212.593C139.423 212.73 139.284 212.798 139.167 212.798ZM133.56 210.491L138.958 212.045C140.261 209.372 149.987 189.342 153.035 186.212C154.919 184.248 161.667 177.716 169.089 175.546C174.51 173.97 175.255 170.361 175.371 169.356L164.622 166.342C163.202 166.958 148.986 173.262 144.216 180.228C139.516 187.08 134.258 207.682 133.56 210.491Z" fill="#261D3F"/>
<path d="M184.748 151.244C181.746 145.351 176.79 144.483 176.79 144.483L168.298 143.798C165.645 143.615 162.83 145.237 161.783 147.635L153.989 165.496C153.989 165.496 155.571 169.653 162.644 170.361C169.717 171.046 174.58 170.612 176.86 173.399C178.373 175.226 178.326 163.03 177.465 153.368L184.748 151.244Z" fill="#3E80FA"/>
<path d="M162.132 166.844L166.017 165.108L169.019 166.319C169.019 166.319 185.143 164.309 177.93 153.003C177.907 152.957 183.584 151.815 183.584 151.815C183.584 151.815 190.145 167.187 169.368 167.529C169.368 167.529 168.297 167.872 166.901 167.187C165.482 166.502 163.016 167.895 162.132 166.844Z" fill="white"/>
<path d="M168.67 167.963C168.181 167.963 167.506 167.872 166.739 167.484C166.18 167.209 165.343 167.324 164.552 167.438C163.528 167.598 162.457 167.735 161.876 167.05C161.806 166.958 161.783 166.867 161.806 166.753C161.829 166.638 161.899 166.57 161.992 166.524L165.878 164.788C165.971 164.743 166.064 164.743 166.157 164.788L169.065 165.976C169.949 165.839 176.953 164.72 178.907 160.632C179.908 158.576 179.466 156.086 177.628 153.186C177.558 153.094 177.558 152.98 177.604 152.866C177.697 152.637 177.697 152.637 183.514 151.495C183.677 151.473 183.84 151.541 183.91 151.701C184.026 151.952 186.469 157.845 183.375 162.504C181.071 165.953 176.394 167.758 169.438 167.895C169.321 167.918 169.042 167.963 168.67 167.963ZM165.854 166.638C166.273 166.638 166.692 166.707 167.064 166.89C168.321 167.506 169.228 167.232 169.275 167.209C169.298 167.209 169.345 167.187 169.368 167.187C176.115 167.072 180.629 165.359 182.793 162.116C185.352 158.279 183.817 153.391 183.375 152.204C181.723 152.523 179.419 153.003 178.465 153.209C180.234 156.155 180.583 158.736 179.536 160.906C177.279 165.565 169.391 166.616 169.065 166.638C168.996 166.638 168.949 166.638 168.879 166.616L166.017 165.451L162.9 166.844C163.318 166.913 163.877 166.844 164.435 166.753C164.924 166.707 165.389 166.638 165.854 166.638Z" fill="#261D3F"/>
<path d="M177.162 154.1L185.05 151.907L184.747 151.245C184.747 151.245 183.84 150.559 183.677 150.559C183.514 150.559 179.047 150.399 179.047 150.399L176.302 151.245L177.162 154.1Z" fill="#3E80FA"/>
<path d="M147.241 167.986H162.574L151.22 150.833C150.871 150.308 150.242 149.965 149.591 149.965H137.143C136.352 149.965 135.863 150.788 136.305 151.427L147.241 167.986Z" fill="#261D3F"/>
<path d="M144.193 155.995C144.681 156.749 145.752 157.366 146.589 157.366C147.404 157.366 147.683 156.749 147.171 155.995C146.682 155.242 145.612 154.625 144.774 154.625C143.96 154.625 143.704 155.242 144.193 155.995Z" fill="white"/>
<path d="M146.59 157.685C145.659 157.685 144.472 157.023 143.914 156.178C143.588 155.675 143.518 155.196 143.728 154.808C143.914 154.465 144.286 154.282 144.798 154.282C145.729 154.282 146.915 154.945 147.474 155.79C147.799 156.292 147.869 156.772 147.66 157.16C147.474 157.503 147.078 157.685 146.59 157.685ZM144.775 154.967C144.542 154.967 144.379 155.036 144.309 155.127C144.24 155.264 144.286 155.516 144.472 155.79C144.914 156.452 145.868 157 146.566 157C146.799 157 146.962 156.932 147.032 156.84C147.101 156.703 147.055 156.452 146.869 156.178C146.45 155.516 145.496 154.967 144.775 154.967Z" fill="#261D3F"/>
<path d="M148.405 169.265H171.811C172.486 169.265 173.021 168.74 173.021 168.078V167.872H147.195V168.078C147.195 168.74 147.73 169.265 148.405 169.265Z" fill="#261D3F"/>
<path d="M178.396 103.874C184.887 101.864 197.219 111.96 195.544 119.474C195.078 121.552 193.45 123.882 191.123 125.024C187.028 127.057 182.63 124.43 181.583 126.075C180.676 127.491 183.91 129.524 183.538 132.493C182.956 136.901 174.906 139.025 173.998 139.253C173.324 139.436 163.714 141.834 159.154 136.832C158.06 135.622 156.618 133.292 157.386 131.808C158.13 130.391 160.364 130.688 160.922 129.204C161.388 127.902 159.875 127.194 160.038 125.732C160.341 122.923 166.25 122.786 166.925 119.839C167.484 117.487 164.04 116.094 164.622 113.764C165.087 111.891 167.577 111.823 171.509 109.424C176.209 106.546 175.93 104.651 178.396 103.874Z" fill="#261D3F"/>
<path d="M171.136 143.25C170.974 143.182 168.856 140.715 167.6 139.253C167.693 138.842 167.67 138.728 167.646 138.111C167.646 138.111 168.298 137.472 168.042 136.649C167.739 135.69 166.809 136.467 166.809 136.467C166.809 136.467 166.39 135.736 164.761 136.992C163.156 138.271 161.457 136.718 161.457 136.718C161.457 136.718 161.457 137.677 162.318 138.819C162.784 139.459 162.877 140.304 162.9 141.08L163.807 140.943C164.296 141.514 164.668 141.811 165.366 142.085C165.366 142.085 165.901 141.994 166.46 141.537L167.46 143.753L166.46 144.278C166.46 144.278 166.227 145.671 168.88 146.014C171.532 146.356 173.649 144.278 173.649 144.278C173.649 144.278 172.207 143.776 171.136 143.25Z" fill="white"/>
<path d="M169.461 146.425C169.252 146.425 169.019 146.402 168.81 146.379C167.647 146.219 166.832 145.854 166.39 145.283C165.995 144.78 166.064 144.301 166.088 144.255C166.111 144.141 166.181 144.049 166.274 144.004L166.995 143.638L166.32 142.108C165.855 142.405 165.46 142.474 165.436 142.474C165.366 142.496 165.297 142.474 165.25 142.451C164.599 142.177 164.18 141.903 163.691 141.354L162.97 141.446C162.877 141.469 162.761 141.423 162.691 141.377C162.621 141.309 162.574 141.217 162.574 141.126C162.551 140.372 162.481 139.596 162.063 139.048C161.155 137.814 161.155 136.786 161.155 136.741C161.155 136.604 161.248 136.489 161.364 136.421C161.481 136.375 161.644 136.398 161.737 136.489C161.807 136.535 163.249 137.814 164.599 136.741C165.39 136.124 166.064 135.85 166.576 135.941C166.693 135.964 166.786 136.01 166.879 136.055C167.111 135.918 167.46 135.781 167.786 135.896C167.996 135.964 168.275 136.124 168.414 136.581C168.67 137.357 168.252 137.997 168.042 138.248C168.065 138.682 168.065 138.865 168.019 139.185C170.718 142.314 171.253 142.885 171.346 142.976C172.37 143.478 173.743 143.981 173.766 143.981C173.882 144.027 173.952 144.118 173.975 144.232C173.999 144.346 173.975 144.461 173.882 144.552C173.766 144.62 171.928 146.425 169.461 146.425ZM166.786 144.506C166.832 144.803 167.158 145.466 168.903 145.694C170.695 145.922 172.253 144.963 172.952 144.415C172.44 144.209 171.649 143.89 170.997 143.57C170.904 143.524 170.741 143.456 167.367 139.504C167.298 139.413 167.274 139.322 167.298 139.207C167.367 138.865 167.367 138.773 167.344 138.248V138.157C167.344 138.065 167.367 137.974 167.437 137.906C167.46 137.883 167.926 137.403 167.74 136.786C167.716 136.718 167.67 136.581 167.577 136.558C167.437 136.512 167.181 136.672 167.065 136.763C166.972 136.832 166.879 136.878 166.762 136.855C166.646 136.832 166.576 136.763 166.53 136.672C166.46 136.604 166.018 136.512 165.017 137.312C163.97 138.134 162.807 137.928 161.993 137.54C162.109 137.86 162.295 138.248 162.598 138.682C163.04 139.276 163.179 140.007 163.226 140.761L163.738 140.692C163.854 140.669 163.97 140.715 164.063 140.806C164.506 141.332 164.831 141.583 165.366 141.811C165.529 141.765 165.855 141.628 166.204 141.354C166.297 141.286 166.39 141.263 166.507 141.286C166.623 141.309 166.693 141.377 166.739 141.491L167.74 143.707C167.809 143.867 167.74 144.072 167.577 144.141L166.786 144.506Z" fill="#261D3F"/>
<path d="M166.436 141.56L166.739 141.309L166.436 141.56Z" fill="white"/>
<path d="M166.436 141.903C166.343 141.903 166.25 141.857 166.18 141.789C166.041 141.652 166.064 141.423 166.204 141.309L166.506 141.058C166.646 140.921 166.878 140.944 166.994 141.081C167.134 141.218 167.111 141.446 166.971 141.56L166.669 141.812C166.599 141.88 166.529 141.903 166.436 141.903Z" fill="#261D3F"/>
<path d="M207.735 201.241C208.643 198.295 208.503 196.422 207.665 194.481L206.269 191.763L210.457 190.118L211.737 193.202C212.156 194.207 212.738 195.12 213.505 195.897L214.203 196.628L207.735 201.241Z" fill="white"/>
<path d="M207.735 201.584C207.666 201.584 207.596 201.561 207.526 201.515C207.41 201.424 207.34 201.287 207.386 201.127C208.34 198.067 208.061 196.308 207.34 194.618L205.944 191.923C205.897 191.831 205.897 191.74 205.921 191.648C205.944 191.557 206.037 191.489 206.107 191.443L210.295 189.798C210.481 189.73 210.667 189.821 210.737 189.981L212.017 193.065C212.412 194.024 212.994 194.892 213.715 195.645L214.413 196.376C214.483 196.445 214.506 196.536 214.506 196.65C214.506 196.742 214.436 196.833 214.367 196.902L207.898 201.515C207.898 201.561 207.805 201.584 207.735 201.584ZM206.758 191.945L207.968 194.321V194.344C208.782 196.285 208.899 198.044 208.317 200.373L213.645 196.559L213.226 196.125C212.435 195.303 211.83 194.366 211.388 193.339L210.248 190.552L206.758 191.945Z" fill="#261D3F"/>
<path d="M212.319 195.12C212.412 194.8 212.854 194.732 213.087 194.96C213.738 195.645 214.902 196.81 215.786 197.404C216.6 197.952 216.856 199.026 216.391 199.894C215.088 202.315 211.761 207.591 208.247 211.611C208.015 211.885 207.41 212.25 206.549 211.885C203.664 210.606 206.409 204.873 207.968 198.889C208.038 198.66 208.224 198.478 208.457 198.432L209.317 198.272C210.946 197.952 211.621 197.199 212.319 195.12Z" fill="#261D3F"/>
<path d="M215.576 197.267C215.576 197.267 215.716 197.358 215.762 197.404C216.576 197.952 216.832 199.026 216.367 199.894C215.064 202.315 211.737 207.591 208.224 211.611C207.991 211.885 207.386 212.25 206.525 211.885C206.269 211.771 205.874 211.451 205.874 211.451L206.106 211.154C209.457 206.951 212.505 202.543 215.18 197.907L215.576 197.267Z" fill="white"/>
<path d="M207.27 212.387C207.014 212.387 206.711 212.341 206.409 212.204C206.106 212.067 205.711 211.77 205.664 211.725C205.525 211.61 205.501 211.405 205.618 211.245L205.85 210.948C209.178 206.791 212.226 202.337 214.901 197.746L215.274 197.13C215.32 197.038 215.413 196.993 215.506 196.97C215.599 196.947 215.692 196.97 215.785 197.016L215.995 197.153C216.949 197.815 217.275 199.071 216.716 200.076C215.343 202.611 212.039 207.842 208.526 211.862C208.27 212.113 207.828 212.387 207.27 212.387ZM206.386 211.382C206.502 211.451 206.618 211.519 206.688 211.565C207.456 211.907 207.898 211.473 207.968 211.382C211.435 207.408 214.715 202.223 216.065 199.734C216.437 199.071 216.251 198.249 215.669 197.769L215.506 198.066C212.831 202.703 209.759 207.157 206.386 211.382Z" fill="#261D3F"/>
<path d="M206.781 203.685C206.618 203.685 206.456 203.571 206.432 203.388C206.409 203.206 206.525 203.023 206.712 203L209.597 202.52C209.783 202.498 209.969 202.612 209.992 202.795C210.015 202.977 209.899 203.16 209.713 203.183L206.828 203.662C206.828 203.685 206.805 203.685 206.781 203.685Z" fill="#CADDFF"/>
<path d="M206.316 205.307C206.153 205.307 205.99 205.193 205.967 205.01C205.944 204.827 206.06 204.645 206.269 204.622L208.618 204.279C208.804 204.256 208.991 204.371 209.014 204.576C209.037 204.759 208.921 204.942 208.711 204.964L206.363 205.307C206.363 205.307 206.339 205.307 206.316 205.307Z" fill="#CADDFF"/>
<path d="M231.305 158.393C231.305 158.393 202.267 152.135 193.426 157.092C192.1 157.845 190.82 159.398 190.541 160.883C189.68 165.383 192.239 175.227 206.246 193.681C206.432 193.933 206.804 194.047 207.107 193.933L211.551 192.288C211.9 192.151 212.109 191.763 211.993 191.397L206.06 171.047C205.897 170.522 206.362 169.996 206.921 170.065L234.585 173.399L231.305 158.393Z" fill="white"/>
<path d="M206.851 194.321C206.502 194.321 206.176 194.161 205.967 193.887C190.657 173.651 189.517 164.492 190.215 160.814C190.494 159.307 191.774 157.617 193.263 156.795C202.128 151.838 230.211 157.8 231.398 158.051C231.538 158.074 231.631 158.188 231.654 158.325L234.935 173.331C234.958 173.445 234.935 173.559 234.842 173.628C234.772 173.719 234.655 173.742 234.539 173.742L206.874 170.407C206.735 170.384 206.595 170.453 206.502 170.544C206.409 170.659 206.363 170.796 206.409 170.933L212.342 191.283C212.505 191.808 212.203 192.379 211.691 192.585L207.247 194.23C207.107 194.321 206.968 194.321 206.851 194.321ZM204.664 155.538C200.104 155.538 196.055 156.018 193.612 157.388C192.286 158.119 191.146 159.627 190.913 160.952C190.238 164.515 191.379 173.468 206.549 193.499C206.642 193.636 206.851 193.681 207.014 193.636L211.458 191.991C211.644 191.923 211.761 191.717 211.691 191.534L205.758 171.184C205.665 170.818 205.734 170.43 205.99 170.156C206.246 169.882 206.619 169.722 206.991 169.768L234.167 173.057L231.049 158.736C229.118 158.302 215.46 155.538 204.664 155.538Z" fill="#261D3F"/>
<path d="M222.742 212.068L222.184 214.717C221.416 218.577 224.301 220.564 224.301 220.564L215.809 221.569C215.809 221.569 217.67 220.473 217.298 215.105L216.809 210.606L222.742 212.068Z" fill="white"/>
<path d="M215.786 221.911C215.646 221.911 215.506 221.82 215.46 221.683C215.413 221.523 215.46 221.363 215.599 221.272C215.599 221.272 217.275 220.13 216.902 215.105L216.414 210.628C216.39 210.514 216.437 210.4 216.53 210.331C216.623 210.263 216.739 210.24 216.833 210.263L222.789 211.725C222.975 211.77 223.091 211.953 223.045 212.136L222.486 214.785C221.788 218.394 224.441 220.244 224.464 220.267C224.581 220.358 224.627 220.495 224.604 220.632C224.557 220.769 224.441 220.884 224.301 220.884L215.809 221.889C215.809 221.911 215.786 221.911 215.786 221.911ZM217.182 211.062L217.624 215.059C217.856 218.485 217.205 220.244 216.646 221.112L223.464 220.313C222.603 219.468 221.253 217.572 221.812 214.648L222.324 212.319L217.182 211.062Z" fill="#261D3F"/>
<path d="M222.905 217.001C223.603 217.801 224.883 219.285 225.86 220.724C226.465 221.638 226.116 222.666 225.441 223.533C224.092 225.292 222.277 226.663 220.113 228.056C218.229 229.266 216.111 230.568 213.575 231.71C212.877 232.03 211.342 232.441 210.295 231.939C207.153 230.408 212.389 225.589 216.507 220.062C216.67 219.833 216.949 219.742 217.205 219.788L218.159 219.97C219.113 220.153 220.113 219.765 220.648 218.965L221.951 217.07C222.184 216.727 222.649 216.704 222.905 217.001Z" fill="#261D3F"/>
<path d="M225.348 220.039C225.348 220.039 225.813 220.632 225.86 220.701C226.023 220.929 226.093 221.181 226.162 221.455C226.325 222.323 226.023 223.213 225.395 223.853C225.255 224.013 225.046 224.195 224.813 224.424C222.347 226.731 219.578 228.695 216.576 230.294C215.064 231.116 211.69 232.783 210.317 231.893C209.899 231.619 209.643 230.796 209.643 230.796C209.643 230.796 210.457 231.276 212.854 230.088C216.949 228.101 219.717 225.863 223.091 223.191C223.766 222.665 224.208 222.186 224.697 221.615C225.046 221.158 225.278 220.61 225.348 220.039Z" fill="white"/>
<path d="M211.342 232.509C210.853 232.509 210.434 232.418 210.132 232.212C209.62 231.893 209.341 231.025 209.294 230.933C209.247 230.796 209.294 230.659 209.41 230.568C209.527 230.477 209.69 230.477 209.806 230.545C209.806 230.545 210.574 230.865 212.691 229.814C216.6 227.896 219.345 225.726 222.533 223.213L222.859 222.962C223.44 222.505 223.882 222.071 224.394 221.432C224.72 221.021 224.93 220.541 224.999 220.016C225.023 219.879 225.116 219.765 225.255 219.719C225.395 219.673 225.534 219.742 225.628 219.856C225.744 219.993 226.093 220.473 226.139 220.541C226.302 220.792 226.419 221.089 226.488 221.432C226.675 222.391 226.349 223.396 225.628 224.127C225.488 224.287 225.279 224.47 225.023 224.721C222.58 227.005 219.787 229.015 216.716 230.636C214.39 231.87 212.575 232.509 211.342 232.509ZM210.201 231.253C210.295 231.413 210.411 231.573 210.504 231.619C211.342 232.144 213.482 231.573 216.39 229.997C219.392 228.398 222.137 226.434 224.534 224.173C224.79 223.944 224.976 223.762 225.116 223.602C225.674 223.031 225.93 222.231 225.79 221.5C225.744 221.249 225.674 221.044 225.558 220.861C225.558 220.861 225.534 220.815 225.511 220.792C225.372 221.158 225.185 221.5 224.93 221.797C224.371 222.46 223.906 222.939 223.278 223.442L222.952 223.693C219.741 226.228 216.972 228.444 212.993 230.385C211.644 231.07 210.76 231.253 210.201 231.253Z" fill="#261D3F"/>
<path d="M217.274 224.242C217.251 224.242 217.228 224.242 217.205 224.242L214.04 223.579C213.854 223.533 213.738 223.351 213.784 223.168C213.831 222.985 214.017 222.871 214.203 222.917L217.367 223.579C217.554 223.625 217.67 223.808 217.623 223.99C217.577 224.127 217.437 224.242 217.274 224.242Z" fill="#CADDFF"/>
<path d="M215.528 225.635C215.505 225.635 215.482 225.635 215.458 225.635L212.877 225.041C212.691 224.995 212.575 224.813 212.621 224.63C212.668 224.447 212.854 224.333 213.04 224.379L215.621 224.973C215.807 225.018 215.924 225.201 215.877 225.384C215.831 225.521 215.691 225.635 215.528 225.635Z" fill="#CADDFF"/>
<path d="M212.528 166.547C220.997 159.444 248.196 159.215 248.196 159.215C248.196 159.215 251.593 163.212 249.988 171.206C249.453 173.856 247.545 176.208 244.543 176.208L227.838 176.345C226.605 176.345 225.651 177.35 225.697 178.561C226 186.486 226.279 202.863 223.975 214.032C223.882 214.488 223.533 214.854 223.091 214.968C222.021 215.242 219.927 215.722 217.67 215.676C216.972 215.676 216.367 215.151 216.274 214.466L210.736 173.879C210.574 172.645 210.574 171.412 210.783 170.201C210.992 168.877 211.481 167.438 212.528 166.547Z" fill="white"/>
<path d="M217.856 216.019C217.787 216.019 217.717 216.019 217.647 216.019C216.786 215.996 216.041 215.357 215.925 214.512L210.388 173.925C210.201 172.623 210.225 171.344 210.434 170.133C210.737 168.375 211.365 167.096 212.319 166.296C220.788 159.193 247.103 158.896 248.22 158.896C248.313 158.896 248.429 158.942 248.476 159.01C248.615 159.17 251.966 163.213 250.337 171.275C249.849 173.719 248.034 176.551 244.544 176.551L227.838 176.688C227.349 176.688 226.884 176.894 226.535 177.237C226.186 177.579 226.023 178.059 226.023 178.538C226.349 187.081 226.581 203.046 224.301 214.101C224.185 214.672 223.743 215.151 223.161 215.288C222.137 215.585 220.09 216.019 217.856 216.019ZM248.034 159.581C245.684 159.627 220.672 160.175 212.761 166.822C211.946 167.507 211.388 168.672 211.109 170.248C210.923 171.39 210.899 172.577 211.062 173.833L216.6 214.42C216.67 214.946 217.112 215.334 217.647 215.334C219.881 215.357 221.951 214.9 222.975 214.626C223.301 214.534 223.557 214.283 223.627 213.963C225.883 203 225.674 187.081 225.348 178.584C225.325 177.899 225.558 177.259 226.046 176.78C226.512 176.3 227.163 176.026 227.838 176.026L244.544 175.889C247.592 175.889 249.197 173.331 249.639 171.161C251.058 164.172 248.569 160.289 248.034 159.581Z" fill="#261D3F"/>
<path d="M218.275 140.464L216.042 144.689C213.878 148.526 210.365 151.062 206.502 153.277L204.943 154.168C203.943 154.739 202.756 154.967 201.616 154.807L201.43 154.785C199.662 154.556 197.893 154.967 196.404 155.949L200.313 157.411C202.686 158.302 205.339 158.279 207.666 157.251C209.899 156.292 214.925 155.104 217.298 152.386C222.277 146.699 222.068 145.443 222.068 145.443L218.275 140.464Z" fill="white"/>
<path d="M203.827 158.416C202.593 158.416 201.36 158.188 200.197 157.754L196.288 156.292C196.172 156.246 196.079 156.132 196.055 156.018C196.032 155.881 196.102 155.767 196.218 155.698C197.754 154.67 199.639 154.236 201.477 154.488L201.663 154.511C202.733 154.648 203.827 154.442 204.781 153.894L206.339 153.003C209.713 151.085 213.459 148.572 215.739 144.552L217.973 140.35C218.02 140.236 218.136 140.167 218.252 140.167C218.369 140.167 218.485 140.213 218.555 140.304L222.37 145.283C222.394 145.329 222.417 145.375 222.44 145.443C222.487 145.671 222.417 147.133 217.577 152.661C215.716 154.807 212.273 155.995 209.783 156.886C209.015 157.16 208.34 157.388 207.829 157.617C206.549 158.119 205.199 158.416 203.827 158.416ZM197.219 155.881L200.453 157.092C202.78 157.959 205.292 157.914 207.549 156.954C208.084 156.726 208.759 156.475 209.55 156.201C211.97 155.356 215.297 154.191 217.066 152.181C221.137 147.522 221.672 145.923 221.742 145.557L218.345 141.103L216.368 144.849C213.994 149.029 210.155 151.61 206.688 153.574L205.13 154.465C204.059 155.082 202.803 155.31 201.57 155.15L201.384 155.127C199.941 154.945 198.475 155.219 197.219 155.881Z" fill="#261D3F"/>
<path d="M229.63 160.837C229.63 160.837 229.351 161.408 236.889 162.482C242.334 163.258 247.266 162.916 249.616 162.665C250.384 162.573 250.896 161.865 250.71 161.134C250.105 158.736 249.639 156.498 247.289 150.399C245.661 146.151 248.15 138.431 243.055 133.84C234.469 126.098 222.65 135.987 222.65 135.987L218.927 141.355C223.185 146.265 226.535 151.861 228.815 157.914L229.63 160.837Z" fill="#3E80FA"/>
<path d="M232.817 146.106C232.794 146.106 232.794 146.106 232.771 146.106C232.585 146.083 232.445 145.923 232.468 145.717L233.096 139.87C233.12 139.687 233.282 139.55 233.492 139.573C233.678 139.596 233.817 139.756 233.794 139.962L233.166 145.809C233.143 145.969 232.98 146.106 232.817 146.106Z" fill="#CADDFF"/>
<path d="M240.682 149.303C240.635 149.303 240.565 149.28 240.519 149.258C240.356 149.166 240.286 148.961 240.379 148.801C241.705 146.311 243.45 139.573 243.497 138.203C243.497 138.02 243.66 137.86 243.846 137.86C244.032 137.86 244.195 138.02 244.195 138.203C244.148 139.825 242.31 146.654 241.007 149.098C240.914 149.235 240.798 149.303 240.682 149.303Z" fill="#CADDFF"/>
<path d="M192.589 156.475L212.738 157.982L201.663 138.317C201.244 137.586 200.476 137.083 199.592 137.015L183.235 135.782C182.188 135.713 181.49 136.741 181.979 137.632L192.589 156.475Z" fill="#261D3F"/>
<path d="M195.218 147.202C195.613 147.91 196.52 148.526 197.264 148.595C198.009 148.641 198.288 148.115 197.892 147.407C197.497 146.699 196.59 146.083 195.846 146.014C195.102 145.968 194.822 146.494 195.218 147.202Z" fill="white"/>
<path d="M193.566 157.754L225.186 160.129C225.837 160.175 226.419 159.695 226.465 159.056L226.512 158.873L192.519 156.338L192.472 156.521C192.425 157.16 192.914 157.708 193.566 157.754Z" fill="#261D3F"/>
<path d="M209.713 154.191L213.832 152.798C214.436 152.592 215.111 152.706 215.623 153.117L217.531 154.67C217.903 154.967 218.369 155.104 218.834 155.082C220.905 154.945 230.491 152.364 231.235 150.673C231.864 149.234 232.329 147.521 232.329 147.521L239.774 150.08C239.774 150.08 239.658 152.341 236.633 155.356C234.051 157.937 227.42 158.804 218.276 158.256C218.276 158.256 216.368 158.051 214.762 156.178C213.738 154.99 211.249 155.607 209.76 155.241C209.248 155.082 209.201 154.351 209.713 154.191Z" fill="white"/>
<path d="M223.092 158.713C221.579 158.713 219.951 158.668 218.229 158.553C218.136 158.553 216.135 158.302 214.483 156.338C213.925 155.676 212.715 155.676 211.575 155.653C210.877 155.653 210.225 155.63 209.69 155.516C209.294 155.424 209.039 155.105 209.015 154.716C208.992 154.328 209.248 153.985 209.62 153.848L213.738 152.455C214.46 152.204 215.274 152.364 215.856 152.843L217.764 154.397C218.066 154.648 218.438 154.762 218.811 154.739C220.951 154.602 230.281 151.998 230.91 150.537C231.515 149.143 232.003 147.43 232.003 147.407C232.026 147.316 232.096 147.248 232.166 147.202C232.259 147.156 232.352 147.156 232.445 147.179L239.891 149.737C240.03 149.783 240.123 149.92 240.123 150.08C240.123 150.171 239.961 152.501 236.889 155.584C234.795 157.64 230.072 158.713 223.092 158.713ZM209.83 154.511C209.713 154.556 209.69 154.648 209.69 154.693C209.69 154.739 209.713 154.831 209.83 154.876C210.295 154.99 210.923 154.99 211.575 155.013C212.831 155.013 214.25 155.036 215.018 155.927C216.507 157.686 218.276 157.891 218.299 157.891C227.722 158.439 233.981 157.48 236.354 155.082C238.658 152.775 239.239 150.925 239.356 150.262L232.538 147.933C232.352 148.527 231.98 149.714 231.515 150.788C230.677 152.752 220.742 155.287 218.834 155.424C218.276 155.47 217.717 155.287 217.275 154.945L215.367 153.392C214.972 153.072 214.413 152.958 213.925 153.14L209.83 154.511Z" fill="#261D3F"/>
<path d="M223.673 135.416C218.601 138.088 216.53 142.017 213.878 145.511C215.762 147.179 217.996 149.44 219.439 151.039C220.811 150.011 222.533 148.96 223.79 147.476L223.673 135.416Z" fill="#3E80FA"/>
<path d="M230.002 125.709V131.168C229.979 131.876 229.49 132.492 228.792 132.721L227.722 133.178C227.442 133.292 228.42 134.754 232.794 134.091C234.469 133.84 236.075 133.201 237.447 132.241L238.471 131.533C237.773 131.442 235.819 130.917 235.656 130.254L234.05 123.151L230.002 125.709Z" fill="white"/>
<path d="M230.723 134.617C228.304 134.617 227.489 133.795 227.373 133.406C227.303 133.178 227.396 132.972 227.606 132.881L228.676 132.424H228.699C229.257 132.241 229.63 131.739 229.653 131.168V125.732C229.653 125.618 229.723 125.504 229.816 125.435L233.888 122.877C233.981 122.808 234.097 122.808 234.213 122.854C234.33 122.9 234.4 122.991 234.423 123.105L236.028 130.209C236.121 130.551 237.541 131.077 238.564 131.236C238.704 131.259 238.82 131.351 238.844 131.488C238.867 131.625 238.82 131.762 238.704 131.853L237.68 132.561C236.238 133.543 234.586 134.206 232.864 134.457C232.05 134.571 231.328 134.617 230.723 134.617ZM228.187 133.361C228.606 133.68 229.886 134.183 232.748 133.749C234.353 133.498 235.912 132.881 237.261 131.967L237.634 131.716C236.773 131.488 235.516 131.054 235.33 130.346L233.818 123.699L230.328 125.892V131.168C230.281 132.036 229.723 132.767 228.908 133.064L228.187 133.361Z" fill="#261D3F"/>
<path d="M222.58 119.542C223.79 118.651 223.068 120.958 226.814 116.596C228.303 114.86 228.815 117.578 229.188 117.144C230.607 115.477 230.56 115.545 231.584 115.203C232.259 114.974 233.329 115.774 233.748 116.619C234.306 117.738 233.632 118.56 234.33 121.21C234.818 123.082 235.586 123.905 235.121 124.544C234.655 125.184 233.632 124.658 233.05 125.298C232.305 126.143 233.539 127.559 233.097 128.792C232.817 129.569 231.654 130.597 228.885 130.962C228.443 131.031 228.001 130.757 227.861 130.346C227.675 129.797 227.443 129.112 227.28 128.45C226.512 125.252 227.047 124.065 226.256 123.631C225.046 122.945 223.487 124.818 222.58 124.202C221.672 123.516 220.928 120.776 222.58 119.542Z" fill="#261D3F"/>
<path d="M229.42 120.342L229.513 121.232C229.559 121.643 229.629 122.077 229.722 122.488C229.908 123.265 230.234 124.59 230.35 125.343C230.513 126.463 227.07 127.216 227.07 127.216L226.558 126.805L226.139 126.897C226.069 126.919 225.976 126.919 225.906 126.897C225.72 126.828 225.604 126.668 225.604 126.486C225.604 125.481 225.557 123.265 224.953 121.643C224.929 121.598 226.628 119.748 229.42 120.342Z" fill="white"/>
<path d="M227.07 127.559C227 127.559 226.907 127.536 226.861 127.491L226.465 127.171L226.209 127.217C226.07 127.239 225.93 127.239 225.79 127.194C225.465 127.08 225.232 126.783 225.255 126.44C225.255 125.549 225.209 123.311 224.627 121.712C224.58 121.598 224.604 121.461 224.697 121.37C224.767 121.278 226.558 119.382 229.513 119.999C229.653 120.022 229.769 120.159 229.792 120.296L229.885 121.187C229.932 121.598 230.002 121.986 230.095 122.397C230.281 123.151 230.607 124.499 230.723 125.275C230.932 126.6 228.047 127.354 227.163 127.536C227.117 127.536 227.093 127.559 227.07 127.559ZM226.535 126.44C226.605 126.44 226.698 126.463 226.744 126.509L227.14 126.828C228.582 126.486 230.071 125.823 230.002 125.367C229.885 124.613 229.56 123.265 229.397 122.534C229.304 122.1 229.211 121.666 229.164 121.232L229.094 120.593C227.093 120.273 225.744 121.278 225.325 121.666C225.86 123.288 225.93 125.321 225.93 126.417C225.93 126.44 225.953 126.486 226 126.509C226 126.509 226.023 126.509 226.07 126.509L226.488 126.417C226.488 126.463 226.512 126.44 226.535 126.44Z" fill="#261D3F"/>
<path d="M230.491 122.968C230.491 122.968 230.282 120.821 231.282 120.936C232.305 121.05 232.468 123.425 230.491 122.968Z" fill="white"/>
<path d="M156.437 93.0645C157.852 84.4978 151.926 76.4255 143.199 75.0346C134.472 73.6437 126.25 79.4609 124.834 88.0276C123.419 96.5943 129.345 104.667 138.072 106.058C146.799 107.448 155.021 101.631 156.437 93.0645Z" fill="white"/>
<path d="M140.633 106.592C131.629 106.592 124.277 99.3971 124.277 90.5351C124.277 81.6731 131.606 74.4785 140.633 74.4785C149.638 74.4785 156.99 81.6731 156.99 90.5351C156.99 99.3971 149.638 106.592 140.633 106.592ZM140.633 75.1866C132.001 75.1866 124.975 82.0843 124.975 90.5579C124.975 99.0316 132.001 105.929 140.633 105.929C149.265 105.929 156.292 99.0316 156.292 90.5579C156.269 82.0843 149.265 75.1866 140.633 75.1866Z" fill="#261D3F"/>
<path d="M136.911 98.1406H133.281V83.3174H136.911V98.1406Z" fill="#3E80FA"/>
<path d="M150.987 86.0586H146.45V98.141H142.797V86.0586H138.353V83.2949H150.987V86.0586Z" fill="#3E80FA"/>
<path d="M80.9063 202.36L81.4647 207.522L85.0246 207.933V201.812L80.9063 202.36Z" fill="white"/>
<path d="M85.0246 208.276C85.0013 208.276 85.0013 208.276 84.9781 208.276L81.4182 207.865C81.2553 207.842 81.139 207.728 81.1157 207.568L80.5573 202.383C80.534 202.2 80.6736 202.04 80.8598 202.017L84.9781 201.469C85.0711 201.446 85.1875 201.492 85.2573 201.561C85.3271 201.629 85.3736 201.721 85.3736 201.812V207.956C85.3736 208.047 85.3271 208.139 85.2573 208.207C85.1875 208.253 85.1177 208.276 85.0246 208.276ZM81.7672 207.225L84.6756 207.568V202.2L81.2786 202.657L81.7672 207.225Z" fill="#261D3F"/>
<path d="M85.583 216.955C84.094 217.161 81.6509 217.344 78.789 216.955C77.8584 216.818 77.2302 215.928 77.4628 215.037C78.091 212.524 79.1846 207.751 81.046 205.535L81.5113 206.723L82.1395 205.604C82.2326 205.444 82.3955 205.353 82.5583 205.33L83.9543 205.147C84.2568 205.101 84.5128 205.307 84.5826 205.581L84.8152 206.632L85.3038 205.261L86.9325 215.197C87.0489 216.065 86.4439 216.841 85.583 216.955Z" fill="#3E80FA"/>
<path d="M82.2094 217.526C81.1624 217.526 79.9991 217.458 78.7426 217.298C78.2075 217.23 77.6956 216.933 77.3931 216.476C77.0907 216.019 76.9743 215.471 77.1139 214.945L77.2535 214.397C77.905 211.794 78.9753 207.431 80.7669 205.307C80.8367 205.216 80.9763 205.17 81.0926 205.193C81.209 205.216 81.3253 205.284 81.3718 205.398L81.558 205.901L81.8372 205.421C81.9768 205.17 82.2327 205.01 82.5119 204.964L83.9079 204.782C84.3267 204.736 84.7223 204.964 84.8852 205.353L84.9782 205.124C85.0248 204.987 85.1876 204.873 85.3272 204.896C85.4901 204.919 85.6064 205.033 85.6297 205.193L87.2584 215.128C87.398 216.179 86.6535 217.138 85.6064 217.275C84.7456 217.412 83.5822 217.526 82.2094 217.526ZM80.953 206.243C79.4872 208.39 78.5332 212.205 77.9516 214.557L77.812 215.105C77.7189 215.448 77.7887 215.791 77.9981 216.088C78.2075 216.384 78.51 216.567 78.859 216.613C81.651 217.001 84.0475 216.818 85.5366 216.613C86.2114 216.521 86.6767 215.905 86.5837 215.242L85.1644 206.655L85.1411 206.746C85.0946 206.883 84.955 206.974 84.7921 206.974C84.6292 206.974 84.5129 206.86 84.4663 206.7L84.2337 205.65C84.2104 205.535 84.1173 205.467 84.001 205.49L82.605 205.672C82.5352 205.672 82.4654 205.718 82.4421 205.787L81.8139 206.906C81.7441 207.02 81.6278 207.089 81.4882 207.089C81.3486 207.089 81.2322 206.997 81.1857 206.86L80.953 206.243Z" fill="#261D3F"/>
<path d="M81.4644 215.858C80.5104 215.858 79.4634 215.767 78.4164 215.539C78.2302 215.493 78.1139 215.31 78.1604 215.128C78.207 214.945 78.3931 214.831 78.5792 214.876C82.0228 215.653 85.6524 214.648 85.699 214.648C85.8851 214.602 86.0713 214.694 86.1411 214.876C86.1876 215.059 86.0945 215.242 85.9084 215.31C85.7688 215.333 83.8609 215.858 81.4644 215.858Z" fill="#261D3F"/>
<path d="M80.6041 212.022C80.418 212.022 80.2551 211.885 80.2551 211.679C80.2551 211.496 80.3947 211.336 80.5808 211.336L83.9313 211.222C84.1174 211.222 84.2803 211.359 84.2803 211.542C84.2803 211.725 84.1407 211.885 83.9546 211.885L80.6041 212.022Z" fill="#261D3F"/>
<path d="M97.612 199.597L98.1471 207.157H102.428L102.638 199.597H97.612Z" fill="white"/>
<path d="M102.428 207.499H98.1471C97.961 207.499 97.8214 207.362 97.7981 207.179L97.263 199.619C97.263 199.528 97.2863 199.437 97.3561 199.368C97.4259 199.3 97.5189 199.254 97.612 199.254H102.638C102.731 199.254 102.824 199.3 102.894 199.368C102.963 199.437 102.987 199.528 102.987 199.619L102.777 207.179C102.777 207.339 102.638 207.499 102.428 207.499ZM98.4729 206.814H102.103L102.289 199.939H97.9843L98.4729 206.814Z" fill="#261D3F"/>
<path d="M97.0302 211.428C97.0302 212.136 97.5188 212.775 98.2168 212.935C100.683 213.506 106.244 214.762 107.826 214.991C109.874 215.288 112.41 214.671 113.503 213.483C114.597 212.296 111.06 209.486 109.408 208.458C106.919 206.928 104.545 203.913 103.545 203.776C102.545 203.639 100.683 206.494 100.683 206.494L97.6352 205.238C97.6119 205.238 97.0767 207.796 97.0302 211.428Z" fill="#3E80FA"/>
<path d="M108.897 215.402C108.524 215.402 108.152 215.379 107.78 215.333C106.174 215.105 100.497 213.826 98.1473 213.277C97.2864 213.072 96.6582 212.295 96.6815 211.427C96.728 207.819 97.2632 205.192 97.2864 205.169C97.3097 205.078 97.3795 204.987 97.4726 204.941C97.5656 204.895 97.682 204.895 97.775 204.918L100.567 206.06C101.172 205.169 102.591 203.296 103.615 203.433C104.197 203.502 104.941 204.187 106.198 205.352C107.245 206.311 108.408 207.408 109.618 208.161C110.712 208.824 113.853 211.085 114.085 212.752C114.132 213.118 114.039 213.46 113.806 213.711C112.829 214.739 110.828 215.402 108.897 215.402ZM97.3795 211.427C97.3795 211.976 97.7518 212.478 98.3102 212.592C100.66 213.14 106.314 214.397 107.896 214.648C109.874 214.945 112.294 214.305 113.271 213.255C113.341 213.186 113.411 213.072 113.387 212.844C113.224 211.724 110.874 209.737 109.246 208.732C107.989 207.956 106.779 206.837 105.709 205.832C104.825 205.009 103.894 204.141 103.522 204.096C103.057 204.027 101.847 205.375 100.986 206.654C100.893 206.791 100.707 206.859 100.567 206.791L97.9146 205.695C97.7285 206.562 97.4028 208.709 97.3795 211.427Z" fill="#261D3F"/>
<path d="M108.874 214.009C104.36 214.009 98.3569 211.634 98.0311 211.497C97.845 211.428 97.7752 211.223 97.845 211.04C97.9148 210.857 98.1242 210.789 98.3103 210.857C98.4267 210.903 109.199 215.174 112.34 212.41C112.48 212.273 112.713 212.296 112.829 212.433C112.969 212.57 112.945 212.799 112.806 212.913C111.875 213.712 110.456 214.009 108.874 214.009Z" fill="#261D3F"/>
<path d="M104.103 209.441C104.01 209.441 103.917 209.395 103.848 209.327C103.708 209.19 103.731 208.961 103.871 208.847L106.057 206.906C106.197 206.769 106.429 206.791 106.545 206.928C106.685 207.065 106.662 207.294 106.522 207.408L104.336 209.349C104.266 209.395 104.197 209.441 104.103 209.441Z" fill="#261D3F"/>
<path d="M79.6964 150.33C79.6964 150.33 78.3701 173.947 77.6721 182.101C76.9741 190.255 79.3008 203.365 79.3008 203.365L85.932 203.023C85.932 203.023 86.3973 187.08 86.8859 182.649C86.8859 182.649 89.678 176.642 90.5156 171.298C91.3532 165.953 94.1685 157.502 94.1685 157.502C94.1685 157.502 96.4254 199.711 96.6581 203.023C96.6581 203.023 101.847 203.251 103.708 202.109C103.708 202.109 107.012 186.715 106.523 178.355C106.058 169.996 106.57 149.188 106.57 149.188L79.6964 150.33Z" fill="#261D3F"/>
<path d="M85.6283 183.014H83.6049C83.4189 183.014 83.2561 182.854 83.2561 182.672C83.2561 182.489 83.4189 182.329 83.6049 182.329H85.6283C85.8143 182.329 85.9771 182.489 85.9771 182.672C85.9771 182.854 85.8376 183.014 85.6283 183.014Z" fill="white"/>
<path d="M100.055 195.28C99.8459 195.28 99.7063 195.12 99.7063 194.937C99.7761 191.009 104.15 183.974 104.336 183.677C104.43 183.517 104.662 183.471 104.825 183.563C104.988 183.654 105.034 183.882 104.941 184.042C104.895 184.111 100.474 191.214 100.404 194.96C100.404 195.143 100.265 195.28 100.055 195.28Z" fill="white"/>
<path d="M108.687 112.553C109.176 112.507 111.526 117.281 118.948 117.075C126.347 116.87 132.303 108.739 132.303 108.739C132.303 108.739 134.863 104.513 136.794 102.983C138.725 101.453 139.051 101.247 139.051 101.247C139.051 101.247 139.656 102.046 139.051 102.983C138.446 103.919 136.771 105.678 136.771 105.678C136.771 105.678 138.632 106.683 137.794 108.761C136.84 111.16 134.118 110.954 134.118 110.954C134.118 110.954 128.604 134.799 105.918 123.47L108.687 112.553Z" fill="white"/>
<path d="M117.157 126.874C113.69 126.874 109.874 125.846 105.733 123.768C105.593 123.699 105.523 123.539 105.546 123.379L108.315 112.462C108.362 112.325 108.478 112.21 108.618 112.21C108.897 112.188 109.083 112.393 109.479 112.827C110.595 114.038 113.178 116.87 118.902 116.733C125.928 116.55 131.722 108.899 131.978 108.556C132.164 108.236 134.63 104.239 136.562 102.709C138.493 101.179 138.818 100.973 138.842 100.95C139.005 100.859 139.214 100.882 139.307 101.019C139.33 101.065 140.052 102.024 139.33 103.143C138.865 103.874 137.795 105.039 137.283 105.587C137.981 106.135 138.725 107.277 138.097 108.853C137.26 110.954 135.166 111.228 134.374 111.274C133.932 112.941 131.164 122.009 123.625 125.481C121.647 126.417 119.483 126.874 117.157 126.874ZM106.314 123.288C112.899 126.508 118.623 127.057 123.346 124.864C131.303 121.187 133.746 110.954 133.769 110.863C133.816 110.703 133.956 110.589 134.142 110.589C134.235 110.589 136.608 110.726 137.469 108.602C138.167 106.843 136.678 105.975 136.608 105.952C136.515 105.907 136.445 105.815 136.422 105.701C136.399 105.587 136.445 105.496 136.515 105.404C136.538 105.381 138.19 103.668 138.772 102.755C139.028 102.344 139.005 101.978 138.935 101.727C138.632 101.955 138.074 102.389 137.027 103.211C135.166 104.696 132.629 108.853 132.606 108.876C132.606 108.876 132.606 108.899 132.583 108.899C132.327 109.241 126.464 117.167 118.948 117.372C112.922 117.532 110.153 114.517 108.99 113.238C108.943 113.193 108.92 113.17 108.874 113.124L106.314 123.288Z" fill="#261D3F"/>
<path d="M71.9717 123.471C71.9717 123.471 74.2053 109.378 82.0463 105.929C89.9106 102.458 100.52 102.937 103.452 104.673C106.384 106.409 114.015 114.22 114.015 114.22L107.268 123.471C107.268 123.471 108.804 148.366 107.594 154.944C107.594 154.944 100.078 155.812 96.8908 154.579C93.7032 153.345 83.233 151.632 78.2305 153.871L79.138 122.351L71.9717 123.471Z" fill="#3E80FA"/>
<path d="M102.312 155.561C100.311 155.561 98.1707 155.401 96.7746 154.876C93.494 153.597 83.1401 152.021 78.3936 154.168C78.2773 154.214 78.161 154.214 78.0446 154.145C77.9516 154.076 77.8818 153.962 77.8818 153.848L78.7892 122.74L72.0184 123.791C71.9021 123.813 71.7858 123.768 71.716 123.699C71.6462 123.631 71.5996 123.516 71.6229 123.402C71.716 122.808 73.9729 109.082 81.907 105.587C89.6782 102.161 100.451 102.481 103.638 104.354C106.57 106.089 113.969 113.65 114.272 113.969C114.388 114.083 114.411 114.266 114.295 114.403L107.617 123.562C107.757 125.663 109.106 148.618 107.92 154.99C107.896 155.127 107.78 155.241 107.617 155.264C107.454 155.287 104.988 155.561 102.312 155.561ZM85.048 152.432C89.8178 152.432 94.9598 153.46 97.0306 154.259C99.7761 155.31 105.942 154.762 107.291 154.648C108.408 147.818 106.942 123.768 106.919 123.516C106.919 123.448 106.942 123.357 106.989 123.288L113.573 114.266C112.34 113.033 105.872 106.501 103.289 104.97C100.544 103.349 90.0272 102.8 82.2094 106.249C75.4154 109.241 72.8793 120.616 72.414 123.082L79.1149 122.032C79.208 122.009 79.3243 122.055 79.3941 122.123C79.4639 122.192 79.5105 122.283 79.5105 122.397L78.6263 153.391C80.3713 152.683 82.6748 152.432 85.048 152.432Z" fill="#261D3F"/>
<path d="M85.141 147.704C84.9782 147.704 84.8386 147.59 84.792 147.43C84.7688 147.247 84.8851 147.064 85.0712 147.041C96.9142 144.986 100.381 136.946 100.404 136.855C100.474 136.672 100.683 136.604 100.87 136.672C101.056 136.741 101.126 136.946 101.056 137.129C101.032 137.22 97.4261 145.603 85.1876 147.727C85.1876 147.704 85.1643 147.704 85.141 147.704Z" fill="#261D3F"/>
<path d="M106.71 133.314H91.4233L96.2163 116.55H111.503L106.71 133.314Z" fill="#261D3F"/>
<path d="M73.3212 123.516L81.0459 120.113C81.0459 120.113 79.9523 132.972 95.6111 127.033C95.6111 127.033 95.0294 125.389 95.1225 123.447C95.2156 121.506 96.3789 123.379 96.5418 124.955C96.7047 126.531 100.381 125.891 102.591 125.275C104.802 124.658 107.687 125.069 102.591 127.833C97.4957 130.596 96.3556 129.363 96.3556 129.363C96.3556 129.363 89.8409 138.316 81.7206 136.421C71.739 134.091 73.3212 123.516 73.3212 123.516Z" fill="white"/>
<path d="M83.9779 137.037C83.2101 137.037 82.4423 136.946 81.6279 136.763C71.4602 134.388 72.926 123.585 72.9493 123.47C72.9725 123.356 73.0423 123.265 73.1587 123.196L80.9066 119.816C81.023 119.77 81.1393 119.77 81.2556 119.839C81.3487 119.907 81.4185 120.022 81.3952 120.136C81.3952 120.181 81.0462 124.772 84.0942 127.011C86.4442 128.724 90.1669 128.678 95.1694 126.828C95.0065 126.234 94.6808 124.932 94.7506 123.425C94.7738 123.151 94.7971 122.283 95.402 122.283C96.1698 122.26 96.7748 123.996 96.8679 124.909C96.8911 125.069 96.9609 125.206 97.1238 125.298C97.9381 125.846 100.404 125.503 102.475 124.909C103.429 124.635 105.337 124.361 105.709 125.229C106.012 125.937 105.081 126.828 102.731 128.084C98.799 130.208 97.0773 130.048 96.4258 129.774C95.4253 131.122 90.3763 137.037 83.9779 137.037ZM73.6473 123.745C73.5775 124.384 73.4146 126.622 74.1359 129.021C75.2295 132.766 77.8354 135.142 81.814 136.101C82.5586 136.284 83.2799 136.352 84.0012 136.352C90.7719 136.352 96.0302 129.249 96.0768 129.18C96.1466 129.089 96.2396 129.043 96.3327 129.043C96.4491 129.043 96.5421 129.089 96.6119 129.158C96.6119 129.158 97.752 130.071 102.405 127.559C105.104 126.097 105.058 125.549 105.058 125.549C104.942 125.389 103.941 125.275 102.661 125.64C101.614 125.937 98.0777 126.828 96.7283 125.937C96.4025 125.732 96.2164 125.412 96.1698 125.046C96.0768 124.224 95.7278 123.425 95.4951 123.128C95.4718 123.219 95.4718 123.333 95.4486 123.516C95.3788 125.366 95.9139 126.965 95.9372 126.965C96.007 127.148 95.9139 127.33 95.7278 127.399C90.3298 129.455 86.2813 129.523 83.6754 127.604C80.9532 125.595 80.674 122.054 80.674 120.684L73.6473 123.745Z" fill="#261D3F"/>
<path d="M93.9593 99.4887C93.2846 100.083 91.9816 100.813 90.9579 100.311C90.19 99.9455 89.7712 98.9634 89.7945 97.8442C89.4455 97.8671 88.9802 97.8442 88.6544 97.5702C88.1425 97.1362 88.2356 96.314 88.2589 95.7886C88.3519 93.3219 86.8861 92.9565 87.2584 91.2891C87.5376 89.9873 88.5846 89.1879 88.794 89.0508C89.7945 88.3199 90.446 88.5483 92.1212 88.1144C94.9133 87.3835 95.0063 86.2186 96.8677 86.1958C96.984 86.1958 99.4969 86.2186 100.334 87.9316C101.033 89.3249 100.218 90.9922 99.3805 91.883C98.287 93.025 97.5192 92.454 96.4256 93.4133C94.4945 95.1263 95.937 97.7072 93.9593 99.4887Z" fill="#261D3F"/>
<path d="M99.5431 95.1037L99.4267 95.0123C98.8683 94.5327 98.2866 94.0074 98.147 93.2993C97.5188 90.3073 94.7268 89.2109 94.6104 91.9746C94.5872 92.6598 92.0045 92.6369 92.307 93.3678C93.0981 95.2636 93.1213 94.7611 92.0045 95.4463C91.8882 95.4463 91.7486 95.4691 91.6322 95.5376C91.0506 95.8117 90.8412 96.5654 91.1669 97.2506C91.353 97.6618 91.702 97.9587 92.0743 98.05V101.042C92.0743 102.161 91.3763 103.166 90.3293 103.6L89.3055 104.011C89.3055 104.011 94.1218 107.095 98.9846 103.714L98.3332 103.417C97.1931 102.915 96.4253 101.819 96.402 100.585V99.9915C96.7277 100.014 97.0535 99.9915 97.3327 99.9229C98.7054 99.5347 99.1475 97.9815 98.9148 96.063L99.4733 95.766C99.7292 95.6518 99.7757 95.3092 99.5431 95.1037Z" fill="white"/>
<path d="M94.0523 105.633C91.237 105.633 89.1429 104.331 89.0964 104.308C88.9801 104.239 88.9335 104.125 88.9335 103.988C88.9568 103.851 89.0266 103.76 89.1429 103.714L90.1667 103.303C91.0974 102.937 91.7023 102.047 91.7023 101.065V98.3009C91.33 98.1182 91.0043 97.7984 90.8182 97.4101C90.4226 96.565 90.7018 95.5829 91.4464 95.2403C91.5627 95.1718 91.7023 95.149 91.8652 95.1261C92.0513 95.0119 92.1909 94.9434 92.3072 94.8749C92.377 94.8292 92.4469 94.8064 92.4934 94.7607C92.4701 94.6465 92.3538 94.4181 92.2607 94.1897C92.1676 94.0069 92.0746 93.7785 91.9582 93.5045C91.8884 93.3217 91.8884 93.1619 91.9582 93.002C92.1444 92.6365 92.6795 92.4767 93.2845 92.3168C93.5869 92.2254 94.1453 92.0884 94.2384 91.9513C94.3315 90.284 95.2854 90.0784 95.5879 90.0556C96.6349 89.9642 98.031 91.1748 98.473 93.2304C98.5894 93.8471 99.1478 94.3267 99.6364 94.7607L99.7527 94.852C99.9389 95.0119 100.032 95.2632 100.009 95.5144C99.9854 95.7656 99.8225 95.9712 99.6131 96.0854L99.2641 96.2681C99.4735 98.4151 98.7988 99.854 97.4027 100.265C97.1933 100.334 96.9607 100.356 96.728 100.356V100.585C96.7513 101.681 97.4493 102.663 98.4498 103.12L99.1012 103.417C99.2176 103.463 99.2874 103.577 99.3106 103.691C99.3339 103.805 99.2641 103.942 99.171 104.011C97.4027 105.244 95.6344 105.633 94.0523 105.633ZM90.1201 104.079C91.4696 104.719 94.7736 105.884 98.2869 103.783L98.2171 103.76C96.9607 103.212 96.1231 101.978 96.0765 100.608V100.014C96.0765 99.9225 96.1231 99.8312 96.1929 99.7627C96.2627 99.6941 96.3557 99.6713 96.4721 99.6713C96.7745 99.6941 97.0305 99.6713 97.2864 99.6028C98.822 99.1688 98.729 97.0218 98.6126 96.1082C98.5894 95.9712 98.6592 95.8342 98.7988 95.7656L99.3572 95.4687C99.3804 95.4459 99.4037 95.423 99.4037 95.423C99.4037 95.4002 99.4037 95.3774 99.3804 95.3545L99.2641 95.2632C98.6824 94.7607 98.031 94.1668 97.8681 93.3446C97.4958 91.5631 96.379 90.6495 95.7275 90.718C95.1226 90.7637 95.0295 91.6087 95.0062 91.9742C94.983 92.5452 94.2617 92.7507 93.5404 92.9563C93.2612 93.0248 92.8191 93.1619 92.6795 93.2532C92.7959 93.5045 92.8889 93.71 92.9587 93.8927C93.331 94.7607 93.4706 95.0348 92.6795 95.4459C92.5632 95.5144 92.4003 95.5829 92.2142 95.72C92.1676 95.7428 92.0978 95.7656 92.0513 95.7656C91.9582 95.7656 91.8884 95.7885 91.8186 95.8113C91.4231 95.994 91.2835 96.565 91.5394 97.0675C91.679 97.3644 91.935 97.6157 92.2374 97.6842C92.377 97.7299 92.4934 97.8669 92.4934 98.004V100.996C92.4934 102.275 91.7256 103.394 90.5157 103.874L90.1201 104.079Z" fill="#261D3F"/>
<path d="M96.4024 100.357C96.3791 100.357 96.3558 100.357 96.3558 100.357C94.3083 100.06 93.4009 98.5066 93.3544 98.4609C93.2613 98.301 93.3078 98.0954 93.494 98.0041C93.6568 97.9127 93.8662 97.9584 93.9593 98.1183C93.9593 98.1411 94.7504 99.443 96.4489 99.6942C96.635 99.7171 96.7746 99.8998 96.7514 100.083C96.7048 100.22 96.5652 100.357 96.4024 100.357Z" fill="#261D3F"/>
<ellipse cx="51.2572" cy="245.1" rx="3.43938" ry="3.35365" fill="#3E80FA"/>
<ellipse cx="257.62" cy="192.699" rx="3.43938" ry="3.35365" fill="#3E80FA"/>
<ellipse cx="80.4919" cy="30.4664" rx="3.43938" ry="3.35365" fill="white"/>
<path d="M243.438 58.3692C241.953 59.5954 240.181 60.2528 238.27 60.3532C237.631 60.4107 237.074 59.9293 237.056 59.2729C236.997 58.6497 237.49 58.1075 238.163 58.089C239.55 58.019 240.899 57.5094 241.982 56.6146C242.263 56.3826 242.47 56.1446 242.717 55.8735C243.13 55.3976 243.844 55.346 244.332 55.7492C244.82 56.1524 244.873 56.8479 244.459 57.3238C244.126 57.7335 243.799 58.0709 243.438 58.3692Z" fill="#3E80FA"/>
<path d="M54.5504 104.275C56.1858 105.303 57.3468 106.765 58.0018 108.518C58.2444 109.098 57.934 109.757 57.2955 109.966C56.7012 110.202 56.0255 109.899 55.8114 109.277C55.339 108.004 54.4462 106.894 53.2528 106.144C52.9434 105.949 52.6497 105.826 52.3118 105.674C51.7245 105.427 51.4662 104.777 51.7196 104.204C51.9731 103.632 52.64 103.38 53.2274 103.627C53.7264 103.818 54.1527 104.025 54.5504 104.275Z" fill="#3E80FA"/>
<path d="M236.407 245.548C238.043 246.576 239.204 248.038 239.859 249.791C240.101 250.371 239.791 251.03 239.153 251.238C238.558 251.475 237.882 251.172 237.668 250.55C237.196 249.277 236.303 248.167 235.11 247.417C234.8 247.222 234.507 247.099 234.169 246.947C233.581 246.7 233.323 246.05 233.577 245.477C233.83 244.905 234.497 244.653 235.084 244.9C235.583 245.091 236.01 245.298 236.407 245.548Z" fill="white"/>
</g>
<defs>
<clipPath id="clip0_5410_5174">
<rect width="305" height="275" fill="white"/>
</clipPath>
</defs>
</svg>
