<svg width="363" height="363" viewBox="0 0 363 363" fill="none" xmlns="http://www.w3.org/2000/svg">
<g clip-path="url(#clip0_5046_5454)">
<path d="M120.645 356.625C98.0582 351.604 76.9571 342.392 58.8268 328.115C10.7704 290.217 -3.34067 228.523 0.634888 171.545C1.42126 160.237 1.02808 148.885 1.85815 137.577C4.43573 101.251 19.9448 65.2736 47.0748 39.4261C74.2048 13.535 119.815 -4.75909 158.172 1.09152C169.968 2.88164 180.715 9.34351 185.564 20.1715C196.049 43.7049 207.059 60.2526 233.009 69.989C252.188 77.1932 273.027 80.0311 291.856 88.0212C339.956 108.455 365.732 159.888 361.887 209.356C359.004 246.73 341.66 288.208 313.001 314.23C291.55 333.703 262.149 344.575 234.407 352.609C198.234 363.131 157.386 364.79 120.645 356.625Z" fill="#F0F0F0"/>
<path d="M275.93 291.133C268.766 286.025 261.339 281.222 253.781 276.682C238.49 267.425 222.588 259.173 206.598 251.183C198.21 246.992 189.56 243.15 180.997 239.22C172.391 235.291 163.785 231.361 155.178 227.475C147.314 223.895 139.407 220.359 131.543 216.735C105.331 161.154 76.4094 98.1942 79.9918 98.1942L348.321 90.5972C354.655 90.5972 359.854 95.7492 359.854 102.124V288.339C359.854 294.67 354.699 299.866 348.321 299.866H288.338C284.275 296.809 280.037 294.059 275.93 291.133Z" fill="#99B9FF"/>
<path d="M348.32 300.433H288.119L287.944 300.302C285.673 298.643 283.27 296.984 280.998 295.412C279.207 294.19 277.372 292.924 275.581 291.657C268.984 286.942 261.775 282.227 253.475 277.249C237.31 267.513 220.578 258.911 206.336 251.751C199.826 248.476 193.099 245.42 186.589 242.451C184.667 241.578 182.701 240.705 180.779 239.788C172.216 235.858 163.697 231.972 154.959 228.043C146.222 224.07 138.926 220.751 131.324 217.302L131.106 217.215L131.019 216.997C76.7586 101.905 78.5934 99.0238 79.2924 97.9322C79.4672 97.6703 79.7293 97.4956 80.0351 97.4956L348.32 89.8986C355.048 89.8986 360.509 95.3562 360.509 102.036V288.252C360.509 294.976 355.048 300.433 348.32 300.433ZM288.556 299.123H348.364C354.349 299.123 359.242 294.277 359.242 288.295V102.08C359.242 96.0985 354.393 91.2084 348.364 91.2084L80.3846 98.8055C80.2973 101.643 87.331 121.247 132.111 216.211C139.581 219.616 146.833 222.891 155.527 226.82C164.265 230.794 172.828 234.679 181.347 238.565C183.269 239.439 185.235 240.312 187.157 241.229C193.666 244.198 200.438 247.254 206.948 250.528C221.233 257.689 237.966 266.29 254.174 276.07C262.474 281.091 269.727 285.807 276.367 290.566C278.158 291.832 279.993 293.098 281.784 294.321C283.969 295.893 286.284 297.508 288.556 299.123Z" fill="#261D3F"/>
<path d="M71.0794 91.2084H342.86C348.845 91.2084 353.738 96.0548 353.738 102.08V288.295C353.738 294.277 348.889 299.167 342.86 299.167H71.0794C65.0942 299.167 60.2012 294.321 60.2012 288.295V102.08C60.2449 96.0548 65.0942 91.2084 71.0794 91.2084Z" fill="white"/>
<path d="M342.86 299.778H71.0794C64.7447 299.778 59.5459 294.626 59.5459 288.252V102.08C59.5459 95.7492 64.701 90.5535 71.0794 90.5535H342.86C349.194 90.5535 354.393 95.7055 354.393 102.08V288.295C354.393 294.626 349.194 299.778 342.86 299.778ZM71.0794 91.8633C65.4437 91.8633 60.8565 96.4477 60.8565 102.08V288.295C60.8565 293.928 65.4437 298.512 71.0794 298.512H342.86C348.495 298.512 353.083 293.928 353.083 288.295V102.08C353.083 96.4477 348.495 91.8633 342.86 91.8633H71.0794Z" fill="#261D3F"/>
<path d="M232.942 299.953H343.864C348.32 299.953 351.99 303.577 351.99 308.074C351.99 312.527 348.364 316.195 343.864 316.195H229.665C225.165 316.195 232.942 299.953 232.942 299.953Z" fill="#99B9FF"/>
<path d="M343.908 316.85H229.665C228.966 316.85 228.398 316.544 228.049 315.977C226.17 313.008 231.325 301.874 232.374 299.691L232.549 299.298H343.908C348.758 299.298 352.689 303.228 352.689 308.074C352.689 312.92 348.758 316.85 343.908 316.85ZM233.379 300.608C231.063 305.498 228.005 313.488 229.141 315.278C229.228 315.409 229.359 315.54 229.665 315.54H343.908C348.015 315.54 351.379 312.178 351.379 308.074C351.379 303.97 348.015 300.608 343.908 300.608H233.379Z" fill="#261D3F"/>
<path d="M8.25675 299.953H270.164C274.664 299.953 278.29 303.577 278.29 308.074C278.29 312.571 274.664 316.195 270.164 316.195H8.25675C3.75693 316.195 0.130859 312.571 0.130859 308.074C0.130859 303.577 3.80062 299.953 8.25675 299.953Z" fill="#99B9FF"/>
<path d="M80.865 99.0674H334.69C340.282 99.0674 344.825 103.608 344.825 109.241V283.711C344.825 289.343 340.282 293.884 334.69 293.884H80.865C75.273 293.884 70.7295 289.343 70.7295 283.711V109.241C70.7295 103.608 75.273 99.0674 80.865 99.0674Z" fill="#F0F0F0"/>
<path d="M344.87 115.44L345.175 109.153C345.175 103.608 340.457 99.1548 334.821 99.1548H80.9967C75.4047 99.1548 70.8175 103.608 70.8175 109.153L70.5117 116.925L344.87 115.44Z" fill="#99B9FF"/>
<path d="M83.4865 112.69C85.2961 112.69 86.7631 111.224 86.7631 109.415C86.7631 107.607 85.2961 106.141 83.4865 106.141C81.6769 106.141 80.21 107.607 80.21 109.415C80.21 111.224 81.6769 112.69 83.4865 112.69Z" fill="#F0F0F0"/>
<path d="M93.9719 112.471C95.7815 112.471 97.2484 111.005 97.2484 109.197C97.2484 107.388 95.7815 105.922 93.9719 105.922C92.1623 105.922 90.6953 107.388 90.6953 109.197C90.6953 111.005 92.1623 112.471 93.9719 112.471Z" fill="#F0F0F0"/>
<path d="M105.33 112.908C107.14 112.908 108.607 111.442 108.607 109.633C108.607 107.825 107.14 106.359 105.33 106.359C103.521 106.359 102.054 107.825 102.054 109.633C102.054 111.442 103.521 112.908 105.33 112.908Z" fill="#F0F0F0"/>
<path d="M328.924 283.013H87.812C85.1033 283.013 82.9189 280.829 82.9189 278.122V145.96C82.9189 143.253 85.1033 141.07 87.812 141.07H328.967C331.676 141.07 333.86 143.253 333.86 145.96V278.122C333.86 280.829 331.632 283.013 328.924 283.013Z" fill="#99B9FF"/>
<path d="M270.164 316.85H81.6954C81.3459 316.85 81.0401 316.544 81.0401 316.195C81.0401 315.846 81.3459 315.54 81.6954 315.54H270.164C274.27 315.54 277.634 312.178 277.634 308.074C277.634 303.97 274.27 300.608 270.164 300.608L77.8946 300.521C77.5451 300.521 77.2393 300.215 77.2393 299.866C77.2393 299.516 77.5451 299.211 77.8946 299.211L270.164 299.298C275.013 299.298 278.945 303.228 278.945 308.074C278.901 312.92 274.969 316.85 270.164 316.85Z" fill="#261D3F"/>
<path d="M149.586 310.606C149.586 310.606 153.955 289.998 157.756 277.38C163.872 257.034 177.24 234.068 177.24 234.068L245.436 220.708C245.436 220.708 268.984 267.949 273.615 309.078C273.615 309.078 254.611 322.613 230.364 324.753C214.244 326.193 180.604 312.222 149.586 310.606Z" fill="#3E80FA"/>
<path d="M172.697 242.451C200.875 239.046 225.864 233.02 246.878 223.764L248.625 227.606C244.082 233.239 236.917 240.093 226.738 242.713C220.447 244.329 215.51 243.63 211.011 243.237C201.705 242.407 188.38 242.276 171.08 245.638L172.697 242.451Z" fill="#261D3F"/>
<path d="M200.264 59.554C177.459 58.6371 172.959 53.1794 160.464 57.8512C148.844 62.2173 147.882 71.9974 127.917 81.4283C120.272 85.0522 115.073 89.5493 108.651 87.1916C85.0597 78.5903 70.6428 89.7676 68.0216 114.698C65.8372 135.656 75.5359 160.15 105.374 169.711C121.714 176.173 129.053 174.558 141.024 169.406C166.406 158.49 176.498 108.629 194.453 94.7886C200.002 90.5098 210.53 89.4183 212.977 79.9438C216.035 68.3736 208.302 59.9033 200.264 59.554Z" fill="#261D3F"/>
<path d="M140.369 184.862C140.369 184.862 128.18 154.299 135.388 147.837C135.781 147.488 140.587 147.008 145.568 151.548C150.242 155.827 155.091 165.127 155.091 165.127L156.664 186.215L140.369 184.862Z" fill="#99B9FF"/>
<path d="M232.898 129.368C232.898 129.368 237.66 130.373 241.374 136.136C248.8 147.619 260.29 168.489 278.683 171.633C306.293 176.304 323.026 142.729 320.666 135.219C320.666 135.219 316.691 129.936 310.181 128.364C310.181 128.364 310.094 123.125 315.773 125.614C321.453 128.102 323.725 126.574 326.258 126.006C330.715 124.959 340.151 114.262 343.69 112.908C347.229 111.555 346.093 114.48 346.093 114.48C346.093 114.48 349.544 110.594 351.903 112.559L346.879 119.239C346.879 119.239 350.986 113.825 353.345 116.532L342.729 128.932L350.505 122.819C350.505 122.819 351.597 123.998 349.544 126.137C347.491 128.233 339.234 139.76 331.326 139.76C331.326 139.76 335.608 203.331 287.944 205.907C247.009 208.133 230.364 175.125 230.364 175.125L232.898 129.368Z" fill="white"/>
<path d="M284.144 206.693C264.878 206.693 251.466 198.746 243.427 191.891C234.165 183.945 229.971 175.824 229.84 175.475C229.797 175.387 229.753 175.256 229.753 175.125L232.287 129.325C232.287 129.15 232.374 128.975 232.549 128.844C232.68 128.713 232.898 128.67 233.073 128.713C233.292 128.757 238.141 129.849 241.942 135.787C242.641 136.878 243.383 138.057 244.17 139.28C251.466 150.806 262.475 168.227 278.858 170.978C293.974 173.554 304.764 164.123 309.876 158.316C317.74 149.322 321.104 139.061 320.142 135.525C319.575 134.826 315.861 130.416 310.094 129.019C309.789 128.932 309.614 128.67 309.614 128.408C309.614 128.321 309.614 125.963 311.274 124.871C312.453 124.085 314.07 124.173 316.123 125.046C320.623 127.011 322.807 126.356 324.861 125.745C325.298 125.614 325.734 125.483 326.171 125.395C328.53 124.828 332.593 121.204 336.176 118.016C339.234 115.309 341.855 112.952 343.515 112.34C344.957 111.773 345.918 111.817 346.53 112.384C346.705 112.559 346.836 112.733 346.879 112.952C348.234 111.86 350.549 110.55 352.428 112.079C352.69 112.297 352.733 112.69 352.515 112.995L350.724 115.353C351.073 115.222 351.379 115.178 351.729 115.178C352.559 115.135 353.345 115.484 353.913 116.183C354.131 116.445 354.131 116.794 353.913 117.056L347.578 124.435L350.156 122.383C350.418 122.164 350.811 122.208 351.03 122.47C351.073 122.557 352.515 124.129 350.068 126.661C349.763 126.967 349.326 127.491 348.758 128.19C345.481 132.075 338.841 139.978 332.069 140.502C332.244 145.392 332.768 175.518 316.997 193.332C309.701 201.584 299.959 206.081 288.032 206.693C286.678 206.693 285.411 206.693 284.144 206.693ZM231.064 175.038C231.675 176.173 235.913 183.727 244.301 190.931C252.689 198.091 267.018 206.431 287.945 205.295C299.478 204.684 308.915 200.318 315.992 192.372C332.725 173.466 330.715 140.153 330.715 139.847C330.715 139.672 330.759 139.498 330.89 139.367C331.021 139.236 331.195 139.149 331.37 139.149C337.792 139.149 344.782 130.853 347.753 127.273C348.321 126.574 348.802 126.05 349.107 125.701C349.806 124.959 350.068 124.391 350.156 123.998L343.166 129.499C342.904 129.718 342.511 129.674 342.292 129.456C342.074 129.194 342.03 128.844 342.248 128.582L352.428 116.663C352.209 116.532 351.947 116.488 351.685 116.488C350.112 116.532 348.015 118.802 347.36 119.676C347.141 119.981 346.748 120.025 346.442 119.807C346.137 119.588 346.093 119.195 346.311 118.89L350.942 112.777C349.107 112.166 346.617 114.916 346.573 114.96C346.355 115.178 346.006 115.266 345.743 115.091C345.481 114.917 345.35 114.611 345.481 114.305C345.612 113.956 345.656 113.432 345.525 113.345C345.438 113.257 344.957 113.17 343.909 113.607C342.467 114.174 339.802 116.532 336.962 119.064C333.074 122.514 329.055 126.094 326.39 126.749C325.997 126.836 325.603 126.967 325.167 127.098C322.938 127.753 320.448 128.495 315.512 126.356C314.419 125.875 312.89 125.439 311.886 126.05C311.187 126.53 310.924 127.447 310.837 128.015C317.172 129.761 320.973 134.739 321.147 134.957C321.191 135.001 321.235 135.088 321.235 135.175C322.545 139.367 318.57 150.326 310.75 159.32C305.463 165.345 294.279 175.125 278.552 172.418C261.601 169.537 250.417 151.854 242.99 140.109C242.204 138.887 241.461 137.708 240.762 136.66C238.097 132.556 234.864 130.94 233.466 130.416L231.064 175.038Z" fill="#261D3F"/>
<path d="M337.224 124.173C337.049 124.173 336.875 124.129 336.743 123.998C336.481 123.736 336.481 123.343 336.743 123.081L345.656 114C345.918 113.738 346.311 113.738 346.573 114C346.835 114.262 346.835 114.655 346.573 114.917L337.705 123.998C337.574 124.129 337.399 124.173 337.224 124.173Z" fill="#261D3F"/>
<path d="M340.85 126.006C340.675 126.006 340.501 125.963 340.369 125.832C340.107 125.57 340.107 125.177 340.369 124.915L346.398 118.759C346.66 118.497 347.054 118.497 347.316 118.759C347.578 119.021 347.578 119.414 347.316 119.676L341.287 125.832C341.2 125.963 341.025 126.006 340.85 126.006Z" fill="#261D3F"/>
<path d="M324.948 135.874C324.86 135.874 324.773 135.874 324.686 135.83C324.336 135.699 324.205 135.306 324.38 134.957C324.511 134.695 327.219 128.844 331.676 129.761C335.476 130.547 338.141 129.587 338.141 129.543C338.491 129.412 338.84 129.587 338.971 129.936C339.103 130.285 338.928 130.635 338.578 130.766C338.447 130.809 335.52 131.857 331.37 131.028C327.918 130.329 325.559 135.437 325.516 135.481C325.472 135.743 325.21 135.874 324.948 135.874Z" fill="#261D3F"/>
<path d="M141.81 151.461C141.81 151.461 117.126 185.299 117.17 207.784C117.214 230.27 135.344 224.332 135.344 224.332L155.047 165.171L141.81 151.461Z" fill="white"/>
<path d="M130.364 225.685C127.917 225.685 125.034 225.161 122.5 223.327C118.568 220.49 116.559 215.25 116.559 207.74C116.515 185.298 140.325 152.422 141.33 151.068L141.81 150.457L155.834 164.952L155.703 165.345L135.869 224.856L135.563 224.943C135.388 224.987 133.204 225.685 130.364 225.685ZM141.897 152.509C138.534 157.268 117.782 187.482 117.826 207.784C117.826 214.814 119.66 219.704 123.243 222.28C127.612 225.467 133.466 224.157 134.864 223.764L154.305 165.302L141.897 152.509Z" fill="#261D3F"/>
<path d="M135.388 147.837C135.388 147.837 219.224 124.347 236.131 127.185L242.073 166.655L253.3 196.869C256.533 205.557 254.698 215.337 248.451 222.192C241.461 229.833 229.84 237.91 211.666 238.74C176.367 240.312 159.154 249.044 157.275 233.413C155.397 217.826 153.169 180.408 153.169 180.408C147.489 165.476 140.63 148.274 135.388 147.837Z" fill="#3E80FA"/>
<path d="M189.692 125.177C189.168 123.692 188.643 122.077 188.119 120.374C191.483 121.597 194.934 121.64 196.9 120.418C199.347 118.933 199.696 116.183 200.526 112.908C200.876 111.511 201.182 109.939 202.536 108.498C203.235 107.712 204.065 107.188 204.895 106.839C205.856 106.403 206.337 105.267 206.031 104.263L205.725 103.652C203.454 98.8928 202.099 93.7408 201.793 88.4577L201.182 78.0663C195.371 76.0579 193.318 76.5382 192.619 77.4988C192.357 77.848 191.92 78.0663 192.051 79.6818C192.488 87.4099 185.498 86.9296 179.6 85.7944C173.702 84.6592 176.236 95.3562 176.236 95.3562C176.236 95.3562 172.392 90.8591 168.591 95.0943C165.839 98.1505 171.649 102.648 175.188 104.918L173.921 127.404C173.571 133.342 169.901 138.537 164.441 140.808L156.184 144.257C156.184 144.257 190.216 145.217 213.807 131.77H198.779C194.716 131.726 191.046 129.106 189.692 125.177Z" fill="white"/>
<path d="M157.538 144.868C156.708 144.868 156.271 144.868 156.227 144.868C155.921 144.868 155.659 144.65 155.616 144.344C155.572 144.039 155.703 143.733 156.009 143.602L164.266 140.153C169.465 137.97 173.047 132.905 173.353 127.316L174.62 105.224C171.431 103.084 167.717 100.072 167.368 97.2773C167.237 96.2731 167.542 95.3999 168.241 94.614C169.465 93.2605 170.863 92.5619 172.348 92.5619C173.571 92.5619 174.62 93.0858 175.406 93.6098C175.057 91.3394 174.882 87.7155 176.542 85.9691C177.372 85.1395 178.464 84.8339 179.862 85.0958C183.445 85.7944 187.813 86.362 190.041 84.3972C191.177 83.393 191.658 81.8649 191.527 79.6382C191.439 78.11 191.789 77.5424 192.182 77.1058C192.226 77.0622 192.226 77.0185 192.269 77.0185C193.449 75.4903 196.42 75.6213 201.575 77.3678C201.837 77.4551 202.012 77.6734 202.012 77.9354L202.623 88.3268C202.929 93.5225 204.24 98.5872 206.468 103.259L206.774 103.87C206.774 103.914 206.817 103.914 206.817 103.958C207.254 105.311 206.599 106.752 205.332 107.319C204.502 107.712 203.759 108.193 203.191 108.804C202.055 109.983 201.75 111.293 201.4 112.559L201.313 112.952C201.182 113.432 201.094 113.869 200.963 114.305C200.264 117.056 199.696 119.457 197.381 120.898C195.459 122.077 192.444 122.208 189.255 121.291C189.605 122.47 189.998 123.692 190.435 124.915C191.702 128.582 195.109 131.028 198.954 131.028H213.982C214.288 131.028 214.55 131.246 214.638 131.508C214.725 131.813 214.594 132.075 214.332 132.25C193.362 144.17 164.091 144.868 157.538 144.868ZM172.217 93.8281C171.125 93.8281 170.12 94.352 169.159 95.4436C168.722 95.9238 168.547 96.4478 168.635 97.059C168.853 98.8928 171.431 101.556 175.625 104.307C175.799 104.438 175.93 104.656 175.93 104.874L174.663 127.36C174.314 133.473 170.426 138.974 164.79 141.332L159.547 143.515C168.241 143.34 192.619 142.03 211.317 132.337H198.866C194.454 132.337 190.522 129.543 189.08 125.352C188.512 123.692 187.988 122.077 187.508 120.505C187.42 120.287 187.508 120.025 187.682 119.85C187.857 119.676 188.119 119.632 188.338 119.719C191.57 120.854 194.803 120.898 196.551 119.807C198.429 118.671 198.91 116.619 199.565 114.043C199.653 113.607 199.784 113.126 199.915 112.69L200.002 112.297C200.352 110.987 200.745 109.415 202.099 107.974C202.798 107.232 203.672 106.621 204.633 106.184C205.288 105.879 205.638 105.136 205.419 104.438L205.157 103.87C202.842 99.0238 201.488 93.8281 201.182 88.4141L200.614 78.4593C195.153 76.6255 193.624 77.2368 193.187 77.8044C193.143 77.8481 193.1 77.8917 193.056 77.9354C192.881 78.1537 192.663 78.372 192.75 79.5508C192.881 82.1705 192.269 84.0916 190.828 85.3578C188.163 87.6718 183.401 87.1042 179.556 86.362C178.595 86.1874 177.896 86.3183 177.416 86.8423C175.843 88.5014 176.542 93.3915 176.979 95.0943C177.066 95.3999 176.891 95.7055 176.629 95.8365C176.367 95.9675 176.018 95.9238 175.843 95.6619C175.799 95.6619 174.227 93.8717 172.217 93.8281C172.261 93.8281 172.217 93.8281 172.217 93.8281Z" fill="#261D3F"/>
<path d="M188.163 121.029C188.119 121.029 188.032 121.029 187.988 120.985C181.348 119.021 178.246 110.201 178.115 109.808C177.984 109.459 178.158 109.11 178.508 108.979C178.857 108.848 179.207 109.022 179.338 109.371C179.382 109.459 182.352 117.929 188.338 119.719C188.687 119.807 188.862 120.2 188.775 120.549C188.687 120.811 188.425 121.029 188.163 121.029Z" fill="#261D3F"/>
<path d="M183.226 120.898C182.264 118.977 177.546 116.357 173.92 116.139C173.789 116.139 173.745 115.921 173.876 115.877C176.847 115.135 184.361 112.821 182.614 109.502C181.959 108.28 175.755 109.546 173.177 110.026C170.644 110.507 163.086 117.798 161.644 123.299C160.202 128.757 160.333 138.363 158.498 141.463C158.498 141.463 121.058 194.205 117.563 206.081C114.068 217.957 119.092 232.846 135.3 231.405C159.46 229.222 162.649 170.541 166.886 144.955C166.886 144.955 168.416 139.76 169.857 138.057C171.299 136.354 179.075 132.468 179.119 128.975C179.163 126.312 174.575 123.605 172.391 122.426C172.042 122.252 172.129 121.684 172.566 121.684C173.789 121.597 175.755 121.728 177.721 122.645C180.998 124.173 184.318 123.037 183.226 120.898Z" fill="white"/>
<path d="M133.247 232.103C127.786 232.103 123.287 230.139 120.185 226.384C116.078 221.363 114.811 213.329 116.996 205.863C120.447 194.074 156.227 143.558 158.018 141.07C158.979 139.41 159.373 135.525 159.766 131.726C160.072 128.67 160.421 125.526 161.033 123.125C162.474 117.58 170.032 109.983 173.09 109.372L173.396 109.328C180.08 108.062 182.571 108.018 183.182 109.197C183.575 109.983 183.619 110.769 183.27 111.555C182.396 113.519 179.076 114.96 176.236 115.877C179.425 116.75 182.833 118.759 183.75 120.592C184.187 121.509 184.1 122.383 183.444 123.037C182.265 124.216 179.687 124.26 177.416 123.168C176.061 122.514 174.663 122.295 173.571 122.252C176.236 123.78 179.818 126.268 179.775 128.932C179.731 131.682 175.974 134.302 172.959 136.398C171.824 137.184 170.731 137.97 170.338 138.406C169.246 139.716 167.935 143.602 167.542 145.043C166.887 149.103 166.232 154.081 165.533 159.32C163.654 173.51 161.338 191.193 156.97 205.47C151.727 222.498 144.694 231.143 135.388 231.972C134.689 232.06 133.946 232.103 133.247 232.103ZM180.911 109.633C179.775 109.633 177.59 109.852 173.658 110.638L173.353 110.681C170.993 111.118 163.698 118.235 162.343 123.474C161.732 125.788 161.426 128.888 161.076 131.901C160.64 136.049 160.203 139.934 159.11 141.812L159.067 141.856C158.674 142.379 121.627 194.642 118.219 206.256C116.166 213.329 117.301 220.882 121.146 225.554C124.379 229.44 129.228 231.23 135.257 230.706C155.047 228.916 160.596 186.958 164.222 159.145C164.921 153.862 165.576 148.841 166.232 144.781V144.693C166.275 144.475 167.804 139.323 169.333 137.533C169.814 136.922 170.862 136.223 172.217 135.306C174.707 133.56 178.464 130.94 178.464 128.888C178.508 127.273 176.105 125.046 172.086 122.907C171.649 122.688 171.43 122.208 171.561 121.728C171.649 121.247 172.042 120.942 172.523 120.898C173.877 120.811 175.93 120.942 177.983 121.946C179.949 122.907 181.872 122.732 182.527 122.077C182.658 121.902 182.833 121.64 182.571 121.16C181.697 119.457 177.197 116.969 173.833 116.794C173.44 116.75 173.134 116.488 173.09 116.095C173.047 115.702 173.309 115.353 173.658 115.266C178.246 114.087 181.391 112.515 182.046 111.031C182.221 110.638 182.221 110.245 182.003 109.808C181.959 109.721 181.61 109.633 180.911 109.633Z" fill="#261D3F"/>
<path d="M361.799 67.5004C361.974 67.5004 362.105 67.4567 362.236 67.3257C362.498 67.1074 362.542 66.6708 362.28 66.4088C360.052 63.8765 357.125 61.6497 353.63 59.9033C344.412 55.2315 329.514 53.4414 313.743 51.5203C295.656 49.3372 275.123 46.8486 259.308 39.6008C234.406 28.1615 224.358 17.2899 223.485 0.74224C223.485 0.392949 223.179 0.130981 222.786 0.130981C222.436 0.130981 222.13 0.480272 222.174 0.829562C223.091 17.9011 233.358 29.1221 258.784 40.7796C274.817 48.1147 295.438 50.6034 313.612 52.8302C329.252 54.7076 344.062 56.4977 353.062 61.0821C356.426 62.7849 359.178 64.8807 361.319 67.282C361.45 67.413 361.625 67.5004 361.799 67.5004Z" fill="#261D3F"/>
<path d="M354.679 71.0369C354.679 71.0369 347.645 61.8244 339.694 60.4709C339.694 60.4709 335.238 82.7381 334.888 87.2789C334.888 87.3226 347.907 83.786 354.679 71.0369Z" fill="#F0F0F0"/>
<path d="M323.835 56.7597L303.52 53.9653C303.52 53.9653 308.938 74.9228 311.908 81.1227C311.908 81.1227 319.554 69.1158 323.835 56.7597Z" fill="#99B9FF"/>
<path d="M291.637 52.8301L269.138 47.6781C269.138 47.6781 273.725 70.6876 278.924 80.2494C278.967 80.2058 289.015 67.0637 291.637 52.8301Z" fill="#F0F0F0"/>
<path d="M257.735 45.0148C257.735 45.0148 241.09 37.5051 237.071 32.8333C237.071 32.8333 235.28 59.9033 238.644 69.1159C238.6 69.1595 255.07 52.5246 257.735 45.0148Z" fill="#99B9FF"/>
<path d="M218.723 4.93372C218.723 4.93372 219.072 19.1236 228.159 27.4193C228.159 27.4193 216.451 34.1431 209.286 33.9248C209.286 33.9248 212.126 26.7644 213.436 21.4813C214.791 16.1983 216.626 5.98159 218.723 4.93372Z" fill="#F0F0F0"/>
<path d="M345.767 67.0201C345.941 67.0201 346.116 66.9328 346.247 66.8018C346.466 66.5398 346.466 66.1032 346.16 65.8849C342.621 62.8723 339.213 61.0385 335.981 60.5146C335.631 60.4709 335.282 60.6892 335.238 61.0385C335.238 61.0385 334.801 63.1342 334.233 66.1469C334.146 66.4962 334.408 66.8455 334.757 66.9328C335.107 67.0201 335.456 66.7581 335.544 66.4088C335.937 64.4004 336.243 62.785 336.417 61.9554C339.213 62.5666 342.184 64.2258 345.33 66.9328C345.461 66.9764 345.592 67.0201 345.767 67.0201Z" fill="#261D3F"/>
<path d="M331.131 88.6324C331.175 88.6324 331.262 88.6324 331.306 88.5888C331.743 88.4578 341.747 85.6635 348.824 76.189C349.043 75.8833 348.999 75.4904 348.693 75.2721C348.388 75.0538 347.994 75.0974 347.776 75.403C342.184 82.9128 334.495 86.1001 331.874 87.017C332.092 85.2268 332.616 82.1269 333.403 77.7608C333.446 77.4115 333.228 77.0622 332.878 77.0185C332.529 76.9749 332.179 77.1932 332.136 77.5425C331.175 82.9565 330.607 86.4494 330.476 87.9338C330.476 88.1521 330.563 88.3704 330.694 88.5014C330.825 88.5888 330.956 88.6324 331.131 88.6324Z" fill="#261D3F"/>
<path d="M317.501 64.575C317.763 64.575 317.981 64.444 318.112 64.1821C319.073 61.9117 319.947 59.7286 320.646 57.6329C320.69 57.4582 320.69 57.2399 320.602 57.0653C320.515 56.8906 320.34 56.8033 320.122 56.7596L309.943 55.3625C309.593 55.3188 309.244 55.5808 309.2 55.9301C309.156 56.2794 309.418 56.6287 309.768 56.6723L319.117 57.9822C318.462 59.8159 317.719 61.6934 316.845 63.6581C316.714 64.0074 316.845 64.3567 317.195 64.5314C317.326 64.575 317.413 64.575 317.501 64.575Z" fill="#261D3F"/>
<path d="M308.108 82.4326C308.326 82.4326 308.545 82.3016 308.676 82.1269C308.719 82.0833 312.695 75.796 316.452 67.806C316.627 67.4567 316.452 67.1074 316.146 66.9328C315.84 66.7581 315.447 66.9328 315.272 67.2384C312.433 73.2637 309.506 78.2411 308.195 80.3368C307.103 77.7171 305.661 73.2637 303.914 67.3257C303.826 66.9765 303.433 66.7581 303.084 66.8891C302.734 66.9765 302.516 67.3694 302.647 67.7187C304.744 74.8355 306.36 79.6382 307.496 82.0396C307.627 82.3016 307.846 82.4326 308.108 82.4326Z" fill="#261D3F"/>
<path d="M275.167 81.5156C275.385 81.5156 275.56 81.4283 275.691 81.2537C275.779 81.1227 277.832 78.4594 280.322 74.1805C280.497 73.8749 280.409 73.482 280.104 73.2637C279.798 73.089 279.405 73.1763 279.186 73.482C277.526 76.32 276.041 78.4594 275.254 79.5509C273.725 76.4509 272.065 71.9538 270.405 66.1032C270.318 65.7539 269.924 65.5356 269.575 65.6666C269.225 65.7539 269.007 66.1469 269.138 66.4962C271.017 73.0454 272.851 77.9791 274.599 81.1227C274.686 81.2973 274.905 81.4283 275.123 81.472C275.123 81.5157 275.167 81.5156 275.167 81.5156Z" fill="#261D3F"/>
<path d="M267.871 59.9906C267.915 59.9906 267.958 59.9906 268.046 59.9906C268.395 59.9033 268.614 59.554 268.526 59.2047C267.391 54.7513 266.604 50.9527 266.211 49.2063L282.769 53.0048C283.118 53.0921 283.468 52.8738 283.555 52.5245C283.642 52.1753 283.424 51.826 283.074 51.7386L265.512 47.7218C265.294 47.6781 265.075 47.7218 264.9 47.8964C264.726 48.0711 264.682 48.2894 264.726 48.5077C264.726 48.5514 265.73 53.4414 267.259 59.554C267.303 59.7723 267.565 59.9906 267.871 59.9906Z" fill="#261D3F"/>
<path d="M233.096 60.0343H233.139C233.489 59.9906 233.751 59.685 233.751 59.3357C233.489 55.3189 233.358 50.4725 233.489 44.9711C233.489 44.6219 233.227 44.3162 232.834 44.3162C232.484 44.3162 232.178 44.5782 232.178 44.9711C232.091 50.5161 232.178 55.4062 232.484 59.4667C232.484 59.7723 232.746 60.0343 233.096 60.0343Z" fill="#261D3F"/>
<path d="M232.921 40.998C233.27 40.998 233.576 40.736 233.576 40.3867C233.664 38.1163 233.751 36.2389 233.795 35.06C234.974 36.1516 236.722 37.3741 238.993 38.7276C239.299 38.9022 239.692 38.8149 239.911 38.5093C240.086 38.2036 239.998 37.8107 239.692 37.5924C236.765 35.8023 234.756 34.2741 233.751 33.0953C233.576 32.877 233.314 32.8333 233.052 32.877C232.79 32.9643 232.615 33.1826 232.615 33.4446C232.615 33.4882 232.44 36.2826 232.309 40.2994C232.266 40.6487 232.528 40.9543 232.921 40.998Z" fill="#261D3F"/>
<path d="M245.46 58.7681C245.634 58.7681 245.853 58.6808 245.94 58.5498C250.658 52.9612 253.542 48.6824 254.503 45.888C254.634 45.5824 254.459 45.2331 254.153 45.0585C254.153 45.0585 252.93 44.4909 251.095 43.6177C250.789 43.443 250.396 43.6177 250.221 43.9233C250.047 44.2289 250.221 44.6219 250.527 44.7965C251.619 45.3204 252.493 45.7134 253.017 45.9754C251.925 48.595 249.129 52.6119 244.892 57.6329C244.673 57.8949 244.673 58.3315 244.979 58.5498C245.154 58.7245 245.328 58.7681 245.46 58.7681Z" fill="#261D3F"/>
<path d="M234.843 70.4693C235.018 70.4693 235.193 70.382 235.324 70.2947C235.324 70.2947 237.464 68.1116 240.26 65.0554C240.523 64.7934 240.479 64.3568 240.217 64.1385C239.955 63.8765 239.518 63.9202 239.299 64.1821C237.508 66.1469 235.979 67.7187 235.149 68.5919C234.712 67.1074 234.363 65.1863 234.1 62.8723C234.057 62.523 233.751 62.261 233.358 62.3047C233.008 62.3483 232.746 62.654 232.79 63.0469C233.139 66.0159 233.62 68.3736 234.232 70.0764C234.319 70.2947 234.494 70.4257 234.712 70.513C234.756 70.4694 234.799 70.4693 234.843 70.4693Z" fill="#261D3F"/>
<path d="M216.975 16.6786C217.062 16.6786 217.106 16.6786 217.193 16.6349C217.543 16.5039 217.717 16.1547 217.586 15.8054C215.751 10.3477 215.62 5.63228 215.62 5.54496C215.62 5.32665 215.489 5.10835 215.315 5.02102C215.14 4.89004 214.878 4.89004 214.703 4.97736C213.392 5.63228 212.256 8.42661 210.684 15.0195C210.596 15.3688 210.815 15.718 211.164 15.8054C211.514 15.8927 211.863 15.6744 211.951 15.3251C212.912 11.3519 213.742 8.64491 214.441 7.24775C214.616 9.12519 215.096 12.4871 216.363 16.242C216.45 16.5039 216.669 16.6786 216.975 16.6786Z" fill="#261D3F"/>
<path d="M205.878 35.2783C209.941 35.2783 215.271 33.2699 219.028 31.5234C219.378 31.3925 219.509 30.9995 219.334 30.6502C219.203 30.3009 218.81 30.1699 218.46 30.3446C215.009 31.9164 210.203 33.7502 206.49 33.9685C207.276 31.8727 209.286 26.5024 210.291 22.3546C210.509 21.525 210.684 20.6081 210.946 19.6476C211.033 19.2983 210.815 18.949 210.465 18.8617C210.116 18.7743 209.766 18.9926 209.679 19.3419C209.461 20.3025 209.242 21.2194 209.067 22.0489C207.801 27.201 205.005 34.3614 204.961 34.4051C204.873 34.6234 204.917 34.8417 205.005 35.0163C205.136 35.191 205.31 35.322 205.529 35.322C205.616 35.2346 205.747 35.2783 205.878 35.2783Z" fill="#261D3F"/>
<path d="M26.606 319.557C26.606 319.557 21.1887 326.761 21.5819 331.477L21.4508 333.31L10.1357 323.006L11.7085 322.351C14.1987 320.649 16.8636 319.644 18.3053 316.981L26.606 319.557Z" fill="#3E80FA"/>
<path d="M23.5037 329.119L23.329 331.346C22.9795 335.755 23.7222 340.165 25.4697 344.269L26.824 347.413C26.955 347.719 26.9114 348.068 26.7366 348.33L26.6492 348.417C25.6444 349.945 21.3194 351.299 15.8147 347.588C12.4071 345.274 5.50446 338.899 0.829886 327.722C0.524073 327.023 0.742511 326.194 1.31045 325.713C3.45114 323.923 8.73734 319.819 12.844 319.382C13.2808 319.339 13.7177 319.688 13.7177 320.125L13.7614 324.578C13.7614 326.587 15.4215 328.158 17.3875 328.158L22.4552 328.071C23.0669 328.027 23.5474 328.508 23.5037 329.119Z" fill="white"/>
<path d="M22.6741 350.644C20.9266 350.644 18.4364 350.164 15.4657 348.112C13.8929 347.064 5.76705 341.038 0.218729 327.94C-0.174459 326.979 0.0876661 325.844 0.874042 325.189C3.01473 323.399 8.47568 319.164 12.7571 318.684C13.1503 318.64 13.5871 318.771 13.8929 319.033C14.1988 319.295 14.3735 319.688 14.3735 320.081L14.4172 324.534C14.4172 325.32 14.723 326.063 15.2909 326.587C15.8589 327.154 16.6016 327.46 17.3879 327.416L22.4557 327.329C22.9363 327.329 23.3731 327.503 23.7226 327.853C24.0285 328.202 24.2032 328.682 24.1595 329.119L23.9848 331.346C23.6353 335.624 24.378 339.991 26.0818 343.92L27.4361 347.064C27.6545 347.544 27.6108 348.112 27.305 348.592L27.2176 348.723C26.6934 349.509 25.6449 350.164 24.2906 350.426C23.8537 350.557 23.3295 350.644 22.6741 350.644ZM12.9318 319.994C8.95624 320.43 3.75742 324.491 1.70411 326.194C1.35461 326.499 1.22354 327.023 1.39829 327.46C6.77186 340.209 14.6356 346.016 16.1647 347.02C19.8781 349.552 22.6741 349.465 23.9848 349.159C25.1206 348.941 25.8196 348.417 26.0381 348.024L26.1255 347.893C26.1691 347.806 26.2128 347.675 26.1691 347.588L24.8148 344.444C23.0236 340.296 22.281 335.712 22.6305 331.215L22.8052 328.988L23.4605 329.032L22.8052 328.988C22.8052 328.857 22.7615 328.77 22.7178 328.726C22.6741 328.682 22.5868 328.595 22.4557 328.595L17.3879 328.682C16.2521 328.682 15.1599 328.246 14.3735 327.46C13.5434 326.674 13.1066 325.582 13.1066 324.447L13.0629 319.994C13.0629 319.994 13.0629 319.95 13.0192 319.906C13.0192 319.994 12.9755 319.994 12.9318 319.994Z" fill="#261D3F"/>
<path d="M26.2561 346.889C26.1687 346.889 26.0814 346.889 25.994 346.845L25.295 346.54C21.4505 344.881 18.3924 341.65 16.9507 337.72L16.4701 336.454C16.4264 336.367 16.3827 336.323 16.2954 336.323C16.2517 336.323 16.1643 336.323 16.1206 336.41L15.509 337.589C15.2905 338.07 14.81 338.375 14.2857 338.462C13.7615 338.55 13.2372 338.375 12.8877 337.982C9.4801 334.533 6.85885 330.472 5.15503 325.932L4.19391 323.399C4.06284 323.05 4.23759 322.701 4.58709 322.57C4.93659 322.439 5.28609 322.613 5.41716 322.963L6.37828 325.495C8.03841 329.861 10.5286 333.747 13.8052 337.109C13.8925 337.196 14.0236 337.196 14.0673 337.196C14.111 337.196 14.242 337.153 14.2857 337.022L14.8974 335.843C15.1595 335.319 15.7274 335.013 16.2954 335.013C16.907 335.057 17.3875 335.406 17.606 335.974L18.0866 337.24C19.3972 340.864 22.1932 343.789 25.7319 345.317L26.4309 345.623C26.7804 345.754 26.9114 346.147 26.7804 346.496C26.7367 346.758 26.4746 346.889 26.2561 346.889Z" fill="#261D3F"/>
<path d="M67.8041 339.729C67.8041 339.729 67.1925 346.802 70.1195 350.164L71.037 351.604L57.2754 350.862L57.9307 349.378C59.1103 346.714 60.0277 342.392 59.8093 339.598L67.8041 339.729Z" fill="#3E80FA"/>
<path d="M69.6824 345.579L71.0804 347.02C73.8327 349.814 77.1966 351.954 80.9101 353.176L83.7935 354.093C84.0556 354.181 84.274 354.399 84.3614 354.661L84.4051 354.792C84.842 356.364 83.1818 360.031 77.5025 361.516C74.0948 362.389 66.1437 363.218 56.314 360.118C55.1344 359.769 54.3917 358.634 54.4354 357.411C54.5665 354.573 55.047 349.596 56.9693 346.889C57.1877 346.54 57.6683 346.496 57.9741 346.758C58.6294 347.326 59.8527 348.374 60.9449 349.334C62.2992 350.469 64.3088 350.338 65.4447 348.985L68.3718 345.579C68.6776 345.23 69.3329 345.23 69.6824 345.579Z" fill="white"/>
<path d="M69.988 363C66.3182 363 61.5563 362.52 56.0954 360.773C54.6537 360.337 53.6925 358.94 53.7799 357.411C53.911 354.573 54.4352 349.378 56.4012 346.54C56.6196 346.234 56.9691 346.016 57.3186 345.972C57.7118 345.929 58.0613 346.059 58.3671 346.278L61.3379 348.854C61.8621 349.29 62.5174 349.509 63.1727 349.465C63.8281 349.421 64.4834 349.116 64.9202 348.592L67.8473 345.186C68.1531 344.837 68.5463 344.662 68.9832 344.662C69.4201 344.662 69.8569 344.837 70.1628 345.143L71.5608 346.583C74.2257 349.29 77.546 351.386 81.1283 352.565L84.0117 353.482C84.4923 353.657 84.8418 354.006 85.0165 354.486L85.0602 354.617C85.2787 355.447 85.1039 356.538 84.4923 357.586C83.7933 358.809 82.0021 360.992 77.7207 362.127C76.8033 362.389 74.0946 363 69.988 363ZM57.4934 347.326C55.6585 349.858 55.1779 354.792 55.0469 357.499C55.0032 358.416 55.5711 359.245 56.4449 359.551C67.6726 363.087 75.7548 361.297 77.2838 360.904C81.1283 359.9 82.6574 358.023 83.269 356.975C83.7933 356.102 83.837 355.359 83.7496 355.01L83.7059 354.879C83.7059 354.792 83.6185 354.748 83.5748 354.748L80.6915 353.831C76.8906 352.565 73.3956 350.382 70.5559 347.544L69.1579 346.103C69.0706 346.016 69.0269 346.016 68.9832 346.016C68.9395 346.016 68.8521 346.016 68.8084 346.103L65.8814 349.509C65.2261 350.295 64.2649 350.775 63.2601 350.862C62.2553 350.95 61.2505 350.6 60.4641 349.945L57.4934 347.326Z" fill="#261D3F"/>
<path d="M67.6292 357.979C63.9157 357.979 60.2897 357.324 56.7947 356.014L54.5666 355.185C54.2171 355.054 54.0423 354.661 54.1734 354.355C54.3045 354.006 54.6976 353.831 55.0035 353.962L57.2315 354.792C61.1197 356.233 65.1827 356.844 69.2893 356.626C69.3767 356.626 69.4204 356.582 69.464 356.538C69.464 356.495 69.5077 356.451 69.464 356.364L69.0272 355.272C68.8087 354.748 68.9398 354.18 69.333 353.788C69.7262 353.395 70.2941 353.264 70.8184 353.482L71.9542 353.919C75.0997 355.141 78.6821 355.01 81.7403 353.569L82.3519 353.264C82.6577 353.089 83.0509 353.264 83.2256 353.569C83.4004 353.919 83.2256 354.268 82.9198 354.442L82.3082 354.748C78.9006 356.364 74.9687 356.495 71.4737 355.141L70.3378 354.704C70.3378 354.704 70.2941 354.704 70.2504 354.704C70.2067 354.748 70.2067 354.792 70.2504 354.792L70.6873 355.883C70.862 356.32 70.8184 356.844 70.5562 357.28C70.2941 357.673 69.8572 357.935 69.3767 357.979C68.8087 357.979 68.2408 357.979 67.6292 357.979Z" fill="#261D3F"/>
<path d="M43.0755 224.026C43.0755 224.026 37.5272 242.408 47.0074 255.419C59.7641 272.97 52.4683 313.488 58.8467 340.733C58.9778 341.257 59.4583 341.606 59.9826 341.606L67.7153 341.519C68.2395 341.519 68.6764 341.169 68.8075 340.689C70.6423 333.878 82.8312 287.903 82.438 278.777C82.3506 276.682 82.0885 274.237 81.6953 271.704C79.9041 259.304 76.147 247.254 70.7297 235.946L62.2106 218.307L43.0755 224.026Z" fill="#261D3F"/>
<path d="M37.0907 221.93C37.0907 221.93 30.1007 234.898 33.2025 248.564C36.3043 262.23 31.6298 273.538 28.3532 278.865C25.1203 284.148 19.1788 297.421 17.0818 317.156C17.0381 317.636 17.2129 318.116 17.5624 318.466C18.6545 319.513 21.3632 321.609 25.4261 321.784C25.9067 321.784 26.3436 321.609 26.6931 321.26C29.9259 317.592 48.4058 296.198 54.9589 279.127C62.1674 260.44 63.5217 229.353 63.5217 229.353C63.5217 229.353 45.6098 231.274 37.0907 221.93Z" fill="#261D3F"/>
<path d="M54.0847 284.846C53.7352 284.846 53.4731 284.584 53.4294 284.235C52.643 273.363 51.245 262.361 46.4394 255.768C42.7697 250.747 40.8911 244.372 40.8037 236.863C40.8037 236.513 41.1095 236.208 41.459 236.208C41.8085 236.208 42.1143 236.513 42.1143 236.863C42.2017 244.11 44.0366 250.179 47.5316 255.026C52.512 261.88 53.9537 273.101 54.74 284.148C54.7837 284.497 54.4779 284.803 54.1284 284.846C54.1284 284.846 54.1284 284.846 54.0847 284.846Z" fill="#F0F0F0"/>
<path d="M35.2556 177.09C35.2556 177.09 52.5122 169.406 67.7591 172.768C67.7591 172.768 79.1616 177.483 77.6325 187.656C73.0453 195.21 73.5259 205.688 73.4822 210.971C73.4385 215.512 71.9095 228.916 70.8173 230.488C68.4581 233.894 64.002 232.322 52.7743 231.361C39.5807 230.226 38.0079 227.694 35.2993 224.768C33.5081 222.804 34.8187 215.512 35.0372 214.159C36.0857 207.479 39.0127 196.389 35.2556 177.09Z" fill="#3E80FA"/>
<path d="M60.9883 181.107L61.9931 175.431C64.527 171.283 73.2645 169.973 77.808 168.183C96.5063 160.848 97.7295 142.903 99.2586 134.957L105.943 135.306C105.943 135.306 112.758 180.758 70.3374 193.551L60.9883 181.107Z" fill="#3E80FA"/>
<path d="M13.7615 129.849C20.2273 151.767 40.4546 173.816 46.0029 174.252C46.0029 174.252 51.4202 218.35 16.776 170.628C6.29095 156.176 9.26171 131.29 9.26171 131.29L13.7615 129.849Z" fill="#3E80FA"/>
<path d="M13.674 131.159C14.0235 130.94 14.373 130.678 14.6788 130.329C16.2952 128.67 18.9165 124.653 16.47 122.645C14.6351 121.116 11.4022 121.946 9.52367 122.994C7.20823 124.26 7.77617 127.709 8.73729 129.718C9.82948 131.944 11.8828 132.25 13.674 131.159Z" fill="white"/>
<path d="M11.6645 132.425C11.315 132.425 11.0092 132.381 10.6597 132.294C9.61123 131.988 8.73748 131.202 8.16954 130.023C7.07735 127.797 6.50941 123.954 9.21804 122.426C10.8782 121.509 14.5916 120.287 16.8634 122.164C17.6061 122.776 18.0429 123.605 18.0866 124.609C18.2177 127.011 16.208 129.718 15.1159 130.809C14.7664 131.159 14.3732 131.464 13.98 131.726C13.2373 132.163 12.4509 132.425 11.6645 132.425ZM13.8052 122.47C12.3635 122.47 10.8345 122.994 9.82966 123.561C7.90741 124.609 8.47535 127.753 9.30541 129.456C9.6986 130.285 10.3102 130.853 10.9655 131.071C11.6645 131.29 12.4509 131.115 13.2373 130.635C13.5431 130.46 13.8489 130.198 14.111 129.936C15.2032 128.801 16.8197 126.53 16.7323 124.74C16.6886 124.129 16.4702 123.605 15.9896 123.212C15.4654 122.645 14.679 122.47 13.8052 122.47Z" fill="#261D3F"/>
<path d="M103.54 135.699C103.933 135.656 104.326 135.568 104.763 135.394C106.773 134.651 109.743 131.682 109.175 129.325C108.389 125.919 100.962 125.308 99.1273 127.884C96.8555 130.984 99.6515 136.223 103.54 135.699Z" fill="white"/>
<path d="M103.059 136.398C101.312 136.398 99.608 135.394 98.5595 133.647C97.3363 131.595 97.3363 129.194 98.6032 127.491C99.9138 125.701 103.059 125.352 105.418 125.832C107.821 126.312 109.438 127.578 109.831 129.194C110.53 132.119 107.079 135.263 104.982 136.049C104.545 136.223 104.064 136.311 103.627 136.398C103.453 136.398 103.234 136.398 103.059 136.398ZM103.453 126.967C101.792 126.967 100.263 127.447 99.6954 128.277C98.7779 129.543 98.7779 131.42 99.7391 132.992C100.438 134.127 101.792 135.306 103.496 135.088C103.846 135.044 104.195 134.957 104.545 134.826C106.423 134.127 109.001 131.42 108.564 129.499C108.302 128.408 107.035 127.491 105.156 127.142C104.588 127.011 103.977 126.967 103.453 126.967Z" fill="#261D3F"/>
<path d="M65.7499 233.239C64.0024 233.239 61.9054 232.977 59.2405 232.715C57.3619 232.496 55.2212 232.278 52.731 232.06C40.018 230.968 37.8336 228.523 35.256 225.729C35.1249 225.554 34.9502 225.423 34.8191 225.249C33.5085 223.852 33.3774 220.271 34.3386 214.333L34.3823 214.115C34.557 213.023 34.7754 211.845 35.0376 210.578C35.7366 207.042 36.654 202.588 36.8724 196.869C36.9598 194.511 35.7366 192.284 33.6833 191.018C29.4019 188.399 23.5477 181.675 16.2082 171.065C6.02903 156.307 8.47553 132.294 8.5629 131.29C8.60659 131.028 8.78134 130.809 8.99978 130.722L13.4996 129.281C13.6744 129.237 13.8491 129.237 14.0238 129.325C14.1986 129.412 14.286 129.543 14.3297 129.718C19.7032 147.924 29.1397 158.84 40.018 170.279C42.2023 172.593 45.5663 173.379 48.5807 172.375C51.7262 171.283 59.4152 171.545 63.7403 171.764C64.8762 171.807 66.0994 171.589 67.1916 171.021C69.0265 170.104 71.3419 169.45 73.57 168.838C75.0554 168.445 76.4534 168.052 77.5456 167.616C94.1905 161.067 96.6807 146.222 98.1661 137.315C98.2972 136.442 98.4282 135.612 98.603 134.87C98.6467 134.564 98.9525 134.346 99.302 134.346L105.986 134.695C106.292 134.695 106.554 134.913 106.598 135.219C106.598 135.306 108.476 145.087 106.117 156.613C103.933 167.266 97.6419 181.718 79.9921 189.796C77.1961 191.062 75.2738 193.769 74.968 196.781C74.4874 201.628 74.2253 206.431 74.1816 211.059C74.1816 215.076 72.6963 229.091 71.3856 230.968C70.1187 232.671 68.3712 233.239 65.7499 233.239ZM9.87353 131.77C9.61141 135.088 8.16972 156.962 17.3441 170.279C24.5526 180.758 30.3193 187.351 34.4259 189.883C36.8724 191.411 38.3578 194.074 38.2268 196.912C37.9646 202.763 37.0909 207.217 36.3482 210.84C36.0861 212.063 35.8676 213.242 35.6929 214.29L35.6492 214.508C34.4696 221.668 35.2123 223.72 35.7803 224.332C35.9113 224.506 36.0861 224.637 36.2171 224.812C38.5763 227.388 40.6296 229.658 52.8184 230.706C55.3086 230.925 57.493 231.187 59.3715 231.405C65.7499 232.147 68.6333 232.453 70.2934 230.139C71.2109 228.829 72.8273 215.949 72.871 210.971C72.9147 206.3 73.1768 201.453 73.6574 196.563C74.0069 193.07 76.2349 190.014 79.4678 188.529C96.637 180.67 102.753 166.655 104.85 156.264C106.86 146.484 105.724 138.013 105.418 135.874L99.8262 135.568C99.7389 136.136 99.6078 136.747 99.5204 137.402C98.0787 145.96 95.4138 161.896 78.1135 168.707C76.9339 169.144 75.5359 169.58 74.0069 169.973C71.8662 170.585 69.5944 171.196 67.8906 172.069C66.58 172.724 65.1383 173.03 63.784 172.942C60.3764 172.768 52.2068 172.418 49.1487 173.466C45.6536 174.689 41.7655 173.728 39.2316 171.065C28.3534 159.626 18.8732 148.71 13.4122 130.591L9.87353 131.77Z" fill="#261D3F"/>
<path d="M55.0029 165.651C53.867 166.699 51.5953 168.009 49.8041 167.135C48.4935 166.481 47.7508 164.778 47.7945 162.769C47.1828 162.813 46.3965 162.769 45.8285 162.289C44.9548 161.503 45.1295 160.106 45.1295 159.145C45.2606 154.823 42.7704 154.168 43.382 151.199C43.8626 148.885 45.6538 147.488 46.0033 147.27C47.7071 145.96 48.8866 146.396 51.77 145.61C56.6193 144.344 56.7504 142.248 59.9396 142.205C60.1143 142.205 64.4831 142.248 65.9685 145.217C67.1917 147.662 65.7937 150.631 64.352 152.203C62.4735 154.212 61.1192 153.251 59.2406 154.91C55.9203 157.967 58.4105 162.507 55.0029 165.651Z" fill="#261D3F"/>
<path d="M64.4833 156.962C63.4785 156.089 62.3863 154.343 61.9931 153.076C60.5951 148.448 56.3137 147.793 56.0953 152.378C56.0516 153.6 51.5955 153.557 52.1197 154.823C53.5177 158.141 53.5177 157.268 51.5955 158.49C51.377 158.49 51.1586 158.534 50.9402 158.665C49.9353 159.145 49.5858 160.499 50.1538 161.678C50.5033 162.42 51.1149 162.9 51.7265 163.075V168.358C51.7265 170.323 50.547 172.113 48.7121 172.899L46.9209 173.641C46.9209 173.641 55.2652 179.055 63.6969 173.073L62.561 172.549C60.5951 171.676 59.2845 169.711 59.1971 167.572V166.524C59.765 166.568 60.333 166.524 60.8135 166.393C63.1727 165.695 63.959 162.988 63.5222 159.582L64.527 158.578C65.0075 158.141 64.9639 157.399 64.4833 156.962Z" fill="white"/>
<path d="M55.1342 176.523C50.2412 176.523 46.6151 174.252 46.5714 174.209C46.353 174.078 46.2656 173.859 46.2656 173.597C46.3093 173.335 46.4404 173.161 46.6588 173.073L48.45 172.331C50.0228 171.676 51.0713 170.148 51.0713 168.402V163.555C50.4159 163.25 49.8917 162.682 49.5422 161.983C49.1927 161.241 49.1053 160.455 49.3238 159.757C49.5422 158.971 49.9791 158.403 50.6781 158.098C50.8965 158.01 51.1586 157.923 51.3771 157.879C51.6829 157.705 51.945 157.574 52.1198 157.443C52.2071 157.399 52.3382 157.312 52.4256 157.268C52.3819 157.05 52.2071 156.7 52.0324 156.307C51.9013 155.958 51.7266 155.565 51.5081 155.085C51.3771 154.779 51.3771 154.43 51.5081 154.168C51.8139 153.513 52.7751 153.251 53.8236 152.946C54.3041 152.815 55.2216 152.553 55.44 152.334C55.5274 150.195 56.4885 148.841 58.0176 148.623C59.8961 148.405 61.8184 150.151 62.6485 152.902C62.998 154.081 64.0465 155.696 64.9202 156.482C65.3134 156.788 65.5318 157.268 65.5318 157.748C65.5318 158.229 65.3571 158.709 65.0076 159.058L64.2212 159.844C64.6144 163.686 63.4348 166.306 60.9883 167.048C60.6388 167.135 60.2456 167.223 59.8525 167.223V167.572C59.8961 169.449 61.0757 171.196 62.8232 171.982L63.9591 172.506C64.1775 172.593 64.3086 172.811 64.3523 173.03C64.396 173.248 64.2649 173.51 64.0902 173.641C60.9883 175.824 57.8865 176.523 55.1342 176.523ZM48.45 173.728C50.8091 174.863 56.4448 176.741 62.3426 173.204H62.299C60.1146 172.244 58.6292 170.017 58.5418 167.616V166.568C58.5418 166.393 58.6292 166.219 58.7603 166.088C58.8913 165.957 59.0661 165.913 59.2408 165.913C59.7651 165.957 60.202 165.913 60.6388 165.782C63.2601 164.996 63.0853 161.285 62.9106 159.713C62.8669 159.495 62.9543 159.32 63.0853 159.189L64.0902 158.185C64.1775 158.098 64.2212 157.967 64.2212 157.836C64.2212 157.705 64.1775 157.574 64.0465 157.486C62.9543 156.569 61.7747 154.692 61.3378 153.295C60.6388 150.937 59.1535 149.802 58.1486 149.933C57.3186 150.02 56.7943 150.981 56.7506 152.422C56.707 153.469 55.44 153.819 54.2168 154.168C53.7799 154.299 53.0372 154.517 52.7751 154.692C52.9498 155.129 53.1246 155.478 53.2556 155.783C53.9109 157.312 54.1731 157.879 52.7751 158.621C52.5566 158.752 52.2945 158.883 51.945 159.102C51.8576 159.145 51.7266 159.189 51.6392 159.189C51.5081 159.189 51.3771 159.233 51.246 159.276C50.9402 159.407 50.7218 159.713 50.6344 160.106C50.5033 160.543 50.5907 161.023 50.8091 161.459C51.0713 161.983 51.5081 162.376 51.9887 162.507C52.2508 162.595 52.4693 162.857 52.4693 163.119V168.402C52.4693 170.672 51.1149 172.68 49.0616 173.51L48.45 173.728Z" fill="#261D3F"/>
<path d="M59.1973 167.223C59.1536 167.223 59.1536 167.223 59.1099 167.223C55.5712 166.699 53.9548 163.992 53.8674 163.861C53.6926 163.555 53.78 163.162 54.0858 162.988C54.3916 162.813 54.7848 162.9 54.9596 163.206C55.0033 163.293 56.3576 165.476 59.241 165.957C59.5905 166 59.8526 166.349 59.8089 166.699C59.8089 166.961 59.5031 167.223 59.1973 167.223Z" fill="#261D3F"/>
<path d="M188.948 355.185C169.551 355.185 149.673 351.648 130.32 344.619C129.97 344.488 129.795 344.138 129.926 343.789C130.057 343.44 130.407 343.265 130.756 343.396C168.24 357.018 207.646 357.368 241.723 344.4C242.072 344.269 242.422 344.444 242.553 344.793C242.684 345.143 242.509 345.492 242.16 345.623C225.471 351.997 207.428 355.185 188.948 355.185Z" fill="#261D3F"/>
<path d="M190.303 346.365C176.192 346.365 161.775 344.357 147.489 340.296C147.139 340.209 146.921 339.816 147.052 339.467C147.139 339.117 147.533 338.899 147.882 339.03C175.973 347.02 204.501 347.064 230.452 339.248C230.801 339.161 231.151 339.336 231.282 339.685C231.369 340.034 231.194 340.383 230.845 340.514C217.826 344.4 204.195 346.365 190.303 346.365Z" fill="#261D3F"/>
<path d="M125.864 344.75C125.776 344.75 125.733 344.75 125.645 344.75C124.815 344.706 124.072 344.313 123.548 343.702C123.024 343.09 122.762 342.305 122.805 341.475C122.849 340.645 123.242 339.903 123.854 339.379C124.466 338.855 125.252 338.593 126.082 338.637C127.786 338.768 129.053 340.209 128.922 341.912C128.878 342.741 128.485 343.483 127.873 344.007C127.305 344.488 126.563 344.75 125.864 344.75ZM125.82 339.947C125.383 339.947 124.99 340.078 124.684 340.383C124.335 340.689 124.116 341.126 124.072 341.606C124.029 342.086 124.203 342.523 124.509 342.872C124.815 343.221 125.252 343.44 125.733 343.483C126.213 343.527 126.65 343.352 126.999 343.047C127.349 342.741 127.567 342.305 127.611 341.824C127.698 340.864 126.956 340.034 125.995 339.947C125.907 339.947 125.864 339.947 125.82 339.947Z" fill="#261D3F"/>
<path d="M248.539 345.841C248.364 345.841 248.189 345.754 248.058 345.666L243.82 341.431C243.646 341.257 243.602 341.038 243.646 340.82C243.689 340.602 243.864 340.427 244.083 340.34C246.747 339.467 249.456 338.768 249.5 338.768C249.718 338.724 249.937 338.768 250.111 338.943C250.286 339.117 250.33 339.336 250.286 339.554L249.15 345.361C249.107 345.579 248.932 345.797 248.713 345.841C248.67 345.841 248.626 345.841 248.539 345.841ZM245.524 341.213L248.145 343.833L248.844 340.252C248.014 340.514 246.835 340.82 245.524 341.213Z" fill="#261D3F"/>
<path d="M315.424 9.12522C315.293 9.12522 315.205 9.08156 315.074 9.0379C314.768 8.86325 314.681 8.42664 314.856 8.12101L315.904 6.41822C316.079 6.11259 316.516 6.02527 316.822 6.19991C317.127 6.37456 317.215 6.81117 317.04 7.1168L315.992 8.81959C315.86 9.0379 315.642 9.12522 315.424 9.12522Z" fill="#261D3F"/>
<path d="M310.356 17.2462C310.225 17.2462 310.138 17.2025 310.007 17.1589C309.701 16.9842 309.614 16.5476 309.788 16.242L310.837 14.5392C311.012 14.2336 311.448 14.1462 311.754 14.3209C312.06 14.4955 312.147 14.9321 311.973 15.2378L310.924 16.9406C310.793 17.1152 310.575 17.2462 310.356 17.2462Z" fill="#261D3F"/>
<path d="M318.351 15.3688C318.22 15.3688 318.133 15.3251 318.002 15.2815L316.298 14.2336C315.992 14.059 315.905 13.6223 316.079 13.3167C316.254 13.0111 316.691 12.9238 316.997 13.0984L318.701 14.1463C319.006 14.3209 319.094 14.7575 318.919 15.0632C318.788 15.2815 318.569 15.3688 318.351 15.3688Z" fill="#261D3F"/>
<path d="M310.181 10.3477C310.05 10.3477 309.963 10.3041 309.832 10.2604L308.128 9.21255C307.822 9.0379 307.735 8.60129 307.909 8.29566C308.084 7.99003 308.521 7.90271 308.827 8.07735L310.531 9.12522C310.836 9.29987 310.924 9.73648 310.749 10.0421C310.618 10.2168 310.4 10.3477 310.181 10.3477Z" fill="#261D3F"/>
<path d="M278.421 233.457C278.377 233.457 278.377 233.457 278.333 233.457C277.984 233.413 277.722 233.064 277.766 232.715L278.028 230.925C278.071 230.575 278.421 230.313 278.77 230.357C279.12 230.401 279.382 230.75 279.338 231.099L279.076 232.889C279.032 233.239 278.77 233.457 278.421 233.457Z" fill="#261D3F"/>
<path d="M277.241 241.971C277.197 241.971 277.197 241.971 277.154 241.971C276.804 241.927 276.542 241.578 276.586 241.229L276.848 239.439C276.892 239.089 277.241 238.827 277.591 238.871C277.94 238.915 278.202 239.264 278.159 239.613L277.896 241.403C277.853 241.753 277.591 241.971 277.241 241.971Z" fill="#261D3F"/>
<path d="M274.576 236.339C274.533 236.339 274.533 236.339 274.489 236.339L272.698 236.077C272.348 236.033 272.086 235.684 272.13 235.334C272.173 234.985 272.523 234.723 272.872 234.767L274.664 235.029C275.013 235.072 275.275 235.422 275.232 235.771C275.188 236.12 274.926 236.339 274.576 236.339Z" fill="#261D3F"/>
<path d="M283.096 237.605C283.052 237.605 283.052 237.605 283.008 237.605L281.217 237.343C280.868 237.299 280.606 236.95 280.649 236.601C280.693 236.251 281.042 235.989 281.392 236.033L283.183 236.295C283.533 236.339 283.795 236.688 283.751 237.037C283.707 237.343 283.445 237.605 283.096 237.605Z" fill="#261D3F"/>
<path d="M306.425 236.513C306.163 236.513 305.9 236.47 305.638 236.426C303.454 235.989 301.969 233.85 302.405 231.667C302.842 229.484 304.983 227.999 307.167 228.436C309.352 228.872 310.837 231.012 310.4 233.195C310.182 234.243 309.57 235.203 308.696 235.815C307.997 236.251 307.211 236.513 306.425 236.513ZM303.672 231.929C303.367 233.413 304.371 234.854 305.857 235.16C306.599 235.291 307.298 235.16 307.91 234.723C308.522 234.33 308.915 233.675 309.09 232.977C309.395 231.492 308.391 230.051 306.905 229.746C305.42 229.44 303.978 230.401 303.672 231.929Z" fill="#261D3F"/>
<path d="M325.254 219.573C325.079 219.573 324.86 219.573 324.642 219.529C322.938 219.223 321.846 217.564 322.152 215.861C322.458 214.159 324.118 213.067 325.822 213.373C327.525 213.678 328.618 215.338 328.312 217.04C328.006 218.525 326.695 219.573 325.254 219.573ZM323.462 216.123C323.288 217.084 323.899 218.045 324.904 218.263C325.865 218.437 326.826 217.826 327.045 216.822C327.22 215.861 326.608 214.901 325.603 214.683C324.598 214.508 323.637 215.119 323.462 216.123Z" fill="#261D3F"/>
</g>
<defs>
<clipPath id="clip0_5046_5454">
<rect width="363" height="363" fill="white"/>
</clipPath>
</defs>
</svg>
