<svg width="50" height="50" viewBox="0 0 50 50" fill="none" xmlns="http://www.w3.org/2000/svg">
<rect x="0.5" y="0.5" width="49" height="49" rx="5.5" stroke="#261D3F"/>
<path d="M20.6367 33.7743C22.2786 33.8293 23.9149 33.5543 25.4488 32.9657C26.9827 32.3771 28.3832 31.4868 29.5674 30.3474C30.7516 29.208 31.6955 27.8426 32.3434 26.3319C32.9913 24.8213 33.33 23.196 33.3394 21.5521C34.0919 20.6203 34.6506 19.5474 34.9828 18.3965C35.0076 18.3056 35.0056 18.2094 34.977 18.1196C34.9485 18.0298 34.8946 17.9501 34.8218 17.8903C34.7491 17.8304 34.6606 17.7928 34.567 17.7821C34.4734 17.7714 34.3787 17.788 34.2944 17.8299C33.9007 18.0195 33.4575 18.0807 33.0273 18.005C32.597 17.9292 32.2013 17.7203 31.8959 17.4076C31.5062 16.9805 31.0346 16.636 30.5094 16.3946C29.9841 16.1531 29.4157 16.0196 28.8379 16.002C28.2601 15.9844 27.6847 16.083 27.1457 16.292C26.6067 16.501 26.1151 16.8161 25.7 17.2187C25.1318 17.7695 24.7155 18.458 24.4917 19.2173C24.268 19.9766 24.2443 20.7809 24.4231 21.5521C20.7033 21.7743 18.1495 20.0076 16.1064 17.5854C16.045 17.5159 15.9647 17.4657 15.8753 17.441C15.7859 17.4164 15.6913 17.4183 15.603 17.4466C15.5147 17.4749 15.4365 17.5283 15.378 17.6003C15.3195 17.6723 15.2832 17.7598 15.2736 17.8521C14.8844 20.0125 15.1652 22.2405 16.0782 24.2366C16.9913 26.2327 18.4929 27.9015 20.3813 29.0187C19.1151 30.4719 17.3369 31.3795 15.418 31.5521C15.3151 31.5691 15.2202 31.6179 15.1465 31.6916C15.0728 31.7654 15.024 31.8603 15.0068 31.9631C14.9897 32.066 15.0051 32.1716 15.051 32.2653C15.0968 32.3589 15.1708 32.4359 15.2625 32.4854C16.932 33.3203 18.7704 33.7612 20.6367 33.7743Z" fill="#261D3F"/>
</svg>
