<svg width="40" height="40" viewBox="0 0 40 40" fill="none" xmlns="http://www.w3.org/2000/svg">
<rect x="0.5" y="0.5" width="39" height="39" rx="5.5" stroke="black"/>
<path d="M26.0741 11.1915C26.0741 11.054 26.0195 10.9222 25.9222 10.8249C25.825 10.7277 25.6931 10.6731 25.5556 10.6731H22.963C21.6575 10.6081 20.3793 11.0623 19.4077 11.9364C18.4362 12.8105 17.8502 14.0336 17.7778 15.3383V18.1373H15.1852C15.0477 18.1373 14.9158 18.1919 14.8186 18.2892C14.7213 18.3864 14.6667 18.5182 14.6667 18.6557V21.3511C14.6667 21.4886 14.7213 21.6204 14.8186 21.7176C14.9158 21.8148 15.0477 21.8694 15.1852 21.8694H17.7778V28.8153C17.7778 28.9528 17.8324 29.0846 17.9297 29.1818C18.0269 29.279 18.1588 29.3337 18.2963 29.3337H21.4074C21.5449 29.3337 21.6768 29.279 21.7741 29.1818C21.8713 29.0846 21.9259 28.9528 21.9259 28.8153V21.8694H24.643C24.7583 21.8711 24.8709 21.8343 24.9629 21.7648C25.0549 21.6953 25.1212 21.5972 25.1511 21.4859L25.8978 18.7905C25.9184 18.7139 25.9212 18.6336 25.9059 18.5557C25.8906 18.4779 25.8576 18.4046 25.8096 18.3415C25.7615 18.2784 25.6995 18.2272 25.6285 18.1918C25.5575 18.1564 25.4794 18.1378 25.4 18.1373H21.9259V15.3383C21.9517 15.0816 22.0723 14.8439 22.264 14.6713C22.4558 14.4988 22.705 14.4039 22.963 14.4052H25.5556C25.6931 14.4052 25.825 14.3506 25.9222 14.2534C26.0195 14.1562 26.0741 14.0244 26.0741 13.8869V11.1915Z" fill="black"/>
</svg>
