<svg width="40" height="40" viewBox="0 0 40 40" fill="none" xmlns="http://www.w3.org/2000/svg">
<rect x="0.5" y="0.5" width="39" height="39" rx="5.5" stroke="black"/>
<path d="M14.8454 29.3337H10.9754V16.871H14.8454V29.3337ZM12.908 15.171C11.6707 15.171 10.6667 14.1457 10.6667 12.9083C10.6667 12.3139 10.9028 11.7438 11.3232 11.3235C11.7435 10.9031 12.3136 10.667 12.908 10.667C13.5025 10.667 14.0726 10.9031 14.4929 11.3235C14.9132 11.7438 15.1494 12.3139 15.1494 12.9083C15.1494 14.1457 14.1454 15.171 12.908 15.171ZM29.3294 29.3337H25.468V23.267C25.468 21.821 25.4387 19.967 23.456 19.967C21.444 19.967 21.1354 21.5377 21.1354 23.163V29.3337H17.2694V16.871H20.9807V18.571H21.0347C21.5514 17.5917 22.8134 16.5583 24.696 16.5583C28.6127 16.5583 29.3327 19.1377 29.3327 22.4877V29.3337H29.3294Z" fill="black"/>
</svg>
