<svg width="40" height="40" viewBox="0 0 40 40" fill="none" xmlns="http://www.w3.org/2000/svg">
<rect x="0.5" y="0.5" width="39" height="39" rx="5.5" stroke="black"/>
<path d="M15.9276 28.5893C17.4601 28.6407 18.9872 28.384 20.4189 27.8347C21.8505 27.2853 23.1576 26.4544 24.2629 25.3909C25.3681 24.3275 26.2491 23.0531 26.8538 21.6432C27.4585 20.2332 27.7746 18.7162 27.7835 17.1819C28.4858 16.3123 29.0072 15.3109 29.3173 14.2368C29.3404 14.1519 29.3385 14.0621 29.3119 13.9783C29.2852 13.8945 29.2349 13.8201 29.167 13.7642C29.0991 13.7084 29.0165 13.6733 28.9292 13.6633C28.8419 13.6533 28.7535 13.6688 28.6747 13.7079C28.3073 13.8848 27.8937 13.942 27.4921 13.8713C27.0905 13.8006 26.7212 13.6056 26.4362 13.3138C26.0724 12.9151 25.6323 12.5936 25.1421 12.3682C24.6518 12.1429 24.1213 12.0183 23.582 12.0019C23.0428 11.9854 22.5057 12.0775 22.0026 12.2725C21.4996 12.4676 21.0408 12.7617 20.6534 13.1375C20.123 13.6515 19.7345 14.2941 19.5256 15.0028C19.3168 15.7115 19.2947 16.4622 19.4616 17.1819C15.9898 17.3893 13.6062 15.7405 11.6993 13.4797C11.642 13.4148 11.5671 13.368 11.4836 13.345C11.4002 13.322 11.3119 13.3238 11.2294 13.3502C11.147 13.3766 11.074 13.4264 11.0194 13.4936C10.9649 13.5608 10.931 13.6425 10.922 13.7286C10.5587 15.745 10.8208 17.8244 11.673 19.6875C12.5252 21.5506 13.9267 23.1081 15.6892 24.1508C14.5074 25.5071 12.8478 26.3542 11.0567 26.5153C10.9608 26.5312 10.8722 26.5767 10.8034 26.6455C10.7346 26.7143 10.689 26.8029 10.673 26.8989C10.657 26.9949 10.6714 27.0935 10.7142 27.1809C10.757 27.2684 10.8261 27.3402 10.9117 27.3864C12.4698 28.1656 14.1857 28.5771 15.9276 28.5893Z" fill="black"/>
</svg>
