<svg width="25" height="24" viewBox="0 0 25 24" fill="none" xmlns="http://www.w3.org/2000/svg">
<path d="M6.11629 10C5.01544 10 4.11475 10.9 4.11475 12C4.11475 13.1 5.01544 14 6.11629 14C7.21714 14 8.11783 13.1 8.11783 12C8.11783 10.9 7.21714 10 6.11629 10ZM18.1256 10C17.0247 10 16.124 10.9 16.124 12C16.124 13.1 17.0247 14 18.1256 14C19.2264 14 20.1271 13.1 20.1271 12C20.1271 10.9 19.2264 10 18.1256 10ZM12.1209 10C11.0201 10 10.1194 10.9 10.1194 12C10.1194 13.1 11.0201 14 12.1209 14C13.2218 14 14.1225 13.1 14.1225 12C14.1225 10.9 13.2218 10 12.1209 10Z" fill="black"/>
</svg>
