<svg width="22" height="20" viewBox="0 0 22 20" fill="none" xmlns="http://www.w3.org/2000/svg">
<path d="M1.70349 0.854797H20.507V19.1455H1.70349V0.854797Z" fill="#261300"/>
<path d="M0.848633 0V20H21.3615V0H0.848633ZM1.70344 0.854808H20.507V19.1455H1.70344V0.854808ZM7.96818 11.3247L7.29286 13.8888C7.27588 13.9571 7.25023 13.9744 7.16466 13.9744H5.90825C5.82267 13.9744 5.80568 13.9487 5.82267 13.8462L8.24991 5.35032C8.29254 5.19647 8.31818 5.05961 8.33549 4.64103C8.33549 4.58109 8.36113 4.55545 8.40376 4.55545H10.1986C10.2586 4.55545 10.2842 4.57244 10.3012 4.64103L13.0191 13.8631C13.0361 13.9314 13.0191 13.9744 12.9509 13.9744H11.532C11.4637 13.9744 11.4207 13.9574 11.4038 13.8974L10.6945 11.3247H7.96818ZM10.3441 9.94006L9.32716 5.92308H9.31017C9.13068 6.92308 8.6778 8.61538 8.31882 9.94006H10.3441ZM14.1903 5.18782C14.1903 4.64071 14.5749 4.31603 15.0621 4.31603C15.5836 4.31603 15.9339 4.66635 15.9339 5.18782C15.9339 5.75192 15.5663 6.05962 15.0451 6.05962C14.5493 6.05962 14.1903 5.75192 14.1903 5.18782V5.18782ZM14.2929 7.12788C14.2929 7.05962 14.3185 7.02532 14.3954 7.02532H15.7374C15.8057 7.02532 15.84 7.05096 15.84 7.12788V13.8715C15.84 13.9397 15.823 13.974 15.7374 13.974H14.4127C14.3272 13.974 14.3015 13.9314 14.3015 13.8628V7.12821L14.2929 7.12788Z" fill="#FF7C00"/>
</svg>
