<svg width="21" height="20" viewBox="0 0 21 20" fill="none" xmlns="http://www.w3.org/2000/svg">
<path d="M20.4853 0H0.361816V20H20.4853V0Z" fill="#87BCF6"/>
<path d="M18.7989 1.67609H2.04834V18.3239H18.7989V1.67609Z" fill="#252653"/>
<path fill-rule="evenodd" clip-rule="evenodd" d="M15.2815 7.86298C13.7913 7.1114 11.2258 7.47548 11.2258 9.43635C11.2258 10.8966 12.2362 11.4713 13.4715 11.9537C15.2269 12.639 13.5209 13.9341 11.378 12.5948C11.378 12.5948 11.3012 12.5571 11.2635 12.5948C11.2258 12.6325 11.2258 12.6702 11.2258 12.7092C11.2258 12.7469 11.2258 14.1161 11.2258 14.1161C11.9748 14.4997 12.5339 14.6948 13.3986 14.6857C16.1878 14.6571 16.5896 11.9862 15.1059 10.959C14.8368 10.7718 14.1164 10.3986 13.8889 10.3115C12.7095 9.86155 12.8096 9.2218 13.1841 8.89932C13.5976 8.54174 14.7445 9.08266 15.2269 9.38433C15.5194 9.56508 15.5676 9.34012 15.5663 9.14248L15.5623 8.20756C15.5623 7.9852 15.4856 7.967 15.2815 7.86298Z" fill="#87BCF6"/>
<path fill-rule="evenodd" clip-rule="evenodd" d="M6.6683 10.1983V6.77332C6.6683 6.75641 6.72812 6.6979 6.74372 6.6979C8.19486 6.62378 9.02055 6.90725 9.09467 8.45721C9.17919 10.236 7.68774 10.2737 6.6683 10.2737V10.1983ZM4.91809 5.4418V14.6493H6.6683V11.682C8.81901 11.8354 10.7591 11.0643 10.7591 8.57814C10.7591 7.5756 10.447 6.56657 9.70712 5.95672C8.67337 5.10372 6.25741 5.29357 4.91809 5.4418Z" fill="#87BCF6"/>
</svg>
