<svg width="21" height="20" viewBox="0 0 21 20" fill="none" xmlns="http://www.w3.org/2000/svg">
<path fill-rule="evenodd" clip-rule="evenodd" d="M4.19956 0.0218647C3.88326 0.125645 3.64699 0.340324 3.55635 0.606384C3.5122 0.735934 3.49593 0.945099 3.49593 1.38282V1.98197H2.44726C1.26093 1.98197 1.11754 2.005 0.843622 2.23946C0.752394 2.31751 0.638798 2.4543 0.59117 2.54338L0.504517 2.70538V9.99819V17.291L0.59117 17.453C0.638798 17.5421 0.752394 17.6789 0.843622 17.7569C1.15223 18.0211 1.05822 18.0144 4.48064 18.0144C6.17578 18.0144 7.5627 18.0022 7.5627 17.9872C7.5627 17.9722 7.48504 17.8095 7.39014 17.6255C7.01603 16.9003 6.7716 16.1692 6.59852 15.2576C6.51649 14.8255 6.48555 13.6324 6.54323 13.1243C6.95601 9.48679 9.83848 6.54597 13.4595 6.06797C14.0264 5.99313 14.9979 5.99324 15.5108 6.06817C16.9021 6.27147 18.1057 6.78106 19.4013 7.71536L19.4893 7.77883L19.4884 5.28121C19.4874 2.48183 19.5011 2.62209 19.1995 2.32045C18.9225 2.0434 18.8009 2.00641 18.1109 1.98916L17.495 1.97376V1.37872C17.495 0.703478 17.4504 0.507061 17.2509 0.303019C17.0334 0.0804809 16.8495 0.00860866 16.4979 0.00860866C16.1514 0.00860866 15.9594 0.082006 15.7691 0.287143C15.5447 0.529115 15.5217 0.620148 15.5074 1.32698L15.4941 1.98197H10.4955H5.49682L5.48353 1.32698C5.47242 0.781059 5.45811 0.649202 5.39754 0.535137C5.21708 0.195289 4.94171 0.0218647 4.55173 0.0023912C4.41193 -0.00456923 4.25345 0.00418996 4.19956 0.0218647ZM13.6433 8.06139C11.2226 8.4344 9.27794 10.1976 8.68216 12.5595C8.4125 13.6284 8.45532 14.8317 8.7997 15.8637C9.39931 17.6604 10.7971 19.0739 12.5734 19.6797C13.8106 20.1016 15.1144 20.1068 16.369 19.6948C19.5277 18.6575 21.2478 15.2162 20.1769 12.0761C19.8839 11.217 19.4479 10.5113 18.7877 9.82758C17.9394 8.94908 16.9085 8.38368 15.6767 8.12126C15.1688 8.01302 14.1514 7.98307 13.6433 8.06139ZM14.9728 10.1061C15.1541 10.1993 15.3049 10.3516 15.4083 10.5456C15.4738 10.6687 15.4824 10.7997 15.493 11.8426L15.505 13.0027L16.1774 13.0159C16.9127 13.0302 16.98 13.0477 17.2183 13.2859C17.3986 13.4662 17.4655 13.6227 17.4862 13.9128C17.5189 14.3697 17.3476 14.6964 16.9692 14.899C16.8156 14.9813 16.7701 14.9839 15.5007 14.9839C14.2313 14.9839 14.1858 14.9813 14.0323 14.899C13.8072 14.7786 13.6369 14.5904 13.5668 14.3847C13.477 14.121 13.477 10.8806 13.5668 10.6169C13.6575 10.3508 13.8938 10.1361 14.2101 10.0324C14.3773 9.9775 14.8029 10.0186 14.9728 10.1061Z" fill="#F19876"/>
</svg>
