<svg width="15" height="20" viewBox="0 0 15 20" fill="none" xmlns="http://www.w3.org/2000/svg">
<path d="M7.77496 20L1.98838 18.3936L0.69873 3.93073H14.868L13.5776 18.3912L7.77496 20Z" fill="#264DE4"/>
<path d="M12.4724 17.4704L13.5752 5.11285H7.78302V18.7705L12.4724 17.4704Z" fill="#2965F1"/>
<path d="M3.65496 10.4768L3.81376 12.2509H7.78296V10.4768H3.65496ZM3.33575 6.88696L3.49696 8.66103H7.78376V6.88696H3.33575ZM7.78296 15.0836L7.77494 15.086L5.79956 14.5527L5.67365 13.1379H3.89316L4.14179 15.9233L7.77574 16.9323L7.78376 16.9299V15.0836H7.78296Z" fill="#EBEBEB"/>
<path d="M4.03351 0H6.18212V0.898264H4.93177V1.79653H6.18212V2.69479H4.03351V0ZM6.6112 0H8.75982V0.781169H7.51027V0.937563H8.76062V2.73409H6.6112V1.91362H7.86156V1.75723H6.6112V0ZM9.1897 0H11.3383V0.781169H10.088V0.937563H11.3383V2.73409H9.1897V1.91362H10.4401V1.75723H9.19051L9.1897 0Z" fill="black"/>
<path d="M11.9005 10.4768L12.2205 6.88617H7.77729V8.66024H10.2764L10.1152 10.4768H7.77729V12.2509H9.96119L9.75507 14.5511L7.77649 15.0852V16.9307L11.4129 15.9225L11.4393 15.6226L11.8564 10.9524L11.9005 10.4768Z" fill="white"/>
</svg>
