<svg width="21" height="20" viewBox="0 0 21 20" fill="none" xmlns="http://www.w3.org/2000/svg">
<mask id="mask0_6583_25993" style="mask-type:alpha" maskUnits="userSpaceOnUse" x="0" y="0" width="21" height="20">
<rect x="0.0258789" width="20" height="20" fill="#C4C4C4"/>
</mask>
<g mask="url(#mask0_6583_25993)">
</g>
<g clip-path="url(#clip0_6583_25993)">
<path d="M5.5203 5.44496L4.22717 4.15121L4.23217 13.4959L4.2478 13.9322C4.25405 14.1384 4.29311 14.3697 4.35561 14.6103L14.5978 18.2228L17.1603 17.0884L17.1625 17.0847L5.51967 5.44496H5.5203Z" fill="#00C4B3"/>
<path d="M4.35549 14.6103H4.35643C4.35549 14.6066 4.35393 14.6022 4.35205 14.5978C4.35424 14.6025 4.35424 14.6072 4.35518 14.6103H4.35549ZM17.1574 17.0884L14.5949 18.2228L4.35424 14.6103C4.54955 15.3616 4.98299 16.2059 5.44861 16.6666L8.78924 19.9906L16.223 20L17.1542 17.0884H17.1574Z" fill="#22D3C5"/>
<path d="M4.26257 4.15192L0.280385 10.166C-0.0502403 10.5191 0.11476 11.2479 0.646947 11.7847L2.9457 14.1022L4.3907 14.6116C4.3282 14.3716 4.28882 14.1429 4.28288 13.9335L4.26726 13.4972L4.26257 4.15254V4.15192Z" fill="#0075C9"/>
<path d="M14.683 4.27185C14.4424 4.21091 14.2118 4.17247 14.004 4.16653L13.5421 4.14966L4.22803 4.15185L17.163 17.085L18.2993 14.5225L14.6837 4.27247L14.683 4.27185Z" fill="#0075C9"/>
<path d="M14.6703 4.26967C14.6744 4.27123 14.6787 4.27217 14.6822 4.27279V4.27154C14.6781 4.27061 14.6744 4.27061 14.6703 4.26904V4.26967ZM16.7375 5.36904C16.2672 4.89561 15.4344 4.46279 14.6822 4.27279L18.2978 14.5219L17.1603 17.0844L19.9359 16.1975L19.9422 8.58748L16.7372 5.36873L16.7375 5.36904Z" fill="#00A8E1"/>
<path d="M14.1752 2.83591L11.8627 0.535911C11.3233 0.00559811 10.5946 -0.160027 10.2446 0.169973L4.23083 4.15122L13.5449 4.14904L14.0068 4.16591C14.2146 4.17216 14.4455 4.21029 14.6858 4.27122L14.1758 2.83529L14.1752 2.83591Z" fill="#00C4B3"/>
</g>
<defs>
<clipPath id="clip0_6583_25993">
<rect width="20" height="20" fill="white" transform="translate(0.0258789)"/>
</clipPath>
</defs>
</svg>
