<svg width="14" height="20" viewBox="0 0 14 20" fill="none" xmlns="http://www.w3.org/2000/svg">
<path d="M3.84847 20C4.73253 20 5.58037 19.6488 6.2055 19.0237C6.83062 18.3986 7.18181 17.5507 7.18181 16.6667V13.3333H3.84847C2.96442 13.3333 2.11657 13.6845 1.49145 14.3097C0.866326 14.9348 0.515137 15.7826 0.515137 16.6667C0.515137 17.5507 0.866326 18.3986 1.49145 19.0237C2.11657 19.6488 2.96442 20 3.84847 20V20Z" fill="#0ACF83"/>
<path d="M0.515137 10C0.515137 9.11597 0.866326 8.26812 1.49145 7.643C2.11657 7.01788 2.96442 6.66669 3.84847 6.66669H7.18181V13.3334H3.84847C2.96442 13.3334 2.11657 12.9822 1.49145 12.357C0.866326 11.7319 0.515137 10.8841 0.515137 10V10Z" fill="#A259FF"/>
<path d="M0.515137 3.33334C0.515136 2.44973 0.865969 1.60228 1.49053 0.977232C2.11509 0.352185 2.96226 0.000690316 3.84587 0L7.1792 0V6.66667H3.84847C2.96442 6.66667 2.11657 6.31548 1.49145 5.69036C0.866326 5.06524 0.515137 4.21739 0.515137 3.33334V3.33334Z" fill="#F24E1E"/>
<path d="M7.18176 0H10.5151C11.3992 0 12.247 0.35119 12.8721 0.976311C13.4972 1.60143 13.8484 2.44928 13.8484 3.33334C13.8484 4.21739 13.4972 5.06524 12.8721 5.69036C12.247 6.31548 11.3992 6.66667 10.5151 6.66667H7.18176V0Z" fill="#FF7262"/>
<path d="M13.8484 10C13.8484 10.8841 13.4972 11.7319 12.8721 12.357C12.247 12.9822 11.3992 13.3334 10.5151 13.3334C9.63104 13.3334 8.7832 12.9822 8.15807 12.357C7.53295 11.7319 7.18176 10.8841 7.18176 10C7.18176 9.11597 7.53295 8.26812 8.15807 7.643C8.7832 7.01788 9.63104 6.66669 10.5151 6.66669C11.3992 6.66669 12.247 7.01788 12.8721 7.643C13.4972 8.26812 13.8484 9.11597 13.8484 10V10Z" fill="#1ABCFE"/>
</svg>
