<svg width="15" height="20" viewBox="0 0 15 20" fill="none" xmlns="http://www.w3.org/2000/svg">
<path d="M0.0258789 16.1432L0.147313 15.9739L5.87615 5.10627L5.88829 4.99127L3.36317 0.248191C3.31695 0.161457 3.24462 0.0914535 3.15642 0.0480853C3.06822 0.00471706 2.96861 -0.00982032 2.8717 0.00652974C2.77478 0.0228798 2.68546 0.0692895 2.61637 0.139193C2.54728 0.209097 2.50192 0.298955 2.48671 0.396055L0.0258789 16.1432Z" fill="#FFC24A"/>
<path d="M0.09729 16.0146L0.188723 15.836L5.85827 5.08124L3.33958 0.319597C3.29805 0.236788 3.2308 0.169666 3.14791 0.128288C3.06502 0.0869093 2.97096 0.0735018 2.87981 0.0900741C2.78866 0.106646 2.70534 0.152306 2.64232 0.220213C2.5793 0.288119 2.53999 0.374617 2.53026 0.466746L0.09729 16.0146Z" fill="#FFA712"/>
<path d="M7.72912 8.57859L9.60921 6.64993L7.72841 3.06334C7.68701 2.98615 7.62546 2.92163 7.5503 2.87665C7.47514 2.83168 7.38919 2.80792 7.3016 2.80792C7.21401 2.80792 7.12806 2.83168 7.05291 2.87665C6.97775 2.92163 6.91619 2.98615 6.8748 3.06334L5.86975 4.97914V5.14272L7.72912 8.57859Z" fill="#F4BD62"/>
<path d="M7.69553 8.49997L9.52347 6.62845L7.69553 3.14258C7.66561 3.06712 7.61451 3.00193 7.54837 2.95487C7.48224 2.9078 7.40391 2.88087 7.32282 2.87733C7.24172 2.87378 7.16134 2.89376 7.09135 2.93487C7.02135 2.97598 6.96475 3.03645 6.92835 3.109L5.91831 5.05838L5.88831 5.15767L7.69553 8.49997Z" fill="#FFA50E"/>
<path d="M0.0273438 16.1439L0.0823464 16.0882L0.281641 16.0075L7.61055 8.7057L7.70341 8.45283L5.87547 4.96838L0.0273438 16.1439Z" fill="#F6820C"/>
<path d="M7.96339 19.8262L14.598 16.1267L12.7022 4.46118C12.6886 4.37895 12.6526 4.30205 12.5982 4.23892C12.5437 4.1758 12.473 4.12889 12.3936 4.10336C12.3143 4.07782 12.2294 4.07464 12.1484 4.09416C12.0674 4.11369 11.9933 4.15516 11.9343 4.21403L0.0258789 16.1431L6.62118 19.8255C6.82622 19.9399 7.05712 19.9999 7.29193 19.9999C7.52673 19.9999 7.75763 19.9399 7.96267 19.8255" fill="#FDE068"/>
<path d="M14.5372 16.096L12.6572 4.51837C12.6538 4.43971 12.6273 4.36381 12.5808 4.30026C12.5343 4.23672 12.47 4.18839 12.3961 4.16139C12.3221 4.1344 12.2418 4.12995 12.1653 4.1486C12.0888 4.16726 12.0196 4.20819 11.9664 4.26621L0.09729 16.121L6.61973 19.7641C6.82314 19.8775 7.0522 19.9371 7.28512 19.9371C7.51804 19.9371 7.7471 19.8775 7.95051 19.7641L14.5372 16.096Z" fill="#FCCA3F"/>
<path d="M7.96339 19.7148C7.75834 19.8292 7.52744 19.8892 7.29264 19.8892C7.05784 19.8892 6.82694 19.8292 6.6219 19.7148L0.0801669 16.0874L0.0258789 16.1432L6.62118 19.8255C6.82622 19.9399 7.05712 20 7.29193 20C7.52673 20 7.75763 19.9399 7.96267 19.8255L14.598 16.1267L14.5815 16.0267L7.96339 19.7148Z" fill="#EEAB37"/>
</svg>
