<svg width="21" height="20" viewBox="0 0 21 20" fill="none" xmlns="http://www.w3.org/2000/svg">
<path d="M19.8507 9.10905L11.1198 0.378105C11.0003 0.258259 10.8584 0.163167 10.7022 0.0982832C10.5459 0.0333994 10.3784 0 10.2092 0C10.04 0 9.87247 0.0333994 9.71621 0.0982832C9.55995 0.163167 9.41803 0.258259 9.2986 0.378105L7.48528 2.19143L9.78496 4.49111C10.0561 4.39883 10.3478 4.38457 10.6267 4.44997C10.9056 4.51537 11.1605 4.6578 11.3624 4.86102C11.5643 5.06425 11.705 5.32009 11.7685 5.59941C11.8321 5.87873 11.8159 6.17028 11.7218 6.44084L13.9358 8.65483C14.2668 8.54114 14.6267 8.54428 14.9556 8.66374C15.2845 8.78319 15.5625 9.01174 15.7433 9.31131C15.9242 9.61088 15.9969 9.96337 15.9494 10.3101C15.9019 10.6567 15.7371 10.9767 15.4823 11.2166C15.2276 11.4564 14.8983 11.6018 14.5494 11.6284C14.2005 11.655 13.853 11.5612 13.5648 11.3627C13.2767 11.1642 13.0652 10.8729 12.9657 10.5374C12.8663 10.2019 12.8847 9.8425 13.0181 9.51899L10.9505 7.45142V12.8914C11.2637 13.0466 11.5143 13.3044 11.6605 13.6219C11.8067 13.9393 11.8398 14.2973 11.7541 14.6362C11.6685 14.9751 11.4693 15.2744 11.1898 15.4843C10.9103 15.6941 10.5673 15.8019 10.218 15.7896C9.86864 15.7774 9.53407 15.6458 9.26998 15.4168C9.00589 15.1878 8.82822 14.8753 8.76657 14.5312C8.70492 14.1872 8.763 13.8324 8.93115 13.5259C9.0993 13.2195 9.36737 12.9799 9.69069 12.8471V7.35715C9.50364 7.2804 9.33362 7.16741 9.19043 7.02467C9.04724 6.88193 8.9337 6.71227 8.85636 6.52547C8.77903 6.33866 8.73941 6.1384 8.73981 5.93621C8.7402 5.73403 8.7806 5.53393 8.85866 5.34742L6.59469 3.08202L0.60765 9.0712C0.487697 9.19064 0.392514 9.3326 0.327567 9.48892C0.26262 9.64525 0.229187 9.81286 0.229187 9.98214C0.229187 10.1514 0.26262 10.319 0.327567 10.4754C0.392514 10.6317 0.487697 10.7736 0.60765 10.8931L9.3386 19.6212C9.45803 19.741 9.59994 19.8361 9.7562 19.901C9.91246 19.9659 10.08 19.9993 10.2492 19.9993C10.4184 19.9993 10.5859 19.9659 10.7422 19.901C10.8984 19.8361 11.0403 19.741 11.1598 19.6212L19.8507 10.9281C19.9707 10.8086 20.0659 10.6667 20.1308 10.5104C20.1958 10.354 20.2292 10.1864 20.2292 10.0171C20.2292 9.84786 20.1958 9.68025 20.1308 9.52392C20.0659 9.36759 19.9707 9.22564 19.8507 9.10619" fill="#DD4C35"/>
<path d="M7.4852 2.19147L9.78488 4.49115C10.0561 4.39887 10.3477 4.38461 10.6266 4.45001C10.9055 4.51541 11.1604 4.65784 11.3623 4.86106C11.5642 5.06429 11.7049 5.32013 11.7685 5.59945C11.832 5.87877 11.8158 6.17032 11.7218 6.44088L13.9357 8.65487C14.2667 8.54118 14.6266 8.54432 14.9555 8.66378C15.2844 8.78323 15.5624 9.01179 15.7433 9.31135C15.9241 9.61092 15.9968 9.96341 15.9493 10.3101C15.9018 10.6568 15.737 10.9767 15.4822 11.2166C15.2275 11.4565 14.8982 11.6018 14.5493 11.6284C14.2004 11.655 13.8529 11.5612 13.5647 11.3627C13.2766 11.1642 13.0651 10.8729 12.9657 10.5375C12.8662 10.202 12.8846 9.84255 13.018 9.51903L10.9504 7.45146V12.8914C11.2636 13.0466 11.5142 13.3044 11.6604 13.6219C11.8067 13.9394 11.8397 14.2974 11.754 14.6363C11.6684 14.9751 11.4692 15.2744 11.1897 15.4843C10.9102 15.6942 10.5672 15.802 10.2179 15.7897C9.86856 15.7774 9.53399 15.6458 9.26989 15.4168C9.0058 15.1879 8.82814 14.8753 8.76648 14.5312C8.70483 14.1872 8.76292 13.8324 8.93107 13.526C9.09922 13.2195 9.36728 12.98 9.69061 12.8471V7.35719C9.50356 7.28044 9.33354 7.16745 9.19035 7.02471C9.04715 6.88197 8.93362 6.71231 8.85628 6.52551C8.77894 6.3387 8.73933 6.13844 8.73973 5.93626C8.74012 5.73407 8.78051 5.53397 8.85858 5.34746L6.5946 3.08206" fill="white"/>
</svg>
