<svg width="15" height="20" viewBox="0 0 15 20" fill="none" xmlns="http://www.w3.org/2000/svg">
<path d="M14.5354 4.79633L14.5326 4.79908C14.5934 4.9675 14.65 5.13801 14.6985 5.31194C14.6493 5.13779 14.5965 4.96517 14.5354 4.79633Z" fill="#4285F4"/>
<path d="M7.71189 0L2.57678 2.12732L5.52712 5.07773C6.10379 4.4971 6.88748 4.16933 7.70581 4.16653C8.52414 4.16372 9.31006 4.48611 9.89069 5.06277C10.4713 5.63943 10.7991 6.42313 10.8019 7.24146C10.8047 8.05978 10.4823 8.84571 9.90565 9.42634L14.2479 5.08354L14.5325 4.79886C14.0276 3.39439 13.1016 2.1799 11.8809 1.32108C10.6603 0.462257 9.20439 0.000918752 7.71189 0Z" fill="#4285F4"/>
<path d="M7.71191 10.3437C7.10186 10.3436 6.50552 10.1627 5.99821 9.8239C5.4909 9.48507 5.09538 9.00351 4.8616 8.44002C4.62782 7.87654 4.56628 7.25641 4.68473 6.65797C4.80319 6.05952 5.09634 5.50961 5.52715 5.07767L2.57681 2.12726C1.90146 2.80082 1.36587 3.60121 1.00083 4.48243C0.635791 5.36364 0.448498 6.30831 0.449713 7.26214C0.449713 10.4617 2.09467 12.4668 4.02998 14.5243C4.15975 14.6571 4.26774 14.8041 4.39011 14.9416L9.88092 9.45075C9.30431 10.0233 8.5245 10.3444 7.71191 10.3437Z" fill="#FFBA00"/>
<path d="M7.71192 0C5.78587 0 3.9387 0.765123 2.57677 2.12705C1.21484 3.48898 0.449719 5.33615 0.449719 7.2622C0.448243 8.11415 0.581931 8.96094 0.8458 9.771L10.1781 0.439073C9.38784 0.150347 8.55326 0.00175997 7.71192 0Z" fill="#0066DA"/>
<path d="M8.36622 19.5281C9.02587 17.6927 10.0185 15.9948 11.2943 14.5197C13.3746 12.406 14.974 10.462 14.974 7.26224C14.9723 6.42095 14.8239 5.5864 14.5353 4.79614L4.39001 14.9414C5.55801 16.2691 6.4452 17.8194 6.99816 19.4991C7.04456 19.6421 7.13436 19.7672 7.25508 19.857C7.37581 19.9467 7.52147 19.9966 7.67186 19.9998C7.82225 20.003 7.96991 19.9593 8.09433 19.8748C8.21876 19.7903 8.31378 19.6691 8.36622 19.5281Z" fill="#00AC47"/>
<path opacity="0.5" d="M4.02991 14.5244C4.15968 14.6572 4.26767 14.8042 4.39004 14.9417C4.26738 14.8044 4.15939 14.6574 4.02991 14.5244Z" fill="#0066DA"/>
<path opacity="0.5" d="M1.32624 3.80078C1.10082 4.21576 0.916689 4.65186 0.776489 5.10282C0.91672 4.65188 1.10085 4.21577 1.32624 3.80078Z" fill="#0066DA"/>
<path opacity="0.5" d="M0.776462 5.10287C0.63298 5.56438 0.53615 6.03911 0.487427 6.51995C0.536158 6.03912 0.632987 5.56438 0.776462 5.10287Z" fill="#0066DA"/>
<path d="M7.12793 19.7307C7.14245 19.7487 7.16025 19.7613 7.17615 19.7774C7.1601 19.7613 7.14238 19.7486 7.12793 19.7307Z" fill="white"/>
<path d="M7.5575 19.9805L7.58654 19.9853L7.5575 19.9805Z" fill="white"/>
<path d="M5.98462 17.2091C5.95768 17.1605 5.93531 17.1088 5.90771 17.0605C5.93502 17.109 5.95797 17.1606 5.98462 17.2091Z" fill="white"/>
<path d="M6.99823 19.4991C6.84965 19.0616 6.68247 18.6364 6.4967 18.2234C6.68015 18.6376 6.84965 19.0613 6.99823 19.4991Z" fill="white"/>
<path d="M7.36828 19.9176C7.35165 19.9094 7.33465 19.9025 7.3186 19.893C7.33487 19.9025 7.35136 19.9095 7.36828 19.9176Z" fill="white"/>
<path d="M10.4075 15.6304C10.2266 15.8827 10.0677 16.1478 9.90442 16.4104C10.0672 16.1475 10.2271 15.8829 10.4075 15.6304Z" fill="white"/>
<path d="M8.47217 19.2768C8.64239 18.8474 8.82543 18.4255 9.02126 18.0112C8.82424 18.4247 8.64239 18.8473 8.47217 19.2768Z" fill="white"/>
<path d="M9.65813 16.7963C9.44905 17.1563 9.2587 17.5275 9.07715 17.9032C9.2587 17.5271 9.44977 17.1567 9.65813 16.7963Z" fill="white"/>
<path d="M2.57682 2.12726C1.90146 2.80082 1.36588 3.60121 1.00084 4.48243C0.635798 5.36364 0.448504 6.30831 0.449719 7.26214C0.448243 8.11409 0.581931 8.96089 0.8458 9.77094L5.53326 5.08348L2.57682 2.12726Z" fill="#EA4435"/>
</svg>
