<svg width="28" height="20" viewBox="0 0 28 20" fill="none" xmlns="http://www.w3.org/2000/svg">
<path d="M25.9888 1.26352C25.1966 0.471612 24.1275 0.0187227 23.0076 0.00056758C21.8876 -0.0175875 20.8044 0.400414 19.987 1.16623C19.9466 1.20346 19.9143 1.24857 19.892 1.29877C19.8698 1.34897 19.858 1.4032 19.8576 1.45811C19.8566 1.51335 19.8667 1.56822 19.8873 1.6195C19.9078 1.67079 19.9384 1.71746 19.9772 1.75679L20.522 2.30064C20.5921 2.37067 20.6851 2.41306 20.784 2.42003C20.8828 2.427 20.9808 2.39808 21.0601 2.33858C21.4865 2.01671 22.0065 1.84314 22.5408 1.84435C23.0303 1.84457 23.5086 1.98984 23.9156 2.26181C24.3225 2.53377 24.6397 2.92023 24.827 3.37237C25.0144 3.8245 25.0636 4.32203 24.9684 4.80211C24.8732 5.28219 24.6378 5.72328 24.292 6.06967C20.8742 9.50596 16.2821 -0.101459 5.90028 4.84284C5.56198 5.00101 5.30026 5.28695 5.17258 5.6379C5.04489 5.98885 5.06168 6.37612 5.21925 6.7147C5.2358 6.75103 5.25431 6.78643 5.27471 6.82075L7.0522 9.90193C7.23804 10.2222 7.54219 10.4567 7.89919 10.5549C8.25619 10.6532 8.6375 10.6074 8.96104 10.4273L9.00579 10.402L8.97077 10.4273L9.76076 9.98366C10.6412 9.43962 11.4735 8.82119 12.2485 8.13514C12.3247 8.06417 12.424 8.02319 12.5281 8.01979C12.6322 8.0164 12.734 8.0508 12.8147 8.11666C12.8561 8.1503 12.8904 8.19177 12.9157 8.23869C12.941 8.28561 12.9568 8.33706 12.9623 8.3901C12.9677 8.44314 12.9626 8.49673 12.9473 8.5478C12.932 8.59888 12.9068 8.64643 12.8731 8.68775C12.8556 8.70911 12.8361 8.72866 12.8147 8.74612C12.0058 9.47412 11.1354 10.1307 10.2132 10.7085L10.1849 10.724L9.39593 11.1648C9.06309 11.3533 8.68686 11.4519 8.30433 11.4508C7.90705 11.4512 7.51667 11.3469 7.17251 11.1484C6.82836 10.95 6.54257 10.6643 6.34393 10.3203L4.65789 7.41325C1.42493 9.69762 -0.538391 14.0981 0.515263 19.666C0.533577 19.7601 0.584092 19.8449 0.658128 19.9058C0.732165 19.9667 0.8251 19.9999 0.920964 19.9997H2.83661C2.93917 20.0036 3.03948 19.9689 3.11767 19.9025C3.19586 19.836 3.24625 19.7426 3.25885 19.6407C3.3467 18.9633 3.67814 18.341 4.19127 17.8902C4.7044 17.4393 5.36412 17.1906 6.04719 17.1906C6.73027 17.1906 7.38998 17.4393 7.90311 17.8902C8.41624 18.341 8.74768 18.9633 8.83553 19.6407C8.84772 19.7387 8.89489 19.829 8.96836 19.8949C9.04184 19.9609 9.13667 19.9981 9.2354 19.9997H11.1034C11.2035 19.9996 11.3003 19.9632 11.3756 19.8972C11.451 19.8311 11.4998 19.74 11.513 19.6407C11.5982 18.9617 11.9284 18.3372 12.4416 17.8845C12.9547 17.4317 13.6155 17.1819 14.2998 17.1819C14.9842 17.1819 15.6449 17.4317 16.1581 17.8845C16.6712 18.3372 17.0015 18.9617 17.0867 19.6407C17.0988 19.7398 17.1468 19.831 17.2215 19.8971C17.2963 19.9632 17.3926 19.9997 17.4924 19.9997H19.3409C19.4484 20 19.5516 19.9578 19.6281 19.8824C19.7046 19.8069 19.7483 19.7044 19.7496 19.5969C19.7943 16.9925 20.4958 14.0008 22.499 12.5035C29.4163 7.31887 27.5931 2.87465 25.9888 1.26352ZM18.9206 9.1061L17.5994 8.44258C17.5987 8.30034 17.6345 8.1603 17.7034 8.03586C17.7723 7.91142 17.872 7.80675 17.9929 7.73187C18.1138 7.657 18.252 7.61442 18.3941 7.60822C18.5362 7.60202 18.6775 7.6324 18.8045 7.69646C18.9315 7.76052 19.0399 7.85611 19.1194 7.97407C19.1988 8.09204 19.2467 8.22843 19.2584 8.37019C19.27 8.51195 19.2451 8.65433 19.186 8.78369C19.1268 8.91305 19.0355 9.02507 18.9206 9.10902V9.1061Z" fill="#02303A"/>
</svg>
