<svg width="16" height="20" viewBox="0 0 16 20" fill="none" xmlns="http://www.w3.org/2000/svg">
<path d="M2.09668 18.3036L0.734863 3.03027H15.6985L14.3349 18.3012L8.2076 20L2.09668 18.3036Z" fill="#E44F26"/>
<path d="M8.21667 18.7019L13.1682 17.3291L14.333 4.27942H8.21667V18.7019Z" fill="#F1662A"/>
<path d="M8.21632 9.94368H5.73753L5.56662 8.0255H8.21632V6.15216H8.20966H3.51935L3.5642 6.65519L4.0242 11.817H8.21632V9.94368Z" fill="#EBEBEB"/>
<path d="M8.21676 14.8085L8.20828 14.8109L6.12222 14.2478L5.98888 12.7539H4.97494H4.10828L4.3707 15.6945L8.20828 16.76L8.21676 16.7575V14.8085Z" fill="#EBEBEB"/>
<path d="M8.21008 9.94373V11.8171H10.5168L10.2998 14.2468L8.21008 14.8104V16.7595L12.0507 15.6946L12.0786 15.3783L12.5186 10.4468L12.5646 9.94373H12.0598H8.21008Z" fill="white"/>
<path d="M8.21008 6.15216V7.3158V8.02125V8.0255H12.7289H12.7349L12.7725 7.60489L12.858 6.65519L12.9028 6.15216H8.21008Z" fill="white"/>
<path fill-rule="evenodd" clip-rule="evenodd" d="M2.76202 1.21212V2.42424H3.18729H3.61256V2.02059V1.61693H4.00085H4.38914V2.02059V2.42424H4.81489H5.24065L5.23092 1.22206L5.22119 0.0198668L4.80517 0.00993341L4.38914 0V0.404813V0.809626H4.00207H3.615L3.60454 0.414746L3.59407 0.0198668L3.17805 0.00993341L2.76202 0V1.21212ZM5.60948 0.405971V0.809626H5.97928H6.34908V1.61693V2.42424H6.77435H7.19962V1.61693V0.809626H7.56942H7.93922V0.405971V0.00231663H6.77435H5.60948V0.405971ZM8.3348 0.0246756C8.32063 0.038119 8.30902 0.583509 8.30902 1.23669V2.42424H8.73429H9.15956L9.16008 1.83631L9.1606 1.24838L9.44102 1.65204C9.59522 1.87405 9.73719 2.05569 9.75653 2.05569C9.77584 2.05569 9.91536 1.87405 10.0666 1.65204L10.3415 1.24838L10.3422 1.83631L10.3429 2.42424H10.7682H11.1935V1.21328V0.00231663L10.7774 0.00284313C10.5486 0.00315904 10.3438 0.0149879 10.3224 0.0291684C10.3009 0.043349 10.1694 0.233418 10.0301 0.451496C9.85013 0.733317 9.76544 0.837144 9.7373 0.810433C9.71552 0.789759 9.5889 0.603411 9.45592 0.396354L9.21415 0.0198668L8.78736 0.0100387C8.55261 0.00463325 8.34896 0.011197 8.3348 0.0246756ZM11.6372 1.21212V2.42424H12.6542H13.6711V2.03814V1.65204H13.0801H12.4891L12.4792 0.835951L12.4693 0.0198668L12.0532 0.00993341L11.6372 0V1.21212Z" fill="black"/>
</svg>
