<svg width="21" height="20" viewBox="0 0 21 20" fill="none" xmlns="http://www.w3.org/2000/svg">
<path d="M20.8682 0H0.868164V20H20.8682V0Z" fill="#F5DE19"/>
<path d="M14.3032 15.625C14.4736 15.9711 14.7384 16.2621 15.0669 16.4643C15.3955 16.6665 15.7745 16.7717 16.1603 16.7678C16.9389 16.7678 17.4368 16.3786 17.4368 15.8393C17.4368 15.1964 16.9253 14.9664 16.0682 14.5914L15.5982 14.39C14.2411 13.8121 13.3411 13.0886 13.3411 11.5586C13.3411 10.1493 14.4125 9.0757 16.0932 9.0757C16.6373 9.03641 17.1809 9.15818 17.6562 9.42582C18.1315 9.69345 18.5175 10.0951 18.7661 10.5807L17.2968 11.52C17.2011 11.2792 17.0344 11.0732 16.819 10.9293C16.6035 10.7854 16.3494 10.7104 16.0903 10.7143C15.9773 10.703 15.8632 10.7153 15.7552 10.7505C15.6472 10.7858 15.5477 10.8431 15.4631 10.9189C15.3785 10.9947 15.3106 11.0873 15.2638 11.1908C15.2169 11.2943 15.1922 11.4064 15.1911 11.52C15.1911 12.0836 15.5403 12.3121 16.3468 12.6628L16.8168 12.8643C18.4139 13.5493 19.3168 14.2471 19.3168 15.8164C19.3168 17.5086 17.9875 18.4357 16.2025 18.4357C15.507 18.48 14.8135 18.3221 14.2058 17.981C13.598 17.64 13.102 17.1303 12.7775 16.5136L14.3032 15.625ZM7.66391 15.7878C7.95891 16.3114 8.22748 16.7543 8.8732 16.7543C9.49034 16.7543 9.88034 16.5128 9.88034 15.5736V9.18284H11.7596V15.5986C11.7596 17.5443 10.6168 18.43 8.9532 18.43C8.36516 18.4621 7.78116 18.3156 7.27797 18.0096C6.77478 17.7036 6.37595 17.2526 6.13391 16.7157L7.66391 15.7878Z" fill="black"/>
</svg>
