<svg width="21" height="20" viewBox="0 0 21 20" fill="none" xmlns="http://www.w3.org/2000/svg">
<mask id="mask0_6583_27311" style="mask-type:alpha" maskUnits="userSpaceOnUse" x="0" y="0" width="21" height="20">
<rect x="0.229187" width="20" height="20" fill="#C4C4C4"/>
</mask>
<g mask="url(#mask0_6583_27311)">
<path d="M10.5169 10.4492C10.0179 9.64476 9.65594 8.97778 9.15445 7.72181C8.30647 5.60036 14.3118 3.68341 11.8769 0C12.9324 2.54444 8.08847 4.1174 7.63848 6.23635C7.22699 8.1853 10.5144 10.4492 10.5169 10.4492Z" fill="#F44336"/>
<path d="M10.631 6.63548C10.535 7.89345 11.7454 8.56393 11.7804 9.48291C11.8084 10.2309 11.057 10.8544 11.057 10.8544C11.057 10.8544 12.4209 10.5864 12.8464 9.44541C13.3189 8.17844 11.9294 7.31096 12.0724 6.29649C12.2059 5.32751 15.0879 3.52505 15.0879 3.52505C15.0879 3.52505 10.8475 3.80605 10.631 6.63548Z" fill="#F44336"/>
<path d="M14.7339 10.5275C15.6109 10.3305 16.3503 10.889 16.3503 11.5324C16.3503 12.9829 14.3399 14.3539 14.3399 14.3539C14.3399 14.3539 17.4523 13.9829 17.4523 11.6014C17.4523 10.0265 15.9239 9.63299 14.7339 10.5275ZM13.2564 11.6974C13.2564 11.6974 14.2269 11.006 14.4854 10.7465C12.1039 11.2519 6.66658 11.3199 6.66658 10.881C6.66658 10.4765 8.42003 10.062 8.42003 10.062C8.42003 10.062 4.53363 10.006 4.53363 11.1525C4.53363 12.3474 9.621 12.4329 13.2564 11.6974Z" fill="#1565C0"/>
<path d="M12.6595 12.7852C10.4051 13.5347 6.25266 13.2952 7.48263 12.2887C6.88364 12.2887 5.99567 12.7702 5.99567 13.2332C5.99567 14.1616 10.4866 14.8786 13.8105 13.5192L12.6595 12.7852Z" fill="#1565C0"/>
<path d="M8.03509 14.3696C7.21711 14.3696 6.68762 14.8966 6.68762 15.2806C6.68762 16.4761 11.5675 16.5966 13.501 15.3831L12.272 14.5671C10.8275 15.2021 7.19911 15.2896 8.03509 14.3696Z" fill="#1565C0"/>
<path d="M16.8324 16.3158C16.8324 15.8478 16.3049 15.6273 16.1159 15.5218C17.2299 18.2083 4.95772 17.9998 4.95772 16.4138C4.95772 16.0533 5.8612 15.7003 6.69618 15.8673L5.98619 15.4478C4.32223 15.1868 3.19226 15.9183 3.19226 16.5083C3.19226 19.2597 16.8324 19.1272 16.8324 16.3158Z" fill="#1565C0"/>
<path d="M18.1919 17.3022C16.119 19.3496 10.8626 20.0956 5.57672 18.8306C10.8626 21.0821 18.1669 19.8141 18.1919 17.3022Z" fill="#1565C0"/>
</g>
</svg>
