<svg width="20" height="20" viewBox="0 0 20 20" fill="none" xmlns="http://www.w3.org/2000/svg">
<path d="M19.6121 9.44048L10.1716 0L0.731094 9.44048C0.583097 9.58908 0.5 9.79027 0.5 10C0.5 10.2097 0.583097 10.4109 0.731094 10.5595L10.1716 20L19.6121 10.5595C19.7601 10.4109 19.8431 10.2097 19.8431 10C19.8431 9.79027 19.7601 9.58908 19.6121 9.44048ZM10.1716 12.9558L7.21483 9.99902L10.1716 7.04228L13.1283 9.99902L10.1716 12.9558Z" fill="#2684FF"/>
<path d="M10.1716 7.06181C9.24163 6.13197 8.71739 4.8719 8.71336 3.55682C8.70934 2.24173 9.22586 0.978492 10.1501 0.0429688L3.66052 6.49156L7.18166 10.0127L10.1716 7.06181Z" fill="url(#paint0_linear_6583_23346)"/>
<path d="M13.1362 9.99121L10.1716 12.9558C10.6342 13.4181 11.0012 13.967 11.2516 14.5711C11.5019 15.1753 11.6308 15.8229 11.6308 16.4769C11.6308 17.1309 11.5019 17.7785 11.2516 18.3827C11.0012 18.9868 10.6342 19.5358 10.1716 19.998L16.6554 13.5143L13.1362 9.99121Z" fill="url(#paint1_linear_6583_23346)"/>
<defs>
<linearGradient id="paint0_linear_6583_23346" x1="9.64431" y1="4.05234" x2="5.51581" y2="8.18084" gradientUnits="userSpaceOnUse">
<stop offset="0.18" stop-color="#0052CC"/>
<stop offset="1" stop-color="#2684FF"/>
</linearGradient>
<linearGradient id="paint1_linear_6583_23346" x1="10.736" y1="15.9125" x2="14.8567" y2="11.7918" gradientUnits="userSpaceOnUse">
<stop offset="0.18" stop-color="#0052CC"/>
<stop offset="1" stop-color="#2684FF"/>
</linearGradient>
</defs>
</svg>
