<svg width="23" height="12" viewBox="0 0 23 12" fill="none" xmlns="http://www.w3.org/2000/svg">
<g clip-path="url(#clip0_5529_7128)">
<path d="M-7.23726e-05 1.2681C0.121871 0.792564 0.338042 0.369863 0.787014 0.176125C1.0309 0.0704501 1.31359 0.0117417 1.57964 0.0117417C6.62919 0 11.6787 0 16.7283 0C17.2604 0 17.7925 0 18.3191 0C19.2226 0.00587084 19.8157 0.634051 19.8212 1.58513C19.8212 1.79648 19.8212 2.00783 19.8212 2.24853C20.0429 2.24853 20.2535 2.24853 20.4642 2.24853C20.9464 2.2544 21.2346 2.55382 21.2402 3.06458C21.2402 3.2818 21.2402 3.49902 21.2402 3.7456C21.4619 3.7456 21.6781 3.7456 21.8887 3.7456C22.3709 3.75147 22.6591 4.05088 22.6591 4.56751C22.6647 5.51859 22.6647 6.47554 22.6591 7.42661C22.6591 7.93738 22.3709 8.24266 21.8887 8.24853C21.6836 8.24853 21.4785 8.24853 21.2402 8.24853C21.2402 8.48337 21.2402 8.70646 21.2402 8.92955C21.2346 9.44031 20.9519 9.73973 20.4642 9.7456C20.2591 9.7456 20.054 9.7456 19.8212 9.7456C19.8212 9.98043 19.8212 10.1918 19.8212 10.409C19.8157 11.3601 19.217 11.9941 18.3191 11.9941C12.7153 11.9941 7.11142 11.9941 1.50759 11.9941C0.742671 11.9941 0.249356 11.5949 0.0331848 10.8141C0.0276419 10.7847 0.0110134 10.7554 -0.00561523 10.7319C-7.23726e-05 7.57926 -7.23726e-05 4.42074 -7.23726e-05 1.2681Z" fill="#261D3F"/>
<path d="M4.34558 10.4853C9.04593 10.4853 13.7241 10.4853 18.3967 10.4853C18.3967 7.48529 18.3967 4.49704 18.3967 1.51465C13.7019 1.51465 9.03484 1.51465 4.34558 1.51465C4.34558 4.50878 4.34558 7.48529 4.34558 10.4853Z" fill="#F0F0F0"/>
</g>
<defs>
<clipPath id="clip0_5529_7128">
<rect width="22.6592" height="12" fill="white"/>
</clipPath>
</defs>
</svg>
