<svg width="17" height="20" viewBox="0 0 17 20" fill="none" xmlns="http://www.w3.org/2000/svg">
<path d="M8.36167 0C6.27858 0.00245748 4.28151 0.831051 2.80854 2.30402C1.33558 3.77699 0.506982 5.77405 0.504525 7.85714C0.50203 9.55945 1.05808 11.2156 2.08738 12.5714C2.08738 12.5714 2.30167 12.8536 2.33667 12.8943L8.36167 20L14.3895 12.8907C14.421 12.8529 14.636 12.5714 14.636 12.5714L14.6367 12.5693C15.6655 11.214 16.2213 9.55866 16.2188 7.85714C16.2164 5.77405 15.3878 3.77699 13.9148 2.30402C12.4418 0.831051 10.4448 0.00245748 8.36167 0ZM8.36167 10.7143C7.79658 10.7143 7.24418 10.5467 6.77432 10.2328C6.30447 9.91882 5.93826 9.4726 5.72201 8.95052C5.50576 8.42845 5.44918 7.85397 5.55942 7.29974C5.66967 6.74551 5.94178 6.23642 6.34136 5.83684C6.74094 5.43726 7.25004 5.16514 7.80427 5.0549C8.3585 4.94466 8.93297 5.00124 9.45505 5.21749C9.97712 5.43374 10.4233 5.79994 10.7373 6.2698C11.0512 6.73965 11.2188 7.29205 11.2188 7.85714C11.2179 8.61461 10.9165 9.34079 10.3809 9.8764C9.84531 10.412 9.11914 10.7133 8.36167 10.7143Z" fill="#F19876"/>
</svg>
