<svg width="24" height="20" viewBox="0 0 24 20" fill="none" xmlns="http://www.w3.org/2000/svg">
<path d="M12.0665 12.0393C13.1928 12.0393 14.1059 11.1263 14.1059 9.99999C14.1059 8.87368 13.1928 7.96063 12.0665 7.96063C10.9402 7.96063 10.0272 8.87368 10.0272 9.99999C10.0272 11.1263 10.9402 12.0393 12.0665 12.0393Z" fill="#61DAFB"/>
<path d="M19.8127 6.63685C19.4191 6.49374 19.0077 6.35063 18.5784 6.2254C18.6857 5.79606 18.7751 5.36673 18.8467 4.95528C19.2224 2.59392 18.8109 0.930232 17.666 0.286225C17.3261 0.0894453 16.9505 0 16.5211 0C15.2689 0 13.6768 0.930232 12.0667 2.48658C10.4567 0.930232 8.86459 0 7.61235 0C7.18301 0 6.80734 0.0894453 6.46745 0.286225C5.32255 0.948121 4.9111 2.61181 5.28677 4.95528C5.35833 5.36673 5.44777 5.79606 5.5551 6.2254C5.12577 6.35063 4.71432 6.47585 4.32076 6.63685C2.08462 7.49553 0.868164 8.67621 0.868164 10C0.868164 11.3238 2.10251 12.5045 4.32076 13.3631C4.71432 13.5063 5.12577 13.6494 5.5551 13.7746C5.44777 14.2039 5.35833 14.6333 5.28677 15.0447C4.9111 17.4061 5.32255 19.0698 6.46745 19.7138C6.80734 19.9106 7.18301 20 7.61235 20C8.88247 20 10.4746 19.0698 12.0667 17.5134C13.6768 19.0698 15.2689 20 16.5211 20C16.9505 20 17.3261 19.9106 17.666 19.7138C18.8109 19.0519 19.2224 17.3882 18.8467 15.0447C18.7751 14.6333 18.6857 14.2039 18.5784 13.7746C19.0077 13.6494 19.4191 13.5242 19.8127 13.3631C22.0488 12.5045 23.2653 11.3238 23.2653 10C23.2653 8.67621 22.0488 7.49553 19.8127 6.63685ZM17.1651 1.18068C17.8986 1.61002 18.149 2.93381 17.8449 4.81216C17.7912 5.18784 17.7018 5.5814 17.5945 5.99284C16.6642 5.77817 15.6803 5.63506 14.6428 5.54562C14.0345 4.68694 13.4084 3.91771 12.7823 3.22004C14.1061 1.91413 15.4478 1.01968 16.539 1.01968C16.7716 1.01968 16.9862 1.07335 17.1651 1.18068ZM15.1615 11.7889C14.8395 12.3614 14.4639 12.9338 14.0703 13.5063C13.4084 13.5599 12.7465 13.5778 12.0667 13.5778C11.3691 13.5778 10.7072 13.5599 10.0632 13.5063C9.66959 12.9338 9.31181 12.3614 8.98981 11.7889C8.64992 11.1986 8.32791 10.5903 8.04169 10C8.32791 9.40966 8.64992 8.80143 8.98981 8.21109C9.31181 7.63864 9.68748 7.06619 10.081 6.49374C10.7429 6.44007 11.4048 6.42218 12.0846 6.42218C12.7823 6.42218 13.4442 6.44007 14.0882 6.49374C14.4818 7.06619 14.8395 7.63864 15.1615 8.21109C15.5014 8.80143 15.8234 9.40966 16.1097 10C15.8056 10.5903 15.5014 11.1807 15.1615 11.7889ZM16.6463 11.1986C16.9147 11.8247 17.1293 12.4329 17.3261 13.0411C16.7179 13.1843 16.0739 13.2916 15.3941 13.381C15.6088 13.0411 15.8413 12.6834 16.0381 12.3077C16.2528 11.932 16.4496 11.5563 16.6463 11.1986ZM12.0667 16.0465C11.6374 15.5814 11.2259 15.0805 10.8324 14.5617C11.2438 14.5796 11.6553 14.5975 12.0667 14.5975C12.4782 14.5975 12.8896 14.5796 13.3011 14.5617C12.9075 15.0805 12.4961 15.5814 12.0667 16.0465ZM8.73936 13.3631C8.05958 13.2737 7.41557 13.1664 6.80734 13.0233C7.00412 12.4329 7.21879 11.8068 7.48713 11.1807C7.68391 11.5385 7.88069 11.9141 8.09535 12.2719C8.31002 12.6655 8.52469 13.0054 8.73936 13.3631ZM7.48713 8.80143C7.21879 8.17531 7.00412 7.56708 6.80734 6.95886C7.41557 6.81574 8.05958 6.70841 8.73936 6.61896C8.52469 6.95885 8.29213 7.31664 8.09535 7.69231C7.88069 8.06798 7.68391 8.44365 7.48713 8.80143ZM12.0667 3.95349C12.4961 4.4186 12.9075 4.9195 13.3011 5.43828C12.8896 5.42039 12.4782 5.4025 12.0667 5.4025C11.6553 5.4025 11.2438 5.42039 10.8324 5.43828C11.2259 4.9195 11.6374 4.4186 12.0667 3.95349ZM16.0381 7.7102L15.3941 6.63685C16.0739 6.7263 16.7179 6.83363 17.3261 6.97674C17.1293 7.56708 16.9147 8.1932 16.6463 8.81932C16.4496 8.44365 16.2528 8.06798 16.0381 7.7102ZM6.28856 4.81216C5.98444 2.93381 6.23489 1.61002 6.96834 1.18068C7.14723 1.07335 7.3619 1.01968 7.59446 1.01968C8.66781 1.01968 10.0095 1.89624 11.3512 3.22004C10.7251 3.89982 10.0989 4.68694 9.4907 5.54562C8.45314 5.63506 7.46924 5.79606 6.539 5.99284C6.43167 5.5814 6.36011 5.18784 6.28856 4.81216ZM1.86995 10C1.86995 9.15921 2.88963 8.26476 4.67854 7.60286C5.03632 7.45975 5.42988 7.33453 5.82344 7.22719C6.10967 8.12165 6.46745 9.06977 6.89679 10.0179C6.46745 10.966 6.09178 11.8962 5.82344 12.7907C3.35475 12.0751 1.86995 11.0018 1.86995 10ZM6.96834 18.8193C6.23489 18.39 5.98444 17.0662 6.28856 15.1878C6.34223 14.8122 6.43167 14.4186 6.539 14.0072C7.46924 14.2218 8.45314 14.3649 9.4907 14.4544C10.0989 15.3131 10.7251 16.0823 11.3512 16.78C10.0274 18.0859 8.68569 18.9803 7.59446 18.9803C7.3619 18.9803 7.14723 18.9267 6.96834 18.8193ZM17.8449 15.1878C18.149 17.0662 17.8986 18.39 17.1651 18.8193C16.9862 18.9267 16.7716 18.9803 16.539 18.9803C15.4657 18.9803 14.124 18.1038 12.7823 16.78C13.4084 16.1002 14.0345 15.3131 14.6428 14.4544C15.6803 14.3649 16.6642 14.2039 17.5945 14.0072C17.7018 14.4186 17.7734 14.8122 17.8449 15.1878ZM19.4549 12.3971C19.0971 12.5403 18.7036 12.6655 18.31 12.7728C18.0238 11.8784 17.666 10.9302 17.2367 9.98211C17.666 9.03399 18.0417 8.10376 18.31 7.2093C20.7787 7.92487 22.2635 8.99821 22.2635 10C22.2635 10.8408 21.2259 11.7352 19.4549 12.3971Z" fill="#61DAFB"/>
</svg>
