<svg width="21" height="20" viewBox="0 0 21 20" fill="none" xmlns="http://www.w3.org/2000/svg">
<path d="M20.8623 0H0.874023C0.870787 0 0.868164 0.00262333 0.868164 0.00585938V19.9941C0.868164 19.9974 0.870787 20 0.874023 20H20.8623C20.8655 20 20.8682 19.9974 20.8682 19.9941V0.00585938C20.8682 0.00262333 20.8655 0 20.8623 0Z" fill="#CC6699"/>
<path d="M10.9463 3.43752C7.19629 4.72659 4.77442 7.34377 5.00879 8.90627C5.24317 10.4688 7.58692 11.7188 8.6416 12.5391C7.27442 13.2422 5.55567 14.2969 5.59473 15.6641C5.67285 17.5391 7.7041 16.9531 8.56348 16.4063C9.42285 15.8594 10.2822 14.336 9.73535 12.7344C10.9463 12.4219 12.001 12.8125 12.3135 13.0469C13.5244 13.9063 12.8994 14.8828 12.4697 15.0391C12.04 15.1953 12.3135 15.2735 12.5869 15.1953C12.8604 15.1172 13.4463 14.7266 13.4463 14.0625C13.4463 12.3828 11.6494 11.6016 9.42285 12.1875C8.13379 10.8203 6.37598 10.1953 6.4541 8.71096C6.49317 8.16409 6.68848 6.75784 10.165 5.00002C13.6416 3.24221 16.1025 3.94534 15.79 5.5469C15.3213 7.96877 11.1025 9.6094 9.61817 8.20315C9.54004 8.0469 9.2666 7.92971 9.42285 8.3594C10.2041 10.3125 16.5322 9.41409 16.8057 5.27346C16.8838 3.08596 13.7197 2.50002 10.9463 3.43752ZM7.58692 15.9375C6.61035 16.25 6.64942 15.625 6.68848 15.3906C6.80567 14.7266 7.35254 13.9063 8.99317 13.086C9.46192 14.5703 8.40723 15.7031 7.58692 15.9375Z" fill="white"/>
</svg>
