<svg width="35" height="35" viewBox="0 0 35 35" fill="none" xmlns="http://www.w3.org/2000/svg">
<path fill-rule="evenodd" clip-rule="evenodd" d="M4.56093 6.06781C4.16217 6.23486 3.93229 6.67752 4.01776 7.11373C4.07061 7.38364 4.37161 7.70255 4.64489 7.77822C4.79635 7.82018 7.34881 7.83398 12.8018 7.82226C20.7096 7.80523 20.7388 7.80477 20.9046 7.68616C21.2209 7.46 21.3196 7.27552 21.3196 6.91049C21.3196 6.54546 21.2209 6.36098 20.9046 6.13482C20.7387 6.01615 20.714 6.01574 12.7415 6.00328C6.18532 5.99306 4.71167 6.00466 4.56093 6.06781ZM25.7797 6.06521C25.5565 6.16421 25.3563 6.36785 25.2715 6.58234C25.2268 6.69519 25.2071 9.81713 25.2071 16.7972V26.8496L24.0168 25.7169C23.0367 24.7844 22.7811 24.5715 22.5702 24.5119C21.8707 24.3145 21.201 24.9554 21.4053 25.6268C21.4691 25.8367 21.7818 26.1612 23.5695 27.8733C25.8779 30.084 25.893 30.0949 26.4277 29.9463C26.6471 29.8853 26.9874 29.5843 28.8039 27.8447C31.0911 25.6543 31.0661 25.6851 30.9665 25.1762C30.913 24.9035 30.528 24.5347 30.2432 24.4835C29.7421 24.3936 29.6672 24.4413 28.3574 25.6862L27.1369 26.8463L27.1213 16.7095C27.1057 6.57287 27.1057 6.57259 26.9814 6.41322C26.9131 6.32554 26.7863 6.20311 26.6997 6.14117C26.4999 5.99837 26.0199 5.95872 25.7797 6.06521ZM6.48964 13.4561C6.09081 13.6234 5.861 14.0659 5.94646 14.5021C5.99932 14.772 6.30026 15.0909 6.57359 15.1667C6.72415 15.2085 8.69807 15.2225 12.8018 15.2107C18.7615 15.1937 18.8108 15.1926 18.9759 15.0745C19.2922 14.8484 19.3909 14.6639 19.3909 14.2989C19.3909 13.9338 19.2922 13.7494 18.9759 13.5232C18.8107 13.4051 18.7659 13.4041 12.7415 13.3916C7.78886 13.3813 6.63965 13.3932 6.48964 13.4561ZM8.41834 20.8443C8.01934 21.0121 7.78971 21.4544 7.87517 21.8905C7.92803 22.1602 8.22885 22.4792 8.5023 22.5553C8.65117 22.5967 10.0471 22.611 12.8018 22.5993C16.8132 22.5822 16.8836 22.58 17.0472 22.4629C17.3635 22.2368 17.4622 22.0523 17.4622 21.6873C17.4622 21.3222 17.3635 21.1378 17.0472 20.9116C16.8834 20.7944 16.8176 20.7924 12.7415 20.7798C9.39228 20.7694 8.56709 20.7817 8.41834 20.8443ZM10.3471 28.2322C9.94769 28.4012 9.71847 28.8429 9.80388 29.2789C9.85668 29.5484 10.1574 29.8674 10.431 29.9442C10.5752 29.9847 11.3948 29.9999 12.8018 29.9882C14.8644 29.9711 14.959 29.9655 15.1186 29.8513C15.4348 29.6251 15.5335 29.4406 15.5335 29.0757C15.5335 28.7107 15.4348 28.5262 15.1186 28.3C14.9585 28.1855 14.869 28.1804 12.7415 28.1677C10.9955 28.1572 10.4922 28.1708 10.3471 28.2322Z" fill="#261D3F"/>
</svg>
