<svg width="21" height="20" viewBox="0 0 21 20" fill="none" xmlns="http://www.w3.org/2000/svg">
<mask id="mask0_6583_27301" style="mask-type:alpha" maskUnits="userSpaceOnUse" x="0" y="0" width="21" height="20">
<rect x="0.229187" width="20" height="20" fill="#C4C4C4"/>
</mask>
<g mask="url(#mask0_6583_27301)">
<path d="M20.2202 9.8933C20.2547 7.77866 19.7747 5.26402 18.7747 2.31365L17.9907 0L16.9257 2.2C16.8687 2.31762 16.8037 2.43275 16.7357 2.5464C14.9862 1.05558 12.7162 0.148883 10.2292 0.148883C4.70619 0.148883 0.229187 4.59256 0.229187 10.0744C0.229187 15.5563 4.70619 20 10.2292 20C15.7522 20 20.2292 15.5563 20.2292 10.0744C20.2292 10.0134 20.2212 9.95434 20.2202 9.8933Z" fill="#8BC34A"/>
<path d="M17.9217 14.3216C16.3602 16.4565 13.5962 16.5712 10.9947 16.526H7.60422H6.63522C8.84922 15.7355 10.1667 15.5474 11.5122 14.8387C14.0462 13.5161 16.5512 10.6223 17.0727 7.61189C16.1077 10.5082 13.1832 12.9965 10.5182 14.0084C8.69222 14.6997 5.39422 15.3707 5.39422 15.3707L5.26072 15.2987C3.01572 14.1776 2.94772 9.18806 7.02922 7.57715C8.81622 6.87094 10.5257 7.25903 12.4562 6.78658C14.5172 6.28434 16.9012 4.69824 17.8712 2.63025C18.9572 5.93893 20.2642 11.1196 17.9217 14.3216ZM6.06322 17.2431C5.92222 17.4168 5.70672 17.5186 5.48172 17.5186C5.07022 17.5186 4.73422 17.1826 4.73422 16.7742C4.73422 16.3657 5.07272 16.0298 5.48172 16.0298C5.65222 16.0298 5.82022 16.0883 5.95222 16.1965C6.27222 16.4541 6.32222 16.9255 6.06322 17.2431Z" fill="white"/>
</g>
</svg>
