<svg width="19" height="20" viewBox="0 0 19 20" fill="none" xmlns="http://www.w3.org/2000/svg">
<path d="M14.6495 0.88279H2.12094C1.28022 0.88279 0.5979 1.5712 0.5979 2.40583V16.2229C0.5979 17.0636 1.28631 17.7459 2.12094 17.7459H10.3758C10.2844 13.6398 11.6856 5.67123 14.6525 0.870605L14.6495 0.88279Z" fill="#0F80CC"/>
<path d="M14.1925 1.33051H2.12091C1.52388 1.33051 1.03955 1.81788 1.03955 2.41186V15.2206C3.77493 14.1697 7.878 13.2651 10.717 13.3077C11.5922 9.23815 12.7546 5.23573 14.1956 1.33051H14.1925Z" fill="url(#paint0_linear_6583_25977)"/>
<path d="M17.5737 0.43197C16.7147 -0.329551 15.676 -0.0249428 14.6494 0.88279L14.1925 1.32752C12.438 3.18563 10.8418 6.63379 10.3057 9.26865C10.4967 9.68595 10.6477 10.1204 10.7565 10.5663L10.8236 10.8709L10.8906 11.1816C10.8906 11.1816 10.8753 11.1207 10.8114 10.9379L10.7687 10.8161C10.7602 10.7935 10.751 10.7711 10.7413 10.749C10.6256 10.484 10.3149 9.92052 10.1717 9.67683C10.0609 10.0007 9.95628 10.3267 9.85796 10.6546C10.26 11.3918 10.5037 12.6529 10.5037 12.6529C10.5037 12.6529 10.4824 12.5706 10.3819 12.2873C10.2905 12.0345 9.84577 11.2517 9.7422 11.0689C9.55944 11.739 9.48938 12.1898 9.55335 12.2995C9.67519 12.5127 9.79703 12.9087 9.90365 13.2864C10.0681 13.9563 10.2023 14.6332 10.3057 15.3151L10.321 15.504C10.2894 16.2657 10.3046 17.0287 10.3667 17.7885C10.4458 18.742 10.5951 19.5614 10.784 20L10.9119 19.9299C10.6378 19.0649 10.522 17.9348 10.5707 16.628C10.6469 14.6328 11.1038 12.2264 11.9537 9.71947C13.3945 5.90273 15.3805 2.86274 17.2021 1.41281C15.5419 2.91148 13.297 7.76084 12.6268 9.55499C11.8745 11.5654 11.3414 13.454 11.0185 15.2603C11.5729 13.5667 13.364 12.8356 13.364 12.8356C13.364 12.8356 14.2474 11.7512 15.2708 10.2008L13.3061 10.7247L12.6725 11.0049C12.6725 11.0049 14.287 10.021 15.679 9.57326C17.5889 6.56678 19.6694 2.29313 17.5737 0.428923" fill="#003B57"/>
<defs>
<linearGradient id="paint0_linear_6583_25977" x1="8.62734" y1="1.61379" x2="8.62734" y2="14.45" gradientUnits="userSpaceOnUse">
<stop stop-color="#97D9F6"/>
<stop offset="0.92024" stop-color="#0F80CC"/>
<stop offset="1" stop-color="#0F80CC"/>
</linearGradient>
</defs>
</svg>
