<svg width="21" height="20" viewBox="0 0 21 20" fill="none" xmlns="http://www.w3.org/2000/svg">
<path d="M20.5 10.0007C20.4998 12.3143 19.6975 14.5562 18.2296 16.3445C16.7618 18.1327 14.7193 19.3568 12.4502 19.808C10.1811 20.2592 7.82575 19.9096 5.78546 18.8189C3.74517 17.7282 2.14619 15.9637 1.26097 13.8263C0.375749 11.6888 0.259054 9.31047 0.93077 7.09659C1.60249 4.88271 3.02105 2.97023 4.94476 1.685C6.86847 0.399779 9.1783 -0.178669 11.4807 0.0482209C13.7831 0.275111 15.9356 1.2933 17.5714 2.9293C18.5013 3.85694 19.2388 4.95921 19.7414 6.17276C20.244 7.38631 20.5018 8.68722 20.5 10.0007Z" fill="#6D9A00"/>
<path d="M6.85285 9.9864C6.84833 9.87742 6.86648 9.76868 6.90616 9.66708C6.94583 9.56547 7.00616 9.4732 7.08333 9.39611C7.1605 9.31902 7.25283 9.25879 7.35447 9.21922C7.45612 9.17965 7.56488 9.16161 7.67386 9.16624C7.83603 9.1664 7.99452 9.21465 8.12929 9.30487C8.26405 9.39509 8.36904 9.52324 8.43099 9.67312C8.49294 9.823 8.50906 9.98788 8.47732 10.1469C8.44558 10.306 8.3674 10.452 8.25266 10.5666C8.13793 10.6813 7.99179 10.7593 7.83271 10.7909C7.67364 10.8225 7.50877 10.8062 7.35896 10.7441C7.20914 10.682 7.0811 10.5768 6.99101 10.442C6.90093 10.3071 6.85285 10.1486 6.85285 9.9864Z" fill="white"/>
<path d="M9.68573 9.9864C9.68122 9.87742 9.69937 9.76868 9.73904 9.66708C9.77871 9.56547 9.83904 9.4732 9.91621 9.39611C9.99338 9.31902 10.0857 9.25879 10.1874 9.21922C10.289 9.17965 10.3978 9.16161 10.5067 9.16624C10.6689 9.1664 10.8274 9.21465 10.9622 9.30487C11.0969 9.39509 11.2019 9.52324 11.2639 9.67312C11.3258 9.823 11.3419 9.98788 11.3102 10.1469C11.2785 10.306 11.2003 10.452 11.0856 10.5666C10.9708 10.6813 10.8247 10.7593 10.6656 10.7909C10.5065 10.8225 10.3417 10.8062 10.1918 10.7441C10.042 10.682 9.91398 10.5768 9.8239 10.442C9.73382 10.3071 9.68573 10.1486 9.68573 9.9864Z" fill="white"/>
<path d="M12.5167 9.9864C12.5122 9.87742 12.5303 9.76868 12.57 9.66708C12.6096 9.56547 12.67 9.4732 12.7471 9.39611C12.8243 9.31902 12.9166 9.25879 13.0183 9.21922C13.1199 9.17965 13.2287 9.16161 13.3377 9.16624C13.4999 9.1664 13.6583 9.21465 13.7931 9.30487C13.9279 9.39509 14.0329 9.52324 14.0948 9.67312C14.1568 9.823 14.1729 9.98788 14.1411 10.1469C14.1094 10.306 14.0312 10.452 13.9165 10.5666C13.8017 10.6813 13.6556 10.7593 13.4965 10.7909C13.3375 10.8225 13.1726 10.8062 13.0228 10.7441C12.873 10.682 12.7449 10.5768 12.6548 10.442C12.5647 10.3071 12.5167 10.1486 12.5167 9.9864Z" fill="white"/>
<path d="M3.45691 10.7486V9.2797C3.70845 9.27941 3.95835 9.23913 4.19724 9.16037C4.35258 9.07395 4.48043 8.94551 4.56615 8.78978C4.67928 8.58847 4.7518 8.36692 4.7796 8.13768C4.81784 7.79848 4.83328 7.4571 4.82581 7.11584C4.80844 6.562 4.84305 6.00775 4.92918 5.46038C4.98184 5.17849 5.11157 4.91671 5.30397 4.70407C5.48106 4.48671 5.71756 4.32554 5.98464 4.24021C6.3464 4.15254 6.71857 4.11549 7.09052 4.13013H7.39556V5.33769C7.11958 5.32051 6.84261 5.3463 6.57455 5.41416C6.46107 5.45858 6.36638 5.5408 6.30648 5.64693C6.24144 5.90526 6.21315 6.17146 6.22245 6.43769C6.22245 6.69483 6.20508 7.1825 6.17035 7.90071C6.1626 8.2332 6.11233 8.56333 6.02077 8.88306C5.95405 9.1061 5.84975 9.31612 5.71237 9.50407C5.54862 9.70082 5.35527 9.87092 5.13926 10.0083C5.35272 10.1353 5.54124 10.3002 5.69556 10.4948C5.84735 10.696 5.95969 10.9241 6.02665 11.1671C6.11562 11.5154 6.16579 11.8725 6.17623 12.2318C6.20312 12.9091 6.21657 13.3416 6.21657 13.5293C6.20657 13.7935 6.23776 14.0578 6.30901 14.3125C6.37354 14.4214 6.47176 14.5063 6.58884 14.5545C6.85205 14.6272 7.12554 14.6556 7.39808 14.6385V15.8872H7.09304C6.72458 15.8958 6.35737 15.8412 6.00733 15.7259C5.74014 15.6457 5.49855 15.4971 5.30649 15.2948C5.11205 15.0825 4.97952 14.8209 4.92329 14.5385C4.84475 14.0705 4.81182 13.596 4.82497 13.1217C4.84494 12.6321 4.81396 12.1418 4.73254 11.6587C4.6812 11.3908 4.54719 11.1457 4.34934 10.9578C4.0754 10.8109 3.7676 10.7388 3.45691 10.7486Z" fill="white"/>
<path d="M16.6217 10.9612C16.4239 11.1491 16.2899 11.3942 16.2385 11.6621C16.1571 12.1452 16.1261 12.6355 16.1461 13.1251C16.1585 13.5984 16.125 14.0717 16.0461 14.5385C15.9899 14.8209 15.8573 15.0825 15.6629 15.2948C15.4719 15.4995 15.2305 15.6504 14.9629 15.7327C14.6129 15.848 14.2456 15.9026 13.8772 15.894H13.5721V14.6478C13.8447 14.6649 14.1182 14.6365 14.3814 14.5638C14.4985 14.5156 14.5967 14.4306 14.6612 14.3217C14.7325 14.067 14.7636 13.8028 14.7537 13.5385C14.7537 13.3509 14.7671 12.9184 14.794 12.2411C14.805 11.882 14.8558 11.5252 14.9453 11.1772C15.0122 10.9342 15.1246 10.7061 15.2763 10.5049C15.4307 10.3103 15.6192 10.1454 15.8326 10.0184C15.6166 9.88103 15.4233 9.71093 15.2595 9.51418C15.1222 9.32623 15.0179 9.11621 14.9511 8.89317C14.8596 8.57344 14.8093 8.24331 14.8016 7.91082C14.7668 7.19261 14.7495 6.70494 14.7495 6.4478C14.7587 6.18157 14.7305 5.91537 14.6654 5.65704C14.6055 5.55091 14.5108 5.46869 14.3974 5.42427C14.1293 5.35642 13.8523 5.33062 13.5763 5.3478V4.13183H13.8814C14.2533 4.1172 14.6255 4.15425 14.9873 4.24192C15.2543 4.32725 15.4908 4.48842 15.6679 4.70578C15.8603 4.91842 15.9901 5.1802 16.0427 5.46209C16.1289 6.00946 16.1635 6.56371 16.1461 7.11755C16.1386 7.45881 16.1541 7.80019 16.1923 8.13939C16.2201 8.36863 16.2926 8.59018 16.4058 8.79149C16.4915 8.94722 16.6193 9.07565 16.7747 9.16208C17.014 9.24159 17.2645 9.28244 17.5167 9.28309V10.7486C17.2048 10.7394 16.8961 10.8127 16.6217 10.9612Z" fill="white"/>
</svg>
