<svg width="32" height="32" viewBox="0 0 32 32" fill="none" xmlns="http://www.w3.org/2000/svg">
<path fill-rule="evenodd" clip-rule="evenodd" d="M5.78393 6.16303C6.16319 6.73192 6.7321 7.01637 7.39581 7.01637C7.86989 7.01637 8.34396 6.82673 8.6284 6.44747C10.6195 4.93042 13.0848 4.07708 15.6448 4.07708C16.3085 4.07708 16.9722 4.1719 17.5411 4.26671C18.6789 4.45634 19.7219 3.69781 19.9115 2.56002C20.1011 1.42223 19.3426 0.37926 18.2048 0.189629C17.3515 0.0948129 16.4981 0 15.6448 0C12.2314 0 8.91287 1.13778 6.16321 3.22373C5.30987 3.98226 5.12022 5.21487 5.78393 6.16303ZM23.7049 29.3931C23.0411 29.3931 22.3774 29.1086 21.9982 28.5397C21.3344 27.5916 21.5241 26.2641 22.4722 25.6004C24.2886 24.2865 25.6323 22.5158 26.433 20.5387C26.4548 20.4138 26.4548 20.2752 26.4548 20.1011C26.4548 18.9633 25.5066 18.0151 24.3688 18.0151C23.4206 18.0151 22.6621 18.584 22.3777 19.4374C21.1451 21.9974 18.585 23.7989 15.5509 23.7989C11.379 23.7989 8.06049 20.4803 8.06049 16.3084C8.06049 12.1365 11.379 8.81799 15.5509 8.81799C18.585 8.81799 21.2399 10.6195 22.3777 13.1795C22.6621 14.0329 23.4206 14.6017 24.3688 14.6017C25.5066 14.6017 26.4548 13.6536 26.4548 12.5158C26.4548 12.2314 26.4547 11.9469 26.3599 11.7573L26.4213 11.7397C26.3714 11.6187 26.3192 11.4981 26.2649 11.3781C25.4115 9.48174 24.0841 7.86987 22.4722 6.73208C21.5241 6.06837 21.3344 4.74095 21.9982 3.79279C22.6619 2.84463 23.9893 2.655 24.9375 3.31871C27.213 4.93058 29.0145 7.11134 30.1523 9.67137C33.2812 16.4981 31.1005 24.6523 25.0323 29.0138L25.0322 29.0138C24.5581 29.2034 24.0841 29.3931 23.7049 29.3931ZM3.31855 23.704C2.56003 23.704 1.8015 23.2299 1.42224 22.4714C0.474079 20.3854 0 18.1098 0 15.8343C0 13.5587 0.474079 11.2831 1.42224 9.19715C1.89632 8.15418 3.12892 7.68009 4.17189 8.15417C5.21487 8.62825 5.68895 9.86086 5.21487 10.9038C4.55116 12.4209 4.17189 14.0328 4.17189 15.7394C4.17189 17.4461 4.55116 19.058 5.21487 20.575C5.68895 21.618 5.21487 22.8506 4.17189 23.3247C3.88744 23.6091 3.603 23.704 3.31855 23.704ZM6.16245 28.3497C8.91211 30.4357 12.1358 31.5735 15.644 31.5735C16.4974 31.5735 17.3507 31.4786 18.2989 31.289C19.4367 31.0994 20.1952 30.0564 20.0055 28.9186C19.8159 27.7808 18.7729 27.0223 17.6351 27.2119C17.5605 27.2226 17.487 27.2333 17.4144 27.2438C16.8422 27.3269 16.3279 27.4015 15.7388 27.4015C13.1788 27.4015 10.7136 26.5482 8.72246 25.0312C7.7743 24.2726 6.44687 24.4623 5.78316 25.4104C5.02463 26.3586 5.21429 27.686 6.16245 28.3497Z" fill="#261D3F"/>
</svg>
