<svg width="135" height="130" viewBox="0 0 135 130" fill="none" xmlns="http://www.w3.org/2000/svg">
<g clip-path="url(#clip0_6583_24289)">
<path d="M38.4617 17.0502L122.929 16.8542C124.823 16.8542 126.326 18.1608 126.13 19.7286L121.165 98.5125C121.035 99.8844 119.597 100.93 117.964 100.93H114.241L113.457 100.538L7.30087 100.93C5.40639 100.93 3.90388 99.4924 4.09986 97.9246L9.06469 19.5326C9.19534 18.1608 10.5672 16.9849 12.2004 16.9849L38.4617 17.0502Z" fill="white"/>
<path d="M118.03 101.126H114.241L113.522 100.734L7.43177 101.126C6.38655 101.126 5.34132 100.668 4.68805 99.9497C4.16544 99.3618 3.90413 98.5779 3.96946 97.8593L8.93428 19.4673C9.13026 17.8995 10.5675 16.6583 12.3313 16.6583L38.5272 16.7889L122.995 16.593C124.105 16.593 125.085 16.9849 125.804 17.7688C126.326 18.3568 126.522 19.01 126.457 19.7286L121.492 98.5126C121.296 100.015 119.794 101.126 118.03 101.126ZM114.371 100.668H118.03C119.532 100.668 120.839 99.6884 120.969 98.5126L125.934 19.7286C126 19.1407 125.804 18.5528 125.412 18.0955C124.824 17.4422 123.974 17.1156 122.995 17.1156L38.4619 17.3115L12.2659 17.1809C10.8288 17.1809 9.52222 18.2261 9.32624 19.5327L4.42675 97.8593C4.36142 98.4472 4.5574 99.1005 5.01469 99.5578C5.60263 100.211 6.45187 100.603 7.36644 100.603L113.522 100.211L114.371 100.668Z" fill="#261D3F"/>
<path d="M34.9347 16.7889H119.206C121.101 16.7889 122.603 18.0955 122.407 19.6633L117.508 98.4472C117.377 99.8191 116.005 100.864 114.307 100.864H3.96987C2.0754 100.864 0.572887 99.5578 0.768867 97.99L5.66837 19.206C5.79902 17.8342 7.17088 16.7889 8.86937 16.7889H34.9347Z" fill="white"/>
<path d="M36.5674 20.3166H115.025C116.789 20.3166 118.16 21.5578 118.03 22.9297L113.457 94.9196C113.326 96.1608 112.02 97.1407 110.452 97.1407H7.75839C5.99457 97.1407 4.62271 95.8995 4.75337 94.5276L9.32623 22.5377C9.45688 21.2965 10.7634 20.3166 12.3313 20.3166H36.5674Z" fill="#E1E1E1"/>
<path d="M12.397 101.126H3.90452C2.79397 101.126 1.81407 100.734 1.1608 99.9497C0.638191 99.3618 0.376885 98.6432 0.507538 97.9246L5.40704 19.206C5.53769 17.8342 6.77889 16.7889 8.34673 16.593C8.47739 16.593 8.60804 16.6583 8.60804 16.7889C8.60804 16.9196 8.54271 17.0502 8.41206 17.0502C7.0402 17.2462 5.99498 18.0955 5.92965 19.206L1.03015 97.9899C0.964824 98.5779 1.1608 99.1658 1.55276 99.6231C2.1407 100.276 2.98995 100.603 3.96985 100.603H12.4623C12.593 100.603 12.7236 100.734 12.7236 100.864C12.6583 100.995 12.593 101.126 12.397 101.126Z" fill="#261D3F"/>
<path d="M51.2013 101.126H39.3772C39.2465 101.126 39.1158 100.995 39.1158 100.864C39.1158 100.734 39.2465 100.603 39.3772 100.603H51.2013C51.3319 100.603 51.4626 100.734 51.4626 100.864C51.3973 100.995 51.3319 101.126 51.2013 101.126Z" fill="#261D3F"/>
<path d="M120.643 48.4724C120.577 48.4724 120.577 48.4724 120.643 48.4724C120.512 48.4724 120.381 48.3417 120.381 48.211L122.145 19.6633C122.145 19.5327 122.276 19.402 122.407 19.4673C122.537 19.4673 122.668 19.598 122.603 19.7286L120.839 48.2764C120.839 48.3417 120.773 48.4724 120.643 48.4724Z" fill="#261D3F"/>
<path d="M70.668 17.0503H48.9143C48.7836 17.0503 48.653 16.9196 48.653 16.789C48.653 16.6583 48.7836 16.5276 48.9143 16.5276H70.668C70.7987 16.5276 70.9293 16.6583 70.9293 16.789C70.9293 16.9196 70.864 17.0503 70.668 17.0503Z" fill="#261D3F"/>
<path d="M30.9502 51.6734H15.1411L15.4677 47.6231H31.2768L30.9502 51.6734Z" fill="white"/>
<path d="M96.865 51.8694H40.6188L40.9454 47.7538H97.1916L96.865 51.8694Z" fill="white"/>
<path d="M29.121 72.0553H13.312L13.6386 68.0051H29.4476L29.121 72.0553Z" fill="white"/>
<path d="M95.036 72.2513H38.8551L39.1817 68.1357H95.3626L95.036 72.2513Z" fill="white"/>
<path d="M27.1612 92.1106H11.3522L11.6788 87.995H27.4879L27.1612 92.1106Z" fill="white"/>
<path d="M93.0758 92.2412H36.8296L37.1562 88.191H93.4025L93.0758 92.2412Z" fill="white"/>
<path d="M54.7294 58.794H40.0309L40.3575 54.6784H55.056L54.7294 58.794Z" fill="white"/>
<path d="M109.146 58.99H56.7545L57.1465 54.8744H109.473L109.146 58.99Z" fill="white"/>
<path d="M54.0104 65.5226H39.312L39.6386 61.407H54.3371L54.0104 65.5226Z" fill="white"/>
<path d="M108.428 65.7186H56.0356L56.3622 61.603H108.754L108.428 65.7186Z" fill="white"/>
<path d="M32.5177 31.8794H16.7086L17.0353 27.8292H32.8443L32.5177 31.8794Z" fill="white"/>
<path d="M98.4979 32.0754H42.2516L42.5783 28.0251H98.8245L98.4979 32.0754Z" fill="white"/>
<path d="M56.3622 39H41.5984L41.925 34.8845H56.6888L56.3622 39Z" fill="white"/>
<path d="M110.714 39.196H58.3873L58.714 35.0804H111.041L110.714 39.196Z" fill="white"/>
<path d="M55.6433 45.7287H40.8795L41.2061 41.6131H55.97L55.6433 45.7287Z" fill="white"/>
<path d="M109.995 45.9247H57.6688L57.9954 41.8091H110.322L109.995 45.9247Z" fill="white"/>
<path d="M52.9656 78.9799H38.2018L38.5284 74.8643H53.2922L52.9656 78.9799Z" fill="white"/>
<path d="M107.317 79.1759H54.9908L55.3175 75.0603H107.644L107.317 79.1759Z" fill="white"/>
<path d="M52.2467 85.7085H37.4828L37.8095 81.593H52.5733L52.2467 85.7085Z" fill="white"/>
<path d="M106.599 85.9045H54.2721L54.5987 81.7889H106.925L106.599 85.9045Z" fill="white"/>
<path d="M23.5674 20.7739V19.4673L22.1303 19.1407C22.0649 18.8141 21.9996 18.5528 21.869 18.2261L22.9142 17.2462L22.2609 16.0704L20.8891 16.5276C20.6931 16.2663 20.4971 16.0704 20.2358 15.8744L20.6931 14.5025L19.5172 13.8493L18.5373 14.8945C18.276 14.7638 17.9494 14.6985 17.6227 14.6332L17.2961 13.196H15.9896L15.6629 14.6332C15.3363 14.6985 15.075 14.7638 14.7484 14.8945L13.7685 13.8493L12.5926 14.5025L13.0499 15.8744C12.7886 16.0704 12.5926 16.2663 12.3966 16.5276L11.0247 16.0704L10.3715 17.2462L11.4167 18.2261C11.286 18.4874 11.2207 18.8141 11.1554 19.1407L9.7182 19.4673V20.7739L11.1554 21.1005C11.2207 21.4271 11.286 21.6884 11.4167 22.0151L10.3715 22.995L11.0247 24.1709L12.3966 23.7136C12.5926 23.9749 12.7886 24.1709 13.0499 24.3668L12.5926 25.7387L13.7685 26.392L14.7484 25.3467C15.0097 25.4774 15.3363 25.5427 15.6629 25.608L15.9896 27.0452H17.2961L17.6227 25.608C17.9494 25.5427 18.2107 25.4774 18.5373 25.3467L19.5172 26.392L20.6931 25.7387L20.2358 24.3668C20.4971 24.1709 20.6931 23.9749 20.8891 23.7136L22.2609 24.1709L22.9142 22.995L21.869 22.0151C21.9996 21.7538 22.0649 21.4271 22.1303 21.1005L23.5674 20.7739ZM16.7081 23.5176C14.8137 23.5176 13.3112 21.9498 13.3112 20.0553C13.3112 18.1608 14.879 16.6583 16.7735 16.6583C18.6679 16.6583 20.1705 18.2261 20.1705 20.1206C20.1705 22.0151 18.6026 23.5176 16.7081 23.5176Z" fill="#3E80FA"/>
<path d="M16.8388 26.7839H15.5323C15.4016 26.7839 15.3363 26.7186 15.271 26.588L15.0097 25.3468C14.8137 25.2814 14.6177 25.2161 14.3564 25.1508L13.4418 26.1307C13.3765 26.196 13.2459 26.2613 13.1152 26.196L11.9393 25.5427C11.874 25.4774 11.8087 25.3468 11.8087 25.2814L12.2006 24.0402C12.07 23.9096 11.874 23.7136 11.7434 23.5829L10.5021 23.9749C10.3715 24.0402 10.3062 23.9749 10.2408 23.8443L9.58757 22.6684C9.52225 22.5377 9.52225 22.4724 9.6529 22.3417L10.6328 21.4925C10.5675 21.2965 10.5021 21.1005 10.4368 20.8392L9.19561 20.5779C9.06496 20.5779 8.99963 20.4473 8.99963 20.3166V19.0101C8.99963 18.8794 9.06496 18.8141 9.19561 18.7488L10.4368 18.4875C10.5021 18.2915 10.5675 18.0955 10.6328 17.8342L9.6529 16.9196C9.58757 16.8543 9.52225 16.7236 9.58757 16.593L10.2408 15.4171C10.3062 15.3518 10.4368 15.2865 10.5021 15.2865L11.7434 15.6784C11.874 15.5478 12.07 15.3518 12.2006 15.2211L11.8087 13.9799C11.7434 13.8493 11.8087 13.7839 11.9393 13.7186L13.1152 13.0654C13.2459 13 13.3112 13 13.4418 13.1307L14.2911 14.1106C14.4871 14.0453 14.6831 13.9799 14.9444 13.9146L15.2057 12.6734C15.2057 12.5427 15.3363 12.4774 15.467 12.4774H16.7735C16.9042 12.4774 16.9695 12.5427 17.0348 12.6734L17.2961 13.9146C17.4921 13.9799 17.6881 14.0453 17.9494 14.1106L18.864 13.1307C18.9293 13.0654 19.0599 13 19.1906 13.0654L20.3665 13.7186C20.4318 13.7839 20.4971 13.9146 20.4971 13.9799L20.1052 15.3518C20.2358 15.4824 20.4318 15.6784 20.5624 15.8091L21.8037 15.4171C21.9343 15.3518 21.9996 15.4171 22.065 15.5478L22.7182 16.7236C22.7836 16.789 22.7836 16.9196 22.6529 17.0503L21.673 17.8995C21.7383 18.0955 21.8037 18.2915 21.869 18.5528L23.1102 18.8141C23.2408 18.8141 23.3062 18.9448 23.3062 19.0754V20.3819C23.3062 20.5126 23.2408 20.5779 23.1102 20.6432L21.869 20.9046C21.8037 21.1005 21.7383 21.2965 21.673 21.5578L22.6529 22.4724C22.7182 22.5377 22.7836 22.6684 22.7182 22.799L22.065 23.9749C21.9996 24.0402 21.869 24.1056 21.8037 24.1056L20.5624 23.5176C20.4318 23.6483 20.2358 23.8443 20.1052 23.9749L20.4971 25.2161C20.5624 25.3468 20.4971 25.4121 20.3665 25.4774L19.1906 26.1307C19.1253 26.196 18.9946 26.196 18.864 26.0654L18.0147 25.0855C17.8187 25.1508 17.6227 25.2161 17.3614 25.2814L17.1001 26.5226C17.1001 26.7186 16.9695 26.7839 16.8388 26.7839ZM15.7283 26.2613H16.6428L16.9042 25.0201C16.9042 24.9548 17.0348 24.8242 17.1001 24.8242C17.4268 24.7588 17.6881 24.6935 17.9494 24.6282C18.0147 24.6282 18.1454 24.6282 18.2107 24.6935L19.0599 25.6081L19.9092 25.1508L19.5172 23.9749C19.5172 23.9096 19.5172 23.7789 19.5825 23.7136C19.7785 23.5176 20.0398 23.3216 20.2358 23.0603C20.3011 22.995 20.4318 22.9297 20.4971 22.995L21.673 23.387L22.1303 22.5377L21.2157 21.6885C21.1504 21.6231 21.1504 21.4925 21.1504 21.4272C21.281 21.1659 21.3464 20.8392 21.4117 20.5779C21.4117 20.5126 21.477 20.3819 21.6077 20.3819L22.8489 20.1206V19.2061L21.6077 18.9448C21.5423 18.9448 21.4117 18.8141 21.4117 18.7488C21.3464 18.4221 21.281 18.1608 21.2157 17.8995C21.2157 17.8342 21.2157 17.7035 21.281 17.6382L22.1956 16.789L21.7383 15.9397L20.5624 16.3317C20.4971 16.3317 20.3665 16.3317 20.3011 16.2664C20.1052 16.0704 19.9092 15.8091 19.6479 15.6131C19.5825 15.5478 19.5172 15.4171 19.5825 15.3518L19.9745 14.1759L19.1253 13.7186L18.276 14.6332C18.2107 14.6985 18.08 14.6985 18.0147 14.6985C17.7534 14.5679 17.4268 14.5025 17.1655 14.4372C17.1001 14.4372 16.9695 14.3719 16.9695 14.2412L16.7082 13H15.7936L15.5323 14.2412C15.5323 14.3066 15.4016 14.4372 15.3363 14.4372C15.0097 14.5025 14.7484 14.5679 14.4871 14.6332C14.4217 14.6332 14.2911 14.6332 14.2258 14.5679L13.3765 13.6533L12.5273 14.1106L12.9192 15.2865C12.9192 15.3518 12.9192 15.4824 12.8539 15.5478C12.6579 15.7437 12.3966 15.9397 12.2006 16.201C12.1353 16.2664 12.0047 16.3317 11.9393 16.2664L10.7635 15.8744L10.3062 16.7236L11.2207 17.5729C11.2861 17.6382 11.2861 17.7689 11.2861 17.8342C11.1554 18.0955 11.0901 18.4221 11.0248 18.6834C11.0248 18.7488 10.9594 18.8794 10.8288 18.8794L9.58757 19.1407V20.0553L10.8288 20.3166C10.8941 20.3166 11.0248 20.4473 11.0248 20.5126C11.0901 20.8392 11.1554 21.1005 11.2207 21.3618C11.2207 21.4272 11.2207 21.5578 11.1554 21.6231L10.2408 22.4724L10.6981 23.3216L11.874 22.9297C11.9393 22.9297 12.07 22.9297 12.1353 22.995C12.3313 23.191 12.5273 23.4523 12.7886 23.6483C12.8539 23.7136 12.9192 23.8443 12.8539 23.9096L12.4619 25.0855L13.3112 25.5427L14.1604 24.6282C14.2258 24.5628 14.3564 24.5628 14.4217 24.5628C14.6831 24.6935 15.0097 24.7588 15.271 24.8242C15.3363 24.8242 15.467 24.8895 15.467 25.0201L15.7283 26.2613ZM16.2509 23.3216C15.271 23.3216 14.3564 22.9297 13.6378 22.2111C12.9192 21.4925 12.5926 20.5779 12.5926 19.598C12.5926 18.6181 12.9846 17.7035 13.7032 16.985C14.4217 16.2664 15.3363 15.9397 16.3162 15.9397C17.2961 15.9397 18.2107 16.3317 18.9293 17.0503C19.6479 17.7689 19.9745 18.6834 19.9745 19.6633C19.9745 20.6432 19.5825 21.5578 18.864 22.2764C18.1454 22.9297 17.2308 23.3216 16.2509 23.3216ZM16.2509 22.799C17.1001 22.799 17.8841 22.4724 18.5373 21.8845C19.1253 21.2965 19.4519 20.5126 19.4519 19.6633C19.4519 18.8141 19.1253 18.0302 18.5373 17.3769C17.9494 16.789 17.1655 16.4623 16.3162 16.4623C15.467 16.4623 14.6831 16.789 14.0951 17.3769C13.5072 17.9649 13.1805 18.7488 13.1805 19.598C13.1805 20.4473 13.5072 21.2312 14.0951 21.8845C14.5524 22.4724 15.3363 22.799 16.2509 22.799Z" fill="#261D3F"/>
<path d="M47.9994 14.0452V11.7588L45.5823 11.1708C45.5169 10.6482 45.3863 10.1256 45.1903 9.603L47.0195 7.9045L45.9089 5.94471L43.5571 6.6633C43.2305 6.27134 42.8386 5.87938 42.4466 5.55275L43.1652 3.20099L41.2054 2.02511L39.4416 3.91958C38.919 3.7236 38.4617 3.59295 37.9391 3.52762L37.4164 1.11053H35.13L34.5421 3.52762C34.0195 3.59295 33.4968 3.7236 32.9742 3.91958L31.2757 2.09043L29.3159 3.20099L30.0345 5.55275C29.6426 5.87938 29.2506 6.27134 28.924 6.6633L26.5722 5.87938L25.3963 7.83918L27.2255 9.53767C27.0295 10.0603 26.8989 10.5176 26.8335 11.0402L24.4164 11.5628V13.8492L26.8335 14.4372C26.8989 14.9598 27.0295 15.4824 27.2255 16.005L25.3963 17.7035L26.5069 19.6633L28.8587 18.9447C29.1853 19.3367 29.5772 19.7286 29.9692 20.0553L29.2506 22.407L31.2104 23.5829L32.9089 21.7537C33.4315 21.9497 33.8888 22.0804 34.4114 22.1457L34.934 24.5628H37.2205L37.8084 22.1457C38.331 22.0804 38.8536 21.9497 39.3762 21.7537L41.0747 23.5829L43.0345 22.4723L42.3159 20.1206C42.7079 19.794 43.0999 19.402 43.4265 19.01L45.7783 19.7286L46.9541 17.7688L45.125 16.0703C45.321 15.5477 45.4516 15.0904 45.5169 14.5678L47.9994 14.0452ZM36.1752 18.6834C32.9089 18.6834 30.2958 16.005 30.3612 12.804C30.3612 9.53767 33.0396 6.9246 36.2406 6.98993C39.5069 6.98993 42.12 9.66832 42.0546 12.8693C42.0546 16.0703 39.4416 18.6834 36.1752 18.6834Z" fill="#3E80FA"/>
<path d="M36.5022 24.1055H34.2157C34.0851 24.1055 34.0198 24.0402 33.9544 23.9095L33.4318 21.6231C32.9745 21.5578 32.5826 21.4271 32.1906 21.2965L30.6228 22.995C30.5574 23.0603 30.4268 23.1256 30.2961 23.0603L28.3363 21.8844C28.271 21.8191 28.2057 21.6884 28.2057 21.6231L28.9243 19.402C28.5977 19.1407 28.271 18.8141 28.0097 18.4874L25.7886 19.1407C25.658 19.206 25.5926 19.1407 25.5273 19.01L24.4167 17.0503C24.3514 16.9196 24.3514 16.8543 24.4821 16.7236L26.1806 15.1558C26.0499 14.7638 25.9193 14.3065 25.8539 13.9146L23.5675 13.392C23.4368 13.392 23.3715 13.2613 23.3715 13.1307V10.8442C23.3715 10.7136 23.4368 10.6482 23.5675 10.5829L25.8539 10.0603C25.9193 9.60301 26.0499 9.21105 26.1806 8.8191L24.4821 7.25126C24.4167 7.18593 24.3514 7.05528 24.4167 6.92462L25.5926 4.96482C25.658 4.8995 25.7886 4.83417 25.8539 4.83417L28.075 5.55276C28.3363 5.22613 28.663 4.8995 28.9896 4.63819L28.3363 2.41709C28.271 2.28643 28.3363 2.22111 28.467 2.15578L30.4268 1.04523C30.5574 0.979899 30.6228 0.979899 30.7534 1.11055L32.3213 2.80905C32.7132 2.67839 33.1705 2.54774 33.5625 2.48241L34.0851 0.19598C34.0851 0.0653266 34.2157 0 34.3464 0H36.6328C36.7635 0 36.8288 0.0653266 36.8941 0.19598L37.4167 2.48241C37.874 2.54774 38.266 2.67839 38.658 2.80905L40.2258 1.11055C40.2911 1.04523 40.4218 0.979899 40.5524 1.04523L42.5122 2.22111C42.5776 2.28643 42.6429 2.41709 42.6429 2.48241L41.9243 4.70352C42.2509 4.96482 42.5776 5.29146 42.8389 5.61809L45.06 4.96482C45.1906 4.8995 45.2559 4.96482 45.3213 5.09548L46.4318 7.05528C46.4972 7.18593 46.4971 7.25126 46.3665 7.38191L44.668 8.94975C44.7987 9.34171 44.9293 9.799 44.9946 10.191L47.2811 10.7136C47.4117 10.7136 47.477 10.8442 47.477 10.9749V13.2613C47.477 13.392 47.4117 13.4573 47.2811 13.5226L44.9946 14.0452C44.9293 14.5025 44.7987 14.8945 44.668 15.2864L46.3665 16.8543C46.4318 16.9196 46.4972 17.0503 46.4318 17.1809L45.2559 19.1407C45.1906 19.206 45.06 19.2714 44.9946 19.2714L42.7735 18.5528C42.5122 18.8794 42.1856 19.206 41.859 19.4673L42.5122 21.6884C42.5776 21.8191 42.5122 21.8844 42.3816 21.9497L40.4218 23.0603C40.3564 23.1256 40.2258 23.1256 40.0951 22.995L38.5273 21.2965C38.1353 21.4271 37.6781 21.5578 37.2861 21.6231L36.7635 23.9095C36.6982 23.9749 36.6328 24.1055 36.5022 24.1055ZM34.4117 23.5829H36.3062L36.8288 21.3618C36.8288 21.2965 36.9595 21.1658 37.0248 21.1658C37.5474 21.1005 38.07 20.9698 38.5273 20.7739C38.5926 20.7739 38.7233 20.7739 38.7886 20.8392L40.3564 22.5377L41.9896 21.6231L41.3363 19.402C41.3363 19.3367 41.3363 19.206 41.4017 19.1407C41.7936 18.8141 42.1856 18.4221 42.5122 18.0302C42.5776 17.9648 42.7082 17.8995 42.7735 17.9648L44.9946 18.6834L45.9745 17.0503L44.276 15.4824C44.2107 15.4171 44.2107 15.2864 44.2107 15.2211C44.4067 14.7638 44.5373 14.2412 44.6027 13.7186C44.6027 13.6533 44.668 13.5226 44.7987 13.5226L47.0198 13V11.1055L44.7987 10.5829C44.7333 10.5829 44.6027 10.4523 44.6027 10.3869C44.5373 9.86432 44.4067 9.34171 44.2107 8.88442C44.2107 8.8191 44.2107 8.68844 44.276 8.62312L45.9745 7.05528L45.06 5.42211L42.8389 6.07538C42.7735 6.07538 42.6429 6.07538 42.5776 6.01005C42.2509 5.61809 41.859 5.22613 41.467 4.8995C41.4017 4.83417 41.3363 4.70352 41.4017 4.63819L42.1203 2.41709L40.4871 1.43719L38.8539 3.26633C38.7886 3.33166 38.658 3.33166 38.5926 3.33166C38.1353 3.13568 37.6127 3.00503 37.0901 2.9397C37.0248 2.9397 36.8941 2.87437 36.8941 2.74372L36.4368 0.522613H34.5424L34.0198 2.74372C34.0198 2.80905 33.8891 2.9397 33.8238 2.9397C33.3012 3.00503 32.7786 3.13568 32.3213 3.33166C32.2559 3.33166 32.1253 3.33166 32.06 3.26633L30.4921 1.56784L28.859 2.48241L29.5122 4.70352C29.5122 4.76884 29.5122 4.8995 29.4469 4.96482C29.0549 5.29146 28.663 5.68342 28.3363 6.07538C28.271 6.1407 28.1404 6.20603 28.075 6.1407L25.8539 5.42211L24.874 7.05528L26.5725 8.62312C26.6379 8.68844 26.6379 8.8191 26.6379 8.88442C26.4419 9.34171 26.3112 9.86432 26.2459 10.3869C26.2459 10.4523 26.1806 10.5829 26.0499 10.5829L23.8288 11.1055V13L26.0499 13.5226C26.1152 13.5226 26.2459 13.6533 26.2459 13.7186C26.3112 14.2412 26.4419 14.7638 26.6379 15.2211C26.6379 15.2864 26.6379 15.4171 26.5725 15.4824L24.874 17.0503L25.7886 18.6834L28.0097 18.0302C28.075 18.0302 28.2057 18.0302 28.271 18.0955C28.5977 18.4874 28.9896 18.8794 29.3816 19.206C29.4469 19.2714 29.5122 19.402 29.4469 19.4673L28.7936 21.5578L30.4268 22.5377L31.9946 20.8392C32.06 20.7739 32.1906 20.7739 32.2559 20.7739C32.7132 20.9698 33.2358 21.1005 33.7585 21.1658C33.8238 21.1658 33.9544 21.2312 33.9544 21.3618L34.4117 23.5829ZM35.4569 18.1608C35.3916 18.1608 35.3916 18.1608 35.4569 18.1608C33.8238 18.1608 32.2559 17.5075 31.1454 16.3317C29.9695 15.1558 29.3816 13.6533 29.3816 12.0201C29.3816 10.3869 30.0348 8.88442 31.2107 7.70854C32.3866 6.53266 33.8891 5.94472 35.5223 5.94472C38.9193 5.94472 41.5977 8.68844 41.5977 12.0854C41.5323 15.4171 38.7886 18.1608 35.4569 18.1608ZM35.3916 17.6382C38.5273 17.6382 41.0097 15.1558 41.0097 12.0201C41.0097 8.94975 38.5273 6.40201 35.3916 6.40201C33.8891 6.40201 32.5172 6.98995 31.4067 8.03518C30.3615 9.0804 29.7735 10.5176 29.7735 12.0201C29.7735 13.5226 30.3615 14.9598 31.4067 16.005C32.5172 17.0503 33.8891 17.6382 35.3916 17.6382Z" fill="#261D3F"/>
<path d="M118.814 4.57288H75.0455C73.935 4.57288 72.9551 5.48745 72.8898 6.66333L71.3219 26.6533C71.2566 27.7638 72.0405 28.7437 73.1511 28.7437H116.92C118.03 28.7437 119.01 27.8292 119.076 26.6533L120.644 6.66333C120.774 5.48745 119.925 4.57288 118.814 4.57288Z" fill="white"/>
<path d="M116.92 28.9397H73.1508C72.5628 28.9397 72.0402 28.6784 71.6482 28.2865C71.2563 27.8292 71.0603 27.2412 71.0603 26.588L72.6281 6.59802C72.7588 5.35681 73.804 4.31158 75.0452 4.31158H118.814C119.402 4.31158 119.925 4.57289 120.317 4.96485C120.709 5.42214 120.905 6.01008 120.905 6.66334L119.337 26.6533C119.206 27.8945 118.161 28.9397 116.92 28.9397ZM75.1106 4.8342C74.1307 4.8342 73.2814 5.68344 73.1508 6.66334L71.5829 26.6533C71.5176 27.1759 71.7136 27.6332 72.0402 27.9598C72.3668 28.2865 72.7588 28.4824 73.2161 28.4824H116.985C117.965 28.4824 118.814 27.6332 118.945 26.6533L120.513 6.66334C120.578 6.14073 120.382 5.68344 120.055 5.35681C119.729 5.03018 119.337 4.8342 118.879 4.8342H75.1106Z" fill="#261D3F"/>
<path d="M118.945 8.23117H74.392C74.2613 8.23117 74.1307 8.10052 74.1307 7.96986C74.1307 7.83921 74.2613 7.70856 74.392 7.70856H118.945C119.075 7.70856 119.206 7.83921 119.206 7.96986C119.206 8.10052 119.075 8.23117 118.945 8.23117Z" fill="#F0F0F0"/>
<path d="M76.5474 6.14072C76.5474 6.40202 76.2861 6.66333 75.9594 6.66333C75.6981 6.66333 75.4368 6.40202 75.5022 6.14072C75.5022 5.87941 75.7635 5.6181 76.0901 5.6181C76.3514 5.6181 76.5474 5.87941 76.5474 6.14072Z" fill="#F0F0F0"/>
<path d="M78.5729 6.14072C78.5729 6.40202 78.3116 6.66333 77.985 6.66333C77.7236 6.66333 77.4623 6.40202 77.5277 6.14072C77.5277 5.87941 77.789 5.6181 78.1156 5.6181C78.3769 5.6181 78.6382 5.87941 78.5729 6.14072Z" fill="#F0F0F0"/>
<path d="M80.6636 6.14072C80.6636 6.40202 80.4023 6.66333 80.0757 6.66333C79.8144 6.66333 79.553 6.40202 79.6184 6.14072C79.6184 5.87941 79.8797 5.6181 80.2063 5.6181C80.4676 5.6181 80.6636 5.87941 80.6636 6.14072Z" fill="#F0F0F0"/>
<path d="M119.141 6.3367H116.332C116.201 6.3367 116.07 6.20605 116.07 6.07539C116.07 5.94474 116.201 5.81409 116.332 5.81409H119.141C119.271 5.81409 119.402 5.94474 119.402 6.07539C119.402 6.20605 119.271 6.3367 119.141 6.3367Z" fill="#F0F0F0"/>
<path d="M114.96 6.3367H87.5883C87.4576 6.3367 87.327 6.20605 87.327 6.07539C87.327 5.94474 87.4576 5.81409 87.5883 5.81409H114.96C115.091 5.81409 115.221 5.94474 115.221 6.07539C115.221 6.20605 115.091 6.3367 114.96 6.3367Z" fill="#F0F0F0"/>
<path d="M84.387 6.3367H81.9046C81.7739 6.3367 81.6432 6.20605 81.6432 6.07539C81.6432 5.94474 81.7739 5.81409 81.9046 5.81409H84.387C84.5176 5.81409 84.6483 5.94474 84.6483 6.07539C84.6483 6.20605 84.5176 6.3367 84.387 6.3367Z" fill="#F0F0F0"/>
<path d="M87.7843 24.5628H74.3923L75.5029 11.1708H88.8295L87.7843 24.5628Z" fill="#F0F0F0"/>
<path d="M93.8597 14.1106H90.9853L91.1813 11.1055H94.0556L93.8597 14.1106Z" fill="#F0F0F0"/>
<path d="M117.116 14.1105H95.9501L96.1461 11.1708H117.377L117.116 14.1105Z" fill="#F0F0F0"/>
<path d="M93.4024 19.402H90.528L90.7893 16.4623H93.6637L93.4024 19.402Z" fill="#F0F0F0"/>
<path d="M116.724 19.402H95.4929L95.7542 16.5276H116.92L116.724 19.402Z" fill="#F0F0F0"/>
<path d="M93.0109 24.6934H90.1365L90.3325 21.7537H93.2068L93.0109 24.6934Z" fill="#F0F0F0"/>
<path d="M116.332 24.5628H95.1013L95.3626 21.6884H116.528L116.332 24.5628Z" fill="#F0F0F0"/>
<path d="M129.398 53.5678C129.267 53.5678 129.136 53.4372 129.136 53.3065V52.0653C129.136 51.9347 129.267 51.804 129.398 51.804C129.528 51.804 129.659 51.9347 129.659 52.0653V53.3065C129.659 53.4372 129.528 53.5678 129.398 53.5678Z" fill="#261D3F"/>
<path d="M129.398 56.4422C129.267 56.4422 129.136 56.3116 129.136 56.1809V54.9397C129.136 54.8091 129.267 54.6784 129.398 54.6784C129.528 54.6784 129.659 54.8091 129.659 54.9397V56.1809C129.659 56.3116 129.528 56.4422 129.398 56.4422Z" fill="#261D3F"/>
<path d="M128.548 54.3518H127.307C127.176 54.3518 127.046 54.2211 127.046 54.0905C127.046 53.9598 127.176 53.8292 127.307 53.8292H128.548C128.679 53.8292 128.809 53.9598 128.809 54.0905C128.809 54.2211 128.679 54.3518 128.548 54.3518Z" fill="#261D3F"/>
<path d="M131.488 54.3518H130.247C130.116 54.3518 129.985 54.2211 129.985 54.0905C129.985 53.9598 130.116 53.8292 130.247 53.8292H131.488C131.618 53.8292 131.749 53.9598 131.749 54.0905C131.749 54.2211 131.618 54.3518 131.488 54.3518Z" fill="#261D3F"/>
<path d="M51.9196 6.79394C51.789 6.79394 51.593 6.79394 51.4623 6.72861C51.1357 6.59796 50.8744 6.33665 50.7437 6.01002C50.4171 5.29143 50.7437 4.50751 51.4623 4.18088C51.789 4.05022 52.1809 4.05022 52.5075 4.18088C52.7689 4.31153 53.0302 4.57284 53.1608 4.89947C53.4874 5.61806 53.1608 6.40198 52.4422 6.72861C52.3116 6.79394 52.1156 6.79394 51.9196 6.79394ZM51.9196 4.57284C51.789 4.57284 51.6583 4.57284 51.593 4.63816C51.1357 4.83414 50.9397 5.35675 51.1357 5.81404C51.201 6.01002 51.397 6.206 51.593 6.27133C51.789 6.33665 52.0503 6.33665 52.2462 6.27133C52.7035 6.07535 52.8995 5.55273 52.7035 5.09545C52.6382 4.89947 52.4422 4.70349 52.2462 4.63816C52.1156 4.57284 52.0503 4.57284 51.9196 4.57284Z" fill="#261D3F"/>
<path d="M61.0653 109.096C62.5678 105.045 62.6985 98.3819 61.0653 94.201L62.2412 92.7639L107.121 93.8744L106.01 109.357L62.1759 109.553L61.0653 109.096Z" fill="white"/>
<path d="M62.1759 109.814C62.1105 109.814 62.1105 109.814 62.0452 109.814L60.9347 109.292C60.804 109.226 60.7387 109.096 60.804 108.965C62.3718 104.784 62.3718 98.186 60.804 94.2664C60.804 94.2011 60.804 94.0704 60.8693 94.0051L62.0452 92.5679C62.1105 92.5026 62.1759 92.5026 62.2412 92.5026L107.121 93.6131C107.186 93.6131 107.251 93.6131 107.317 93.6784C107.382 93.7438 107.382 93.8091 107.382 93.8744L106.271 109.357C106.271 109.487 106.141 109.553 106.01 109.553L62.1759 109.814ZM61.3919 108.965L62.2412 109.357L105.814 109.161L106.925 94.1357L62.4372 93.0252L61.3919 94.2664C62.8945 98.2513 62.8945 104.719 61.3919 108.965Z" fill="#261D3F"/>
<path d="M127.242 91.9799H84.6486H60.4778C59.7592 91.9799 59.2366 92.1759 59.2366 93.0905C59.2366 94.005 59.8245 94.201 60.4778 94.201H101.764C103.789 94.201 105.423 95.7689 105.423 98.4473V104.849C105.423 107.528 103.789 108.965 101.764 108.965H60.4778C59.7592 108.965 59.2366 109.03 59.2366 109.945C59.2366 110.859 59.8245 111.055 60.4778 111.055H127.242C130.965 111.055 133.97 107.07 133.97 102.171V100.93C133.97 95.9648 130.965 91.9799 127.242 91.9799Z" fill="#3E80FA"/>
<path d="M127.241 111.251H60.4774C60.0854 111.251 58.9749 111.251 58.9749 109.879C58.9749 108.704 59.8894 108.704 60.4774 108.704H101.764C103.854 108.704 105.161 107.201 105.161 104.849V98.4472C105.161 96.0955 103.724 94.4623 101.764 94.4623H87.9146C87.7839 94.4623 87.6532 94.3317 87.6532 94.201C87.6532 94.0704 87.7839 93.9397 87.9146 93.9397H101.764C104.05 93.9397 105.683 95.7689 105.683 98.4472V104.849C105.683 107.462 104.116 109.226 101.764 109.226H60.4774C59.7588 109.226 59.4321 109.291 59.4321 109.945C59.4321 110.598 59.6934 110.794 60.4774 110.794H127.241C130.834 110.794 133.774 106.94 133.774 102.171V100.93C133.774 96.1608 130.834 92.3066 127.241 92.3066H88.3065C88.1759 92.3066 88.0452 92.1759 88.0452 92.0452C88.0452 91.9146 88.1759 91.7839 88.3065 91.7839H127.241C131.095 91.7839 134.231 95.8995 134.231 100.93V102.171C134.166 107.201 131.03 111.251 127.241 111.251Z" fill="#261D3F"/>
<path d="M87.9146 94.4624H60.4774C60.0854 94.4624 58.9749 94.4624 58.9749 93.0905C58.9749 91.7186 60.0854 91.7186 60.4774 91.7186H88.2412C88.3718 91.7186 88.5025 91.8493 88.5025 91.9799C88.5025 92.1106 88.3718 92.2412 88.2412 92.2412H60.4774C59.6934 92.2412 59.4321 92.4372 59.4321 93.0905C59.4321 93.7438 59.6934 93.9397 60.4774 93.9397H87.9146C88.0452 93.9397 88.1759 94.0704 88.1759 94.201C88.1759 94.3317 88.0452 94.4624 87.9146 94.4624Z" fill="#261D3F"/>
<path d="M90.9852 99.1659H86.6737C86.543 99.1659 86.4124 99.0352 86.4124 98.9046C86.4124 98.7739 86.543 98.6432 86.6737 98.6432H90.9852C91.1159 98.6432 91.2465 98.7739 91.2465 98.9046C91.2465 99.0352 91.1159 99.1659 90.9852 99.1659Z" fill="#F0F0F0"/>
<path d="M82.7538 99.1659H64.201C64.0704 99.1659 63.9397 99.0352 63.9397 98.9046C63.9397 98.7739 64.0704 98.6432 64.201 98.6432H82.7538C82.8844 98.6432 83.0151 98.7739 83.0151 98.9046C83.0151 99.0352 82.8844 99.1659 82.7538 99.1659Z" fill="#F0F0F0"/>
<path d="M85.1709 101.191H64.3317C64.201 101.191 64.0704 101.06 64.0704 100.93C64.0704 100.799 64.201 100.668 64.3317 100.668H85.1709C85.3015 100.668 85.4322 100.799 85.4322 100.93C85.4322 101.06 85.3015 101.191 85.1709 101.191Z" fill="#F0F0F0"/>
<path d="M90.9849 104.784H88.3065C88.1759 104.784 88.0452 104.653 88.0452 104.523C88.0452 104.392 88.1759 104.261 88.3065 104.261H90.9849C91.1156 104.261 91.2462 104.392 91.2462 104.523C91.2462 104.653 91.1156 104.784 90.9849 104.784Z" fill="#F0F0F0"/>
<path d="M85.0402 104.784H64.201C64.0704 104.784 63.9397 104.653 63.9397 104.523C63.9397 104.392 64.0704 104.261 64.201 104.261H85.0402C85.1709 104.261 85.3015 104.392 85.3015 104.523C85.3015 104.653 85.1709 104.784 85.0402 104.784Z" fill="#F0F0F0"/>
<path d="M63.1561 123.141H122.211V112.297H63.1561C64.724 115.889 64.7893 119.548 63.1561 123.141Z" fill="white"/>
<path d="M122.211 123.337H63.1561C63.0908 123.337 63.0255 123.271 62.9601 123.206C62.8948 123.141 62.8948 123.075 62.9601 122.945C64.528 119.482 64.528 115.889 62.9601 112.296C62.9601 112.231 62.9601 112.166 62.9601 112.101C63.0255 112.035 63.0908 111.97 63.1561 111.97H122.211C122.342 111.97 122.473 112.101 122.473 112.231V123.075C122.473 123.271 122.342 123.337 122.211 123.337ZM63.5481 122.879H122.015V112.492H63.5481C64.9199 116.02 64.9199 119.482 63.5481 122.879Z" fill="#261D3F"/>
<path d="M115.875 112.754H62.8294C62.2415 112.754 61.7842 112.362 61.7842 111.905C61.7842 111.447 62.2415 111.055 62.8294 111.055H129.789C132.272 111.055 134.231 112.754 134.231 114.844V120.724C134.231 122.814 132.206 124.513 129.789 124.513H62.8294C62.2415 124.513 61.7842 124.121 61.7842 123.663C61.7842 123.206 62.2415 122.814 62.8294 122.814H115.94C117.704 122.814 119.076 121.638 119.076 120.136V115.432C119.076 113.995 117.638 112.754 115.875 112.754Z" fill="#F0F0F0"/>
<path d="M129.789 124.774H62.8291C62.1105 124.774 61.5879 124.251 61.5879 123.663C61.5879 123.075 62.1758 122.553 62.8291 122.553H115.94C117.573 122.553 118.814 121.442 118.814 120.136V115.432C118.814 114.126 117.507 113.015 115.94 113.015H62.8291C62.1105 113.015 61.5879 112.492 61.5879 111.905C61.5879 111.317 62.1758 110.794 62.8291 110.794H129.789C132.402 110.794 134.492 112.558 134.492 114.779V120.658C134.492 122.945 132.337 124.774 129.789 124.774ZM62.8291 123.01C62.3718 123.01 62.0452 123.271 62.0452 123.598C62.0452 123.925 62.3718 124.186 62.8291 124.186H129.789C132.141 124.186 134.035 122.618 134.035 120.658V114.779C134.035 112.819 132.141 111.251 129.789 111.251H62.8291C62.3718 111.251 62.0452 111.513 62.0452 111.839C62.0452 112.166 62.3718 112.427 62.8291 112.427H115.94C117.834 112.427 119.337 113.734 119.337 115.302V120.005C119.337 121.573 117.834 122.879 115.94 122.879H62.8291V123.01Z" fill="#261D3F"/>
<path d="M79.3564 115.04H66.6177C66.4871 115.04 66.3564 114.91 66.3564 114.779C66.3564 114.648 66.4871 114.518 66.6177 114.518H79.3564C79.4871 114.518 79.6177 114.648 79.6177 114.779C79.6177 114.91 79.4871 115.04 79.3564 115.04Z" fill="#F0F0F0"/>
<path d="M112.216 115.04H98.1052C97.9745 115.04 97.8439 114.91 97.8439 114.779C97.8439 114.648 97.9745 114.518 98.1052 114.518H112.216C112.346 114.518 112.477 114.648 112.477 114.779C112.477 114.91 112.346 115.04 112.216 115.04Z" fill="#F0F0F0"/>
<path d="M80.4673 117.392H66.814C66.6834 117.392 66.5527 117.261 66.5527 117.131C66.5527 117 66.6834 116.869 66.814 116.869H80.4673C80.598 116.869 80.7286 117 80.7286 117.131C80.7286 117.261 80.598 117.392 80.4673 117.392Z" fill="#F0F0F0"/>
<path d="M114.306 117.392H96.7987C96.668 117.392 96.5374 117.261 96.5374 117.131C96.5374 117 96.668 116.869 96.7987 116.869H114.306C114.437 116.869 114.568 117 114.568 117.131C114.568 117.261 114.437 117.392 114.306 117.392Z" fill="#F0F0F0"/>
<path d="M92.3569 120.528H66.8795C66.7488 120.528 66.6182 120.397 66.6182 120.266C66.6182 120.136 66.7488 120.005 66.8795 120.005H92.3569C92.4875 120.005 92.6182 120.136 92.6182 120.266C92.6182 120.397 92.4875 120.528 92.3569 120.528Z" fill="#F0F0F0"/>
<path d="M114.24 120.528H97.9088C97.7781 120.528 97.6475 120.397 97.6475 120.266C97.6475 120.136 97.7781 120.005 97.9088 120.005H114.24C114.371 120.005 114.502 120.136 114.502 120.266C114.502 120.397 114.371 120.528 114.24 120.528Z" fill="#F0F0F0"/>
<path d="M78.4418 91.6533C78.4418 91.6533 81.5775 92.8292 82.7534 91.8493C83.9946 90.8694 80.8589 89.2362 80.1403 89.3669C79.3564 89.4322 78.4418 91.6533 78.4418 91.6533Z" fill="#261D3F"/>
<path d="M62.7642 116.608L65.7039 121.704L67.2717 119.482L64.724 114.518L62.7642 116.608Z" fill="white"/>
<path d="M65.7035 121.965C65.6382 121.965 65.5075 121.9 65.5075 121.834L62.5678 116.673C62.5025 116.608 62.5025 116.477 62.6331 116.412L64.5929 114.322C64.6583 114.256 64.7236 114.256 64.7889 114.256C64.8542 114.256 64.9196 114.322 64.9849 114.387L67.5326 119.417C67.598 119.482 67.598 119.613 67.5326 119.678L65.9648 121.9C65.8341 121.9 65.7688 121.965 65.7035 121.965ZM63.0251 116.608L65.7035 121.246L67.01 119.482L64.6583 114.91L63.0251 116.608Z" fill="#261D3F"/>
<path d="M64.6583 120.92C65.4422 122.487 67.402 126.407 69.2965 128.236C69.7537 128.693 70.5377 128.498 70.6683 127.844C71.2563 125.623 71.6482 120.985 69.4271 117.261C69.4271 117.261 68.3819 117.131 66.4221 117.523L66.8794 119.352L66.6181 119.156C66.2261 118.894 65.7688 118.894 65.4422 119.221L64.8542 119.678C64.5929 120.07 64.4623 120.528 64.6583 120.92Z" fill="#261D3F"/>
<path d="M69.6235 127.844H69.5581C69.4275 127.779 69.3621 127.648 69.4275 127.518C71.0606 123.141 68.8395 117.98 68.8395 117.915C68.7742 117.784 68.8395 117.653 68.9702 117.588C69.1008 117.523 69.2315 117.588 69.2968 117.719C69.3621 117.915 71.6486 123.141 69.8848 127.714C69.7541 127.779 69.6888 127.844 69.6235 127.844Z" fill="white"/>
<path d="M65.8342 123.402C65.7688 123.402 65.7035 123.337 65.6382 123.271C65.5729 123.141 65.5729 123.01 65.7035 122.945L67.1407 121.965C67.2714 121.9 67.402 121.9 67.4673 122.03C67.5327 122.161 67.5327 122.291 67.402 122.357L65.9648 123.337C65.8995 123.402 65.8342 123.402 65.8342 123.402Z" fill="white"/>
<path d="M66.5527 124.709C66.4874 124.709 66.4221 124.709 66.3568 124.643C66.2914 124.513 66.2914 124.382 66.4221 124.317L67.7939 123.271C67.9246 123.206 68.0552 123.206 68.1206 123.337C68.1859 123.467 68.1859 123.598 68.0552 123.663L66.6834 124.709C66.6181 124.709 66.6181 124.709 66.5527 124.709Z" fill="white"/>
<path d="M53.4874 116.673C53.4874 116.804 50.809 122.683 50.809 122.683L53.8794 122.945L55.9698 117.915L53.4874 116.673Z" fill="white"/>
<path d="M53.8138 123.206L50.7435 122.945C50.6781 122.945 50.6128 122.879 50.5475 122.814C50.4821 122.749 50.4821 122.683 50.5475 122.618C51.5927 120.397 53.0952 117 53.2259 116.673C53.2259 116.608 53.2912 116.543 53.3565 116.543C53.4218 116.477 53.4872 116.477 53.6178 116.543L56.0349 117.784C56.1656 117.849 56.2309 117.98 56.1656 118.111L54.0751 123.141C54.0098 123.141 53.9445 123.206 53.8138 123.206ZM51.1354 122.487L53.6831 122.683L55.5776 118.045L53.5525 117.065C53.3565 117.523 52.7686 118.894 51.1354 122.487Z" fill="#261D3F"/>
<path d="M53.5528 121.442C53.5528 121.442 52.9648 120.005 51.3317 120.724C51.3317 120.724 48.392 124.97 47.3467 128.432C47.0201 129.412 48.0653 130.327 48.9799 129.869C51.201 128.889 54.598 126.799 56.6231 122.945C56.6231 122.945 56.0352 121.377 55.0553 120.593L53.5528 121.442Z" fill="#261D3F"/>
<path d="M48.2613 129.085C48.1306 129.085 48.0653 129.085 48.0653 129.085C47.9347 129.085 47.8693 128.955 47.8693 128.824C47.8693 128.694 48 128.628 48.1306 128.628C48.196 128.628 51.397 128.955 55.7085 123.01C55.7738 122.879 55.9698 122.879 56.0352 122.945C56.1658 123.01 56.1658 123.206 56.1005 123.271C52.1809 128.628 49.1105 129.085 48.2613 129.085Z" fill="white"/>
<path d="M50.7437 125.754C50.6784 125.754 50.6784 125.754 50.613 125.688L49.1759 124.839C49.0452 124.774 49.0452 124.643 49.1105 124.513C49.1759 124.382 49.3065 124.382 49.4372 124.447L50.8744 125.297C51.005 125.362 51.005 125.492 50.9397 125.623C50.9397 125.688 50.8744 125.754 50.7437 125.754Z" fill="white"/>
<path d="M51.5276 124.643C51.4623 124.643 51.4623 124.643 51.397 124.643L49.8291 123.794C49.6985 123.729 49.6985 123.598 49.6985 123.467C49.7638 123.337 49.8945 123.337 50.0251 123.337L51.593 124.186C51.7236 124.251 51.7236 124.382 51.7236 124.513C51.6583 124.578 51.593 124.643 51.5276 124.643Z" fill="white"/>
<path d="M69.1005 87.1458C69.1005 87.1458 61.1306 88.5829 55.3819 94.593C53.9447 96.0955 53.4221 98.3166 54.01 100.276C55.3166 104.392 58.0603 111.905 62.6985 117.588L66.2261 114.518C66.2261 114.518 65.3769 107.397 63.0251 103.02C60.6734 98.6432 74.2613 89.1056 74.2613 89.1056L69.1005 87.1458Z" fill="white"/>
<path d="M62.7638 117.784C62.6985 117.784 62.6332 117.719 62.5679 117.719C57.8643 112.035 55.0553 104.392 53.8141 100.342C53.1608 98.2513 53.6834 95.9649 55.1859 94.397C60.9347 88.387 68.9699 86.8845 69.0352 86.8845C69.1005 86.8845 69.1005 86.8845 69.1658 86.8845L74.392 88.8443C74.4573 88.8443 74.5226 88.9749 74.5226 89.0402C74.5226 89.1056 74.5226 89.2362 74.392 89.2362C74.2613 89.3015 61 98.7086 63.2211 102.889C65.5076 107.266 66.4221 114.387 66.4221 114.452C66.4221 114.518 66.4221 114.583 66.3568 114.648L62.8292 117.719C62.8292 117.784 62.8292 117.784 62.7638 117.784ZM69.1005 87.3417C68.3166 87.4724 60.9347 89.1056 55.5779 94.7237C54.206 96.1608 53.6834 98.2513 54.2714 100.211C55.5126 104.196 58.191 111.578 62.7638 117.196L66.0302 114.387C65.8995 113.407 64.9849 107.07 62.8945 103.085C60.6734 98.9046 71.6483 90.7387 73.8694 89.1056L69.1005 87.3417Z" fill="#261D3F"/>
<path d="M52.5071 117.784L56.688 119.025C56.688 119.025 64.2659 103.02 66.487 100.668C68.7081 98.3166 72.9543 94.5277 77.4619 93.2211C81.9694 91.8493 81.9694 88.4523 81.9694 88.4523L74.2609 86.2312C74.2609 86.2312 63.482 90.8694 59.9543 96.1608C56.3614 101.452 52.5071 117.784 52.5071 117.784Z" fill="white"/>
<path d="M56.6231 119.286H56.5578L52.3769 118.045C52.2462 117.98 52.1809 117.915 52.1809 117.784C52.3116 117.131 56.1658 101.322 59.6935 96.0955C63.2211 90.8694 73.6734 86.2965 74.1307 86.1005C74.196 86.1005 74.2613 86.1005 74.2613 86.1005L81.9699 88.3216C82.1005 88.3216 82.1658 88.4523 82.1658 88.5829C82.1658 88.6483 82.1005 92.1759 77.4623 93.6131C72.4322 95.1156 67.8593 99.6231 66.5528 100.995C64.397 103.281 56.8844 119.09 56.8191 119.286C56.8191 119.221 56.7538 119.286 56.6231 119.286ZM52.7688 117.653L56.4925 118.764C57.407 116.869 64.1357 102.759 66.2261 100.538C67.5327 99.1658 72.1709 94.5277 77.3317 93.0251C81.0553 91.9146 81.5779 89.3669 81.6432 88.6483L74.196 86.4925C73.2161 86.9498 63.3518 91.392 60.0854 96.2915C56.8844 101.126 53.2261 115.628 52.7688 117.653Z" fill="#261D3F"/>
<path d="M88.1759 75.8442C86.0854 71.6633 82.6884 71.0754 82.6884 71.0754L76.809 70.6181C74.9799 70.4874 73.0201 71.598 72.3015 73.2965L66.8794 85.9045C66.8794 85.9045 67.99 88.8442 72.8894 89.3015C77.7889 89.7588 81.1206 89.4975 82.7538 91.4573C83.799 92.7638 83.799 84.1407 83.1457 77.3467L88.1759 75.8442Z" fill="#3E80FA"/>
<path d="M72.4975 86.8844L75.1759 85.6432L77.2663 86.4925C77.2663 86.4925 88.4372 85.0553 83.407 77.0855C83.407 77.0201 87.3266 76.2362 87.3266 76.2362C87.3266 76.2362 91.8995 87.0804 77.4623 87.3417C77.4623 87.3417 76.7437 87.603 75.7638 87.0804C74.8493 86.6231 73.1508 87.603 72.4975 86.8844Z" fill="white"/>
<path d="M77.0703 87.6683C76.7437 87.6683 76.2864 87.603 75.7638 87.3417C75.3718 87.1457 74.7839 87.2111 74.2613 87.3417C73.5427 87.4724 72.8241 87.5377 72.4321 87.0804C72.3668 87.0151 72.3668 86.9498 72.3668 86.8844C72.3668 86.8191 72.4321 86.7538 72.4975 86.6884L75.1759 85.4472C75.2412 85.4472 75.3065 85.4472 75.3718 85.4472L77.397 86.2965C77.9849 86.2312 82.8191 85.3819 84.1909 82.5075C84.8442 81.0704 84.5829 79.3065 83.2764 77.2814C83.211 77.2161 83.211 77.1508 83.2764 77.0854C83.3417 76.9548 83.3417 76.9548 87.3919 76.1055C87.5226 76.1055 87.5879 76.1709 87.6532 76.2362C87.7186 76.4322 89.4171 80.5477 87.2613 83.8794C85.6935 86.2965 82.4271 87.603 77.593 87.6683C77.5276 87.603 77.3316 87.6683 77.0703 87.6683ZM75.1105 86.7538C75.4372 86.7538 75.6985 86.8191 75.9598 86.9498C76.809 87.407 77.4623 87.2111 77.4623 87.2111H77.5276C82.1658 87.1457 85.3015 85.9045 86.804 83.6181C88.5678 80.9397 87.5226 77.4774 87.196 76.6281C86.0201 76.8895 84.4522 77.2161 83.799 77.3467C85.0402 79.4372 85.3015 81.2663 84.5176 82.7688C82.9497 86.0352 77.5276 86.7538 77.2663 86.8191C77.201 86.8191 77.201 86.8191 77.1357 86.8191L75.1759 86.0352L73.0201 87.0151C73.2814 87.0804 73.6734 87.0151 74.0653 86.9498C74.4573 86.7538 74.7839 86.7538 75.1105 86.7538Z" fill="#261D3F"/>
<path d="M82.9497 77.8694L88.4372 76.3015L88.2412 75.8442C88.2412 75.8442 87.5879 75.3869 87.5226 75.3869C87.3919 75.3869 84.3216 75.2563 84.3216 75.2563L82.4271 75.8442L82.9497 77.8694Z" fill="#3E80FA"/>
<path d="M62.2416 87.6684H72.8245L64.9853 75.5829C64.724 75.191 64.332 74.995 63.8747 74.995H55.2516C54.729 74.995 54.4024 75.5829 54.6637 76.0402L62.2416 87.6684Z" fill="#261D3F"/>
<path d="M60.0861 79.2412C60.4128 79.7638 61.1967 80.2211 61.7193 80.2211C62.2419 80.2211 62.5032 79.7638 62.1113 79.2412C61.7846 78.7186 61.0007 78.2613 60.4781 78.2613C59.9555 78.2613 59.7595 78.7186 60.0861 79.2412Z" fill="white"/>
<path d="M61.7843 80.4171C61.131 80.4171 60.3471 79.9598 59.9552 79.3719C59.7592 79.0452 59.6939 78.6533 59.8245 78.392C59.9552 78.1307 60.2165 78 60.5431 78C61.1964 78 61.9803 78.4573 62.3722 79.0452C62.5682 79.3719 62.6335 79.7638 62.5029 80.0251C62.3722 80.2864 62.1109 80.4171 61.7843 80.4171ZM60.5431 78.5226C60.4124 78.5226 60.2818 78.5879 60.2165 78.6533C60.1511 78.7839 60.2165 78.9146 60.3471 79.1106C60.6737 79.5678 61.327 79.9598 61.7843 79.9598C61.915 79.9598 62.0456 79.8945 62.1109 79.8291C62.1763 79.6985 62.1109 79.5678 61.9803 79.3719C61.6536 78.9146 61.0004 78.5226 60.5431 78.5226Z" fill="#261D3F"/>
<path d="M63.1562 88.5829H79.0305C79.5532 88.5829 80.0104 88.1256 80.0104 87.603H62.1763C62.1763 88.1256 62.6336 88.5829 63.1562 88.5829Z" fill="#261D3F"/>
<path d="M83.7993 42.5277C88.3068 41.0905 96.7993 48.2111 95.6887 53.5025C95.3621 54.9397 94.2515 56.6382 92.6184 57.4221C89.8093 58.8593 86.739 57.0302 86.0204 58.1407C85.3671 59.1206 87.6535 60.5578 87.3922 62.6483C87.0003 65.7186 81.4475 67.2211 80.7943 67.4171C80.337 67.5478 73.6736 69.2463 70.538 65.7186C69.754 64.8694 68.7742 63.2362 69.2968 62.191C69.8194 61.2111 71.3872 61.4071 71.7138 60.3618C72.0405 59.4473 70.9953 58.9246 71.1259 57.9447C71.3219 55.9849 75.4375 55.8543 75.8948 53.7638C76.2867 52.1307 73.8696 51.1508 74.3269 49.5176C74.6535 48.2111 76.352 48.1458 79.0958 46.4473C82.2968 44.3568 82.1008 43.0503 83.7993 42.5277Z" fill="#261D3F"/>
<path d="M78.7692 70.2262C78.6385 70.1608 77.2013 68.4623 76.3521 67.4171C76.4174 67.1558 76.4174 67.0252 76.3521 66.6332C76.3521 66.6332 76.8094 66.1759 76.6134 65.588C76.4174 64.9347 75.7641 65.4573 75.7641 65.4573C75.7641 65.4573 75.4375 64.9347 74.327 65.8493C73.2164 66.7638 72.0405 65.6533 72.0405 65.6533C72.0405 65.6533 72.0405 66.3066 72.6285 67.1558C72.9551 67.6131 73.0204 68.201 73.0204 68.7236L73.6737 68.6583C74.0003 69.0503 74.2616 69.2463 74.7189 69.4422C74.7189 69.4422 75.1109 69.3769 75.5028 69.0503L76.1561 70.6181L75.4375 71.0101C75.4375 71.0101 75.3069 71.99 77.136 72.2513C78.9652 72.5126 80.4677 71.0101 80.4677 71.0101C80.4677 71.0101 79.4878 70.6181 78.7692 70.2262Z" fill="white"/>
<path d="M77.5933 72.4473C77.4626 72.4473 77.2666 72.4473 77.136 72.4473C76.3521 72.3166 75.7641 72.0553 75.4375 71.6634C75.1762 71.3367 75.2415 70.9448 75.2415 70.9448C75.2415 70.8794 75.3068 70.8141 75.3722 70.7488L75.8948 70.4875L75.4375 69.3769C75.1109 69.5729 74.8495 69.6382 74.8495 69.6382C74.7842 69.6382 74.7842 69.6382 74.7189 69.6382C74.2616 69.4423 74.0003 69.2463 73.6737 68.8543L73.1511 68.9196C73.0857 68.9196 73.0204 68.9196 72.9551 68.8543C72.8897 68.789 72.8898 68.7237 72.8898 68.6583C72.8898 68.1357 72.8244 67.6131 72.5631 67.2211C71.9099 66.3719 71.9099 65.6533 71.9099 65.588C71.9099 65.5227 71.9752 65.392 72.0405 65.392C72.1058 65.3267 72.2365 65.392 72.3018 65.4573C72.3671 65.5227 73.347 66.3719 74.2616 65.6533C74.7842 65.196 75.3068 65 75.6335 65.0654C75.6988 65.0654 75.7641 65.1307 75.8294 65.1307C75.9601 65.0654 76.2214 64.9347 76.4827 65C76.6134 65.0654 76.8093 65.1307 76.94 65.4573C77.136 65.9799 76.8093 66.4372 76.6787 66.6332C76.6787 66.9598 76.6787 67.0905 76.6787 67.2865C78.5078 69.5076 78.8998 69.8995 78.9651 69.9649C79.6837 70.2915 80.5983 70.6835 80.6636 70.6835C80.7289 70.6835 80.7943 70.7488 80.7943 70.8794C80.7943 70.9448 80.7943 71.0754 80.7289 71.0754C80.5983 71.2061 79.2918 72.4473 77.5933 72.4473ZM75.7641 71.1407C75.8294 71.3367 76.0254 71.794 77.2013 71.99C78.4425 72.186 79.4877 71.4674 80.0104 71.0754C79.6837 70.9448 79.0958 70.6835 78.6385 70.4875C78.5732 70.4222 78.4425 70.4222 76.0908 67.6131C76.0254 67.5478 76.0254 67.4825 76.0254 67.4171C76.0908 67.1558 76.0908 67.0905 76.0254 66.7639V66.6985C76.0254 66.6332 76.0254 66.5679 76.0908 66.5026C76.0908 66.5026 76.4174 66.1759 76.2867 65.7186C76.2867 65.6533 76.2214 65.588 76.1561 65.5227C76.0908 65.5227 75.8948 65.588 75.8294 65.6533C75.7641 65.7186 75.6988 65.7186 75.6335 65.7186C75.5681 65.7186 75.5028 65.6533 75.5028 65.588C75.4375 65.5227 75.1762 65.4573 74.4576 66.0453C73.739 66.6332 72.9551 66.5026 72.3671 66.1759C72.4325 66.3719 72.5631 66.6985 72.8244 66.9598C73.1511 67.3518 73.2164 67.8744 73.2817 68.397L73.6737 68.3317C73.739 68.3317 73.8697 68.3317 73.8697 68.397C74.1963 68.789 74.3923 68.9196 74.7842 69.1156C74.9149 69.0503 75.1109 68.985 75.3722 68.789C75.4375 68.7237 75.5028 68.7237 75.5681 68.7237C75.6335 68.7237 75.6988 68.789 75.7641 68.8543L76.4174 70.4222C76.4827 70.5528 76.4174 70.6835 76.2867 70.7488L75.7641 71.1407Z" fill="#261D3F"/>
<path d="M75.5032 69.0502L75.6992 68.8542L75.5032 69.0502Z" fill="white"/>
<path d="M75.5032 69.3116C75.4379 69.3116 75.3726 69.3116 75.3072 69.2462C75.2419 69.1156 75.2419 68.9849 75.3072 68.9196L75.5032 68.7236C75.6339 68.6583 75.7645 68.6583 75.8298 68.7236C75.8952 68.8543 75.8952 68.9849 75.8298 69.0502L75.6339 69.2462C75.6339 69.2462 75.5685 69.3116 75.5032 69.3116Z" fill="#261D3F"/>
<path d="M68.5697 34.8531C69.5465 28.8344 65.4592 23.1635 59.4406 22.1867C53.4219 21.2099 47.7509 25.2972 46.7741 31.3158C45.7973 37.3345 49.8846 43.0055 55.9033 43.9823C61.922 44.9591 67.5929 40.8718 68.5697 34.8531Z" fill="white"/>
<path d="M57.6683 44.4221C51.4623 44.4221 46.3668 39.3266 46.3668 33.1206C46.3668 26.9146 51.4623 21.8191 57.6683 21.8191C63.8744 21.8191 68.9698 26.9146 68.9698 33.1206C68.9698 39.3266 63.8744 44.4221 57.6683 44.4221ZM57.6683 22.2764C51.7236 22.2764 46.8241 27.1105 46.8241 33.1206C46.8241 39.0653 51.6583 43.9648 57.6683 43.9648C63.6131 43.9648 68.5126 39.1306 68.5126 33.1206C68.4472 27.1105 63.6131 22.2764 57.6683 22.2764Z" fill="#261D3F"/>
<path d="M55.0553 38.4773H52.5729V28.0251H55.0553V38.4773Z" fill="#3E80FA"/>
<path d="M64.854 29.9196H61.7183V38.412H59.1706V29.9196H56.1002V27.9598H64.854V29.9196Z" fill="#3E80FA"/>
<path d="M16.3172 111.905L16.7092 115.563L19.1916 115.824V111.513L16.3172 111.905Z" fill="white"/>
<path d="M19.1913 116.085L16.7089 115.824C16.5782 115.824 16.5129 115.693 16.5129 115.628L16.1209 111.97C16.1209 111.839 16.1862 111.709 16.3169 111.709L19.1913 111.317C19.2566 111.317 19.3219 111.317 19.3872 111.382C19.4526 111.447 19.4526 111.513 19.4526 111.578V115.889C19.4526 115.955 19.4526 116.02 19.3872 116.085C19.3219 116.085 19.2566 116.085 19.1913 116.085ZM16.9048 115.302L18.93 115.563V111.774L16.5782 112.101L16.9048 115.302Z" fill="#261D3F"/>
<path d="M19.5832 122.161C18.538 122.291 16.8395 122.422 14.8797 122.161C14.2265 122.095 13.7692 121.442 13.9651 120.789C14.4224 119.025 15.141 115.628 16.4476 114.126L16.7742 114.975L17.2315 114.191C17.2968 114.06 17.4275 113.995 17.4928 113.995L18.4727 113.864C18.6687 113.864 18.8646 113.995 18.93 114.191L19.0606 114.91L19.3873 113.93L20.4978 120.92C20.5631 121.573 20.1712 122.095 19.5832 122.161Z" fill="#3E80FA"/>
<path d="M17.2315 122.618C16.5129 122.618 15.7289 122.553 14.8144 122.422C14.4224 122.357 14.0958 122.161 13.8998 121.834C13.7038 121.508 13.6385 121.116 13.7038 120.789L13.7691 120.397C14.2264 118.568 14.945 115.497 16.1862 113.995C16.2516 113.93 16.3169 113.864 16.3822 113.93C16.4475 113.93 16.5129 113.995 16.5782 114.06L16.7088 114.387L16.9048 114.06C16.9701 113.864 17.1661 113.734 17.3621 113.734L18.342 113.603C18.6033 113.538 18.9299 113.734 18.9953 113.995L19.0606 113.864C19.1259 113.734 19.1913 113.668 19.3219 113.734C19.4526 113.734 19.5179 113.799 19.5179 113.93L20.6284 120.92C20.6938 121.638 20.2365 122.357 19.5179 122.422C18.9953 122.487 18.2114 122.618 17.2315 122.618ZM16.3822 114.648C15.337 116.151 14.6837 118.829 14.2918 120.528L14.2264 120.92C14.1611 121.181 14.2264 121.377 14.3571 121.638C14.4877 121.834 14.6837 121.965 14.945 122.03C16.9048 122.291 18.538 122.161 19.5832 122.03C20.0405 121.965 20.3671 121.508 20.3018 121.05L19.3219 114.975V115.04C19.2566 115.171 19.1913 115.236 19.0606 115.171C18.9299 115.171 18.8646 115.106 18.8646 114.975L18.734 114.256C18.734 114.191 18.6686 114.126 18.538 114.126L17.5581 114.256C17.4928 114.256 17.4928 114.322 17.4274 114.322L16.9702 115.106C16.9048 115.171 16.8395 115.236 16.7742 115.236C16.7088 115.236 16.5782 115.171 16.5782 115.106L16.3822 114.648Z" fill="#261D3F"/>
<path d="M16.7089 121.442C16.0556 121.442 15.337 121.377 14.6184 121.246C14.4878 121.246 14.4224 121.116 14.4224 120.985C14.4224 120.854 14.5531 120.789 14.6837 120.789C17.1008 121.312 19.5832 120.658 19.5832 120.658C19.7139 120.593 19.8445 120.724 19.9099 120.854C19.9752 120.985 19.8445 121.116 19.7139 121.181C19.7139 121.05 18.4073 121.442 16.7089 121.442Z" fill="#261D3F"/>
<path d="M16.1213 118.699C15.9906 118.699 15.86 118.568 15.86 118.437C15.86 118.307 15.9906 118.176 16.1213 118.176L18.4077 118.111C18.5384 118.111 18.669 118.241 18.669 118.372C18.669 118.503 18.5384 118.633 18.4077 118.633L16.1213 118.699Z" fill="#261D3F"/>
<path d="M27.8805 109.945L28.2725 115.301H31.2122L31.3428 109.945H27.8805Z" fill="white"/>
<path d="M31.2117 115.497H28.272C28.1414 115.497 28.0107 115.367 28.0107 115.302L27.6188 109.945C27.6188 109.879 27.6188 109.814 27.6841 109.749C27.7494 109.683 27.8148 109.683 27.8801 109.683H31.3424C31.4077 109.683 31.473 109.683 31.5384 109.749C31.6037 109.814 31.6037 109.879 31.6037 109.945L31.473 115.302C31.473 115.432 31.3424 115.497 31.2117 115.497ZM28.468 115.04H30.9504L31.0811 110.206H28.1414L28.468 115.04Z" fill="#261D3F"/>
<path d="M27.4882 118.307C27.4882 118.829 27.8148 119.221 28.3374 119.352C30.0359 119.744 33.8902 120.658 35.0007 120.789C36.4379 120.985 38.2017 120.593 38.9203 119.744C39.7042 118.894 37.2218 116.935 36.1113 116.216C34.4128 115.171 32.7143 113.015 32.061 112.95C31.3424 112.884 30.1012 114.844 30.1012 114.844L28.0108 113.93C27.8801 113.93 27.4882 115.759 27.4882 118.307Z" fill="#3E80FA"/>
<path d="M35.7189 121.116C35.4576 121.116 35.1963 121.116 34.935 121.05C33.8244 120.854 29.9048 120.005 28.2717 119.613C27.6837 119.482 27.2264 118.96 27.2264 118.307C27.2918 115.759 27.6184 113.93 27.6184 113.93C27.6184 113.864 27.6837 113.799 27.7491 113.734C27.8144 113.668 27.8797 113.668 27.945 113.734L29.8395 114.518C30.2315 113.864 31.2114 112.558 31.93 112.688C32.3219 112.754 32.8445 113.211 33.6938 114.06C34.4124 114.714 35.1963 115.497 36.0455 116.02C36.7641 116.477 38.9852 118.111 39.1159 119.221C39.1812 119.482 39.1159 119.744 38.9199 119.874C38.3973 120.593 37.0254 121.116 35.7189 121.116ZM27.7491 118.307C27.7491 118.698 28.0104 119.025 28.4023 119.156C30.0355 119.548 33.9551 120.462 35.0003 120.593C36.3722 120.789 38.0707 120.332 38.7239 119.613C38.7893 119.548 38.7893 119.482 38.7893 119.352C38.6586 118.568 37.0254 117.196 35.9149 116.477C35.0656 115.955 34.2164 115.106 33.4978 114.452C32.9099 113.864 32.2566 113.276 31.9953 113.211C31.6687 113.146 30.8194 114.126 30.2315 115.04C30.1661 115.171 30.0355 115.171 29.9048 115.106L28.0757 114.322C27.945 114.844 27.7491 116.347 27.7491 118.307Z" fill="#261D3F"/>
<path d="M35.6538 120.136C32.5182 120.136 28.4026 118.437 28.1413 118.372C28.0106 118.307 27.9453 118.176 28.0106 118.045C28.0759 117.915 28.2066 117.849 28.3372 117.915C28.4026 117.915 35.8498 120.985 38.0709 119.025C38.2016 118.96 38.3322 118.96 38.3975 119.025C38.4629 119.156 38.4629 119.286 38.3975 119.352C37.7443 119.874 36.7644 120.136 35.6538 120.136Z" fill="#261D3F"/>
<path d="M32.3872 116.869C32.3219 116.869 32.2566 116.869 32.1913 116.804C32.1259 116.673 32.1259 116.543 32.1913 116.477L33.6938 115.106C33.8244 115.04 33.9551 115.04 34.0204 115.106C34.0857 115.236 34.0857 115.367 34.0204 115.432L32.5179 116.804C32.5179 116.869 32.4526 116.869 32.3872 116.869Z" fill="#261D3F"/>
<path d="M15.4677 75.2563C15.4677 75.2563 14.5531 91.9146 14.0958 97.6633C13.6385 103.412 15.2064 112.623 15.2064 112.623L19.7792 112.362C19.7792 112.362 20.1059 101.126 20.4325 97.99C20.4325 97.99 22.3923 93.7437 22.9149 90.0201C23.5028 86.2312 25.4626 80.2864 25.4626 80.2864C25.4626 80.2864 27.0305 110.01 27.2265 112.362C27.2265 112.362 30.8194 112.492 32.126 111.709C32.126 111.709 34.4124 100.864 34.0858 94.9849C33.7591 89.1055 34.0858 74.407 34.0858 74.407L15.4677 75.2563Z" fill="#261D3F"/>
<path d="M19.5832 98.2512H18.2114C18.0807 98.2512 17.9501 98.1206 17.9501 97.9899C17.9501 97.8593 18.0807 97.7286 18.2114 97.7286H19.5832C19.7139 97.7286 19.8445 97.8593 19.8445 97.9899C19.8445 98.1206 19.7139 98.2512 19.5832 98.2512Z" fill="white"/>
<path d="M29.5782 106.94C29.4475 106.94 29.3169 106.809 29.3169 106.678C29.3822 103.935 32.3872 98.9699 32.5179 98.7739C32.5832 98.6432 32.7139 98.6432 32.8445 98.7086C32.9752 98.7739 32.9752 98.9045 32.9099 99.0352C32.9099 99.1005 29.8395 104.065 29.7742 106.744C29.8395 106.809 29.7089 106.94 29.5782 106.94Z" fill="white"/>
<path d="M35.523 48.603C35.8496 48.603 37.4828 51.9347 42.6436 51.804C47.7391 51.6734 51.8547 45.9246 51.8547 45.9246C51.8547 45.9246 53.6185 42.9196 54.9903 41.8744C56.3622 40.7638 56.5582 40.6332 56.5582 40.6332C56.5582 40.6332 56.9501 41.2211 56.5582 41.8744C56.1662 42.5276 54.9903 43.7689 54.9903 43.7689C54.9903 43.7689 56.2969 44.4875 55.7089 45.9246C55.0557 47.6231 53.1612 47.4925 53.1612 47.4925C53.1612 47.4925 49.3723 64.3467 33.6285 56.3116L35.523 48.603Z" fill="white"/>
<path d="M41.402 58.7286C38.9849 58.7286 36.3718 58.01 33.4975 56.5729C33.3668 56.5075 33.3668 56.3769 33.3668 56.3115L35.2613 48.603C35.2613 48.4724 35.3919 48.407 35.4573 48.407C35.6533 48.407 35.7839 48.5377 36.0452 48.8643C36.8291 49.7136 38.593 51.7387 42.5779 51.608C47.412 51.4774 51.4623 46.0553 51.5929 45.8593C51.7236 45.6633 53.4221 42.7889 54.7286 41.7437C56.0352 40.6985 56.2965 40.5025 56.2965 40.5025C56.4271 40.4372 56.5578 40.4372 56.6231 40.5678C56.6231 40.5678 57.1457 41.2864 56.6231 42.0703C56.2965 42.593 55.5779 43.4422 55.1859 43.7688C55.6432 44.1608 56.1658 44.9447 55.7739 46.0553C55.1859 47.5578 53.7487 47.7538 53.2261 47.7538C52.8995 48.9296 51.005 55.3317 45.7789 57.7487C44.5377 58.402 43.0352 58.7286 41.402 58.7286ZM33.8894 56.1809C38.4623 58.4673 42.3819 58.8593 45.6482 57.2914C51.1357 54.6784 52.8342 47.4925 52.8342 47.4271C52.8342 47.2965 52.9648 47.2312 53.0955 47.2312C53.1608 47.2312 54.794 47.2965 55.3819 45.8593C55.9045 44.6181 54.8593 44.0301 54.794 43.9648C54.794 43.8995 54.7286 43.8342 54.7286 43.7688C54.7286 43.7035 54.7286 43.6382 54.794 43.5729C54.794 43.5729 55.9698 42.3317 56.3618 41.7437C56.5578 41.4824 56.5578 41.2211 56.4924 41.0251C56.2965 41.1558 55.9045 41.4824 55.1859 42.0703C53.8794 43.1156 52.1156 46.0553 52.1156 46.0553C51.9196 46.3166 47.8693 51.8693 42.7085 52C38.5276 52.1306 36.6332 49.9749 35.8492 49.0603L35.7839 48.995L33.8894 56.1809Z" fill="#261D3F"/>
<path d="M10.1754 56.3115C10.1754 56.3115 11.7433 46.3819 17.1654 43.9648C22.5875 41.5477 29.9694 41.8744 31.9945 43.0502C34.0196 44.2914 39.3111 49.7789 39.3111 49.7789L34.6729 56.3115C34.6729 56.3115 35.7181 73.8844 34.8689 78.5226C34.8689 78.5226 29.6428 79.1105 27.487 78.2613C25.2659 77.412 18.0146 76.1708 14.5523 77.7387L15.2056 55.5276L10.1754 56.3115Z" fill="#3E80FA"/>
<path d="M31.1457 78.9146C29.7739 78.9146 28.2714 78.7839 27.2915 78.4573C25.005 77.5427 17.8844 76.4322 14.5528 77.9347C14.4874 78 14.3568 77.9347 14.2915 77.9347C14.2261 77.8693 14.1608 77.804 14.1608 77.7387L14.8141 55.7889L10.1105 56.5075C10.0452 56.5075 9.9799 56.5075 9.91457 56.4422C9.84924 56.3769 9.84924 56.3115 9.84924 56.2462C9.91457 55.8543 11.4824 46.1859 16.9698 43.7035C22.3266 41.2864 29.7739 41.4824 31.995 42.8543C34.0201 44.0955 39.1156 49.3869 39.3769 49.6482C39.4422 49.7136 39.4422 49.8442 39.3769 49.9749L34.7387 56.4422C34.804 57.9447 35.7839 74.0804 34.9347 78.5879C34.9347 78.7186 34.804 78.7839 34.7387 78.7839C34.6734 78.7186 32.9749 78.9146 31.1457 78.9146ZM19.191 76.6935C22.5226 76.6935 26.0502 77.412 27.4874 78C29.3819 78.7186 33.6281 78.3919 34.608 78.2613C35.392 73.4271 34.3467 56.5075 34.3467 56.3115C34.3467 56.2462 34.3467 56.1809 34.4121 56.1809L38.9849 49.8442C38.1357 48.995 33.6281 44.3568 31.8643 43.3115C29.9698 42.201 22.6533 41.809 17.2965 44.2261C12.593 46.3166 10.8291 54.3517 10.5025 56.1156L15.1407 55.397C15.206 55.397 15.2714 55.397 15.3367 55.4623C15.402 55.5276 15.402 55.593 15.402 55.6583L14.8141 77.4774C15.9899 76.8894 17.5578 76.6935 19.191 76.6935Z" fill="#261D3F"/>
<path d="M19.2563 73.3618C19.1256 73.3618 19.0603 73.2965 18.995 73.1658C18.995 73.0352 19.0603 72.9045 19.191 72.9045C27.3568 71.4673 29.7739 65.7839 29.8392 65.7186C29.9045 65.5879 30.0352 65.5226 30.1659 65.5879C30.2965 65.6533 30.3618 65.7839 30.2965 65.9146C30.2312 65.9799 27.7488 71.8593 19.2563 73.3618C19.3216 73.3618 19.2563 73.3618 19.2563 73.3618Z" fill="#261D3F"/>
<path d="M34.151 63.2362H23.6334L26.8998 51.412H37.4827L34.151 63.2362Z" fill="#261D3F"/>
<path d="M11.0895 56.3116L16.4463 53.8945C16.4463 53.8945 15.6624 62.9749 26.5066 58.794C26.5066 58.794 26.1147 57.6181 26.18 56.2462C26.2453 54.8744 27.0292 56.1809 27.1599 57.2915C27.2906 58.402 29.8383 57.9447 31.3408 57.4874C32.8433 57.0301 34.8684 57.3568 31.3408 59.3166C27.8132 61.2764 27.0292 60.4271 27.0292 60.4271C27.0292 60.4271 22.5217 66.7638 16.9036 65.392C9.97899 63.7588 11.0895 56.3116 11.0895 56.3116Z" fill="white"/>
<path d="M18.4719 65.8492C17.9493 65.8492 17.4266 65.7839 16.8387 65.6532C9.78343 63.9548 10.8287 56.3769 10.8287 56.3115C10.8287 56.2462 10.894 56.1809 10.9593 56.1156L16.3161 53.6985C16.3814 53.6331 16.5121 53.6985 16.5774 53.6985C16.6427 53.7638 16.7081 53.8291 16.7081 53.8944C16.7081 53.8944 16.4467 57.1608 18.6025 58.7286C20.2357 59.9698 22.7834 59.9045 26.2457 58.598C26.1151 58.206 25.9191 57.2261 25.9844 56.1809C25.9844 55.9849 26.0498 55.397 26.4417 55.397C26.9643 55.397 27.4216 56.5728 27.4869 57.2261C27.4869 57.3568 27.5523 57.4221 27.6829 57.4874C28.2709 57.8794 29.9694 57.6181 31.4065 57.2261C32.0598 57.0301 33.3663 56.8341 33.6276 57.4221C33.8236 57.9447 33.1704 58.5326 31.6025 59.4472C28.8588 60.9497 27.6829 60.8191 27.2256 60.6231C26.3764 61.6683 22.8488 65.8492 18.4719 65.8492ZM11.2859 56.5075C11.2206 56.9648 11.1553 58.5326 11.6126 60.2311C12.3965 62.8442 14.1603 64.5427 16.904 65.196C17.4266 65.3266 17.9493 65.3919 18.4065 65.3919C23.1101 65.3919 26.703 60.3618 26.7684 60.3618C26.8337 60.2965 26.899 60.2965 26.9643 60.2311C27.0297 60.2311 27.095 60.2311 27.1603 60.2965C27.1603 60.2965 27.9442 60.9497 31.1452 59.1859C33.0397 58.1407 32.9744 57.7487 32.9744 57.7487C32.9091 57.6181 32.1905 57.5527 31.3412 57.814C30.6226 58.01 28.1402 58.6633 27.2256 58.01C27.0297 57.8794 26.899 57.6181 26.8337 57.3568C26.7684 56.7688 26.507 56.2462 26.3764 55.9849C26.3764 56.0502 26.3764 56.1156 26.3764 56.2462C26.3111 57.5527 26.703 58.6633 26.703 58.6633C26.7684 58.7939 26.703 58.9246 26.5724 58.9899C22.8488 60.4271 20.0397 60.4924 18.2106 59.1206C16.3161 57.6834 16.1201 55.201 16.1201 54.2211L11.2859 56.5075Z" fill="#261D3F"/>
<path d="M25.3316 39.392C24.8743 39.7839 23.9598 40.3065 23.2412 39.9799C22.7186 39.7186 22.3919 39 22.4573 38.2161C22.196 38.2161 21.8693 38.2161 21.6733 38.0201C21.3467 37.6935 21.412 37.1709 21.412 36.7789C21.4774 35.0151 20.4975 34.7538 20.6934 33.5779C20.8894 32.6633 21.608 32.0754 21.7387 32.01C22.3919 31.4874 22.9146 31.6834 24.0251 31.3568C25.9849 30.8342 26.0502 29.9849 27.2914 29.9849C27.3568 29.9849 29.1206 29.9849 29.7085 31.2261C30.1658 32.206 29.6432 33.3819 29.0553 34.0352C28.3367 34.8191 27.7487 34.4271 27.0301 35.1457C25.7236 36.3216 26.7688 38.1508 25.3316 39.392Z" fill="#261D3F"/>
<path d="M29.252 36.3216L29.1866 36.2562C28.7947 35.9296 28.4027 35.5376 28.2721 35.015C27.8148 32.9246 25.9203 32.1407 25.7896 34.1005C25.7896 34.5577 23.9605 34.5577 24.2218 35.0804C24.7444 36.3869 24.8097 36.0603 24.0258 36.5829C23.9605 36.5829 23.8298 36.5829 23.7645 36.6482C23.3726 36.8442 23.2419 37.3668 23.4379 37.8894C23.5685 38.1507 23.8298 38.412 24.0911 38.4773V40.5025C24.0911 41.2864 23.6339 42.005 22.8499 42.3316L22.1313 42.5929C22.1313 42.5929 25.463 44.7487 28.86 42.3969L28.4027 42.201C27.6188 41.8743 27.0962 41.0904 27.0308 40.1758V39.7839C27.2268 39.7839 27.4881 39.7839 27.6841 39.7185C28.5987 39.4572 28.9253 38.3467 28.7947 36.9748L29.1866 36.7788C29.3826 36.7135 29.3826 36.4522 29.252 36.3216Z" fill="white"/>
<path d="M25.4627 43.7035C23.5029 43.7035 22.0657 42.7889 22.0657 42.7889C22.0004 42.7236 21.9351 42.6583 21.9351 42.5929C21.9351 42.5276 22.0004 42.397 22.0657 42.397L22.7843 42.1356C23.4376 41.8743 23.8295 41.2211 23.8295 40.5678V38.608C23.5682 38.4774 23.3722 38.2814 23.2416 37.9547C22.9803 37.3668 23.1763 36.6482 23.6989 36.4522C23.7642 36.3869 23.8949 36.3869 23.9602 36.3869C24.0908 36.3216 24.1562 36.2563 24.2868 36.1909C24.3521 36.1909 24.4175 36.1256 24.4175 36.1256C24.4175 36.0603 24.3521 35.8643 24.2215 35.7336C24.1562 35.603 24.0908 35.4723 24.0255 35.2764C23.9602 35.1457 23.9602 35.015 24.0255 34.9497C24.1562 34.6884 24.5481 34.5578 24.9401 34.4924C25.1361 34.4271 25.528 34.2965 25.5934 34.2311C25.6587 33.0552 26.3119 32.9246 26.5079 32.9246C27.2265 32.8593 28.2064 33.7085 28.4677 35.1457C28.533 35.603 28.925 35.9296 29.2516 36.1909L29.317 36.2563C29.4476 36.3869 29.5129 36.5176 29.5129 36.7135C29.5129 36.9095 29.3823 37.0402 29.2516 37.1055L28.9903 37.2362C29.121 38.7387 28.6637 39.7839 27.6838 40.0452C27.5531 40.1105 27.3572 40.1105 27.2265 40.1105V40.2412C27.2265 41.0251 27.7491 41.6784 28.4024 42.005L28.8597 42.201C28.925 42.2663 28.9903 42.3316 28.9903 42.397C28.9903 42.4623 28.9903 42.5929 28.8597 42.5929C27.7491 43.4422 26.5079 43.7035 25.4627 43.7035ZM22.719 42.6583C23.6336 43.1156 25.92 43.8995 28.3371 42.4623H28.2717C27.4225 42.0703 26.8346 41.2211 26.7692 40.2412V39.8492C26.7692 39.7839 26.7692 39.7186 26.8346 39.6532C26.8999 39.5879 26.9652 39.5879 27.0305 39.5879C27.2265 39.5879 27.4225 39.5879 27.6185 39.5226C28.6637 39.196 28.5984 37.6934 28.5331 37.0402C28.5331 36.9095 28.5984 36.8442 28.6637 36.7789L29.0557 36.5829C29.0557 36.5829 29.0557 36.5829 29.0557 36.5176C29.0557 36.5176 29.0557 36.5176 29.0557 36.4522L28.9903 36.3869C28.5984 36.0603 28.1411 35.603 28.0104 35.015C27.7491 33.7738 26.9652 33.1206 26.5079 33.1859C26.116 33.1859 26.0506 33.8392 25.9853 34.0351C25.9853 34.4271 25.4627 34.5578 25.0054 34.6884C24.8094 34.7537 24.4828 34.8191 24.4175 34.8844C24.4828 35.0804 24.5481 35.211 24.6135 35.3417C24.8748 35.9296 24.9401 36.1256 24.4175 36.4522C24.3521 36.5176 24.2215 36.5829 24.0908 36.6482C24.0255 36.6482 24.0255 36.7135 23.9602 36.7135C23.8949 36.7135 23.8295 36.7135 23.7642 36.7789C23.5029 36.9095 23.3722 37.3015 23.5682 37.6934C23.6989 37.8894 23.8295 38.0854 24.0255 38.1507C24.1562 38.1507 24.2215 38.2814 24.2215 38.412V40.5025C24.2215 41.4171 23.6989 42.201 22.8496 42.5276L22.719 42.6583Z" fill="#261D3F"/>
<path d="M27.0301 39.9799C25.5929 39.7839 24.9397 38.6734 24.9397 38.608C24.8743 38.4774 24.9397 38.3467 25.005 38.2814C25.1356 38.2161 25.2663 38.2814 25.3316 38.3467C25.3316 38.3467 25.8542 39.2613 27.0301 39.4573C27.1608 39.4573 27.2261 39.5879 27.2261 39.7186C27.2914 39.9146 27.1608 39.9799 27.0301 39.9799Z" fill="#261D3F"/>
</g>
<defs>
<clipPath id="clip0_6583_24289">
<rect width="133.985" height="130" fill="white" transform="translate(0.507568)"/>
</clipPath>
</defs>
</svg>
