<svg width="127" height="130" viewBox="0 0 127 130" fill="none" xmlns="http://www.w3.org/2000/svg">
<g clip-path="url(#clip0_6583_24666)">
<path d="M108.338 24.3524C108.426 24.4052 108.531 24.4052 108.619 24.3349C108.742 24.2469 108.777 24.0887 108.689 23.9656C101.509 13.4158 89.5881 4.343 80.9506 0.0351676C80.8277 -0.0351644 80.6697 0.0175846 80.5995 0.158249C80.5292 0.281329 80.5819 0.439576 80.7223 0.509908C89.2896 4.78258 101.14 13.8027 108.25 24.2821C108.285 24.3173 108.303 24.3349 108.338 24.3524Z" fill="#261D3F"/>
<path d="M108.285 20.3963C108.372 20.449 108.478 20.449 108.566 20.3963C108.688 20.3084 108.724 20.1501 108.636 20.027C103.597 12.4488 95.6269 6.40022 92.5546 4.64192C92.4317 4.57158 92.2737 4.60675 92.2034 4.74741C92.1332 4.8705 92.1859 5.02874 92.3088 5.09907C95.346 6.82221 103.229 12.818 108.214 20.3084C108.232 20.3435 108.25 20.3787 108.285 20.3963Z" fill="#261D3F"/>
<path d="M5.63766 115.973C5.71979 116.008 5.80931 116.009 5.88904 115.973C6.01047 115.909 6.06452 115.74 5.98366 115.615C3.24705 110.712 1.2155 105.87 -0.0927041 101.256C-0.135545 101.121 -0.278968 101.036 -0.413879 101.079C-0.548791 101.122 -0.633484 101.266 -0.590643 101.401C0.727346 106.053 2.76869 110.933 5.53225 115.878C5.55921 115.92 5.58985 115.944 5.63766 115.973Z" fill="#261D3F"/>
<path d="M10.039 128.516C10.1347 128.572 10.2659 128.547 10.3395 128.455C10.434 128.349 10.4328 128.187 10.3311 128.075C6.91059 124.77 -0.30016 114.86 -2.28272 105.857C-2.30471 105.708 -2.44813 105.624 -2.60021 105.663C-2.7486 105.685 -2.83329 105.829 -2.79414 105.981C-0.658654 115.611 6.86972 125.462 9.97775 128.467C9.99123 128.488 10.0256 128.495 10.039 128.516Z" fill="#261D3F"/>
<path d="M14.7241 124.918C14.7412 124.922 14.7584 124.925 14.7755 124.929C14.9129 124.958 15.0552 124.881 15.1018 124.747L15.4042 123.589C15.4337 123.452 15.3565 123.309 15.2229 123.263C15.0855 123.233 14.9432 123.31 14.8966 123.444L14.5943 124.602C14.5476 124.736 14.6113 124.858 14.7241 124.918Z" fill="#261D3F"/>
<path d="M13.6369 128.983C13.6541 128.986 13.6712 128.99 13.6884 128.994C13.8257 129.023 13.968 128.946 14.0147 128.812L14.317 127.654C14.3465 127.516 14.2693 127.374 14.1357 127.327C13.9984 127.298 13.8561 127.375 13.8094 127.509L13.5071 128.667C13.4776 128.804 13.5241 128.922 13.6369 128.983Z" fill="#261D3F"/>
<path d="M15.7731 126.725C15.7903 126.729 15.8074 126.733 15.8246 126.736L16.9673 127.018C17.1046 127.047 17.2469 126.97 17.2764 126.832C17.3059 126.695 17.2287 126.552 17.0743 126.519L15.9316 126.238C15.7942 126.208 15.6519 126.286 15.6224 126.423C15.5966 126.544 15.6603 126.665 15.7731 126.725Z" fill="#261D3F"/>
<path d="M11.7516 125.719C11.7688 125.722 11.7859 125.726 11.8031 125.73L12.9458 126.011C13.0831 126.04 13.2254 125.963 13.2549 125.825C13.2844 125.688 13.2073 125.545 13.0528 125.512L11.9101 125.231C11.7727 125.202 11.6305 125.279 11.6009 125.417C11.5923 125.541 11.6351 125.676 11.7516 125.719Z" fill="#261D3F"/>
<path d="M7.12298 120.679C6.5544 119.982 6.65556 118.925 7.33892 118.334C7.68734 118.049 8.11293 117.907 8.55312 117.947C8.99332 117.988 9.37947 118.196 9.65028 118.524C10.2189 119.222 10.1177 120.279 9.43434 120.87C9.08592 121.154 8.66033 121.297 8.22013 121.256C8.02763 121.233 7.82164 121.189 7.64389 121.097C7.44897 121.001 7.28229 120.857 7.12298 120.679ZM8.51113 118.478C8.21194 118.449 7.92126 118.549 7.6808 118.749C7.19989 119.149 7.13448 119.873 7.51679 120.35C7.70305 120.57 7.95926 120.715 8.25844 120.743C8.55763 120.771 8.84831 120.672 9.08877 120.472C9.56968 120.071 9.63509 119.348 9.25278 118.87C9.0702 118.633 8.81031 118.506 8.51113 118.478Z" fill="#261D3F"/>
<path d="M119.871 69.4001C119.801 69.3649 119.731 69.2946 119.713 69.2067C119.696 69.0836 119.784 68.9605 119.906 68.9605L121.083 68.8198C121.206 68.8023 121.328 68.8902 121.328 69.0133C121.346 69.1363 121.258 69.2594 121.135 69.2594L119.959 69.4001C119.942 69.4177 119.906 69.4001 119.871 69.4001Z" fill="#261D3F"/>
<path d="M117.151 69.7342C117.08 69.699 117.01 69.6287 116.993 69.5407C116.975 69.4177 117.063 69.2946 117.186 69.2946L118.362 69.1539C118.485 69.1363 118.608 69.2242 118.608 69.3473C118.608 69.4704 118.538 69.5935 118.415 69.5935L117.238 69.7342C117.221 69.7517 117.168 69.7342 117.151 69.7342Z" fill="#261D3F"/>
<path d="M118.994 68.7143C118.924 68.6792 118.853 68.6088 118.836 68.5209L118.695 67.3429C118.678 67.2198 118.766 67.0967 118.889 67.0967C119.011 67.0791 119.134 67.167 119.134 67.2901L119.275 68.4682C119.292 68.5912 119.205 68.7143 119.082 68.7143C119.064 68.7319 119.029 68.7319 118.994 68.7143Z" fill="#261D3F"/>
<path d="M119.327 71.4397C119.257 71.4045 119.187 71.3342 119.169 71.2463L119.029 70.0682C119.011 69.9451 119.099 69.8221 119.222 69.8221C119.345 69.8045 119.468 69.8924 119.468 70.0155L119.608 71.1935C119.626 71.3166 119.538 71.4397 119.415 71.4397C119.397 71.4573 119.362 71.4573 119.327 71.4397Z" fill="#261D3F"/>
<path d="M106.775 46.1729L106.389 48.0543L108.302 48.9159C108.285 49.373 108.32 49.8126 108.373 50.2522L106.582 51.3248L107.179 53.1358L109.268 52.9248C109.479 53.3116 109.724 53.6809 110.005 54.0325L108.987 55.8612L110.427 57.1271L112.13 55.9139C112.498 56.1425 112.902 56.3359 113.323 56.5117L113.358 58.6041L115.237 58.9909L116.097 57.092C116.554 57.1096 116.993 57.0744 117.431 57.0216L118.52 58.8151L120.346 58.2173L120.135 56.1249C120.521 55.9139 120.89 55.6678 121.241 55.3864L123.067 56.4062L124.331 54.982L123.12 53.2765C123.348 52.9072 123.541 52.5028 123.717 52.0808L125.806 52.0457L126.192 50.1643L124.278 49.3027C124.296 48.8456 124.261 48.406 124.208 47.9664L125.999 46.8938L125.402 45.0828L123.313 45.2938C123.102 44.907 122.856 44.5377 122.575 44.1861L123.594 42.3574L122.154 41.0915L120.451 42.3047C120.082 42.0761 119.679 41.8827 119.257 41.7069L119.222 39.6145L117.344 39.2277L116.483 41.1266C116.027 41.109 115.588 41.1442 115.149 41.197L114.061 39.4035L112.235 40.0013L112.446 42.0937C112.059 42.3047 111.691 42.5508 111.34 42.8322L109.514 41.8124L108.25 43.2366L109.461 44.9421C109.233 45.3114 109.04 45.7158 108.864 46.1378L106.775 46.1729ZM117.273 44.274C119.942 44.8191 121.662 47.4389 121.118 50.1115C120.574 52.7841 117.958 54.5073 115.29 53.9446C112.621 53.3996 110.901 50.7797 111.445 48.1071C111.989 45.4345 114.605 43.7289 117.273 44.274Z" fill="#99B9FF"/>
<path d="M20.1544 118.791H74.2618C76.5968 118.791 78.247 116.909 77.9486 114.588L64.6236 9.45964C64.3252 7.13869 62.2009 5.25731 59.866 5.25731L8.49724 4.65948C2.59844 4.65948 1.79086 7.13869 2.08931 9.45964L15.4143 114.588C15.6952 116.909 17.8194 118.791 20.1544 118.791Z" fill="white"/>
<path fill-rule="evenodd" clip-rule="evenodd" d="M77.3382 114.667L77.3381 114.666L64.0133 9.53813C64.0132 9.538 64.0133 9.53825 64.0133 9.53813C63.7538 7.52168 61.8886 5.87269 59.866 5.87269H59.8588L8.49724 5.27487C8.49605 5.27487 8.49487 5.27487 8.49368 5.27487C5.60592 5.27537 4.13514 5.88719 3.40636 6.62243C2.69808 7.33698 2.56113 8.30377 2.69967 9.38116L2.69982 9.38226L16.0252 114.514C16.2687 116.526 18.1307 118.175 20.1544 118.175H74.2618C76.2241 118.175 77.5896 116.621 77.3382 114.667ZM8.49724 4.65948L59.866 5.25731C62.2009 5.25731 64.3252 7.13869 64.6236 9.45964L77.9486 114.588C78.247 116.909 76.5968 118.791 74.2618 118.791H20.1544C17.8194 118.791 15.6952 116.909 15.4143 114.588L2.08931 9.45964C1.79086 7.13869 2.59844 4.65948 8.49724 4.65948Z" fill="#261D3F"/>
<path d="M23.4194 118.791H77.5268C79.8618 118.791 81.512 116.892 81.2136 114.571L67.8886 8.82665C67.5902 6.48812 65.4659 4.60674 63.1309 4.60674H9.0235C6.68856 4.60674 5.0383 6.5057 5.33675 8.82665L18.6617 114.571C18.9602 116.892 21.0844 118.791 23.4194 118.791Z" fill="white"/>
<path d="M11.2009 57.514C11.0955 57.514 10.9902 57.4261 10.9726 57.3206L5.10894 8.84424C4.95094 7.6486 5.2845 6.50571 6.03941 5.66172C6.77676 4.81774 7.84767 4.36058 9.02392 4.36058H15.309C15.4318 4.36058 15.5372 4.46608 15.5372 4.58916C15.5372 4.71224 15.4318 4.81774 15.309 4.81774H9.02392C7.97056 4.81774 7.02254 5.22215 6.37297 5.96063C5.70585 6.7167 5.42495 7.71893 5.5654 8.77391L11.4115 57.2326C11.4291 57.3557 11.3413 57.4788 11.2184 57.4788C11.2184 57.514 11.2009 57.514 11.2009 57.514Z" fill="#261D3F"/>
<path d="M47.2788 4.83532H19.1541C19.0312 4.83532 18.9259 4.72982 18.9259 4.60674C18.9259 4.48366 19.0312 4.37816 19.1541 4.37816H47.2788C47.4017 4.37816 47.507 4.48366 47.507 4.60674C47.507 4.72982 47.4017 4.83532 47.2788 4.83532Z" fill="#261D3F"/>
<path d="M77.5096 119.019H60.4277C60.3048 119.019 60.1995 118.914 60.1995 118.791C60.1995 118.668 60.3048 118.562 60.4277 118.562H77.5096C78.563 118.562 79.511 118.158 80.1606 117.419C80.8277 116.663 81.1086 115.661 80.9682 114.606L76.2983 78.4729C76.2807 78.3498 76.3685 78.2267 76.4914 78.2091C76.6143 78.1916 76.7372 78.2795 76.7547 78.4026L81.4422 114.518C81.6002 115.714 81.2666 116.857 80.5117 117.701C79.7568 118.545 78.7034 119.019 77.5096 119.019Z" fill="#261D3F"/>
<path d="M56.7586 119.019H38.1492C38.0264 119.019 37.921 118.914 37.921 118.791C37.921 118.668 38.0264 118.562 38.1492 118.562H56.7586C56.8815 118.562 56.9868 118.668 56.9868 118.791C56.9868 118.914 56.8815 119.019 56.7586 119.019Z" fill="#261D3F"/>
<path d="M23.4201 119.019C20.9798 119.019 18.7502 117.032 18.4342 114.588L17.0473 102.315C17.0297 102.192 17.1175 102.069 17.2404 102.069C17.3633 102.052 17.4862 102.14 17.4862 102.263L18.8731 114.536C19.154 116.751 21.1905 118.562 23.4025 118.562H38.3427C38.4655 118.562 38.5709 118.668 38.5709 118.791C38.5709 118.914 38.4655 119.019 38.3427 119.019H23.4201Z" fill="#261D3F"/>
<path d="M78.1242 114.711L65.3961 13.7499C65.3259 13.2048 64.8343 12.7652 64.2901 12.7652H9.91932C9.37508 12.7652 9.00641 13.2048 9.05908 13.7499L21.7871 114.711C21.8574 115.257 22.3489 115.696 22.8932 115.696H77.2815C77.8082 115.679 78.1944 115.239 78.1242 114.711Z" fill="white"/>
<path d="M37.7813 9.54791C38.3455 8.94618 38.2527 7.94109 37.5741 7.30297C36.8956 6.66485 35.8882 6.63535 35.3241 7.23708C34.7599 7.83882 34.8527 8.84391 35.5312 9.48203C36.2098 10.1201 37.2172 10.1496 37.7813 9.54791Z" fill="#CADDFF"/>
<path d="M69.3462 21.926C69.2233 21.926 69.1355 21.8381 69.118 21.715L67.6608 8.84424C67.3799 6.62879 65.3434 4.81774 63.1314 4.81774H46.5761C46.4532 4.81774 46.3479 4.71224 46.3479 4.58916C46.3479 4.46608 46.4532 4.36058 46.5761 4.36058H63.1314C65.5717 4.36058 67.8013 6.34746 68.1173 8.79149L69.5744 21.6622C69.592 21.7853 69.5042 21.9084 69.3813 21.9084C69.3638 21.926 69.3462 21.926 69.3462 21.926Z" fill="#261D3F"/>
<path d="M48.5248 49.9884H15.2738L12.3069 26.7261H45.5579L48.5248 49.9884Z" fill="#F0F0F0"/>
<path d="M66.7826 37.7858H48.3313L46.9093 26.5855H65.3606L66.7826 37.7858Z" fill="#F0F0F0"/>
<path d="M65.185 25.2843H46.7512L45.3116 14.1016H63.763L65.185 25.2843Z" fill="#CADDFF"/>
<path d="M68.521 50.0588H50.0697L48.6477 38.876H67.0815L68.521 50.0588Z" fill="#F0F0F0"/>
<path d="M35.7616 77.6641H18.5743L16.8889 64.4593H34.0762L35.7616 77.6641Z" fill="#F0F0F0"/>
<path d="M54.248 77.7696H37.0432L35.3754 64.5648H52.5626L54.248 77.7696Z" fill="#F0F0F0"/>
<path d="M72.5417 77.6641H55.3369L53.6691 64.4593H70.8563L72.5417 77.6641Z" fill="#CADDFF"/>
<path d="M75.5258 101.577H58.3386L55.4769 79.2114H72.6818L75.5258 101.577Z" fill="#F0F0F0"/>
<path d="M70.6277 62.9647H16.6958L15.2738 51.7643H69.1881L70.6277 62.9647Z" fill="#CADDFF"/>
<path d="M45.154 25.2843H12.2366L10.8146 14.1016H43.732L45.154 25.2843Z" fill="#F0F0F0"/>
<path d="M77.1585 114.36H23.2442L21.8046 103.159H75.7364L77.1585 114.36Z" fill="#F0F0F0"/>
<path d="M57.4611 101.788H21.6996L18.838 79.3345H54.5995L57.4611 101.788Z" fill="#CADDFF"/>
<path d="M72.9626 40.9508H48.314C47.8049 40.9508 47.366 40.564 47.2958 40.0541L45.5051 26.058C45.4349 25.4426 45.9089 24.9151 46.5233 24.9151H71.1719C71.681 24.9151 72.1199 25.3019 72.1901 25.8118L73.9808 39.8079C74.0511 40.4233 73.577 40.9508 72.9626 40.9508Z" fill="white"/>
<path d="M69.5221 27.4998H61.9379C61.6395 27.4998 61.4113 27.2536 61.4113 26.9723C61.4113 26.6734 61.657 26.4448 61.9379 26.4448H69.5221C69.8206 26.4448 70.0488 26.691 70.0488 26.9723C70.0488 27.2712 69.803 27.4998 69.5221 27.4998Z" fill="#99B9FF"/>
<path d="M48.2973 27.6581C47.9989 27.6581 47.7706 27.4295 47.7706 27.1306C47.7706 26.8317 47.9989 26.6031 48.2973 26.5855L59.3927 26.4448C59.6911 26.4448 59.9193 26.6734 59.9369 26.9723C59.9369 27.2712 59.7087 27.4998 59.4102 27.5174L48.2973 27.6581Z" fill="#CADDFF"/>
<path d="M56.9349 30.4186C56.6364 30.4186 56.4082 30.19 56.4082 29.8911C56.4082 29.5922 56.6364 29.3636 56.9349 29.346L65.7831 29.2229C66.0815 29.2229 66.3098 29.4515 66.3273 29.7504C66.3273 30.0493 66.0991 30.2779 65.8006 30.2955L56.9349 30.4186Z" fill="#CADDFF"/>
<path d="M48.8237 30.5241C48.5252 30.5241 48.297 30.2955 48.297 29.9966C48.297 29.6977 48.5252 29.4691 48.8237 29.4515L55.2492 29.3636C55.5301 29.3636 55.7758 29.5922 55.7934 29.8911C55.7934 30.19 55.5652 30.4186 55.2667 30.4362L48.8237 30.5241C48.8412 30.5241 48.8412 30.5241 48.8237 30.5241Z" fill="#99B9FF"/>
<path d="M60.7796 33.3901C60.4987 33.3901 60.2529 33.1615 60.2529 32.8802C60.2529 32.5813 60.4812 32.3351 60.7621 32.3351L65.6602 32.1945C65.9586 32.1769 66.2044 32.423 66.2044 32.7044C66.2044 33.0033 65.9762 33.2494 65.6953 33.2494L60.7796 33.3901Z" fill="#CADDFF"/>
<path d="M49.0522 33.5308C48.7537 33.5308 48.5255 33.3022 48.5255 33.0033C48.5255 32.7044 48.7537 32.4758 49.0522 32.4582L58.9362 32.3351C59.2346 32.3351 59.4629 32.5637 59.4804 32.8626C59.4804 33.1615 59.2522 33.3901 58.9538 33.4077L49.0522 33.5308Z" fill="#CADDFF"/>
<path d="M62.184 36.3265C61.8856 36.3265 61.6573 36.0979 61.6573 35.799C61.6573 35.5001 61.8856 35.2715 62.184 35.2539L69.7682 35.166C70.0491 35.166 70.2949 35.3946 70.3124 35.6935C70.3124 35.9924 70.0842 36.221 69.7858 36.2385L62.184 36.3265Z" fill="#CADDFF"/>
<path d="M49.4907 36.4847C49.1922 36.4847 48.964 36.2561 48.964 35.9572C48.964 35.6583 49.1922 35.4297 49.4907 35.4121L60.6211 35.2891C60.9196 35.2891 61.1478 35.5176 61.1654 35.8166C61.1654 36.1155 60.9372 36.344 60.6387 36.3616L49.4907 36.4847Z" fill="#CADDFF"/>
<path d="M49.772 39.4211C49.4736 39.4211 49.2454 39.1925 49.2454 38.8936C49.2454 38.5947 49.4736 38.3661 49.772 38.3485L65.432 38.2079C65.7304 38.2079 65.9586 38.4364 65.9586 38.7353C65.9586 39.0343 65.7304 39.2628 65.432 39.2804L49.772 39.4211C49.7896 39.4211 49.772 39.4211 49.772 39.4211Z" fill="#CADDFF"/>
<path d="M73.2614 41.1794H63.4125C63.2896 41.1794 63.1843 41.0739 63.1843 40.9508C63.1843 40.8277 63.2896 40.7222 63.4125 40.7222H73.2614C73.4194 40.7222 73.5599 40.6519 73.6477 40.5464C73.753 40.4409 73.7881 40.2826 73.7705 40.142L71.9096 25.5657C71.8745 25.3195 71.6814 25.1437 71.4356 25.1437H46.2077C46.0497 25.1437 45.9093 25.214 45.8215 25.3195C45.7161 25.425 45.681 25.5833 45.6986 25.7239L47.5595 40.1596C47.5946 40.4761 47.858 40.7046 48.174 40.7046H54.9155C55.0383 40.7046 55.1437 40.8101 55.1437 40.9332C55.1437 41.0563 55.0383 41.1618 54.9155 41.1618H48.174C47.6297 41.1618 47.1733 40.7574 47.1031 40.2123L45.2421 25.7767C45.207 25.4953 45.2948 25.214 45.4704 25.003C45.6635 24.792 45.9268 24.6689 46.2077 24.6689H71.4356C71.9096 24.6689 72.2958 25.0206 72.3661 25.4778L74.2446 40.0541C74.2797 40.3354 74.1919 40.6167 74.0163 40.8277C73.8057 41.0563 73.5423 41.1794 73.2614 41.1794Z" fill="#261D3F"/>
<path d="M27.1066 52.0457L26.8433 51.0962L25.7723 51.1489C25.667 50.9379 25.5617 50.7445 25.4212 50.5511L26.0006 49.6368L25.2983 48.9335L24.3854 49.5137C24.1923 49.3906 23.9992 49.2675 23.7885 49.1796L23.8236 48.0895L22.8581 47.8433L22.3665 48.8104C22.1383 48.7928 21.91 48.7928 21.6818 48.8104L21.1727 47.8609L20.2247 48.1247L20.2773 49.1972C20.0667 49.3027 19.8735 49.4082 19.6804 49.5489L18.7675 48.9686L18.0653 49.672L18.6446 50.5863C18.5217 50.7797 18.3988 50.9731 18.3111 51.1841L17.2226 51.1489L16.9768 52.0984L17.9424 52.5907C17.9248 52.8193 17.9248 53.0479 17.9424 53.2765L16.9944 53.7864L17.2577 54.7359L18.3286 54.6831C18.434 54.8941 18.5393 55.0875 18.6797 55.2809L18.1004 56.1952L18.8026 56.8986L19.7155 56.3183C19.9087 56.4414 20.1018 56.5645 20.3124 56.6524L20.2773 57.725L21.2429 57.9711L21.7345 57.0041C21.9627 57.0216 22.1909 57.0216 22.4192 57.0041L22.9283 57.9535L23.8763 57.6898L23.8236 56.6172C24.0343 56.5117 24.2274 56.4062 24.4205 56.2656L25.3334 56.8458L26.0357 56.1425L25.4563 55.2282C25.5792 55.0348 25.7021 54.8414 25.7899 54.6304L26.8784 54.6655L27.1241 53.716L26.1586 53.2237C26.1761 52.9951 26.1761 52.7666 26.1586 52.538L27.1066 52.0457ZM22.7176 55.3864C21.3658 55.7557 19.9613 54.9644 19.5926 53.593C19.224 52.2391 20.014 50.8324 21.3834 50.4632C22.7352 50.0939 24.1396 50.8852 24.5083 52.2567C24.877 53.6105 24.0694 54.9996 22.7176 55.3864Z" fill="#3E80FA"/>
<path d="M39.3255 96.179H9.9719C8.4972 96.179 7.07517 94.913 6.91716 93.4888L3.75709 63.879C3.6342 62.6658 4.45933 61.7515 5.7058 61.7515H35.0594C36.5341 61.7515 37.9561 63.0174 38.1141 64.4417L41.2742 94.0514C41.3971 95.2646 40.5719 96.179 39.3255 96.179Z" fill="white"/>
<path d="M33.3569 70.2265H21.8577C21.5593 70.2265 21.3311 69.9803 21.3311 69.699C21.3311 69.4001 21.5768 69.1715 21.8577 69.1715H33.3569C33.6553 69.1715 33.8836 69.4176 33.8836 69.699C33.9011 69.9803 33.6553 70.2265 33.3569 70.2265Z" fill="#3E80FA"/>
<path d="M33.2871 73.9365H22.0864C21.7879 73.9365 21.5597 73.6903 21.5597 73.409C21.5597 73.1277 21.8055 72.8815 22.0864 72.8815H33.2871C33.5855 72.8815 33.8137 73.1277 33.8137 73.409C33.8137 73.6903 33.5855 73.9365 33.2871 73.9365Z" fill="#3E80FA"/>
<path d="M33.7432 77.2948H31.1976C30.8991 77.2948 30.6709 77.0487 30.6709 76.7673C30.6709 76.486 30.9167 76.2398 31.1976 76.2398H33.7432C34.0416 76.2398 34.2699 76.486 34.2699 76.7673C34.2699 77.0487 34.0416 77.2948 33.7432 77.2948Z" fill="#3E80FA"/>
<path d="M34.1118 80.829H20.2426C19.9442 80.829 19.7159 80.5828 19.7159 80.3015C19.7159 80.0202 19.9617 79.774 20.2426 79.774H34.1118C34.4103 79.774 34.6385 80.0202 34.6385 80.3015C34.6385 80.5828 34.4103 80.829 34.1118 80.829Z" fill="#3E80FA"/>
<path d="M18.9781 94.5086H10.6215C10.4284 94.5086 10.2528 94.3503 10.2353 94.1569L9.44527 83.2203C9.42771 83.0796 9.53305 82.9742 9.69105 82.9742H18.0477C18.2408 82.9742 18.4164 83.1324 18.4339 83.3258L19.2239 94.2624C19.2239 94.4031 19.1362 94.5086 18.9781 94.5086Z" fill="#CADDFF"/>
<path d="M28.8092 94.4382H20.4526C20.2595 94.4382 20.0839 94.28 20.0663 94.0866L19.2763 83.15C19.2588 83.0093 19.3641 82.9038 19.5221 82.9038H27.8787C28.0719 82.9038 28.2474 83.0621 28.265 83.2555L29.055 94.1921C29.055 94.3328 28.9497 94.4382 28.8092 94.4382Z" fill="#99B9FF"/>
<path d="M38.7106 94.5086H30.3539C30.1608 94.5086 29.9853 94.3503 29.9677 94.1569L29.1777 83.2203C29.1601 83.0796 29.2655 82.9742 29.4235 82.9742H37.7801C37.9732 82.9742 38.1488 83.1324 38.1663 83.3258L38.9564 94.2624C38.9739 94.4031 38.8686 94.5086 38.7106 94.5086Z" fill="#CADDFF"/>
<path d="M17.837 80.4949H8.69031C8.47964 80.4949 8.28652 80.3367 8.28652 80.1609L7.72473 69.488C7.72473 69.3473 7.83007 69.2418 8.00563 69.2418H17.1523C17.3629 69.2418 17.5561 69.4001 17.5561 69.5759L18.1179 80.2488C18.1179 80.3894 17.995 80.4949 17.837 80.4949Z" fill="#CADDFF"/>
<path d="M27.8969 66.7802H13.7819C13.3957 66.7802 13.027 66.4461 12.9919 66.0769L12.9217 65.3384C12.8865 65.0219 13.1148 64.7933 13.4308 64.7933H27.5458C27.932 64.7933 28.3007 65.1274 28.3358 65.4967L28.406 66.2351C28.4236 66.5341 28.2129 66.7802 27.8969 66.7802Z" fill="#99B9FF"/>
<path d="M39.3255 96.4075H9.97193C8.39189 96.4075 6.84697 95.0537 6.68897 93.5063L3.52889 63.8966C3.45867 63.246 3.63423 62.6658 4.03802 62.2262C4.4418 61.7691 5.03871 61.5229 5.70583 61.5229H35.0594C36.6394 61.5229 38.1843 62.8768 38.3424 64.4241L41.5024 94.0338C41.5726 94.6844 41.3971 95.2646 40.9933 95.7042C40.5895 96.1614 39.9926 96.4075 39.3255 96.4075ZM5.70583 61.98C5.1616 61.98 4.68759 62.1735 4.37158 62.5251C4.07313 62.8592 3.93268 63.3339 3.98535 63.8438L7.14542 93.4536C7.28587 94.7899 8.60256 95.9504 9.97193 95.9504H39.3255C39.8697 95.9504 40.3437 95.757 40.6597 95.4053C40.9582 95.0712 41.0986 94.5965 41.046 94.0866L37.8859 64.4768C37.7454 63.1405 36.4288 61.98 35.0594 61.98H5.70583Z" fill="#261D3F"/>
<path d="M64.0266 71.8793H46.8745C45.4524 71.8793 44.1006 70.6133 43.9777 69.2067L42.9244 57.1975C42.819 56.0194 43.6266 55.1227 44.8029 55.1227H61.955C63.3771 55.1227 64.7289 56.3887 64.8518 57.7953L65.9051 69.8045C66.0105 71.0001 65.2204 71.8793 64.0266 71.8793Z" fill="white"/>
<path d="M44.1884 69.6287L43.9426 67.255C43.9075 66.9912 43.9777 66.7275 44.1357 66.5341L49.0689 60.1866C49.4376 59.7118 50.1749 59.7294 50.7367 60.1866L54.4586 63.2812C55.0028 63.7384 55.7226 63.7559 56.0913 63.3339L56.2669 63.123C56.6531 62.6834 57.408 62.7185 57.9522 63.2109L65.5013 69.9803C65.7822 70.2265 65.9577 70.543 65.9929 70.8771C66.0806 71.51 64.4304 71.9848 63.7984 71.9848L46.5409 71.8089C45.3997 71.7914 44.2937 70.7716 44.1884 69.6287Z" fill="#3E80FA"/>
<path d="M62.1587 61.2309C62.7737 60.5837 62.6231 59.4404 61.8224 58.6772C61.0217 57.914 59.8741 57.82 59.2591 58.4671C58.6442 59.1143 58.7947 60.2576 59.5954 61.0208C60.3961 61.784 61.5437 61.8781 62.1587 61.2309Z" fill="#3E80FA"/>
<path d="M64.1492 72.1079H46.7161C45.2765 72.1079 43.8896 70.8243 43.7667 69.3825L42.6958 57.0744C42.6431 56.459 42.8187 55.9139 43.1874 55.5095C43.5561 55.1051 44.0827 54.8765 44.6796 54.8765H62.1127C63.5523 54.8765 64.9392 56.1601 65.0621 57.6019L66.133 69.91C66.1857 70.5078 66.0101 71.0705 65.6414 71.4749C65.2903 71.8969 64.7461 72.1079 64.1492 72.1079ZM44.6972 55.3513C44.2232 55.3513 43.8194 55.5271 43.5385 55.826C43.2576 56.1425 43.1172 56.5645 43.1698 57.0568L44.2407 69.3649C44.3461 70.5781 45.5399 71.6859 46.7337 71.6859H64.1667C64.6408 71.6859 65.0445 71.51 65.3254 71.2111C65.6063 70.8946 65.7468 70.4726 65.6941 69.9803L64.6232 57.6722C64.5179 56.459 63.3241 55.3513 62.1303 55.3513H44.6972Z" fill="#261D3F"/>
<path d="M83.9699 115.731L84.4439 120.76C84.4614 120.901 84.3736 121.024 84.2332 121.041L81.7402 121.2C81.6349 121.2 81.5471 121.112 81.5296 121.006L81.0731 116.435L83.9699 115.731Z" fill="white"/>
<path d="M81.7227 121.428C81.512 121.428 81.3189 121.252 81.3014 121.024L80.8449 116.435C80.8273 116.329 80.9151 116.224 81.0205 116.188L83.9347 115.503C84.005 115.485 84.0576 115.503 84.1279 115.538C84.1805 115.573 84.2156 115.643 84.2156 115.696L84.6897 120.725C84.7072 120.848 84.6721 120.989 84.5843 121.094C84.4965 121.182 84.3912 121.252 84.2859 121.252L81.7929 121.411C81.7403 121.428 81.7227 121.428 81.7227 121.428ZM81.3014 116.61L81.7403 120.971L84.1981 120.813C84.1981 120.813 84.1981 120.795 84.1981 120.778L83.7416 115.995L81.3014 116.61Z" fill="#261D3F"/>
<path d="M84.8305 119.476C84.9885 120.074 85.3396 121.745 85.4976 122.764C85.5854 123.397 85.1816 123.995 84.5847 124.154C82.8643 124.628 78.721 124.593 75.2801 124.751C75.0519 124.769 74.6129 124.646 74.4198 124.083C73.7703 122.149 77.3868 121.551 80.9506 119.582C81.0209 119.547 81.1087 119.547 81.1789 119.6C81.214 119.635 81.2667 119.67 81.3369 119.705C81.9513 120.109 82.9871 120.109 83.6192 119.723L84.3389 119.301C84.5145 119.142 84.7603 119.248 84.8305 119.476Z" fill="#3E80FA"/>
<path d="M75.2446 124.98C74.8759 124.98 74.4019 124.769 74.1912 124.154C73.6645 122.606 75.4553 121.833 77.7024 120.848C78.668 120.426 79.7565 119.951 80.8274 119.371C80.9678 119.283 81.1609 119.301 81.2838 119.389C81.3189 119.424 81.3716 119.441 81.4243 119.494C81.9685 119.846 82.899 119.846 83.4783 119.512L84.1981 119.09C84.3561 119.002 84.5317 118.984 84.7072 119.054C84.8828 119.125 85.0057 119.265 85.0408 119.441C85.2164 120.057 85.5675 121.745 85.7079 122.747C85.8133 123.485 85.3568 124.206 84.6195 124.4C83.3028 124.751 80.722 124.839 78.0009 124.91C77.088 124.945 76.1575 124.962 75.2797 124.998C75.2797 124.98 75.2621 124.98 75.2446 124.98ZM81.038 119.758C79.9496 120.356 78.8611 120.83 77.878 121.252C75.543 122.272 74.2439 122.888 74.6126 123.995C74.7881 124.505 75.1744 124.523 75.2446 124.523C76.1224 124.488 77.0704 124.452 77.9833 124.435C80.564 124.365 83.2501 124.277 84.4966 123.943C85.0057 123.802 85.3217 123.31 85.2515 122.8C85.111 121.833 84.7599 120.145 84.6019 119.547C84.5843 119.494 84.5492 119.476 84.5317 119.459C84.5141 119.459 84.479 119.441 84.4263 119.459L83.7066 119.881C83.0043 120.303 81.8632 120.303 81.1785 119.863C81.1434 119.828 81.0907 119.793 81.038 119.758Z" fill="#261D3F"/>
<path d="M85.6028 123.204C85.6028 123.222 85.6028 123.239 85.6028 123.239C85.6906 123.872 85.0937 124.259 84.5143 124.523C82.8114 125.332 75.9295 124.857 75.6661 124.839H75.6486C75.5608 124.839 74.683 124.839 74.4372 124.294C74.4021 124.224 74.3846 124.136 74.367 124.048C74.3494 123.907 74.3494 123.749 74.3846 123.608C74.4021 123.485 74.525 123.415 74.6479 123.45C75.9295 123.784 78.8964 123.89 81.8809 123.556C83.8648 123.345 84.725 122.905 85.1815 122.624C85.3044 122.553 85.4624 122.624 85.4975 122.764C85.5326 122.905 85.5677 123.063 85.6028 123.204Z" fill="white"/>
<path d="M80.0022 125.226C77.9833 125.226 76.0521 125.103 75.6659 125.068C75.4903 125.068 74.5598 125.05 74.2438 124.4C74.2087 124.312 74.1736 124.224 74.1561 124.083C74.1385 123.925 74.1385 123.749 74.1736 123.573C74.1912 123.45 74.279 123.362 74.3667 123.292C74.4721 123.222 74.595 123.204 74.7003 123.239C75.8765 123.538 78.7908 123.679 81.8456 123.345C83.7241 123.134 84.5843 122.729 85.0583 122.448C85.1812 122.378 85.3217 122.36 85.4621 122.43C85.585 122.483 85.6903 122.606 85.7079 122.747L85.7957 123.169C85.7957 123.186 85.7957 123.204 85.7957 123.222C85.9186 124.03 85.1636 124.488 84.5843 124.751C83.7943 125.121 81.8631 125.226 80.0022 125.226ZM75.6659 124.628C75.6659 124.628 75.6834 124.628 75.701 124.628C78.1413 124.787 83.1096 124.945 84.4263 124.329C85.1461 123.995 85.4445 123.661 85.3743 123.274V123.257L85.3041 122.87C84.795 123.169 83.8821 123.591 81.9334 123.819C78.8259 124.171 75.859 124.013 74.6301 123.714C74.6125 123.819 74.6125 123.943 74.6125 124.048C74.6301 124.171 74.6476 124.224 74.6476 124.241C74.8056 124.558 75.385 124.628 75.6659 124.628Z" fill="#261D3F"/>
<path d="M80.7049 121.358C80.6523 121.358 80.5996 121.34 80.5645 121.305L79.5287 120.514C79.4234 120.444 79.4058 120.303 79.4936 120.197C79.5638 120.092 79.7043 120.074 79.8096 120.162L80.8454 120.953C80.9507 121.024 80.9683 121.164 80.8805 121.27C80.8278 121.323 80.7752 121.358 80.7049 121.358Z" fill="#261D3F"/>
<path d="M79.318 121.92C79.2653 121.92 79.2302 121.903 79.1775 121.868L78.2646 121.182C78.1593 121.112 78.1417 120.971 78.2119 120.865C78.2822 120.76 78.4226 120.742 78.5279 120.813L79.4408 121.498C79.5462 121.569 79.5637 121.709 79.4935 121.815C79.4584 121.885 79.3882 121.92 79.318 121.92Z" fill="#261D3F"/>
<path d="M91.3786 69.1363C91.3786 69.1363 93.3625 73.1101 94.0296 77.2948C94.6441 81.1983 96.9263 97.2339 102.492 110.105C103.124 111.564 102.386 113.076 100.841 113.428C100.227 113.569 99.9635 113.34 99.4193 113.076C99.1384 112.936 98.6819 112.549 98.6819 112.549C98.6819 112.549 88.833 104.302 84.8127 82.6752C82.232 68.7671 82.6533 69.8748 82.6533 69.8748L91.3786 69.1363Z" fill="#3E80FA"/>
<path d="M88.622 70.965C88.622 70.965 89.7807 78.5081 87.5862 84.0995C85.4794 89.4623 84.1452 110.527 84.9177 116.61C84.9703 116.997 84.707 117.349 84.3208 117.402C83.3727 117.542 81.6347 117.718 80.4584 117.49C80.2478 117.454 80.0722 117.296 80.0195 117.068C79.2471 113.973 72.7865 86.0863 77.3335 71.7914L88.622 70.965Z" fill="#3E80FA"/>
<path d="M86.4099 90.6227C86.2694 90.6227 86.1816 90.4997 86.1816 90.3766C86.1816 90.2711 86.3572 87.616 87.6563 84.5566C88.0426 83.6599 88.3059 82.6049 88.4815 81.3917C88.499 81.2686 88.6219 81.1807 88.7448 81.1983C88.8677 81.2158 88.9555 81.3213 88.9379 81.462C88.7624 82.7104 88.4815 83.8181 88.0952 84.75C86.8312 87.7215 86.6557 90.3766 86.6557 90.4117C86.6381 90.5348 86.5328 90.6227 86.4099 90.6227Z" fill="#99B9FF"/>
<path d="M83.3903 82.7807C83.0919 82.7807 82.811 82.728 82.5301 82.6049L80.4585 81.673C79.7562 81.3565 79.2998 80.6532 79.3349 79.8619L79.4578 75.7827C79.4578 75.5893 79.5456 75.3959 79.7036 75.2728C79.8616 75.1497 80.0547 75.0794 80.2478 75.097C82.7056 75.3607 84.9879 75.1145 86.1466 74.9563C86.3573 74.9211 86.568 74.9915 86.726 75.1321C86.884 75.2728 86.9717 75.4838 86.9542 75.6948L86.726 79.9674C86.6908 80.5477 86.41 81.0752 85.9359 81.4092L84.6017 82.3763C84.2506 82.6401 83.8117 82.7807 83.3903 82.7807ZM80.1776 75.5365C80.1074 75.5365 80.0547 75.5541 80.002 75.6069C79.9494 75.6596 79.9142 75.7299 79.9142 75.8003L79.7914 79.8795C79.7738 80.4773 80.1074 81.0224 80.6516 81.251L82.7232 82.1829C83.2499 82.4291 83.8819 82.3587 84.3559 82.0071L85.6902 81.04C86.0413 80.7763 86.2695 80.3719 86.2871 79.9323L86.5153 75.6596C86.5153 75.5893 86.4802 75.5014 86.4275 75.4486C86.3748 75.3959 86.2871 75.3783 86.2168 75.3783C85.0406 75.5541 82.7056 75.8003 80.1951 75.5365H80.1776Z" fill="#99B9FF"/>
<path d="M93.3621 81.8136C93.2568 81.8136 93.1339 81.7961 93.0285 81.7257L90.7463 80.5653C90.518 80.4598 90.3776 80.2312 90.36 79.985L89.8509 75.2376C89.8158 74.8508 90.0791 74.4991 90.4654 74.4288L92.6248 74.0947C92.7476 74.0771 92.8705 74.165 92.8881 74.2881C92.9056 74.4112 92.8179 74.5343 92.695 74.5519L90.5356 74.8859C90.3951 74.9035 90.2898 75.0442 90.3074 75.1849L90.8165 79.9323C90.834 80.0202 90.8867 80.1081 90.9569 80.1433L93.2392 81.3037C93.327 81.3565 93.4323 81.3389 93.5201 81.2862L94.0643 80.9169C94.1697 80.8466 94.3101 80.8817 94.3803 80.9697C94.4506 81.0752 94.4155 81.2158 94.3277 81.2862L93.7834 81.6554C93.6605 81.7609 93.5201 81.8136 93.3621 81.8136Z" fill="#99B9FF"/>
<path d="M100.859 115.854C100.56 114.342 100.42 114.026 99.7 112.848C99.1557 111.968 100.472 110.667 101.14 110.562C102.263 110.333 102.07 110.685 103.352 112.32L104.352 113.551C104.352 113.569 101.122 117.191 100.859 115.854Z" fill="white"/>
<path d="M101.157 116.382C101.104 116.382 101.069 116.382 101.016 116.364C100.893 116.329 100.7 116.224 100.63 115.907C100.367 114.571 100.279 114.219 99.7348 113.322C99.6646 113.217 99.6997 113.076 99.805 113.006C99.9103 112.936 100.051 112.971 100.121 113.076C100.7 114.043 100.788 114.43 101.069 115.802C101.087 115.872 101.104 115.907 101.122 115.907C101.508 116.013 102.912 114.782 104.036 113.551L103.211 112.549C102.842 112.074 102.614 111.705 102.403 111.371C102.333 111.265 102.368 111.124 102.474 111.054C102.579 110.984 102.719 111.019 102.79 111.125C102.983 111.459 103.211 111.81 103.562 112.25L104.51 113.41C104.58 113.498 104.58 113.621 104.51 113.709C103.948 114.36 102.087 116.382 101.157 116.382Z" fill="#261D3F"/>
<path d="M100.683 115.292L101.982 113.34C102.579 112.426 103.878 112.285 104.65 113.059L106.125 114.307C106.125 114.307 106.406 115.169 106.318 115.714C106.195 116.435 105.967 117.454 105.528 118.474C104.843 120.039 102.93 123.186 102.263 124.277C102.122 124.505 101.771 124.734 101.525 124.628C101.227 124.505 100.928 124.259 100.63 123.978C100.174 123.556 100.332 121.551 100.49 120.162C100.595 119.265 100.525 116.997 100.472 116.048C100.454 115.784 100.542 115.52 100.683 115.292Z" fill="#3E80FA"/>
<path d="M101.666 124.874C101.579 124.874 101.508 124.857 101.42 124.822C101.14 124.699 100.824 124.47 100.472 124.136C100.209 123.89 99.8931 123.204 100.262 120.127C100.367 119.248 100.279 116.98 100.244 116.048C100.227 115.731 100.314 115.415 100.49 115.151L101.789 113.199C102.123 112.707 102.632 112.39 103.229 112.32C103.808 112.25 104.387 112.461 104.809 112.865L106.336 114.149L106.354 114.202C106.371 114.237 106.652 115.116 106.547 115.714C106.424 116.417 106.196 117.472 105.739 118.527C105.055 120.074 103.211 123.134 102.456 124.365C102.316 124.628 101.982 124.874 101.666 124.874ZM100.876 115.415C100.753 115.608 100.683 115.819 100.701 116.048C100.736 116.997 100.824 119.283 100.718 120.197C100.367 123.169 100.683 123.732 100.788 123.819C101.104 124.118 101.385 124.312 101.614 124.417C101.719 124.47 101.965 124.329 102.07 124.154C102.667 123.186 104.633 119.951 105.318 118.369C105.757 117.366 105.985 116.347 106.09 115.661C106.143 115.292 106.003 114.694 105.932 114.43L104.493 113.217C104.177 112.9 103.72 112.742 103.281 112.795C102.825 112.848 102.421 113.094 102.175 113.463L100.876 115.415Z" fill="#261D3F"/>
<path d="M100.525 117.753C100.42 117.753 100.332 117.683 100.315 117.577C100.28 117.454 100.35 117.331 100.473 117.296L101.86 116.909C101.983 116.874 102.105 116.944 102.141 117.068C102.176 117.191 102.105 117.314 101.983 117.349L100.596 117.736C100.578 117.753 100.543 117.753 100.525 117.753Z" fill="#261D3F"/>
<path d="M100.631 119.002C100.525 119.002 100.438 118.931 100.42 118.826C100.385 118.703 100.455 118.58 100.578 118.545L101.965 118.158C102.088 118.123 102.211 118.193 102.246 118.316C102.281 118.439 102.211 118.562 102.088 118.597L100.701 118.984C100.666 118.984 100.648 119.002 100.631 119.002Z" fill="#261D3F"/>
<path d="M102.053 124.734C101.912 124.734 101.772 124.716 101.649 124.663C101.227 124.523 100.192 124.206 100.315 122.712C100.437 121.164 101.614 120.373 102.474 119.353C103.123 118.58 103.071 115.327 103.264 114.694C103.633 113.551 105.3 113.393 106.126 114.289C106.652 114.852 106.722 116.1 106.67 116.997C106.582 118.703 105.581 122.096 104.317 123.732C103.685 124.54 102.737 124.734 102.053 124.734Z" fill="white"/>
<path d="M102.052 124.962C101.894 124.962 101.736 124.945 101.578 124.892L101.543 124.874C101.104 124.734 99.9633 124.329 100.086 122.712C100.192 121.446 100.946 120.654 101.684 119.898C101.894 119.687 102.105 119.459 102.298 119.23C102.685 118.773 102.807 117.138 102.878 116.065C102.93 115.415 102.965 114.905 103.036 114.659C103.211 114.096 103.685 113.709 104.3 113.569C105.019 113.41 105.792 113.639 106.283 114.166C106.915 114.834 106.933 116.259 106.88 117.05C106.793 118.703 105.809 122.184 104.475 123.907C103.773 124.822 102.649 124.962 102.052 124.962ZM104.774 113.955C104.651 113.955 104.528 113.973 104.423 113.991C103.966 114.096 103.633 114.377 103.492 114.782C103.422 114.975 103.387 115.503 103.352 116.083C103.264 117.366 103.141 118.949 102.649 119.512C102.439 119.758 102.228 119.986 102.017 120.197C101.315 120.936 100.648 121.622 100.56 122.729C100.455 124.013 101.28 124.277 101.701 124.435L101.736 124.452C101.842 124.488 101.947 124.505 102.07 124.505C102.579 124.505 103.545 124.382 104.142 123.608C105.423 121.956 106.371 118.597 106.459 116.997C106.529 115.784 106.354 114.852 105.985 114.448C105.669 114.131 105.213 113.955 104.774 113.955Z" fill="#261D3F"/>
<path d="M102.052 124.962C101.649 124.962 101.298 124.804 101.052 124.54C100.841 124.294 100.753 123.978 100.806 123.644C101.034 122.008 101.912 121.164 102.842 120.268C103.545 119.599 103.72 117.191 103.808 116.03C103.843 115.591 103.861 115.38 103.896 115.274C104.036 114.764 104.668 114.307 105.318 114.237C105.932 114.166 106.441 114.448 106.74 114.993C106.793 115.098 106.757 115.239 106.652 115.309C106.547 115.362 106.406 115.327 106.336 115.221C106.073 114.729 105.669 114.676 105.37 114.711C104.861 114.764 104.405 115.133 104.335 115.415C104.317 115.485 104.3 115.784 104.264 116.083C104.159 117.384 103.966 119.828 103.158 120.619C102.246 121.498 101.456 122.255 101.245 123.731C101.21 123.942 101.262 124.118 101.385 124.259C101.526 124.435 101.772 124.523 102.035 124.523C102.193 124.523 102.333 124.505 102.491 124.488C102.614 124.47 102.737 124.558 102.755 124.681C102.772 124.804 102.684 124.927 102.562 124.945C102.404 124.945 102.228 124.962 102.052 124.962Z" fill="#261D3F"/>
<path d="M99.1382 72.7233C99.1382 72.7233 100.929 72.2485 101.403 72.6529C101.526 72.7584 101.14 75.097 101.262 75.22C101.877 75.7827 102.825 76.5036 103.036 77.0311C103.352 77.8399 102.983 80.196 102.79 81.251C102.685 81.7961 101.93 81.884 101.719 81.3741C101.666 81.2334 101.631 81.04 101.649 80.8114C101.701 79.9499 101.631 79.3345 101.561 79.0356C101.543 78.8949 101.456 78.7894 101.35 78.7015C100.841 78.3147 99.2435 77.0838 99.0153 76.1519C98.9802 76.0289 99.0504 75.7475 99.1207 75.519C99.1909 75.308 99.2084 75.0794 99.2084 74.8508L99.1382 72.7233Z" fill="white"/>
<path d="M102.211 81.9543C101.894 81.9543 101.614 81.7785 101.491 81.4796C101.42 81.3038 101.385 81.0752 101.403 80.8114C101.456 79.9675 101.385 79.3696 101.333 79.0883C101.315 79.018 101.28 78.9476 101.21 78.8949C100.56 78.4202 99.0329 77.1893 98.7871 76.2223C98.7695 76.1344 98.752 75.9585 98.8924 75.4662C98.9451 75.2728 98.9802 75.0618 98.9627 74.8684L98.8924 72.7408C98.8924 72.6353 98.9627 72.5474 99.068 72.5123C99.384 72.4243 100.999 72.0375 101.526 72.4947C101.666 72.6178 101.666 72.7584 101.526 73.9365C101.491 74.3409 101.42 74.9211 101.438 75.1145C101.561 75.2376 101.701 75.3431 101.842 75.4662C102.421 75.9761 103.036 76.5036 103.211 76.9608C103.545 77.8047 103.194 80.0554 102.965 81.3038C102.895 81.6554 102.614 81.9192 102.263 81.9543C102.263 81.9543 102.228 81.9543 102.211 81.9543ZM99.3664 72.8991L99.4367 74.8508C99.4367 75.097 99.4191 75.3607 99.3313 75.5893C99.2084 75.9937 99.226 76.0992 99.226 76.0992C99.4016 76.7673 100.508 77.7872 101.473 78.5081C101.631 78.6311 101.736 78.7894 101.772 78.9828C101.824 79.2817 101.912 79.9323 101.859 80.8114C101.842 81.0049 101.859 81.1631 101.912 81.2862C102 81.4972 102.193 81.4796 102.246 81.4796C102.369 81.462 102.509 81.3917 102.544 81.1983C102.913 79.1586 103.018 77.6289 102.807 77.1014C102.667 76.7498 102.053 76.2223 101.561 75.7827C101.403 75.642 101.227 75.5014 101.087 75.3783C100.946 75.2552 100.946 75.0794 101.087 73.8662C101.122 73.4793 101.175 72.9694 101.175 72.7936C100.876 72.6529 99.9985 72.7584 99.3664 72.8991Z" fill="#261D3F"/>
<path d="M62.7276 44.4674L61.8849 43.6586C61.2528 43.1311 61.0246 41.953 61.0246 41.953C60.9193 41.5134 60.6559 41.1266 60.3048 40.8453L56.7585 38.0848C56.5303 37.9089 56.1792 38.032 56.1265 38.3309C56.0738 38.6122 56.1441 38.9991 56.583 39.3859L57.531 40.1595C57.7065 40.3002 57.7417 40.5288 57.6363 40.7222C57.4432 41.0739 57.1974 41.6717 57.373 42.3398C57.7768 43.8168 59.5324 44.3267 59.9713 44.4322C60.0415 44.4498 61.1826 46.1905 61.1826 46.1905L62.7276 44.4674Z" fill="white"/>
<path d="M61.1823 46.4015C61.1647 46.4015 61.1647 46.4015 61.1823 46.4015C61.0945 46.4015 61.0243 46.3663 60.9892 46.296C60.5151 45.5927 59.9885 44.819 59.848 44.6256C59.2336 44.4674 57.5482 43.9047 57.1444 42.375C56.9513 41.6541 57.1971 41.0035 57.4429 40.5815C57.4955 40.4936 57.478 40.3705 57.3902 40.3002L56.4422 39.5266C55.8979 39.0342 55.8453 38.5595 55.8979 38.243C55.933 38.032 56.0735 37.8562 56.2842 37.7683C56.4948 37.6804 56.7231 37.7155 56.8986 37.8562L60.4449 40.6167C60.8487 40.9332 61.1296 41.3728 61.2525 41.8475C61.2525 41.8651 61.4807 42.9552 62.0425 43.43L62.9028 44.2564C62.9905 44.3443 62.9905 44.485 62.9203 44.5729L61.3578 46.2784C61.3052 46.3839 61.2349 46.4015 61.1823 46.4015ZM56.4948 38.2078C56.4597 38.2078 56.4422 38.2078 56.4246 38.2254C56.4071 38.243 56.3368 38.2606 56.3193 38.3485C56.2666 38.6474 56.4071 38.9287 56.7055 39.2101L57.636 39.9837C57.8818 40.1947 57.952 40.5464 57.794 40.8453C57.6009 41.1794 57.3902 41.7069 57.5482 42.2871C57.9169 43.6586 59.6373 44.1333 59.9885 44.2212C60.0938 44.2388 60.1289 44.2564 61.1823 45.8213L62.3936 44.485L61.7089 43.8168C61.0418 43.2542 60.796 42.0409 60.7785 42.0058C60.6907 41.6189 60.4625 41.2673 60.1289 41.0211L56.5826 38.2606C56.5651 38.2254 56.5299 38.2078 56.4948 38.2078Z" fill="#261D3F"/>
<path d="M60.2163 45.2059L62.1825 43.2366C62.3756 43.1311 62.5863 43.1838 62.7443 43.3245C67.2035 47.6323 70.5918 47.1576 74.1557 46.2608C74.1557 46.2608 77.8073 45.3993 78.8256 45.3114C79.598 45.241 81.617 44.7311 86.3922 45.2586C88.2356 45.4696 90.0438 46.0323 91.6765 46.929L91.9223 47.0697C91.9223 47.0697 105.388 55.5271 102.105 73.7958C102.07 74.0068 101.894 74.1651 101.683 74.1651H98.9798C98.7516 74.1651 98.576 73.9716 98.5585 73.7431C98.4356 71.8441 97.6982 63.668 93.9061 59.1492C93.4848 58.6569 92.6772 58.7975 92.4841 59.4129C92.1856 60.38 92.0979 62.4372 92.9054 66.7626C92.923 66.8857 93.9237 72.0024 93.9237 72.0024C93.9237 72.0024 83.3901 73.8134 79.7034 73.1452C76.8066 72.6178 75.9288 71.9144 75.6831 71.6331C75.6304 71.5628 75.6128 71.4924 75.6128 71.4045L76.0342 67.6769C76.1922 66.323 76.5608 63.8087 76.122 60.591C75.5075 56.1777 72.8741 56.2656 72.8741 56.2656C69.5209 56.0546 63.4817 56.7579 60.0056 45.7334C59.9354 45.5399 60.0231 45.3114 60.2163 45.2059Z" fill="#261D3F"/>
<path d="M77.9835 35.9045C77.9835 35.9045 77.3339 36.8891 77.3163 37.6979C77.3163 37.9089 77.2286 38.5947 76.7019 39.3507C76.6492 39.4211 76.6668 39.5266 76.737 39.5793L77.2461 40.0189C77.2812 40.0541 77.2988 40.0892 77.2988 40.142C77.2988 40.4233 77.3163 41.4783 77.369 41.6717C77.4041 41.9003 77.5972 42.0937 77.685 42.1464C77.9308 42.2695 78.9666 42.1289 78.9666 42.1289C78.9666 42.1289 79.2475 42.1464 79.8093 43.6234C80.4238 45.2235 79.1948 45.8389 79.1948 45.8389C78.7384 46.085 78.8086 46.5422 79.3177 46.7004C81.0382 47.2279 84.3914 47.8082 86.3226 46.3312C86.6912 46.0499 86.5332 45.7685 86.2172 45.6982C81.5824 44.6608 83.7243 39.8079 83.6365 39.7727C83.3907 39.7024 81.9511 38.2254 81.126 37.821C80.5642 37.5397 79.8795 37.9617 79.4055 37.5397L77.9835 35.9045Z" fill="white"/>
<path d="M82.9346 47.5093C81.2492 47.5093 79.7043 47.0697 79.2303 46.929C78.8967 46.8235 78.6861 46.5949 78.6509 46.3312C78.6334 46.0674 78.7914 45.8213 79.0723 45.663C79.125 45.6455 80.1081 45.1004 79.5814 43.7289C79.2127 42.7618 78.9845 42.4629 78.8967 42.3926C78.5281 42.4454 77.8258 42.5157 77.5625 42.375C77.422 42.3047 77.1762 42.0409 77.1236 41.742C77.0885 41.5486 77.0709 40.7046 77.0534 40.1947L76.5618 39.7727C76.4038 39.6321 76.3862 39.4035 76.4916 39.2452C77.0007 38.5068 77.0534 37.8386 77.0534 37.7155C77.0885 36.854 77.738 35.8517 77.7556 35.799C77.7907 35.7462 77.8609 35.6935 77.9311 35.6935C78.0014 35.6935 78.0716 35.7111 78.1243 35.7638L79.5463 37.3814C79.7219 37.5397 79.9325 37.5221 80.2661 37.5045C80.547 37.4869 80.8806 37.4694 81.1966 37.6276C81.7057 37.8914 82.4079 38.5068 82.9697 38.9991C83.2506 39.2452 83.5842 39.5442 83.6719 39.5793C83.7246 39.5969 83.7773 39.6321 83.7948 39.6848C83.8475 39.7903 83.83 39.8431 83.7597 40.0892C83.5842 40.7046 83.0224 42.586 83.8475 43.9751C84.2864 44.7311 85.094 45.241 86.2351 45.5048C86.4809 45.5575 86.674 45.7334 86.7091 45.9268C86.7442 46.0499 86.7267 46.296 86.4107 46.5422C85.4802 47.2631 84.1811 47.5093 82.9346 47.5093ZM78.967 41.9179H78.9845C79.2654 41.9354 79.6165 42.4981 80.0203 43.5707C80.6874 45.329 79.3181 46.0674 79.3005 46.0674C79.1776 46.1378 79.1074 46.2081 79.125 46.296C79.125 46.3839 79.2303 46.4543 79.3883 46.507C80.1432 46.7356 84.0231 47.8082 86.2 46.1729C86.3053 46.085 86.3229 46.0323 86.3229 46.0147C86.3229 45.9971 86.2878 45.962 86.1824 45.9268C84.9184 45.6455 84.0231 45.0652 83.5139 44.1861C82.601 42.6212 83.1979 40.5991 83.3911 39.931C83.3911 39.9134 83.4086 39.8958 83.4086 39.8782C83.2682 39.7727 83.075 39.6145 82.7415 39.3156C82.2324 38.8584 81.5301 38.243 81.0561 38.0144C80.8454 37.9089 80.6172 37.9265 80.3539 37.9441C80.0028 37.9617 79.6165 37.9969 79.283 37.6804L79.2654 37.6628L78.054 36.2737C77.8785 36.6078 77.5976 37.188 77.58 37.6979C77.58 37.9089 77.5098 38.6123 76.9656 39.4387L77.4396 39.8431C77.5274 39.9134 77.58 40.0189 77.58 40.1244C77.5976 40.9156 77.6151 41.5135 77.6327 41.6189C77.6678 41.7772 77.7907 41.9179 77.8434 41.9354C77.9487 41.9882 78.4754 41.9706 78.9845 41.9003C78.9494 41.9179 78.9494 41.9179 78.967 41.9179Z" fill="#261D3F"/>
<path d="M76.7545 39.4562C76.7545 39.4562 76.7369 39.4562 76.7545 39.4562C76.5087 39.4387 76.298 39.3332 76.1576 39.1573C75.7713 38.6474 75.9293 37.6804 75.9644 37.5749C75.982 37.4518 76.1049 37.3815 76.2278 37.399L79.8619 37.9265C79.9847 37.9441 80.0725 38.0672 80.055 38.1903C80.0374 38.3134 79.9145 38.4013 79.7916 38.3837L76.3858 37.8914C76.3507 38.1903 76.3507 38.665 76.5262 38.8936C76.5964 38.9815 76.6667 39.0167 76.772 39.0167C76.8949 39.0167 77.0002 39.1398 76.9827 39.2628C76.9651 39.3683 76.8773 39.4562 76.7545 39.4562Z" fill="#261D3F"/>
<path d="M79.8439 39.8607C79.721 39.8607 79.6157 39.8431 79.5279 39.8255C79.405 39.7903 79.3348 39.6672 79.3699 39.5442C79.405 39.4211 79.5279 39.3507 79.6508 39.3859C79.721 39.4035 80.3179 39.5442 80.5812 38.8408C80.6866 38.5771 80.669 38.3837 80.5286 38.2782C80.4057 38.1903 80.1599 38.1727 79.9492 38.3485C79.9141 38.3837 79.8088 38.5243 79.7386 38.6123C79.6683 38.7178 79.5279 38.7529 79.4226 38.6826C79.3172 38.6123 79.2821 38.4716 79.3523 38.3661C79.3874 38.2958 79.5454 38.0672 79.6683 37.9617C80.0195 37.6804 80.4935 37.6628 80.8095 37.8914C81.1079 38.1199 81.1957 38.5243 81.0026 38.9815C80.7392 39.6848 80.2301 39.8607 79.8439 39.8607Z" fill="#261D3F"/>
<path d="M76.6311 33.4956C76.9647 32.9329 77.3158 32.4406 78.4043 32.212C79.1592 32.0538 80.3881 32.5989 81.0025 33.2319C81.0552 33.2846 81.1254 33.2846 81.1781 33.2319C81.301 33.0736 81.617 32.6868 81.8803 32.6516C82.6704 32.5461 83.4955 33.5659 83.7764 34.0934C83.9871 34.4802 84.3557 35.3418 84.5488 36.344C84.5664 36.4144 84.6191 36.4495 84.6893 36.4495C84.9351 36.432 85.4091 36.4144 85.8304 36.7309C86.5853 37.2759 86.5151 38.1023 86.5151 38.2078C86.4273 39.3683 85.2511 40.2475 84.3557 40.7222C83.7413 41.0387 83.5306 41.0915 83.1619 41.1794C83.1444 41.1794 83.1268 41.1794 83.0917 41.1794C82.7757 41.2321 82.2315 41.2673 81.6346 41.0563C80.669 40.7398 80.7392 39.1573 80.7392 39.1573L80.8621 38.8584C80.9323 38.6826 80.9323 38.4716 80.8621 38.2958C80.6339 37.7507 79.8087 38.1727 79.7736 38.1727C78.2111 37.8738 77.6494 37.4166 77.3685 37.1001C76.3151 35.9748 75.8235 34.8495 76.6311 33.4956Z" fill="#261D3F"/>
</g>
<defs>
<clipPath id="clip0_6583_24666">
<rect width="125.385" height="130" fill="white" transform="translate(0.807739)"/>
</clipPath>
</defs>
</svg>
