<svg width="121" height="130" viewBox="0 0 121 130" fill="none" xmlns="http://www.w3.org/2000/svg">
<g clip-path="url(#clip0_6583_23175)">
<path d="M26.2799 9.80205L26.8582 11.1177L28.4051 10.8141C28.5931 11.0887 28.7955 11.349 29.0268 11.5947L28.4051 13.026L29.5617 13.879L30.7472 12.8525C31.0508 12.9971 31.3544 13.1272 31.6725 13.214L31.8459 14.7754L33.2772 14.9344L33.7832 13.4453C34.1157 13.4164 34.4483 13.373 34.7663 13.2863L35.706 14.544L37.0217 13.9657L36.7181 12.4188C36.9927 12.2309 37.253 12.0285 37.4988 11.7972L38.93 12.4188L39.783 11.2622L38.7565 10.0767C38.9011 9.77313 39.0312 9.46953 39.118 9.15147L40.6794 8.97798L40.8384 7.54671L39.3493 7.0407C39.3204 6.70818 39.277 6.37567 39.1903 6.05761L40.448 5.11788L39.8697 3.80227L38.3228 4.10587C38.1349 3.83118 37.9325 3.57095 37.7012 3.32518L38.3228 1.89391L37.1662 1.04093L35.9807 2.06739C35.6771 1.92282 35.3735 1.7927 35.0555 1.70596L34.882 0.144573L33.4796 0L32.9736 1.4891C32.6411 1.51802 32.3086 1.56139 31.9905 1.64813L31.0508 0.390347L29.7352 0.968639L30.0388 2.51557C29.7641 2.70351 29.5039 2.90592 29.2581 3.13723L27.8268 2.51557L26.9738 3.67215L28.0003 4.85765C27.8557 5.16125 27.7256 5.46486 27.6389 5.78292L26.0775 5.95641L25.9185 7.38768L27.4076 7.89368C27.4365 8.2262 27.4798 8.55872 27.5666 8.87678L26.2799 9.80205ZM31.8893 4.07696C33.7543 3.25289 35.9374 4.10587 36.7614 5.97086C37.5855 7.83585 36.7325 10.0189 34.8675 10.843C33.0025 11.667 30.8195 10.8141 29.9954 8.94907C29.1713 7.08407 30.0243 4.90102 31.8893 4.07696Z" fill="#3E80FA"/>
<path d="M33.9423 15.4115C33.9279 15.4115 33.9279 15.4115 33.9134 15.4115L32.4821 15.2525C32.3809 15.238 32.3086 15.1657 32.2942 15.0645L32.1351 13.6477C31.9038 13.5754 31.6581 13.4742 31.4412 13.373L30.3569 14.3127C30.2846 14.385 30.169 14.385 30.0822 14.3272L28.9256 13.4742C28.8389 13.4164 28.81 13.3007 28.8533 13.214L29.4172 11.9128C29.2581 11.7249 29.0991 11.5369 28.9545 11.3345L27.5522 11.6092C27.451 11.6237 27.3498 11.5803 27.3064 11.4791L26.7281 10.1635C26.6847 10.0768 26.7137 9.9611 26.8004 9.90327L27.9425 9.05029C27.8847 8.80452 27.8558 8.55874 27.8269 8.31297L26.4823 7.85034C26.3811 7.82142 26.3233 7.72022 26.3378 7.61902L26.4968 6.18775C26.5113 6.08655 26.5835 6.01426 26.6847 5.9998L28.1016 5.84077C28.1738 5.60946 28.275 5.36368 28.3762 5.14682L27.4365 4.06253C27.3642 3.99024 27.3642 3.87458 27.4221 3.78784L28.275 2.63125C28.3329 2.54451 28.4485 2.51559 28.5353 2.55897L29.8364 3.1228C30.0244 2.96377 30.2123 2.80474 30.4147 2.66017L30.14 1.25781C30.1256 1.15661 30.169 1.05541 30.2702 1.01204L31.5858 0.433744C31.6725 0.390372 31.7882 0.419287 31.846 0.506031L32.699 1.64816C32.9448 1.59033 33.1905 1.56141 33.4363 1.5325L33.8989 0.18797C33.9279 0.086769 34.0291 0.0289398 34.1303 0.0433971L35.5615 0.202427C35.6627 0.216885 35.735 0.289171 35.7495 0.390372L35.9085 1.80719C36.1398 1.87947 36.3856 1.98067 36.6024 2.08188L37.6867 1.14215C37.759 1.06987 37.8747 1.06987 37.9614 1.12769L39.118 1.98067C39.2048 2.0385 39.2337 2.15416 39.1903 2.24091L38.6265 3.54206C38.7855 3.73001 38.9445 3.91795 39.0891 4.12035L40.4915 3.84567C40.5927 3.83121 40.6939 3.87458 40.7372 3.97578L41.3155 5.2914C41.3589 5.37814 41.33 5.4938 41.2432 5.55163L40.1011 6.40461C40.1589 6.65038 40.1879 6.89616 40.2168 7.14193L41.5613 7.60456C41.6625 7.63348 41.7203 7.73468 41.7059 7.83588L41.5468 9.26715C41.5324 9.36835 41.4601 9.44064 41.3589 9.4551L39.9421 9.61413C39.8698 9.84544 39.7686 10.0912 39.6674 10.3081L40.6071 11.3924C40.6794 11.4647 40.6794 11.5803 40.6216 11.6671L39.7686 12.8236C39.7108 12.9104 39.5951 12.9393 39.5084 12.8959L38.2072 12.3321C38.0193 12.4911 37.8313 12.6502 37.6289 12.7947L37.9036 14.1971C37.9181 14.2983 37.8747 14.3995 37.7735 14.4429L36.4579 15.0212C36.3711 15.0645 36.2555 15.0356 36.1976 14.9489L35.3447 13.8067C35.0989 13.8646 34.8531 13.8935 34.6073 13.9224L34.1447 15.2669C34.1158 15.3537 34.0291 15.4115 33.9423 15.4115ZM32.7134 14.8332L33.7977 14.9489L34.2459 13.6333C34.2748 13.5465 34.3471 13.4887 34.4339 13.4887C34.7519 13.4598 35.07 13.4164 35.388 13.3441C35.4748 13.3297 35.5615 13.3586 35.6194 13.4309L36.4434 14.5585L37.441 14.1248L37.1807 12.7514C37.1663 12.6646 37.1952 12.5779 37.2675 12.5345C37.5422 12.3466 37.788 12.1442 38.0193 11.9273C38.0771 11.8695 38.1783 11.855 38.2506 11.8839L39.5228 12.4478L40.1734 11.5659L39.2626 10.5105C39.2048 10.4382 39.1903 10.3514 39.2337 10.2792C39.3783 9.99002 39.4939 9.68641 39.5807 9.38281C39.6096 9.29607 39.6819 9.23824 39.7686 9.22378L41.1565 9.06475L41.2722 7.98045L39.9565 7.53228C39.8698 7.50336 39.812 7.43108 39.812 7.34433C39.7831 7.02627 39.7397 6.70821 39.6674 6.39015C39.6529 6.30341 39.6819 6.21666 39.7541 6.15883L40.8818 5.33477L40.4481 4.33721L39.0746 4.59745C38.9879 4.6119 38.9012 4.58299 38.8578 4.5107C38.6698 4.23601 38.4674 3.99024 38.2506 3.75892C38.1928 3.70109 38.1783 3.59989 38.2072 3.52761L38.771 2.25536L37.8891 1.60479L36.8338 2.51559C36.7615 2.57342 36.6747 2.58788 36.6024 2.54451C36.3133 2.39994 36.0097 2.28428 35.7061 2.19753C35.6194 2.16862 35.5615 2.09633 35.5471 2.00959L35.388 0.621689L34.3037 0.506031L33.8556 1.82164C33.8266 1.90839 33.7544 1.96622 33.6676 1.96622C33.3496 1.99513 33.0315 2.0385 32.7134 2.11079C32.6267 2.12525 32.5399 2.09633 32.4821 2.02405L31.6291 0.896378L30.6316 1.3301L30.8918 2.70354C30.9063 2.79028 30.8774 2.87703 30.8051 2.9204C30.5304 3.10834 30.2846 3.31075 30.0533 3.52761C29.9955 3.58543 29.8943 3.59989 29.822 3.57098L28.5497 3.00714L27.8992 3.88904L28.81 4.94442C28.8678 5.01671 28.8823 5.10345 28.8389 5.17574C28.6943 5.46488 28.5787 5.76849 28.4919 6.07209C28.463 6.15883 28.3907 6.21666 28.304 6.23112L26.9161 6.39015L26.8004 7.47445L28.116 7.92262C28.2028 7.95154 28.2606 8.02382 28.2606 8.11057C28.2895 8.42863 28.3329 8.74669 28.4052 9.06475C28.4196 9.15149 28.3907 9.23824 28.3184 9.29607L27.1908 10.1201L27.6245 11.1177L28.9979 10.8575C29.0847 10.843 29.1714 10.8719 29.2148 10.9442C29.4027 11.2189 29.6051 11.4647 29.822 11.696C29.8798 11.7538 29.8943 11.855 29.8654 11.9273L29.3015 13.1995L30.1834 13.8501L31.2388 12.9393C31.3111 12.8815 31.3978 12.867 31.4701 12.9104C31.7593 13.055 32.0629 13.1706 32.3665 13.2574C32.4532 13.2863 32.511 13.3586 32.5255 13.4453L32.7134 14.8332ZM34.0435 11.6381C32.5399 11.6381 31.0942 10.7707 30.4581 9.29607C30.0388 8.34189 30.0099 7.27204 30.3858 6.30341C30.7617 5.33477 31.499 4.55407 32.4532 4.13481C33.4074 3.71555 34.4772 3.68664 35.4459 4.06253C36.4145 4.43842 37.1952 5.17574 37.6145 6.12992C38.4819 8.11057 37.5855 10.4237 35.6049 11.2912C35.0989 11.5369 34.564 11.6381 34.0435 11.6381ZM34.0291 4.23601C33.552 4.23601 33.0749 4.33721 32.6267 4.53962C31.7737 4.91551 31.1231 5.595 30.7762 6.46244C30.4436 7.32987 30.4581 8.2696 30.834 9.12258C31.6002 10.8864 33.6676 11.6815 35.417 10.9008C37.1807 10.1346 37.9759 8.0672 37.1952 6.31786C36.8193 5.46488 36.1398 4.8143 35.2724 4.48179C34.8965 4.32276 34.4628 4.23601 34.0291 4.23601Z" fill="#261D3F"/>
<path d="M5.18641 27.1942L6.16951 29.4495L8.80074 28.9291C9.1188 29.4062 9.48023 29.8543 9.87058 30.2736L8.80074 32.7313L10.7814 34.1915L12.8054 32.4277C13.3259 32.6735 13.8463 32.8904 14.3957 33.0494L14.6993 35.724L17.1426 35.9987L18.01 33.4686C18.5739 33.4253 19.1377 33.3385 19.7015 33.2084L21.2918 35.3626L23.5472 34.3795L23.0267 31.7482C23.5038 31.4302 23.952 31.0687 24.3712 30.6784L26.829 31.7482L28.2892 29.7676L26.5254 27.7436C26.7712 27.2231 26.988 26.7026 27.147 26.1533L29.8216 25.8497L30.0963 23.4064L27.5663 22.5389C27.5229 21.9751 27.4362 21.4113 27.3061 20.8474L29.4602 19.2571L28.4771 17.0018L25.8459 17.5223C25.5278 17.0452 25.1664 16.597 24.7761 16.1777L25.8459 13.72L23.8652 12.2598L21.8412 14.0236C21.3208 13.7778 20.8003 13.561 20.2509 13.4019L19.9473 10.7273L17.504 10.4526L16.6366 12.9827C16.0728 13.026 15.5089 13.1128 14.9451 13.2429L13.3548 11.0888L11.0994 12.0719L11.6199 14.7031C11.1428 15.0211 10.6946 15.3826 10.2754 15.7729L7.81764 14.7031L6.35745 16.6837L8.12125 18.7078C7.87547 19.2282 7.65861 19.7487 7.49958 20.2981L4.82498 20.6017L4.55029 23.0449L7.08032 23.9124C7.12369 24.4762 7.21044 25.04 7.34055 25.6039L5.18641 27.1942ZM14.7861 17.4066C17.9811 16.0042 21.7256 17.45 23.1279 20.645C24.5303 23.8401 23.0845 27.5845 19.8895 28.9869C16.6944 30.3892 12.95 28.9435 11.5476 25.7485C10.1453 22.5534 11.5765 18.809 14.7861 17.4066Z" fill="#3E80FA"/>
<path d="M18.2988 36.6348C18.2843 36.6348 18.2843 36.6348 18.2699 36.6348L15.8266 36.3601C15.7254 36.3456 15.6531 36.2733 15.6386 36.1721L15.3495 33.6421C14.8869 33.4975 14.4242 33.3241 13.9905 33.1072L12.0677 34.7842C11.9954 34.8565 11.8797 34.8565 11.793 34.7987L9.81234 33.3385C9.7256 33.2807 9.69668 33.165 9.74005 33.0783L10.7521 30.7507C10.4195 30.4037 10.1159 30.0133 9.84126 29.6085L7.34014 30.1001C7.23894 30.1145 7.13774 30.0712 7.09437 29.97L6.11127 27.7146C6.0679 27.6279 6.09682 27.5122 6.18356 27.4544L8.22204 25.9364C8.10638 25.4593 8.03409 24.9677 7.99072 24.4906L5.60527 23.681C5.50407 23.6521 5.44624 23.5509 5.46069 23.4497L5.73538 21.0064C5.74984 20.9052 5.82213 20.833 5.92333 20.8185L8.45335 20.5293C8.59793 20.0667 8.77142 19.6041 8.98827 19.1704L7.31123 17.2475C7.23894 17.1753 7.23894 17.0596 7.29677 16.9729L8.75696 14.9922C8.81479 14.9055 8.93045 14.8765 9.01719 14.9199L11.3448 15.9319C11.6918 15.5994 12.0821 15.2958 12.4869 15.0211L11.9954 12.52C11.9809 12.4188 12.0243 12.3176 12.1255 12.2742L14.3808 11.2911C14.4676 11.2478 14.5832 11.2767 14.6411 11.3634L16.1591 13.4019C16.6362 13.2862 17.1277 13.214 17.6048 13.1706L18.4289 10.7707C18.4578 10.6695 18.559 10.6116 18.6602 10.6261L21.1035 10.9008C21.2047 10.9152 21.277 10.9875 21.2914 11.0887L21.5806 13.6188C22.0432 13.7633 22.5058 13.9368 22.9396 14.1537L24.8624 12.4766C24.9347 12.4043 25.0503 12.4043 25.1371 12.4622L27.1177 13.9224C27.2045 13.9802 27.2334 14.0959 27.19 14.1826L26.178 16.5102C26.5105 16.8572 26.8141 17.2475 27.0888 17.6523L29.5899 17.1608C29.6911 17.1463 29.7923 17.1897 29.8357 17.2909L30.8188 19.5463C30.8622 19.633 30.8332 19.7487 30.7465 19.8065L28.708 21.3245C28.8237 21.8016 28.896 22.2931 28.9393 22.7702L31.3393 23.5943C31.4405 23.6232 31.4983 23.7244 31.4838 23.8256L31.2091 26.2689C31.1947 26.3701 31.1224 26.4424 31.0212 26.4568L28.4912 26.746C28.3466 27.2086 28.1731 27.6713 27.9562 28.105L29.6333 30.0278C29.7056 30.1001 29.7056 30.2157 29.6478 30.3025L28.1586 32.2831C28.1008 32.3699 27.9852 32.3988 27.8984 32.3554L25.5708 31.3434C25.2238 31.6759 24.8335 31.9795 24.4287 32.2542L24.9202 34.7553C24.9347 34.8565 24.8913 34.9577 24.7901 35.0011L22.5348 35.9842C22.448 36.0276 22.3324 35.9987 22.2745 35.9119L20.7565 33.8734C20.2794 33.9891 19.7879 34.0614 19.3108 34.1047L18.4867 36.5047C18.4723 36.5769 18.3855 36.6348 18.2988 36.6348ZM16.0434 35.9553L18.1397 36.1866L18.9494 33.8156C18.9783 33.7289 19.0506 33.671 19.1373 33.671C19.6867 33.6277 20.2505 33.5409 20.7999 33.4108C20.8866 33.3963 20.9734 33.4253 21.0312 33.4975L22.5203 35.5216L24.4576 34.6686L23.9805 32.1964C23.966 32.1096 23.9949 32.0229 24.0672 31.9795C24.5299 31.6615 24.978 31.3145 25.3828 30.9386C25.4407 30.8808 25.5419 30.8663 25.6142 30.8952L27.9129 31.8928L29.1562 30.1868L27.5081 28.2929C27.4502 28.2206 27.4358 28.1339 27.4792 28.0616C27.7249 27.5556 27.9273 27.0351 28.0864 26.5002C28.1153 26.4135 28.1876 26.3556 28.2743 26.3412L30.7754 26.052L31.0067 23.9557L28.6357 23.1461C28.549 23.1172 28.4912 23.0449 28.4912 22.9582C28.4478 22.4088 28.3611 21.845 28.2309 21.2956C28.2165 21.2088 28.2454 21.1221 28.3177 21.0643L30.3417 19.5752L29.4887 17.6379L27.0165 18.115C26.9298 18.1294 26.843 18.1005 26.7997 18.0282C26.4816 17.5511 26.1346 17.1174 25.7587 16.7126C25.7009 16.6548 25.6865 16.5536 25.7154 16.4813L26.7129 14.1826L25.007 12.9393L23.0986 14.5729C23.0263 14.6308 22.9396 14.6452 22.8673 14.6019C22.3613 14.3561 21.8408 14.1537 21.3059 13.9947C21.2191 13.9657 21.1613 13.8934 21.1469 13.8067L20.8577 11.3056L18.7614 11.0887L17.9518 13.4597C17.9229 13.5465 17.8506 13.6043 17.7639 13.6043C17.2145 13.6477 16.6651 13.7344 16.1013 13.8645C16.0145 13.879 15.9278 13.8501 15.8699 13.7778L14.3808 11.7538L12.4436 12.6067L12.9207 15.0789C12.9351 15.1657 12.9062 15.2524 12.8339 15.2958C12.3568 15.6139 11.9231 15.9608 11.5183 16.3367C11.4605 16.3946 11.3593 16.409 11.287 16.3801L8.98827 15.3826L7.74495 17.0885L9.39308 18.9824C9.45091 19.0547 9.46537 19.1414 9.42199 19.2137C9.17622 19.7197 8.97382 20.2402 8.81479 20.7751C8.78587 20.8619 8.71359 20.9197 8.62684 20.9342L6.12573 21.2233L5.89441 23.3196L8.26541 24.1292C8.35215 24.1581 8.40998 24.2304 8.40998 24.3172C8.45335 24.8665 8.5401 25.4159 8.67021 25.9797C8.68467 26.0665 8.65576 26.1532 8.58347 26.2111L6.55945 27.7002L7.41243 29.6374L9.88463 29.1604C9.97137 29.1459 10.0581 29.1748 10.1015 29.2471C10.4195 29.7242 10.7665 30.1579 11.1424 30.5627C11.2002 30.6205 11.2147 30.7217 11.1858 30.794L10.1882 33.0927L11.8942 34.3361L13.7881 32.6879C13.8604 32.6301 13.9471 32.6156 14.0194 32.659C14.5254 32.9048 15.0459 33.1072 15.5808 33.2662C15.6675 33.2951 15.7254 33.3674 15.7398 33.4542L16.0434 35.9553ZM18.4578 30.1868C17.6627 30.1868 16.853 30.0422 16.0868 29.7386C14.4531 29.1025 13.1664 27.8737 12.4725 26.2689C11.7641 24.6641 11.7352 22.8859 12.3568 21.2522C12.9929 19.6185 14.2218 18.3318 15.8266 17.6379C17.4313 16.9295 19.2096 16.9006 20.8433 17.5222C22.4769 18.1584 23.7636 19.3872 24.4576 20.992C25.166 22.5967 25.1949 24.375 24.5732 26.0087C23.9371 27.6423 22.7082 28.929 21.1035 29.623C20.2505 29.9989 19.3542 30.1868 18.4578 30.1868ZM16.0001 18.0427C14.511 18.6933 13.3544 19.9077 12.7616 21.4257C12.1689 22.9437 12.2123 24.6063 12.8628 26.1099C13.5134 27.599 14.7134 28.7556 16.2458 29.3483C17.7639 29.941 19.4264 29.8977 20.93 29.2471C22.4191 28.5965 23.5757 27.3821 24.1684 25.8641C24.7612 24.3461 24.7178 22.6835 24.0672 21.1799C23.4167 19.6908 22.2167 18.5342 20.6842 17.9415C19.1518 17.3487 17.4892 17.3777 16.0001 18.0427Z" fill="#261D3F"/>
<path d="M117.548 83.3608L46.7653 73.5154C44.9871 73.2841 43.657 71.7805 43.657 69.9878L42.6884 20.6161C42.6884 20.6161 44.3076 19.4596 45.2184 19.0114C45.681 18.7801 46.2159 18.6789 46.7798 18.7511L117.346 27.758C119.124 27.9894 120.454 29.4929 120.454 31.2856V79.7754C120.454 80.6428 120.064 81.4091 119.442 81.9151C118.878 82.3777 117.548 83.3608 117.548 83.3608Z" fill="#99B9FF"/>
<path d="M115.394 84.0114L44.828 75.0045C43.0498 74.7732 41.7197 73.2696 41.7197 71.4769V23.0016C41.7197 21.339 43.1799 20.0523 44.8425 20.2547L115.409 29.2616C117.187 29.4929 118.517 30.9965 118.517 32.7892V81.2789C118.517 82.9415 117.042 84.2282 115.394 84.0114Z" fill="white"/>
<path d="M115.741 84.2571C115.611 84.2571 115.495 84.2427 115.365 84.2282L44.7991 75.2213C42.9196 74.9756 41.5028 73.3708 41.5028 71.4769V23.0016C41.5028 22.1486 41.8642 21.3245 42.5148 20.7607C43.1509 20.1969 44.0184 19.9366 44.8569 20.0378L115.423 29.0447C117.302 29.2905 118.719 30.8953 118.719 32.7892V81.2789C118.719 82.1319 118.358 82.956 117.707 83.5198C117.172 83.9969 116.464 84.2571 115.741 84.2571ZM115.423 83.809C116.146 83.8957 116.883 83.6788 117.433 83.1873C117.982 82.7102 118.3 82.0018 118.3 81.2789V32.7747C118.3 31.0977 117.042 29.6664 115.38 29.464L44.8135 20.4571C44.0907 20.3703 43.3533 20.5872 42.804 21.0788C42.2546 21.5558 41.9365 22.2643 41.9365 22.9871V71.4769C41.9365 73.1539 43.1943 74.5852 44.8569 74.7876L115.423 83.809Z" fill="#3E80FA"/>
<path d="M113.89 82.0163L46.505 73.4287C45.2183 73.2696 44.2496 72.1709 44.2496 70.8553V24.0859C44.2496 22.9727 45.2327 22.1197 46.3315 22.2498L113.717 30.8375C115.004 30.9965 115.972 32.0952 115.972 33.4109V80.1802C115.972 81.2934 115.004 82.1609 113.89 82.0163Z" fill="#F0F0F0"/>
<path d="M74.22 112.579L1.64435 103.225C1.08051 103.153 0.762451 102.676 0.762451 102.199C0.762451 101.866 0.791366 99.5674 0.791366 99.5674L39.161 77.6213C41.0839 76.5225 43.5705 76.1032 45.768 76.3779L117.433 85.6161C117.867 85.674 118.228 85.9487 118.401 86.3535L118.517 86.6282C118.517 86.6282 118.459 88.551 118.474 88.9991C118.488 89.3461 118.329 89.7076 117.968 89.9244L80.5667 111.321C78.6439 112.42 76.4175 112.854 74.22 112.579Z" fill="white"/>
<path d="M75.5063 112.868C75.0726 112.868 74.6389 112.839 74.2052 112.781L1.62957 103.428C0.921161 103.341 0.545271 102.734 0.559728 102.184C0.559728 101.852 0.588643 99.553 0.588643 99.553V99.4228L0.689844 99.365L39.0595 77.4188C40.9679 76.3345 43.4834 75.8574 45.7966 76.1466L117.461 85.3848C117.967 85.4571 118.401 85.7751 118.604 86.2522L118.734 86.5703V86.6137C118.734 86.6281 118.676 88.5365 118.69 88.9702C118.719 89.4473 118.488 89.8666 118.069 90.0979L80.6531 111.495C79.1062 112.405 77.3135 112.868 75.5063 112.868ZM74.2486 112.362C76.3882 112.637 78.5858 112.203 80.4652 111.133L117.881 89.7365C118.155 89.5774 118.3 89.3172 118.285 89.0136C118.257 88.5943 118.314 86.9751 118.314 86.6715L118.213 86.4402C118.069 86.1077 117.765 85.8764 117.418 85.833L45.7532 76.5948C43.5268 76.3056 41.1124 76.7683 39.2764 77.8092L1.0079 99.6831C1.0079 100.16 0.97899 101.909 0.97899 102.199C0.97899 102.56 1.21031 102.95 1.67294 103.008L74.2486 112.362Z" fill="#261D3F"/>
<path d="M10.565 101.779L1.89062 100.666C0.936436 100.536 0.676205 99.2638 1.51473 98.7867L38.7278 77.5345C40.6506 76.4357 42.877 75.9875 45.0746 76.2767L117.39 85.6161C118.344 85.7462 118.604 87.0185 117.766 87.4956L80.5528 108.748C78.63 109.847 76.4035 110.295 74.206 110.006L10.565 101.779Z" fill="white"/>
<path d="M75.5067 110.309C75.073 110.309 74.6392 110.28 74.2055 110.222L1.87567 100.883C1.34075 100.811 0.93595 100.435 0.834749 99.8999C0.733548 99.3795 0.964865 98.859 1.4275 98.5988L38.6406 77.3466C40.5923 76.2333 42.891 75.7707 45.1174 76.0598L117.433 85.3993C117.968 85.4716 118.373 85.8474 118.474 86.3824C118.575 86.9028 118.344 87.4233 117.881 87.6835L80.6679 108.936C79.1066 109.832 77.3138 110.309 75.5067 110.309ZM10.5934 101.563L74.2489 109.789C76.3886 110.063 78.5861 109.63 80.4655 108.56L117.679 87.3076C118.04 87.1052 118.112 86.7293 118.069 86.4691C118.011 86.1944 117.809 85.8908 117.389 85.833L45.0741 76.4936C42.9344 76.2189 40.7369 76.6526 38.8574 77.7224L1.64436 98.9747C1.28293 99.1771 1.21064 99.553 1.25401 99.8132C1.31184 100.088 1.51424 100.391 1.9335 100.449L10.5934 101.563Z" fill="#261D3F"/>
<path d="M88.3874 98.2085L25.6717 90.0545C24.8042 89.9389 24.5729 88.7968 25.3391 88.363L40.0856 80.0212C41.8205 79.0236 43.83 78.6333 45.8251 78.879L108.526 87.033C109.394 87.1486 109.625 88.2907 108.859 88.7245L94.1125 97.0663C92.3776 98.0639 90.3681 98.4542 88.3874 98.2085Z" fill="#F0F0F0"/>
<path d="M110.956 81.3078L49.3676 73.5876C49.1508 73.5587 48.9773 73.3708 48.9773 73.1539V7.56117C48.9773 7.30094 49.2086 7.09853 49.4688 7.12745L111.057 14.8476C111.274 14.8766 111.447 15.0645 111.447 15.2814V80.8886C111.447 81.1343 111.216 81.3367 110.956 81.3078Z" fill="#F0F0F0"/>
<path d="M107.848 36.5481L52.4908 29.2905V11.8261L107.848 19.0837V36.5481Z" fill="white"/>
<path d="M107.848 56.7883L52.4908 49.5307V32.0663L107.848 39.3238V56.7883Z" fill="white"/>
<path d="M107.702 76.8839L52.3453 69.6263V52.1619L107.702 59.4195V76.8839Z" fill="white"/>
<path d="M97.8429 30.0133L54.8324 24.6352V22.7269L97.8429 28.1194V30.0133Z" fill="#F0F0F0"/>
<path d="M86.6095 31.9217L54.8324 27.946V26.0376L86.6095 30.0134V31.9217Z" fill="#F0F0F0"/>
<path d="M80.9134 24.563L54.8324 21.2956L54.8613 19.1993L80.8555 22.4522L80.9134 24.563Z" fill="#F0F0F0"/>
<path d="M58.6632 15.2236L57.7234 14.9489L57.3042 13.9947C57.2174 13.7923 56.9572 13.7489 56.856 13.9369L56.4367 14.7754L55.497 14.7898C55.2946 14.7898 55.2079 15.0501 55.3524 15.2091L56.0319 15.9898L55.8729 16.944C55.844 17.1464 56.0464 17.3343 56.2343 17.262L57.0873 16.9151L57.9403 17.4934C58.1282 17.6235 58.3306 17.4789 58.3017 17.262L58.1427 16.2645L58.8222 15.6573C58.9523 15.5561 58.8656 15.2814 58.6632 15.2236Z" fill="#3E80FA"/>
<path d="M63.0292 15.8019L62.0895 15.5272L61.6703 14.573C61.5835 14.3706 61.3233 14.3272 61.2221 14.5152L60.8028 15.3537L59.8631 15.3682C59.6607 15.3682 59.5739 15.6284 59.7185 15.7874L60.398 16.5681L60.239 17.5223C60.2101 17.7247 60.4125 17.9126 60.6004 17.8403L61.4534 17.4934L62.3064 18.0717C62.4943 18.2018 62.6967 18.0572 62.6678 17.8403L62.5088 16.8428L63.1883 16.2356C63.3184 16.1344 63.2316 15.8597 63.0292 15.8019Z" fill="#3E80FA"/>
<path d="M67.4102 16.3801L66.4705 16.1054L66.0512 15.1512C65.9645 14.9488 65.7043 14.9055 65.6031 15.0934L65.1838 15.9319L64.2441 15.9464C64.0417 15.9464 63.9549 16.2066 64.0995 16.3657L64.779 17.1464L64.62 18.1005C64.5911 18.3029 64.7935 18.4909 64.9814 18.4186L65.8344 18.0716L66.6874 18.6499C66.8753 18.78 67.0777 18.6355 67.0488 18.4186L66.8898 17.421L67.5693 16.8138C67.6849 16.7126 67.6126 16.4379 67.4102 16.3801Z" fill="#3E80FA"/>
<path d="M71.7755 16.9584L70.8357 16.6837L70.4165 15.7296C70.3297 15.5272 70.0695 15.4838 69.9683 15.6717L69.549 16.5102L68.6093 16.5247C68.4069 16.5247 68.3202 16.7849 68.4647 16.944L69.1442 17.7247L68.9852 18.6788C68.9563 18.8812 69.1587 19.0692 69.3466 18.9969L70.1996 18.6499L71.0526 19.2282C71.2405 19.3583 71.4429 19.2138 71.414 18.9969L71.255 17.9993L71.9345 17.3921C72.0646 17.2909 71.9779 17.0163 71.7755 16.9584Z" fill="#3E80FA"/>
<path d="M76.1417 17.5512L75.2019 17.2765L74.7827 16.3223C74.6959 16.1199 74.4357 16.0766 74.3345 16.2645L73.9152 17.103L72.9755 17.1175C72.7731 17.1175 72.6864 17.3777 72.8309 17.5367L73.5104 18.3174L73.3514 19.2716C73.3225 19.474 73.5249 19.662 73.7128 19.5897L74.5658 19.2427L75.4188 19.821C75.6068 19.9511 75.8092 19.8065 75.7802 19.5897L75.6212 18.5921L76.3007 17.9849C76.4308 17.8693 76.3441 17.609 76.1417 17.5512Z" fill="#3E80FA"/>
<path d="M93.3036 69.8432L54.399 64.9711V63.0627L93.3904 68.0216L93.3036 69.8432Z" fill="#F0F0F0"/>
<path d="M87.8966 72.5901L54.399 68.2818V66.3735L87.9544 70.7107L87.8966 72.5901Z" fill="#F0F0F0"/>
<path d="M88.4749 65.8964L54.399 61.6315L54.428 59.5352L88.5761 63.8724L88.4749 65.8964Z" fill="#F0F0F0"/>
<path d="M58.2298 55.5594L57.2901 55.2847L56.8708 54.3306C56.7841 54.1282 56.5238 54.0848 56.4226 54.2727L56.0034 55.1113L55.0637 55.1257C54.8613 55.1257 54.7745 55.386 54.9191 55.545L55.5986 56.3257L55.4395 57.2799C55.4106 57.4823 55.613 57.6702 55.801 57.5979L56.654 57.2509L57.5069 57.8292C57.6949 57.9593 57.8973 57.8148 57.8684 57.5979L57.7093 56.6004L58.3888 55.9932C58.5189 55.892 58.4322 55.6173 58.2298 55.5594Z" fill="#3E80FA"/>
<path d="M62.5959 56.1377L61.6562 55.8631L61.2369 54.9089C61.1502 54.7065 60.8899 54.6631 60.7887 54.851L60.3695 55.6896L59.4297 55.704C59.2273 55.704 59.1406 55.9643 59.2852 56.1233L59.9647 56.904L59.8056 57.8582C59.7767 58.0606 59.9791 58.2485 60.1671 58.1762L61.02 57.8292L61.873 58.4075C62.061 58.5377 62.2634 58.3931 62.2345 58.1762L62.0754 57.1787L62.7549 56.5715C62.885 56.4703 62.7983 56.1956 62.5959 56.1377Z" fill="#3E80FA"/>
<path d="M66.9769 56.716L66.0371 56.4413L65.6179 55.4871C65.5311 55.2847 65.2709 55.2413 65.1697 55.4293L64.7504 56.2678L63.8107 56.2823C63.6083 56.2823 63.5216 56.5425 63.6662 56.7015L64.3456 57.4822L64.1866 58.4364C64.1577 58.6388 64.3601 58.8268 64.548 58.7545L65.401 58.4075L66.254 58.9858C66.442 59.1159 66.6444 58.9713 66.6154 58.7545L66.4564 57.7569L67.1359 57.1497C67.2516 57.0485 67.1793 56.7738 66.9769 56.716Z" fill="#3E80FA"/>
<path d="M71.3421 57.3088L70.4024 57.0341L69.9831 56.0799C69.8964 55.8775 69.6361 55.8341 69.5349 56.0221L69.1157 56.8606L68.176 56.875C67.9736 56.875 67.8868 57.1353 68.0314 57.2943L68.7109 58.075L68.5518 59.0292C68.5229 59.2316 68.7253 59.4195 68.9133 59.3472L69.7663 59.0003L70.6192 59.5786C70.8072 59.7087 71.0096 59.5641 70.9807 59.3472L70.8216 58.3497L71.5011 57.7425C71.6313 57.6268 71.5445 57.3666 71.3421 57.3088Z" fill="#3E80FA"/>
<path d="M75.7083 57.8871L74.7686 57.6124L74.3493 56.6582C74.2626 56.4558 74.0024 56.4124 73.9012 56.6004L73.4819 57.4389L72.5422 57.4534C72.3398 57.4534 72.253 57.7136 72.3976 57.8726L73.0771 58.6533L72.9181 59.6075C72.8891 59.8099 73.0915 59.9978 73.2795 59.9256L74.1325 59.5786L74.9855 60.1569C75.1734 60.287 75.3758 60.1424 75.3469 59.9256L75.1879 58.928L75.8673 58.3208C75.9975 58.2051 75.9107 57.9449 75.7083 57.8871Z" fill="#99B9FF"/>
<path d="M97.5971 50.2536L54.5867 44.8755V42.9671L97.5971 48.3597V50.2536Z" fill="#F0F0F0"/>
<path d="M92.0166 52.8414L54.5867 48.1862V46.2778L92.06 50.962L92.0166 52.8414Z" fill="#F0F0F0"/>
<path d="M84.788 45.3237L54.5867 41.5359L54.63 39.4396L84.7157 43.1985L84.788 45.3237Z" fill="#F0F0F0"/>
<path d="M58.4174 35.4638L57.4777 35.1891L57.0584 34.2349C56.9717 34.0325 56.7115 33.9892 56.6103 34.1771L56.191 35.0156L55.2513 35.0301C55.0489 35.0301 54.9621 35.2903 55.1067 35.4493L55.7862 36.23L55.6272 37.1842C55.5983 37.3866 55.8007 37.5746 55.9886 37.5023L56.8416 37.1553L57.6946 37.7336C57.8825 37.8637 58.0849 37.7191 58.056 37.5023L57.897 36.5047L58.5765 35.8975C58.7066 35.7963 58.6343 35.5216 58.4174 35.4638Z" fill="#3E80FA"/>
<path d="M62.7983 36.0421L61.8586 35.7674L61.4393 34.8132C61.3526 34.6108 61.0923 34.5675 60.9911 34.7554L60.5719 35.5939L59.6321 35.6084C59.4297 35.6084 59.343 35.8686 59.4876 36.0276L60.1671 36.8083L60.008 37.7625C59.9791 37.9649 60.1815 38.1529 60.3695 38.0806L61.2224 37.7336L62.0754 38.3119C62.2634 38.442 62.4658 38.2974 62.4369 38.0806L62.2778 37.083L62.9573 36.4758C63.073 36.3746 63.0007 36.0999 62.7983 36.0421Z" fill="#3E80FA"/>
<path d="M67.1645 36.6204L66.2248 36.3457L65.8055 35.3915C65.7188 35.1891 65.4585 35.1457 65.3573 35.3337L64.9381 36.1722L63.9983 36.1866C63.7959 36.1866 63.7092 36.4469 63.8538 36.6059L64.5333 37.3866L64.3742 38.3408C64.3453 38.5432 64.5477 38.7311 64.7357 38.6588L65.5886 38.3119L66.4416 38.8901C66.6296 39.0203 66.832 38.8757 66.8031 38.6588L66.644 37.6613L67.3235 37.0541C67.4536 36.9529 67.3669 36.6782 67.1645 36.6204Z" fill="#3E80FA"/>
<path d="M71.5297 37.1987L70.59 36.924L70.1707 35.9698C70.084 35.7674 69.8238 35.724 69.7226 35.912L69.3033 36.7505L68.3636 36.7649C68.1612 36.7649 68.0744 37.0252 68.219 37.1842L68.8985 37.9649L68.7395 38.9191C68.7106 39.1215 68.913 39.3094 69.1009 39.2371L69.9539 38.8902L70.8069 39.4685C70.9948 39.5986 71.1972 39.454 71.1683 39.2371L71.0093 38.2396L71.6888 37.6324C71.8189 37.5312 71.7321 37.2565 71.5297 37.1987Z" fill="#99B9FF"/>
<path d="M75.8959 37.7914L74.9562 37.5167L74.537 36.5626C74.4502 36.3602 74.19 36.3168 74.0888 36.5047L73.6695 37.3433L72.7298 37.3577C72.5274 37.3577 72.4406 37.6179 72.5852 37.777L73.2647 38.5577L73.1057 39.5118C73.0768 39.7143 73.2792 39.9022 73.4671 39.8299L74.3201 39.4829L75.1731 40.0612C75.361 40.1913 75.5634 40.0468 75.5345 39.8299L75.3755 38.8324L76.055 38.2252C76.1851 38.1095 76.1128 37.8493 75.8959 37.7914Z" fill="#99B9FF"/>
<path d="M84.947 78.2719C84.9325 78.2719 84.9325 78.2719 84.9181 78.2719L49.3387 73.819C49.0061 73.7756 48.7604 73.5009 48.7604 73.1684V66.7494C48.7604 66.6337 48.8616 66.5325 48.9772 66.5325C49.0929 66.5325 49.1941 66.6337 49.1941 66.7494V73.154C49.1941 73.2696 49.2808 73.3564 49.382 73.3708L84.9759 77.8381C85.0916 77.8526 85.1783 77.9682 85.1638 78.0839C85.1494 78.1851 85.0626 78.2719 84.947 78.2719Z" fill="#261D3F"/>
<path d="M110.999 81.5247C110.97 81.5247 110.941 81.5247 110.912 81.5247L98.5079 79.9778C98.3923 79.9633 98.3055 79.8477 98.32 79.732C98.3344 79.6164 98.4501 79.5296 98.5658 79.5441L110.97 81.091C111.028 81.1055 111.1 81.0765 111.144 81.0332C111.187 80.9898 111.216 80.932 111.216 80.8741V15.2814C111.216 15.1657 111.129 15.079 111.028 15.0645L49.4399 7.34434C49.382 7.32988 49.3098 7.35879 49.2664 7.40217C49.223 7.44554 49.1941 7.50337 49.1941 7.5612V34.871C49.1941 34.9867 49.0929 35.0879 48.9772 35.0879C48.8616 35.0879 48.7604 34.9867 48.7604 34.871V7.5612C48.7604 7.37325 48.8471 7.19976 48.9772 7.06965C49.1218 6.93953 49.3098 6.8817 49.4977 6.91062L111.086 14.6308C111.418 14.6742 111.664 14.9489 111.664 15.2814V80.8886C111.664 81.0765 111.577 81.25 111.447 81.3801C111.317 81.4669 111.158 81.5247 110.999 81.5247Z" fill="#261D3F"/>
<path d="M91.9874 103.746C91.9874 103.746 85.8142 90.2136 89.3562 72.6624C89.3562 72.6624 98.9269 80.6862 95.4716 103.746H91.9874Z" fill="#F0F0F0"/>
<path d="M95.4861 103.962H92.0019C91.9151 103.962 91.8428 103.919 91.7995 103.832C91.785 103.803 90.2381 100.363 89.1393 94.8255C88.1273 89.722 87.3177 81.7127 89.1538 72.619C89.1682 72.5468 89.2261 72.4889 89.2984 72.46C89.3706 72.4311 89.4574 72.4456 89.5152 72.5034C89.6164 72.5901 91.973 74.5997 93.9247 79.4863C95.7174 83.968 97.4956 91.8328 95.7029 103.789C95.674 103.89 95.5873 103.962 95.4861 103.962ZM92.132 103.529H95.2837C97.0185 91.775 95.2692 84.0548 93.5054 79.6453C91.973 75.8286 90.1658 73.7756 89.4863 73.0961C87.7659 81.9585 88.561 89.7509 89.5441 94.7532C90.5272 99.6397 91.8428 102.864 92.132 103.529Z" fill="#261D3F"/>
<path d="M93.5054 102.546C93.5054 102.546 93.491 102.546 93.5054 102.546C93.3753 102.546 93.2886 102.43 93.2886 102.314C93.7657 93.6689 89.8622 75.2069 89.8188 75.0189C89.7899 74.9033 89.8622 74.7876 89.9923 74.7587C90.108 74.7298 90.2236 74.8021 90.2525 74.9322C90.2959 75.1201 94.1994 93.6399 93.7223 102.343C93.7078 102.459 93.6211 102.546 93.5054 102.546Z" fill="white"/>
<path d="M98.2052 81.7416C98.2052 81.7416 90.2537 96.1121 95.039 102.329H97.598C97.598 102.329 102.716 91.0954 98.2052 81.7416Z" fill="white"/>
<path d="M97.5975 102.546H95.0385C94.9663 102.546 94.9084 102.517 94.8651 102.459C92.841 99.8132 92.7543 95.5049 94.6193 89.6353C96.0072 85.2981 98.0023 81.6693 98.0167 81.6259C98.0601 81.5536 98.1324 81.5103 98.2191 81.5103C98.3059 81.5103 98.3782 81.5536 98.4071 81.6259C100.764 86.5125 100.474 91.9051 99.8094 95.5627C99.101 99.524 97.8143 102.372 97.7999 102.401C97.7565 102.502 97.6842 102.546 97.5975 102.546ZM95.1397 102.112H97.4529C97.9878 100.869 102.036 90.7629 98.1902 82.2187C96.9903 84.5318 91.0483 96.6037 95.1397 102.112Z" fill="#261D3F"/>
<path d="M96.224 102.936C96.1084 102.936 96.0072 102.849 96.0072 102.734C95.7758 96.7916 97.9589 81.8717 97.9878 81.7127C98.0023 81.597 98.1179 81.5103 98.2336 81.5247C98.3492 81.5392 98.436 81.6548 98.4215 81.7705C98.3926 81.915 96.224 96.8061 96.4553 102.705C96.4553 102.82 96.3541 102.922 96.224 102.936C96.2385 102.936 96.2385 102.936 96.224 102.936Z" fill="#261D3F"/>
<path d="M83.0096 87.1053C83.0096 87.1053 89.7901 89.4185 92.2334 103.11H89.5733C89.5877 103.095 84.0217 95.5773 83.0096 87.1053Z" fill="white"/>
<path d="M92.2479 103.312H89.5877C89.5155 103.312 89.4576 103.283 89.4143 103.225C89.3564 103.153 83.8048 95.5628 82.8073 87.1197C82.7928 87.0474 82.8217 86.9752 82.8796 86.9318C82.9374 86.8884 83.0097 86.874 83.082 86.8884C83.1543 86.9173 84.8602 87.5101 86.8698 89.8232C88.7203 91.934 91.178 95.9387 92.4503 103.066C92.4647 103.124 92.4503 103.196 92.4069 103.24C92.378 103.283 92.3057 103.312 92.2479 103.312ZM89.6889 102.878H91.9877C89.8624 91.4135 84.6433 88.1317 83.2844 87.4523C84.3108 95.1435 89.0817 102.025 89.6889 102.878Z" fill="#261D3F"/>
<path d="M90.7877 102.936C90.6865 102.936 90.5853 102.864 90.5708 102.748C89.5588 96.6616 85.2071 90.5317 85.1638 90.4738C85.0915 90.3726 85.1204 90.2425 85.2071 90.1702C85.3083 90.098 85.4385 90.1269 85.5108 90.2136C85.5541 90.2714 89.9781 96.4881 91.0045 102.676C91.019 102.791 90.9467 102.907 90.831 102.922C90.8166 102.936 90.8021 102.936 90.7877 102.936Z" fill="#261D3F"/>
<path d="M85.6269 102.011H102.34L102.715 109.919C102.802 111.856 101.255 113.475 99.318 113.475H89.7762C87.4775 113.475 85.6125 111.61 85.6269 109.312V102.011Z" fill="#3E80FA"/>
<path d="M99.332 113.707H89.7901C88.6191 113.707 87.5203 113.259 86.6963 112.42C85.8722 111.596 85.4096 110.497 85.424 109.326V102.011C85.424 101.895 85.5252 101.794 85.6409 101.794H102.354C102.469 101.794 102.57 101.881 102.57 101.996L102.946 109.904C102.99 110.902 102.643 111.856 101.949 112.579C101.255 113.302 100.33 113.707 99.332 113.707ZM85.8433 102.228V109.326C85.8433 110.382 86.2481 111.365 86.9999 112.116C87.7372 112.868 88.7348 113.273 89.7901 113.273H99.332C100.214 113.273 101.023 112.926 101.631 112.29C102.238 111.654 102.541 110.815 102.513 109.948L102.151 102.242H85.8433V102.228Z" fill="#261D3F"/>
<path d="M66.4999 4.88655C65.5746 4.88655 64.8083 4.13477 64.8083 3.19504C64.8083 2.26978 65.5601 1.50354 66.4999 1.50354C67.4251 1.50354 68.1914 2.25532 68.1914 3.19504C68.1769 4.13477 67.4251 4.88655 66.4999 4.88655ZM66.4999 1.95172C65.8059 1.95172 65.2421 2.51555 65.2421 3.2095C65.2421 3.90345 65.8059 4.46729 66.4999 4.46729C67.1938 4.46729 67.7576 3.90345 67.7576 3.2095C67.7432 2.51555 67.1793 1.95172 66.4999 1.95172Z" fill="#261D3F"/>
<path d="M5.61994 75.5683C5.57657 75.5683 5.54765 75.5538 5.50428 75.5394L4.72359 75.0623C4.62239 75.0045 4.59347 74.8599 4.6513 74.7587C4.70913 74.6575 4.8537 74.6286 4.9549 74.6864L5.7356 75.1635C5.8368 75.2213 5.86571 75.3659 5.80788 75.4671C5.76451 75.5249 5.69222 75.5683 5.61994 75.5683Z" fill="#261D3F"/>
<path d="M8.32306 77.2309C8.27969 77.2309 8.25078 77.2164 8.20741 77.202L7.42671 76.7249C7.32551 76.6671 7.2966 76.5225 7.35442 76.4213C7.41225 76.3201 7.55683 76.2912 7.65803 76.349L8.43872 76.8261C8.53992 76.8839 8.56884 77.0285 8.51101 77.1297C8.46764 77.1875 8.39535 77.2309 8.32306 77.2309Z" fill="#261D3F"/>
<path d="M5.51869 77.9103C5.47532 77.9103 5.4464 77.8959 5.40303 77.8814C5.30183 77.8236 5.27291 77.679 5.33074 77.5778L5.80783 76.7971C5.86566 76.6959 6.01024 76.667 6.11144 76.7248C6.21264 76.7827 6.24155 76.9272 6.18372 77.0284L5.70663 77.8091C5.66326 77.8814 5.59097 77.9103 5.51869 77.9103Z" fill="#261D3F"/>
<path d="M7.16639 75.1924C7.12302 75.1924 7.09411 75.1779 7.05073 75.1635C6.94953 75.1056 6.92062 74.9611 6.97845 74.8599L7.45554 74.0792C7.51337 73.978 7.65794 73.9491 7.75914 74.0069C7.86034 74.0647 7.88926 74.2093 7.83143 74.3105L7.35434 75.0912C7.31097 75.149 7.23868 75.1924 7.16639 75.1924Z" fill="#261D3F"/>
<path d="M72.7449 3.48418C72.7016 3.48418 72.6727 3.46973 72.6293 3.45527L71.8486 2.97818C71.7474 2.92035 71.7185 2.77578 71.7763 2.67458C71.8341 2.57337 71.9787 2.54446 72.0799 2.60229L72.8606 3.07938C72.9618 3.13721 72.9907 3.28178 72.9329 3.38298C72.8895 3.44081 72.8172 3.48418 72.7449 3.48418Z" fill="#261D3F"/>
<path d="M75.463 5.14678C75.4196 5.14678 75.3907 5.13232 75.3473 5.11787L74.5666 4.64078C74.4654 4.58295 74.4365 4.43837 74.4943 4.33717C74.5521 4.23597 74.6967 4.20706 74.7979 4.26489L75.5786 4.74198C75.6798 4.79981 75.7087 4.94438 75.6509 5.04558C75.6075 5.11787 75.5352 5.14678 75.463 5.14678Z" fill="#261D3F"/>
<path d="M72.6586 5.82624C72.6152 5.82624 72.5863 5.81178 72.5429 5.79732C72.4417 5.7395 72.4128 5.59492 72.4706 5.49372L72.9477 4.71303C73.0056 4.61183 73.1501 4.58291 73.2513 4.64074C73.3525 4.69857 73.3814 4.84314 73.3236 4.94434L72.8465 5.72504C72.8032 5.79732 72.7309 5.82624 72.6586 5.82624Z" fill="#261D3F"/>
<path d="M74.306 3.10828C74.2627 3.10828 74.2338 3.09382 74.1904 3.07937C74.0892 3.02154 74.0603 2.87697 74.1181 2.77576L74.5952 1.99507C74.653 1.89387 74.7976 1.86496 74.8988 1.92278C75 1.98061 75.0289 2.12519 74.9711 2.22639L74.494 3.00708C74.4506 3.06491 74.3783 3.10828 74.306 3.10828Z" fill="#261D3F"/>
<path d="M5.25877 68.701C5.15756 68.701 5.07082 68.6287 5.04191 68.5275C3.71184 62.7012 3.94315 56.4268 5.73586 50.3836C5.76477 50.268 5.89489 50.2101 6.01054 50.2391C6.1262 50.268 6.18403 50.3981 6.15512 50.5137C4.39133 56.4846 4.16001 62.6868 5.47562 68.4408C5.50454 68.5564 5.43225 68.6721 5.31659 68.701C5.30214 68.6866 5.27322 68.701 5.25877 68.701Z" fill="#261D3F"/>
<path d="M7.702 49.4873C7.65863 49.4873 7.61526 49.4728 7.57189 49.4439L6.18399 48.4319C6.1117 48.3885 6.08278 48.3018 6.09724 48.215C6.1117 48.1283 6.18399 48.0705 6.25627 48.0416L7.97669 47.6512C8.04898 47.6368 8.12126 47.6512 8.17909 47.709C8.23692 47.7524 8.25138 47.8392 8.23692 47.9114C8.10681 48.6343 7.9044 49.3138 7.88995 49.3427C7.87549 49.415 7.81766 49.4584 7.74537 49.4873C7.75983 49.4873 7.73092 49.4873 7.702 49.4873ZM6.82011 48.3596L7.57189 48.909C7.62972 48.7066 7.68754 48.4319 7.75983 48.1428L6.82011 48.3596Z" fill="#261D3F"/>
<path d="M84.0263 62.2525C85.8344 60.2382 85.5179 57.0054 83.3193 55.0319C81.1207 53.0585 77.8727 53.0916 76.0645 55.106C74.2564 57.1204 74.5729 60.3532 76.7715 62.3266C78.9701 64.3001 82.2182 64.2669 84.0263 62.2525Z" fill="white"/>
<path d="M80.4944 64.0025C79.4391 64.0025 78.3403 63.6989 77.3572 63.0483C76.1139 62.2387 75.232 61.0098 74.8561 59.6074C74.4802 58.2051 74.6826 56.8027 75.391 55.6317C76.8657 53.2318 80.1619 52.639 82.7209 54.3161C83.9642 55.1257 84.8461 56.3545 85.222 57.7569C85.5979 59.1593 85.3955 60.5616 84.6871 61.7327C83.7762 63.2073 82.1859 64.0025 80.4944 64.0025ZM79.627 53.7956C78.0801 53.7956 76.6054 54.5185 75.7669 55.8919C75.1019 56.9618 74.9284 58.2629 75.2754 59.5496C75.6223 60.8363 76.4319 61.9495 77.5741 62.7013C79.9306 64.2482 82.9522 63.6989 84.3112 61.4869C84.9762 60.417 85.1497 59.1159 84.8027 57.8292C84.4557 56.5425 83.6461 55.4293 82.504 54.6775C81.6077 54.0848 80.5956 53.7956 79.627 53.7956Z" fill="#3E80FA"/>
<path d="M76.8078 59.246C77.3861 61.0676 79.2945 62.1953 81.0727 61.776C82.851 61.3568 83.8341 59.5496 83.2558 57.7424C82.6775 55.9208 80.7691 54.7932 78.9909 55.2124C77.2126 55.6172 76.2295 57.4244 76.8078 59.246ZM82.7642 57.8292C83.2558 59.3761 82.4173 60.923 80.8992 61.27C79.3812 61.6315 77.7476 60.6628 77.256 59.1014C76.7645 57.5545 77.603 56.0076 79.121 55.6606C80.6535 55.3136 82.2872 56.2823 82.7642 57.8292Z" fill="#261D3F"/>
<path d="M88.8215 64.5808C88.6914 64.7687 88.4312 64.8121 88.2432 64.682L82.4603 60.7207L82.923 59.9833L88.6481 63.9013C88.8938 64.0603 88.9661 64.3639 88.8215 64.5808Z" fill="#261D3F"/>
<path d="M25.0937 130C28.4188 119.721 31.6139 110.353 31.6139 110.353C31.6139 110.353 33.2476 126.183 33.1898 130H43.0207C43.946 114.979 44.2351 92.8592 44.2351 92.8592L24.4142 89.3895C24.4142 89.3895 21.3059 96.7482 19.73 103.297C18.1542 109.847 17.8072 120.762 17.2434 125.113C17.0265 126.776 16.4193 128.395 15.7253 129.986H25.0937V130Z" fill="#261D3F"/>
<path d="M23.0842 101.418C22.9974 101.418 22.9107 101.36 22.8818 101.288C22.8384 101.172 22.8962 101.056 22.9974 100.999C27.031 99.3505 28.2165 95.4037 28.231 95.3748C28.2599 95.2591 28.39 95.1868 28.5056 95.2302C28.6213 95.2591 28.6936 95.3892 28.6502 95.5049C28.6068 95.6784 27.3924 99.683 23.1709 101.418C23.142 101.418 23.1131 101.418 23.0842 101.418Z" fill="white"/>
<path d="M20.8432 104.642C20.8288 104.642 20.7999 104.642 20.7854 104.627C20.6697 104.599 20.5975 104.483 20.6264 104.367C22.4335 97.7024 24.8479 93.5676 24.8768 93.5242C24.9346 93.423 25.0648 93.3941 25.1804 93.452C25.2816 93.5098 25.3105 93.6399 25.2527 93.7556C25.2238 93.7989 22.8383 97.8903 21.0456 104.483C21.0312 104.584 20.9444 104.642 20.8432 104.642Z" fill="white"/>
<path d="M78.8022 58.7255L74.2048 62.3543L73.4531 66.9806C72.5278 68.0649 71.5591 68.9902 70.576 69.8143C70.9086 70.1902 71.2266 70.5805 71.5447 70.9709C72.0652 71.607 72.5712 72.2431 73.0627 72.8792C74.6964 69.9733 74.9855 67.6023 74.9855 67.6023C78.1372 66.518 77.53 64.0169 77.183 63.4097C76.8505 62.8169 76.9373 62.0073 78.1372 60.6194C79.4673 59.1159 78.8022 58.7255 78.8022 58.7255Z" fill="white"/>
<path d="M73.0771 73.0961C73.0048 73.0961 72.947 73.0672 72.9036 73.0093C72.4265 72.4021 71.9061 71.7515 71.3856 71.101C71.0675 70.7106 70.735 70.3203 70.417 69.9588C70.3736 69.9155 70.3591 69.8576 70.3591 69.7998C70.3591 69.742 70.388 69.6842 70.4314 69.6552C71.429 68.8312 72.3687 67.9059 73.2361 66.8939L73.9735 62.3254C73.9879 62.2676 74.0168 62.2242 74.0602 62.1953L78.6576 58.5665C78.7299 58.5087 78.8166 58.5087 78.9034 58.552C78.9323 58.5665 79.1203 58.6821 79.1636 58.9713C79.2359 59.4195 78.9468 60.0267 78.2962 60.7785C77.0095 62.2531 77.1541 62.9326 77.3709 63.3229C77.6167 63.7711 77.8625 64.7687 77.501 65.7373C77.1541 66.6481 76.3734 67.3421 75.1879 67.7758C75.1011 68.3252 74.6963 70.4359 73.265 72.9949C73.2361 73.0527 73.1638 73.0961 73.0916 73.1105C73.0916 73.0961 73.0771 73.0961 73.0771 73.0961ZM70.8796 69.8432C71.1543 70.1612 71.429 70.4938 71.7181 70.8263C72.1807 71.3901 72.6145 71.9539 73.0482 72.4889C74.5084 69.7854 74.7831 67.6023 74.7831 67.5878C74.7975 67.5011 74.8554 67.4288 74.9276 67.4144C76.0698 67.024 76.8071 66.4023 77.1107 65.5927C77.4577 64.6675 77.1541 63.7856 77.0095 63.5398C76.5613 62.7446 76.8649 61.776 77.9926 60.5038C78.701 59.6797 78.7733 59.2604 78.7588 59.087V59.0725L74.4216 62.4989L73.6843 67.0385C73.6843 67.0818 73.6554 67.1108 73.6409 67.1397C72.7735 68.1083 71.8482 69.0336 70.8796 69.8432Z" fill="#261D3F"/>
<path d="M46.476 67.3565C46.476 67.3565 39.0739 66.3011 31.7874 66.0843C31.7874 66.0843 22.6504 89.9388 22.6504 91.5436C22.6504 93.1483 26.5539 95.2157 31.7874 93.9001C37.0209 92.5845 43.6858 92.4544 47.4157 93.3363C53.0252 94.6374 46.476 67.3565 46.476 67.3565Z" fill="white"/>
<path d="M28.4911 94.5362C26.149 94.5362 24.3563 93.8568 23.3877 93.0905C22.766 92.6134 22.4335 92.0496 22.4335 91.5291C22.4335 89.8954 31.2091 66.9662 31.5849 65.9975C31.6139 65.9108 31.7006 65.853 31.7873 65.853C39.0015 66.0698 46.4326 67.1107 46.5049 67.1252C46.5916 67.1397 46.6639 67.1975 46.6784 67.2842C46.8952 68.2095 52.0565 89.881 48.8325 93.1194C48.4421 93.5098 47.9506 93.6399 47.3578 93.5098C43.4399 92.599 36.7607 92.8447 31.8307 94.0736C30.6308 94.4061 29.5175 94.5362 28.4911 94.5362ZM31.9319 66.3011C29.3585 73.0238 22.8527 90.2569 22.8527 91.5436C22.8527 91.9339 23.1274 92.3532 23.6479 92.758C25.0792 93.8712 28.1296 94.5941 31.7295 93.6833C36.7317 92.4255 43.4978 92.1797 47.4591 93.1194C47.8928 93.2206 48.2397 93.1339 48.5144 92.8447C51.4493 89.8955 46.7362 69.4817 46.288 67.5589C45.2326 67.3999 38.5244 66.5035 31.9319 66.3011Z" fill="#261D3F"/>
<path d="M72.0799 67.4722L75.9545 68.6288C75.9545 68.6288 74.74 77.6212 67.8873 82.1897C61.0345 86.7582 51.9553 81.8283 51.9553 81.8283L52.3312 95.1579C52.4035 97.7458 50.6976 100.059 48.2109 100.753C46.0423 101.36 43.8448 101.808 43.8014 101.187C43.6135 98.3385 45.6086 66.9228 45.6086 66.9228C45.6086 66.9228 47.8639 66.6481 49.7 68.1517C51.5361 69.6552 56.5528 75.2936 62.2779 73.7756C68.0029 72.2865 72.0799 67.4722 72.0799 67.4722Z" fill="#3E80FA"/>
<path d="M32.091 65.7518C31.5416 65.7518 30.6019 89.5485 30.2983 97.8181C30.226 99.683 28.8092 101.216 26.9586 101.447C24.6599 101.736 21.4504 101.534 18.3855 99.2638C12.7327 95.0856 23.4021 70.9998 28.2309 65.7518H32.091Z" fill="#3E80FA"/>
<path d="M55.0636 73.7755L41.6038 72.3876C41.1556 72.3876 40.7219 72.7635 40.6496 73.2406L37.3967 93.3073C37.3245 93.77 37.6281 94.1603 38.0762 94.1603L52.3456 93.4664C52.7938 93.4664 53.2709 93.7844 53.3431 93.3218L56.596 73.2551C56.6828 72.7635 55.5117 73.7755 55.0636 73.7755Z" fill="#261D3F"/>
<path d="M38.0907 94.3627C37.8016 94.3627 37.5558 94.2471 37.3823 94.0591C37.2088 93.8567 37.1365 93.5676 37.1799 93.2784L40.4328 73.2117C40.5195 72.6334 41.04 72.1852 41.6038 72.1852C41.6183 72.1852 41.6183 72.1852 41.6327 72.1852L55.078 73.5731C55.2226 73.5587 55.5696 73.3563 55.8009 73.2262C56.2346 72.9659 56.4948 72.8214 56.6972 72.9515C56.7551 72.9949 56.8418 73.0816 56.8129 73.2695L53.56 93.3363C53.5311 93.4953 53.4588 93.6254 53.3576 93.6977C53.1697 93.8278 52.9383 93.77 52.707 93.7266C52.5769 93.6977 52.4613 93.6688 52.3456 93.6688L38.0907 94.3627ZM41.5894 72.6045C41.2424 72.6045 40.9099 72.9081 40.8521 73.2695L37.5992 93.3363C37.5702 93.5097 37.6136 93.6543 37.7004 93.77C37.7871 93.8712 37.9172 93.929 38.0618 93.929L52.3311 93.2351C52.5046 93.2351 52.6637 93.264 52.7938 93.2929C52.895 93.3073 53.054 93.3507 53.0974 93.3363C53.0974 93.3363 53.1118 93.3218 53.1118 93.264L56.3503 73.3997C56.2491 73.4575 56.1045 73.5298 56.0033 73.5876C55.6419 73.79 55.3093 73.9924 55.0491 73.9924C55.0347 73.9924 55.0347 73.9924 55.0202 73.9924L41.5894 72.6045Z" fill="#261D3F"/>
<path d="M56.3647 72.3876H42.0519C41.6038 72.3876 41.17 72.7635 41.0978 73.2406L37.8449 93.2929C37.7726 93.7555 38.0762 94.1459 38.5244 94.1459H52.8371C53.2853 94.1459 53.719 93.77 53.7913 93.2929L57.0442 73.2262C57.1309 72.7635 56.8128 72.3876 56.3647 72.3876Z" fill="white"/>
<path d="M52.8371 94.3627H38.5244C38.2497 94.3627 38.0039 94.2471 37.8304 94.0591C37.6569 93.8567 37.5846 93.5676 37.628 93.2784L40.8809 73.1972C40.9677 72.6189 41.4881 72.1708 42.052 72.1708H56.3647C56.6394 72.1708 56.8851 72.2864 57.0586 72.4744C57.2321 72.6768 57.3044 72.9659 57.261 73.2551L54.0081 93.3218C53.9214 93.9001 53.4009 94.3627 52.8371 94.3627ZM42.052 72.6045C41.705 72.6045 41.3725 72.9081 41.3146 73.2695L38.0617 93.3363C38.0328 93.5097 38.0762 93.6543 38.1629 93.77C38.2497 93.8712 38.3798 93.929 38.5244 93.929H52.8371C53.1841 93.929 53.5166 93.6254 53.5744 93.264L56.8273 73.1972C56.8562 73.0238 56.8128 72.8792 56.7261 72.7635C56.6394 72.6623 56.5092 72.6045 56.3647 72.6045H42.052Z" fill="#261D3F"/>
<path d="M38.8573 81.4669L39.0164 83.3608L44.7559 82.3198C44.7559 82.3198 44.886 82.5078 44.9728 82.8114C45.074 83.2162 45.0884 83.8379 44.568 84.4884C44.3222 84.8065 43.3246 84.8065 43.4114 85.4282C43.4837 85.9631 41.2428 86.3823 39.2911 86.7438C37.1225 87.1486 37.3104 84.0547 37.8453 82.4644C38.2501 81.25 38.8573 81.4669 38.8573 81.4669Z" fill="white"/>
<path d="M38.9151 87.004C38.3513 87.004 38.0043 86.7582 37.8019 86.5125C36.9779 85.5583 37.2525 83.4909 37.6284 82.4066C37.8164 81.8428 38.0911 81.4669 38.4091 81.3078C38.6838 81.1777 38.9151 81.25 38.9296 81.25C39.0163 81.2789 39.0597 81.3512 39.0742 81.4379L39.2043 83.0861L44.698 82.0885C44.7848 82.0741 44.8715 82.103 44.9149 82.1753C44.9149 82.1897 45.0739 82.4066 45.1607 82.7391C45.2763 83.1873 45.2908 83.8812 44.7125 84.6186C44.5824 84.7776 44.3655 84.8643 44.1342 84.9511C43.715 85.1101 43.5704 85.2113 43.5848 85.3992C43.6716 86.0787 42.2692 86.4113 39.291 86.9606C39.1754 86.9895 39.0452 87.004 38.9151 87.004ZM38.6694 81.6837C38.4959 81.7416 38.2501 81.9584 38.0477 82.5512C37.6863 83.621 37.4694 85.4715 38.1344 86.2378C38.3947 86.5269 38.7561 86.6281 39.2477 86.5414C40.491 86.3101 43.0644 85.833 43.18 85.4571C43.1077 84.9077 43.6427 84.7053 44.0041 84.5607C44.1631 84.5029 44.3366 84.4306 44.3944 84.3583C44.8715 83.7656 44.8571 83.2162 44.7559 82.8692C44.727 82.7391 44.6836 82.6379 44.6402 82.5656L39.0597 83.5776C39.0019 83.5921 38.944 83.5776 38.8862 83.5343C38.8428 83.4909 38.8139 83.4475 38.7995 83.3752L38.6694 81.6837Z" fill="#261D3F"/>
<path d="M38.1488 86.6859L36.9923 84.9366C36.9923 84.9366 31.2816 86.0932 28.6504 84.9366C24.053 82.9126 24.9204 75.8574 25.7011 72.3443C26.4818 68.8312 28.2167 65.7662 28.2167 65.7662C28.2167 65.7662 23.9951 68.1517 21.1326 73.3997C18.2701 78.6477 17.3303 90.387 26.9155 92.5122C33.19 93.8857 38.1488 86.6859 38.1488 86.6859Z" fill="#3E80FA"/>
<path d="M27.9707 93.0616C25.9755 93.0616 24.4431 92.3243 23.3732 91.5436C21.5516 90.2135 20.6842 88.4931 20.6553 88.4208C20.5974 88.3196 20.6408 88.1895 20.7565 88.1316C20.8577 88.0738 20.9878 88.1172 21.0456 88.2328C21.0601 88.2473 21.8986 89.9388 23.6479 91.2111C25.9755 92.9026 28.6935 93.105 31.7585 91.7893C31.8741 91.746 31.9898 91.7893 32.0476 91.905C32.091 92.0207 32.0476 92.1363 31.932 92.1941C30.4429 92.8158 29.1272 93.0616 27.9707 93.0616Z" fill="white"/>
<path d="M31.5419 85.7173C27.8697 85.7173 26.2361 83.4909 26.1638 83.3897C26.0915 83.2885 26.1204 83.1584 26.2071 83.0861C26.3083 83.0138 26.4385 83.0427 26.5107 83.1294C26.5252 83.1584 28.4191 85.6884 32.5973 85.2113C32.7129 85.1968 32.8286 85.2836 32.843 85.3992C32.8575 85.5149 32.7708 85.6306 32.6551 85.645C32.2648 85.6884 31.8889 85.7173 31.5419 85.7173Z" fill="white"/>
<path d="M43.9025 52.3354C43.9025 58.0027 40.1292 64.4796 34.4619 64.4796C28.7946 64.4796 23.0117 59.593 23.0117 53.9257C23.0117 48.2585 27.7826 42.7936 33.4643 42.7936C39.1316 42.7792 43.9025 46.6537 43.9025 52.3354Z" fill="#261D3F"/>
<path d="M25.3679 57.0774C25.3679 57.728 24.8475 58.2629 24.1824 58.2629C23.5319 58.2629 22.9969 57.7424 22.9969 57.0774C22.9969 56.4268 23.5174 55.8919 24.1824 55.8919C24.8475 55.8919 25.3679 56.4268 25.3679 57.0774Z" fill="#261D3F"/>
<path d="M24.1973 59.3183C24.1973 60.3014 24.9924 61.111 25.99 61.111C26.9731 61.111 27.7827 60.3158 27.7827 59.3183C27.7827 58.3352 26.9875 57.5256 25.99 57.5256C24.9924 57.5256 24.1973 58.3352 24.1973 59.3183Z" fill="#261D3F"/>
<path d="M28.2304 63.3229C29.4121 63.3229 30.3701 62.365 30.3701 61.1833C30.3701 60.0015 29.4121 59.0436 28.2304 59.0436C27.0487 59.0436 26.0907 60.0015 26.0907 61.1833C26.0907 62.365 27.0487 63.3229 28.2304 63.3229Z" fill="#261D3F"/>
<path d="M31.4982 64.8121C32.8396 64.8121 33.927 63.7246 33.927 62.3832C33.927 61.0418 32.8396 59.9544 31.4982 59.9544C30.1568 59.9544 29.0693 61.0418 29.0693 62.3832C29.0693 63.7246 30.1568 64.8121 31.4982 64.8121Z" fill="#261D3F"/>
<path d="M37.3175 63.6838C38.0388 62.3857 37.5712 60.7486 36.2731 60.0272C34.9749 59.3059 33.3378 59.7735 32.6165 61.0717C31.8952 62.3698 32.3628 64.0069 33.6609 64.7283C34.9591 65.4496 36.5962 64.982 37.3175 63.6838Z" fill="#261D3F"/>
<path d="M25.0119 55.0434C26.1332 54.579 26.6657 53.2935 26.2012 52.1722C25.7368 51.0509 24.4513 50.5184 23.33 50.9829C22.2087 51.4473 21.6762 52.7328 22.1407 53.8541C22.6051 54.9754 23.8906 55.5079 25.0119 55.0434Z" fill="#261D3F"/>
<path d="M27.0742 52.1041C26.149 53.0294 24.6454 53.0294 23.7057 52.1041C22.7804 51.1789 22.7804 49.6753 23.7057 48.7356C24.6309 47.8103 26.1345 47.8103 27.0742 48.7356C27.9995 49.6608 27.9995 51.1789 27.0742 52.1041Z" fill="#261D3F"/>
<path d="M24.1683 56.7594C24.9189 56.7594 25.5273 56.1509 25.5273 55.4004C25.5273 54.6498 24.9189 54.0414 24.1683 54.0414C23.4178 54.0414 22.8093 54.6498 22.8093 55.4004C22.8093 56.1509 23.4178 56.7594 24.1683 56.7594Z" fill="#261D3F"/>
<path d="M44.5098 52.6679C44.5098 53.6799 43.6857 54.5185 42.6592 54.5185C41.6472 54.5185 40.8087 53.6944 40.8087 52.6679C40.8087 51.6559 41.6328 50.8174 42.6592 50.8174C43.6857 50.8174 44.5098 51.6414 44.5098 52.6679Z" fill="#261D3F"/>
<path d="M44.1577 51.6805C44.9199 50.9183 44.9199 49.6825 44.1577 48.9203C43.3955 48.1582 42.1597 48.1582 41.3975 48.9203C40.6353 49.6825 40.6353 50.9183 41.3975 51.6805C42.1597 52.4427 43.3955 52.4427 44.1577 51.6805Z" fill="#261D3F"/>
<path d="M41.4159 50.0222C42.5577 50.0222 43.4833 49.0966 43.4833 47.9548C43.4833 46.8131 42.5577 45.8875 41.4159 45.8875C40.2741 45.8875 39.3485 46.8131 39.3485 47.9548C39.3485 49.0966 40.2741 50.0222 41.4159 50.0222Z" fill="#261D3F"/>
<path d="M41.875 45.7465C42.0464 44.6904 41.3292 43.6953 40.2731 43.5239C39.217 43.3525 38.2219 44.0697 38.0505 45.1258C37.8791 46.1819 38.5963 47.177 39.6524 47.3484C40.7085 47.5198 41.7036 46.8026 41.875 45.7465Z" fill="#261D3F"/>
<path d="M38.7959 44.4209C38.9647 43.706 38.522 42.9897 37.8071 42.8209C37.0922 42.6521 36.3758 43.0947 36.207 43.8096C36.0382 44.5245 36.4809 45.2409 37.1958 45.4097C37.9107 45.5785 38.6271 45.1358 38.7959 44.4209Z" fill="#261D3F"/>
<path d="M36.8129 43.8037C36.8893 42.8807 36.203 42.0705 35.2799 41.9941C34.3568 41.9177 33.5466 42.604 33.4702 43.5271C33.3938 44.4501 34.0802 45.2604 35.0033 45.3368C35.9263 45.4131 36.7365 44.7268 36.8129 43.8037Z" fill="#261D3F"/>
<path d="M34.701 45.055C34.9018 43.8176 34.0615 42.6517 32.8241 42.4508C31.5867 42.25 30.4208 43.0903 30.2199 44.3277C30.0191 45.5651 30.8594 46.731 32.0968 46.9319C33.3342 47.1327 34.5002 46.2924 34.701 45.055Z" fill="#261D3F"/>
<path d="M31.763 45.2802C32.0198 44.1923 31.3462 43.1022 30.2583 42.8453C29.1704 42.5884 28.0803 43.2621 27.8234 44.35C27.5665 45.4379 28.2402 46.528 29.3281 46.7849C30.4159 47.0418 31.5061 46.3681 31.763 45.2802Z" fill="#261D3F"/>
<path d="M29.9694 46.0832C30.0695 44.8737 29.1701 43.812 27.9606 43.7119C26.7511 43.6118 25.6894 44.5112 25.5893 45.7207C25.4892 46.9303 26.3886 47.9919 27.5981 48.092C28.8076 48.1921 29.8693 47.2928 29.9694 46.0832Z" fill="#261D3F"/>
<path d="M26.3511 47.6657C26.3511 48.4898 25.6861 49.1548 24.862 49.1548C24.038 49.1548 23.3729 48.4898 23.3729 47.6657C23.3729 46.8417 24.038 46.1766 24.862 46.1766C25.6861 46.1622 26.3511 46.8417 26.3511 47.6657Z" fill="#261D3F"/>
<path d="M43.4391 66.9373C41.8922 66.6626 42.109 61.6314 42.2247 60.5905L42.615 60.6773C43.6993 60.923 44.6391 59.8821 44.2921 58.8267C44.0752 58.1762 43.8873 57.6557 43.8873 57.6557L44.0029 56.7304C42.7885 56.2678 41.8633 54.6775 41.8633 54.6775L39.2031 55.2124C37.8875 55.7473 38.9284 56.3112 39.5356 57.5979C39.5356 57.5979 39.7525 58.7111 38.7116 58.0316C37.7863 57.4244 37.555 57.4677 37.3092 57.8436C37.0924 58.1617 37.1068 58.581 37.2948 58.9135L37.4827 59.2315C37.6706 59.5496 37.9742 59.7809 38.3357 59.8532C38.4947 63.5254 36.0514 65.8096 33.6081 66.359C33.5503 66.3734 33.478 66.3879 33.4202 66.4024L33.3768 66.4168C33.4636 66.5036 42.4705 72.7202 44.4367 67.2409L43.4391 66.9373Z" fill="white"/>
<path d="M41.112 69.6697C37.6856 69.6697 33.2472 66.5759 33.2038 66.5325C33.146 66.4747 33.1171 66.3879 33.146 66.3156C33.1749 66.2433 33.2327 66.1855 33.3195 66.1566L33.3628 66.1421C33.4207 66.1277 33.4785 66.1132 33.5508 66.0988C35.8206 65.5928 38.206 63.4675 38.1193 59.9833C37.7579 59.8677 37.4687 59.6219 37.2808 59.3038L37.0928 58.9858C36.8615 58.5665 36.8615 58.075 37.1217 57.6846C37.2374 57.4967 37.4253 57.2943 37.7723 57.3232C38.0181 57.3521 38.3217 57.4822 38.8277 57.8147C39.1313 58.0171 39.2614 58.0171 39.2903 57.9882C39.3337 57.9593 39.3482 57.7858 39.3337 57.6268C39.1747 57.2798 38.9723 57.0051 38.7988 56.7449C38.5096 56.3112 38.2639 55.9642 38.3795 55.6028C38.4518 55.357 38.6976 55.1546 39.1313 54.9811C39.1458 54.9811 39.1602 54.9666 39.1747 54.9666L41.8348 54.4317C41.9216 54.4173 42.0228 54.4606 42.0661 54.5329C42.0806 54.5474 42.9625 56.0799 44.1046 56.4991C44.2058 56.528 44.2492 56.6292 44.2492 56.7304L44.1335 57.5979C44.1914 57.7424 44.3504 58.2051 44.5239 58.7255C44.7118 59.2894 44.5817 59.8966 44.1914 60.3448C43.7866 60.7929 43.1938 60.9809 42.6011 60.8508L42.4565 60.8219C42.2975 62.6579 42.3987 66.5036 43.5263 66.6915H43.5408L44.5094 66.9517C44.5673 66.9662 44.6106 67.0096 44.6395 67.0674C44.6685 67.1252 44.6685 67.1831 44.654 67.2409C44.2058 68.4698 43.3962 69.236 42.2107 69.5251C41.8493 69.6263 41.4878 69.6697 41.112 69.6697ZM33.8978 66.4746C35.2278 67.3276 39.5217 69.8721 42.2396 69.0914C43.1071 68.8456 43.7432 68.2529 44.1335 67.3421L43.3962 67.1397C41.4445 66.7783 42.0083 60.6194 42.0083 60.5472C42.0083 60.4893 42.0517 60.4315 42.0951 60.3881C42.1384 60.3592 42.2107 60.3448 42.2685 60.3592L42.6589 60.446C43.0926 60.5472 43.5263 60.4026 43.8299 60.0701C44.1335 59.7376 44.2203 59.2894 44.0757 58.8701C43.8588 58.234 43.6709 57.7135 43.6709 57.6991C43.6564 57.6702 43.6564 57.6268 43.6564 57.5979L43.7576 56.8316C42.7601 56.3835 41.9939 55.2702 41.7481 54.8799L39.2614 55.3859C38.9867 55.5016 38.8132 55.6172 38.7843 55.7329C38.741 55.8919 38.9289 56.1811 39.1458 56.4991C39.3337 56.7738 39.5361 57.0774 39.7241 57.4678C39.7385 57.4822 39.7385 57.4967 39.7385 57.5111C39.753 57.6123 39.8397 58.1328 39.5217 58.3352C39.1891 58.5521 38.7265 58.2629 38.5819 58.1617C38.1627 57.887 37.888 57.7569 37.729 57.7424C37.6567 57.7424 37.5988 57.7424 37.4832 57.9159C37.3241 58.1617 37.3241 58.4942 37.4687 58.7689L37.6567 59.087C37.8012 59.3472 38.0615 59.5352 38.3651 59.593C38.4663 59.6074 38.5386 59.6942 38.5386 59.7954C38.6976 63.5254 36.2832 65.8241 33.8978 66.4746Z" fill="#261D3F"/>
<path d="M40.0277 66.7927C39.8542 66.7927 39.6663 66.7638 39.4494 66.6626C39.3338 66.6192 39.2904 66.4891 39.3338 66.3735C39.3771 66.2578 39.5072 66.2144 39.6229 66.2578C40.1 66.4602 40.4325 66.2578 40.447 66.2433C40.5482 66.1711 40.6783 66.2 40.7506 66.3012C40.8229 66.4024 40.7939 66.5325 40.6927 66.6048C40.6638 66.6192 40.4036 66.7927 40.0277 66.7927Z" fill="#261D3F"/>
<path d="M40.042 61.1544C40.042 62.0507 39.3192 62.7736 38.4228 62.7736C37.5265 62.7736 36.8036 62.0507 36.8036 61.1544C36.8036 60.258 37.5265 59.5352 38.4228 59.5352C39.3047 59.5496 40.042 60.2725 40.042 61.1544Z" fill="#3E80FA"/>
</g>
<defs>
<clipPath id="clip0_6583_23175">
<rect width="119.909" height="130" fill="white" transform="translate(0.545654)"/>
</clipPath>
</defs>
</svg>
