<svg width="133" height="130" viewBox="0 0 133 130" fill="none" xmlns="http://www.w3.org/2000/svg">
<g clip-path="url(#clip0_6431_17277)">
<path d="M97.2457 94.3087C94.2095 92.1519 91.0775 90.1389 87.8975 88.2217C81.4256 84.3234 74.7141 80.8406 67.9546 77.4696C64.407 75.6962 60.7476 74.0826 57.1362 72.437C53.5087 70.7755 49.8653 69.1299 46.2219 67.4843C42.8981 65.9825 39.5742 64.4808 36.2344 62.963C25.1764 39.5096 12.9517 12.9568 14.4538 12.9568L127.847 9.74559C130.532 9.74559 132.705 11.9184 132.705 14.6024V93.1105C132.705 95.7785 130.516 97.9673 127.847 97.9673H102.487C100.761 96.7052 98.9716 95.5389 97.2457 94.3087Z" fill="white"/>
<path d="M127.847 98.191H102.407L102.343 98.143C101.384 97.4401 100.377 96.7531 99.4025 96.0821C98.6515 95.5708 97.8685 95.0276 97.1014 94.4844C94.3049 92.5034 91.2528 90.5063 87.7532 88.3974C80.9298 84.2915 73.8507 80.6649 67.8262 77.6453C65.0777 76.2713 62.2333 74.9773 59.4688 73.7311C58.6538 73.3636 57.8388 72.9962 57.0238 72.6127C53.4124 70.9672 49.8009 69.3216 46.1096 67.6601C42.8656 66.1902 39.5099 64.6725 36.1221 63.1387L36.0422 63.1068L36.0103 63.0269C13.1111 14.5385 13.91 13.2924 14.1657 12.877C14.2296 12.7811 14.3415 12.7172 14.4534 12.7172L127.831 9.50595C130.659 9.50595 132.944 11.7906 132.944 14.6024V93.1105C132.944 95.9223 130.659 98.191 127.847 98.191ZM102.567 97.7117H127.847C130.404 97.7117 132.465 95.6507 132.465 93.0945V14.6024C132.465 12.0622 130.388 9.98524 127.847 9.98524L14.5652 13.1965C14.5173 13.7876 15.4122 16.8711 21.2768 30.0356C24.9202 38.2155 30.0178 49.2393 36.4257 62.7713C39.7815 64.289 43.1053 65.8068 46.3173 67.2607C50.0086 68.9382 53.6201 70.5678 57.2316 72.2133C58.0465 72.5808 58.8615 72.9642 59.6765 73.3317C62.441 74.5778 65.2854 75.8719 68.05 77.2619C74.0744 80.2814 81.1695 83.9081 88.0089 88.03C91.5085 90.1389 94.5766 92.1359 97.3731 94.133C98.1241 94.6762 98.9072 95.2034 99.6582 95.7146C100.633 96.3537 101.608 97.0247 102.567 97.7117Z" fill="#261D3F"/>
<path d="M10.6817 9.77756H125.529C128.07 9.77756 130.116 11.8385 130.116 14.3628V93.0785C130.116 95.6188 128.054 97.6638 125.529 97.6638H10.6817C8.14089 97.6638 6.09546 95.6028 6.09546 93.0785V14.3788C6.09546 11.8385 8.15687 9.77756 10.6817 9.77756Z" fill="white"/>
<path d="M14.0539 12.9249H122.222C124.603 12.9249 126.552 14.8261 126.552 17.1906V90.2986C126.552 92.6472 124.619 94.5643 122.222 94.5643H14.0539C11.6729 94.5643 9.72339 92.6631 9.72339 90.2986V17.1906C9.72339 14.8261 11.657 12.9249 14.0539 12.9249Z" fill="#E1E1E1"/>
<path d="M125.53 97.9194H10.6821C8.01349 97.9194 5.8562 95.7466 5.8562 93.0945V14.3788C5.8562 11.7107 8.02947 9.55388 10.6821 9.55388L86.7784 9.53791C86.9063 9.53791 87.0181 9.64974 87.0181 9.77755C87.0181 9.90536 86.9063 10.0172 86.7784 10.0172H10.6821C8.28515 10.0172 6.3356 11.9663 6.3356 14.3628V93.0785C6.3356 95.475 8.28515 97.4241 10.6821 97.4241H125.53C127.927 97.4241 129.876 95.475 129.876 93.0785V14.3788C129.876 11.9823 127.927 10.0332 125.53 10.0332L114.424 9.93732C114.296 9.93732 114.184 9.82548 114.184 9.69767C114.184 9.56986 114.296 9.45802 114.424 9.45802L125.53 9.55388C128.198 9.55388 130.356 11.7267 130.356 14.3788V93.0945C130.356 95.7626 128.182 97.9194 125.53 97.9194Z" fill="#261D3F"/>
<path d="M126.377 20.0344L126.505 17.3663C126.505 15.0178 124.491 13.1326 122.094 13.1326H13.974C11.593 13.1486 9.64346 15.0178 9.64346 17.3663L9.51562 20.6415L126.377 20.0344Z" fill="white"/>
<path d="M14.3092 18.1811C15.077 18.1811 15.6994 17.5588 15.6994 16.7912C15.6994 16.0235 15.077 15.4012 14.3092 15.4012C13.5414 15.4012 12.9189 16.0235 12.9189 16.7912C12.9189 17.5588 13.5414 18.1811 14.3092 18.1811Z" fill="#E1E1E1"/>
<path d="M18.736 18.1012C19.5038 18.1012 20.1262 17.4789 20.1262 16.7113C20.1262 15.9437 19.5038 15.3214 18.736 15.3214C17.9681 15.3214 17.3457 15.9437 17.3457 16.7113C17.3457 17.4789 17.9681 18.1012 18.736 18.1012Z" fill="#E1E1E1"/>
<path d="M23.5299 18.277C24.2977 18.277 24.9202 17.6547 24.9202 16.887C24.9202 16.1194 24.2977 15.4971 23.5299 15.4971C22.7621 15.4971 22.1396 16.1194 22.1396 16.887C22.1396 17.6547 22.7621 18.277 23.5299 18.277Z" fill="#E1E1E1"/>
<path d="M37.1442 45.0056H21.1963V49.0476H37.1442V45.0056Z" fill="white"/>
<path d="M103.621 45.1813H46.9403V49.2233H103.621V45.1813Z" fill="white"/>
<path d="M36.9685 65.1518H21.0205V69.1938H36.9685V65.1518Z" fill="white"/>
<path d="M103.429 65.3275H46.748V69.3695H103.429V65.3275Z" fill="white"/>
<path d="M36.6013 84.9306H20.6533V88.9726H36.6013V84.9306Z" fill="white"/>
<path d="M103.062 85.1063H46.381V89.1484H103.062V85.1063Z" fill="white"/>
<path d="M61.7057 52.0192H46.8604V56.0612H61.7057V52.0192Z" fill="white"/>
<path d="M116.533 52.1949H63.7676V56.237H116.533V52.1949Z" fill="white"/>
<path d="M61.5299 58.6654H46.6846V62.7074H61.5299V58.6654Z" fill="white"/>
<path d="M116.357 58.8571H63.5918V62.8991H116.357V58.8571Z" fill="white"/>
<path d="M37.1442 25.4344H21.1963V29.4765H37.1442V25.4344Z" fill="white"/>
<path d="M103.621 25.6102H46.9403V29.6522H103.621V25.6102Z" fill="white"/>
<path d="M61.7213 32.4481H46.876V36.4901H61.7213V32.4481Z" fill="white"/>
<path d="M116.533 32.6238H63.7676V36.6659H116.533V32.6238Z" fill="white"/>
<path d="M61.5299 39.1103H46.6846V43.1523H61.5299V39.1103Z" fill="white"/>
<path d="M116.357 39.286H63.5918V43.328H116.357V39.286Z" fill="white"/>
<path d="M61.5299 71.9737H46.6846V76.0158H61.5299V71.9737Z" fill="white"/>
<path d="M116.357 72.1654H63.5918V76.2074H116.357V72.1654Z" fill="white"/>
<path d="M61.3385 78.6359H46.4932V82.6779H61.3385V78.6359Z" fill="white"/>
<path d="M116.165 78.8116H63.3995V82.8536H116.165V78.8116Z" fill="white"/>
<path d="M124.762 44.8937C124.73 44.7499 124.602 44.6541 124.458 44.6381L122.333 44.6061C122.205 44.6061 122.093 44.5262 122.045 44.4144C121.886 44.031 121.694 43.6635 121.486 43.312C121.422 43.2002 121.422 43.0724 121.502 42.9765L122.733 41.2351C122.812 41.1073 122.812 40.9475 122.717 40.8517L121.47 39.4777C121.374 39.3659 121.214 39.3499 121.087 39.4138L119.233 40.4523C119.121 40.5162 118.993 40.5002 118.897 40.4363C118.562 40.1966 118.226 39.973 117.859 39.7653C117.747 39.7014 117.683 39.5895 117.699 39.4617L117.891 37.3369C117.907 37.1931 117.811 37.0493 117.667 37.0173L115.893 36.4422C115.749 36.3943 115.606 36.4582 115.526 36.586L114.439 38.4073C114.375 38.5191 114.263 38.567 114.135 38.5511C113.72 38.5031 113.32 38.4872 112.905 38.4872C112.777 38.4872 112.665 38.4233 112.617 38.3114L111.722 36.3783C111.658 36.2505 111.515 36.1706 111.371 36.2025L109.549 36.586C109.405 36.6179 109.309 36.7457 109.293 36.8895L109.261 39.0144C109.261 39.1422 109.182 39.254 109.07 39.302C108.686 39.4617 108.319 39.6534 107.967 39.8611C107.855 39.925 107.727 39.925 107.632 39.8452L105.906 38.615C105.778 38.5351 105.618 38.5351 105.506 38.631L104.132 39.8771C104.02 39.973 104.004 40.1327 104.068 40.2605L105.107 42.1138C105.171 42.2256 105.155 42.3535 105.091 42.4493C104.851 42.7848 104.627 43.1363 104.42 43.4878C104.356 43.5996 104.244 43.6635 104.116 43.6475L102.007 43.4558C101.863 43.4399 101.719 43.5357 101.687 43.6795L101.112 45.4529C101.064 45.5967 101.128 45.7405 101.256 45.8203L103.077 46.9067C103.189 46.9706 103.237 47.0825 103.221 47.2103C103.173 47.6257 103.157 48.0251 103.157 48.4564C103.157 48.5843 103.093 48.6961 102.981 48.744L101.048 49.6387C100.92 49.7026 100.84 49.8464 100.872 49.9902L101.256 51.8115C101.288 51.9553 101.415 52.0511 101.559 52.0671L103.684 52.0991C103.812 52.0991 103.924 52.1789 103.972 52.2908C104.132 52.6742 104.324 53.0417 104.531 53.3932C104.595 53.505 104.595 53.6328 104.515 53.7287L103.285 55.4701C103.205 55.5979 103.205 55.7577 103.301 55.8535L104.547 57.2275C104.643 57.3393 104.803 57.3553 104.931 57.2914L106.785 56.2529C106.896 56.189 107.024 56.205 107.12 56.2689C107.456 56.5086 107.791 56.7322 108.159 56.9399C108.271 57.0038 108.335 57.1157 108.319 57.2435L108.127 59.3683C108.111 59.5121 108.207 59.6559 108.351 59.6879L110.124 60.263C110.268 60.3109 110.412 60.247 110.492 60.1192L111.579 58.2979C111.642 58.1861 111.754 58.1381 111.882 58.1541C112.298 58.202 112.697 58.218 113.113 58.218C113.24 58.218 113.352 58.2819 113.4 58.3938L114.295 60.3269C114.359 60.4547 114.503 60.5346 114.647 60.5027L116.468 60.1192C116.612 60.0873 116.708 59.9595 116.724 59.8157L116.756 57.6908C116.756 57.563 116.836 57.4512 116.948 57.4032C117.331 57.2435 117.699 57.0517 118.05 56.8441C118.162 56.7801 118.29 56.7801 118.386 56.86L120.112 58.0902C120.24 58.1701 120.399 58.1701 120.511 58.0742L121.886 56.8281C121.997 56.7322 122.013 56.5725 121.95 56.4446L120.911 54.5914C120.847 54.4795 120.863 54.3517 120.927 54.2559C121.167 53.9204 121.39 53.5689 121.598 53.2174C121.662 53.1056 121.774 53.0417 121.902 53.0576L124.011 53.2494C124.155 53.2653 124.299 53.1695 124.331 53.0257L124.906 51.2523C124.954 51.1085 124.89 50.9647 124.762 50.8849L122.94 49.7985C122.828 49.7346 122.78 49.6227 122.796 49.4949C122.844 49.0795 122.86 48.6801 122.86 48.2487C122.86 48.1209 122.924 48.0091 123.036 47.9612L124.97 47.0665C125.098 47.0026 125.177 46.8588 125.146 46.715L124.762 44.8937ZM113.448 54.5594C110.013 54.7991 107.04 52.2109 106.801 48.7919C106.561 45.357 109.15 42.3854 112.569 42.1458C116.005 41.9061 118.977 44.4943 119.217 47.9132C119.457 51.3482 116.868 54.3198 113.448 54.5594Z" fill="white"/>
<path d="M114.583 60.8701C114.328 60.8701 114.088 60.7263 113.976 60.4707L113.097 58.5695C112.682 58.5695 112.282 58.5535 111.867 58.5056L110.796 60.3109C110.636 60.5825 110.317 60.7103 110.013 60.6145L108.239 60.0393C107.936 59.9435 107.744 59.6559 107.776 59.3364L107.968 57.2435C107.616 57.0358 107.264 56.8121 106.945 56.5725L105.123 57.5949C104.851 57.7547 104.5 57.6908 104.292 57.4512L103.046 56.0772C102.838 55.8375 102.806 55.502 102.998 55.2304L104.196 53.521C103.989 53.1695 103.797 52.802 103.637 52.4346L101.544 52.4186C101.224 52.4186 100.952 52.1949 100.888 51.8914L100.505 50.0701C100.441 49.7665 100.601 49.447 100.888 49.3192L102.79 48.4405C102.79 48.0251 102.806 47.6097 102.854 47.2103L101.064 46.1399C100.793 45.9801 100.665 45.6606 100.761 45.357L101.336 43.5836C101.432 43.2801 101.719 43.0884 102.039 43.1203L104.116 43.312C104.324 42.9606 104.548 42.6091 104.788 42.2895L103.765 40.4682C103.605 40.1966 103.669 39.8452 103.909 39.6375L105.283 38.3913C105.523 38.1836 105.858 38.1517 106.13 38.3434L107.84 39.5416C108.191 39.3339 108.559 39.1582 108.926 38.9824L108.958 36.8895C108.958 36.57 109.182 36.2984 109.486 36.2345L111.307 35.8511C111.627 35.7871 111.931 35.9469 112.058 36.2345L112.937 38.1357C113.353 38.1357 113.752 38.1517 114.168 38.1996L115.238 36.3943C115.398 36.1227 115.718 35.9948 116.021 36.0907L117.795 36.6659C118.099 36.7617 118.291 37.0493 118.259 37.3688L118.067 39.4617C118.418 39.6694 118.77 39.8931 119.09 40.1327L120.911 39.1102C121.183 38.9505 121.535 39.0144 121.742 39.254L122.989 40.628C123.196 40.8676 123.228 41.2032 123.037 41.4747L121.838 43.1842C122.046 43.5357 122.238 43.9032 122.397 44.2706L124.491 44.2866C124.81 44.2866 125.082 44.5103 125.146 44.8138L125.529 46.6351C125.593 46.9387 125.434 47.2582 125.146 47.386L123.244 48.2647C123.244 48.6801 123.228 49.0955 123.18 49.4949L124.97 50.5653C125.242 50.7251 125.37 51.0446 125.274 51.3482L124.699 53.1215C124.603 53.4251 124.315 53.6168 123.995 53.5849L121.918 53.3931C121.71 53.7446 121.487 54.0961 121.247 54.4156L122.27 56.2369C122.429 56.5085 122.365 56.86 122.126 57.0677L120.751 58.3139C120.512 58.5216 120.176 58.5535 119.905 58.3618L118.195 57.1636C117.843 57.3713 117.476 57.547 117.108 57.7227L117.092 59.8157C117.092 60.1352 116.868 60.4068 116.565 60.4707L114.743 60.8541C114.679 60.8701 114.631 60.8701 114.583 60.8701ZM113.129 57.8506C113.401 57.8506 113.64 58.0103 113.736 58.234L114.615 60.1352L116.357 59.7677L116.373 57.6748C116.373 57.4032 116.533 57.1636 116.788 57.0677C117.156 56.908 117.508 56.7322 117.859 56.5245C118.083 56.3807 118.37 56.3967 118.594 56.5565L120.304 57.7547L121.63 56.5565L120.608 54.7352C120.48 54.5115 120.496 54.2239 120.656 54.0002C120.895 53.6807 121.103 53.3452 121.311 52.9937C121.439 52.7541 121.694 52.6263 121.966 52.6582L124.043 52.8499L124.587 51.1565L122.797 50.086C122.573 49.9582 122.445 49.6866 122.477 49.431C122.525 49.0476 122.541 48.6322 122.541 48.2328C122.541 47.9612 122.685 47.7215 122.925 47.6097L124.826 46.731L124.459 44.9896L122.365 44.9736C122.094 44.9736 121.854 44.8138 121.758 44.5582C121.598 44.1907 121.423 43.8393 121.215 43.4878C121.087 43.2641 121.087 42.9765 121.247 42.7529L122.445 41.0434L121.247 39.7173L119.425 40.7398C119.201 40.8676 118.914 40.8517 118.69 40.6919C118.37 40.4523 118.035 40.2446 117.683 40.0369C117.444 39.9091 117.316 39.6534 117.348 39.3818L117.54 37.3049L115.846 36.7617L114.775 38.5511C114.647 38.7747 114.376 38.9025 114.12 38.8706C113.736 38.8227 113.337 38.8067 112.921 38.8067C112.921 38.8067 112.921 38.8067 112.905 38.8067C112.65 38.8067 112.394 38.6469 112.298 38.4233L111.419 36.5221L109.677 36.8895L109.645 38.9824C109.645 39.254 109.486 39.4937 109.23 39.5895C108.862 39.7493 108.511 39.925 108.159 40.1327C107.936 40.2605 107.648 40.2605 107.424 40.1008L105.714 38.9025L104.388 40.1008L105.411 41.9221C105.539 42.1458 105.523 42.4333 105.363 42.657C105.123 42.9765 104.915 43.312 104.708 43.6635C104.58 43.9032 104.324 44.031 104.052 43.999L101.975 43.8073L101.432 45.5008L103.222 46.5712C103.445 46.699 103.573 46.9706 103.541 47.2263C103.493 47.6097 103.477 48.0251 103.477 48.4245C103.477 48.6961 103.333 48.9357 103.094 49.0476L101.192 49.9263L101.56 51.6677L103.653 51.6837C103.925 51.6837 104.164 51.8434 104.26 52.0991C104.42 52.4665 104.596 52.818 104.804 53.1695C104.931 53.3931 104.931 53.6807 104.772 53.9044L103.573 55.6139L104.772 56.9399L106.593 55.9174C106.817 55.7896 107.105 55.8056 107.328 55.9653C107.648 56.205 107.984 56.4127 108.335 56.6204C108.575 56.7482 108.703 57.0038 108.671 57.2754L108.479 59.3523L110.173 59.8955L111.243 58.1062C111.371 57.8825 111.643 57.7547 111.899 57.7867C112.314 57.8506 112.714 57.8665 113.129 57.8506C113.113 57.8506 113.113 57.8506 113.129 57.8506ZM113.001 54.9429C109.582 54.9429 106.673 52.2908 106.434 48.8239C106.178 45.1973 108.926 42.0499 112.538 41.7943C116.165 41.5387 119.313 44.2866 119.569 47.8973C119.825 51.5239 117.076 54.6713 113.465 54.9269C113.305 54.9269 113.161 54.9429 113.001 54.9429ZM113.417 54.2079L113.449 54.5754L113.417 54.2079C116.645 53.9843 119.074 51.1724 118.85 47.9612C118.626 44.7339 115.814 42.3055 112.602 42.5292C109.374 42.7529 106.945 45.5647 107.169 48.776C107.392 51.9872 110.189 54.4316 113.417 54.2079Z" fill="#261D3F"/>
<path d="M110.652 19.4273L109.549 16.2959L105.954 16.7113C105.57 16.0243 105.139 15.3853 104.66 14.7942L106.353 11.5989L103.829 9.42608L100.92 11.5829C100.249 11.1995 99.562 10.864 98.8429 10.5764L98.715 6.94974L95.4551 6.32666L94.0169 9.64975C93.2499 9.64975 92.4829 9.69768 91.7158 9.82549L89.7982 6.74205L86.6662 7.84442L87.0816 11.4551C86.3945 11.8385 85.7553 12.2699 85.1641 12.7492L81.9681 11.0557L79.8108 13.5799L81.9681 16.4877C81.5846 17.1587 81.249 17.8456 80.9613 18.5646L77.3339 18.6924L76.7107 21.9516L80.0345 23.3895C80.0345 24.1563 80.0825 24.9232 80.2103 25.6901L77.1421 27.6072L78.2448 30.7386L81.8402 30.3232C82.2238 31.0102 82.6552 31.6493 83.1346 32.2404L81.4407 35.4357L83.9656 37.6085L86.8739 35.4516C87.5451 35.8351 88.2322 36.1706 88.9513 36.4582L89.0791 40.0848L92.339 40.7079L93.7772 37.3848C94.5443 37.3848 95.3113 37.3369 96.0783 37.209L97.9959 40.2925L101.128 39.1901L100.713 35.5795C101.4 35.196 102.039 34.7647 102.63 34.2854L105.826 35.9789L107.983 33.4546L105.842 30.5788C106.226 29.9078 106.561 29.2208 106.849 28.5019L110.476 28.3741L111.099 25.1149L107.776 23.677C107.776 22.9102 107.728 22.1433 107.6 21.3764L110.652 19.4273ZM96.7175 31.6173C92.2591 33.183 87.3853 30.8345 85.8192 26.3771C84.2532 21.9196 86.6023 17.0468 91.0606 15.4811C95.519 13.9155 100.393 16.264 101.959 20.7214C103.525 25.1788 101.176 30.0516 96.7175 31.6173Z" fill="#3E80FA"/>
<path d="M92.3395 41.1073C92.3235 41.1073 92.2916 41.1073 92.2756 41.1073L89.0157 40.4842C88.8559 40.4523 88.728 40.3085 88.728 40.1487L88.6002 36.7617C88.0089 36.5221 87.4497 36.2505 86.8904 35.9469L84.1738 37.9759C84.0459 38.0718 83.8542 38.0718 83.7263 37.9599L81.2015 35.7871C81.0737 35.6753 81.0417 35.4996 81.1216 35.3398L82.7036 32.3522C82.3201 31.8569 81.9685 31.3297 81.633 30.7865L78.2612 31.17C78.0854 31.1859 77.9416 31.0901 77.8777 30.9303L76.7751 27.7989C76.7271 27.6392 76.7751 27.4634 76.9189 27.3676L79.7953 25.5622C79.6994 24.9232 79.6515 24.3001 79.6515 23.677L76.5514 22.335C76.3916 22.2711 76.3117 22.0954 76.3436 21.9356L76.9668 18.6764C76.9988 18.5167 77.1426 18.3888 77.3024 18.3888L80.6902 18.261C80.9298 17.6699 81.2015 17.1107 81.5051 16.5516L79.4757 13.8356C79.3798 13.7078 79.3798 13.516 79.4917 13.3882L81.6489 10.864C81.7608 10.7361 81.9366 10.7042 82.0964 10.7841L85.0846 12.3657C85.58 11.9823 86.1073 11.6308 86.6507 11.2953L86.2671 7.92429C86.2512 7.74855 86.347 7.60477 86.5068 7.54086L89.6389 6.43849C89.7987 6.39056 89.9745 6.43849 90.0704 6.58228L91.8601 9.45803C92.4993 9.36217 93.1225 9.31424 93.7457 9.31424L95.088 6.19884C95.152 6.03908 95.3277 5.9592 95.4875 5.99115L98.7474 6.61423C98.9072 6.64618 99.0351 6.78997 99.0351 6.94973L99.1629 10.3367C99.7542 10.5764 100.313 10.848 100.873 11.1515L103.589 9.12253C103.717 9.02667 103.909 9.02667 104.037 9.1385L106.562 11.3113C106.689 11.4231 106.721 11.5989 106.642 11.7586L105.059 14.7462C105.443 15.2415 105.795 15.7687 106.13 16.3119L109.502 15.9285C109.678 15.9125 109.822 16.0084 109.885 16.1681L110.988 19.2995C111.036 19.4593 110.988 19.635 110.844 19.7309L107.968 21.5362C108.064 22.1752 108.112 22.7983 108.112 23.4214L111.212 24.7634C111.372 24.8273 111.451 25.0031 111.42 25.1628L110.796 28.422C110.764 28.5818 110.621 28.7096 110.461 28.7096L107.073 28.8374C106.833 29.4285 106.562 29.9877 106.258 30.5469L108.287 33.2629C108.383 33.3907 108.383 33.5824 108.271 33.7102L106.114 36.2345C106.002 36.3623 105.827 36.3942 105.667 36.3144L102.678 34.7327C102.183 35.1161 101.656 35.4676 101.112 35.8031L101.496 39.1741C101.512 39.3499 101.416 39.4937 101.256 39.5576L98.1242 40.6599C97.9644 40.7079 97.7886 40.6599 97.6928 40.5162L95.903 37.6404C95.2638 37.7363 94.6406 37.7842 94.0174 37.7842L92.6751 40.8996C92.6112 41.0274 92.4833 41.1073 92.3395 41.1073ZM89.4312 39.8292L92.1318 40.3404L93.4581 37.2729C93.522 37.1451 93.6498 37.0493 93.7937 37.0493C94.5287 37.0493 95.2798 37.0014 96.0468 36.8735C96.1907 36.8576 96.3345 36.9215 96.4144 37.0333L98.1881 39.8611L100.777 38.9505L100.393 35.6274C100.377 35.4836 100.441 35.3398 100.569 35.2759C101.224 34.9084 101.864 34.4771 102.439 34.0138C102.551 33.9179 102.71 33.9019 102.838 33.9818L105.779 35.5475L107.568 33.4706L105.571 30.7865C105.491 30.6747 105.475 30.5149 105.555 30.3871C105.938 29.7481 106.258 29.0611 106.53 28.3581C106.578 28.2303 106.705 28.1344 106.849 28.1185L110.189 28.0066L110.7 25.3066L107.648 23.9806C107.52 23.9167 107.425 23.7889 107.425 23.6451C107.425 22.9102 107.377 22.1433 107.249 21.3924C107.233 21.2486 107.297 21.1048 107.409 21.0249L110.237 19.2516L109.326 16.6634L106.018 17.0468C105.874 17.0628 105.731 16.9989 105.667 16.8711C105.299 16.2001 104.868 15.577 104.404 15.0018C104.308 14.89 104.292 14.7302 104.372 14.6024L105.938 11.6628L103.861 9.87342L101.176 11.8705C101.065 11.9503 100.905 11.9663 100.777 11.8864C100.138 11.503 99.4506 11.1835 98.7474 10.9119C98.6196 10.864 98.5237 10.7361 98.5077 10.5924L98.3959 7.25329L95.6953 6.74204L94.337 9.82549C94.2731 9.9533 94.1452 10.0492 94.0014 10.0492C93.2663 10.0492 92.5153 10.0971 91.7482 10.2249C91.6044 10.2409 91.4606 10.177 91.3807 10.0651L89.6069 7.23731L87.0182 8.14796L87.4017 11.4711C87.4177 11.6148 87.3538 11.7586 87.2259 11.8225C86.5708 12.19 85.9316 12.6214 85.3563 13.0847C85.2444 13.1805 85.0846 13.1965 84.9568 13.1166L82.0325 11.535L80.2427 13.6119L82.2402 16.2959C82.3201 16.4078 82.3361 16.5675 82.2562 16.6953C81.8727 17.3344 81.5531 18.0214 81.2814 18.7243C81.2335 18.8522 81.1056 18.948 80.9618 18.964L77.622 19.0758L77.1107 21.7758L80.1628 23.1019C80.2906 23.1658 80.3865 23.2936 80.3865 23.4374C80.3865 24.1723 80.4345 24.9392 80.5623 25.6901C80.5783 25.8338 80.5144 25.9776 80.4025 26.0575L77.5741 27.8309L78.4849 30.4191L81.7928 30.0356C81.9366 30.0197 82.0804 30.0836 82.1443 30.2114C82.5119 30.8824 82.9433 31.5055 83.4067 32.0806C83.5026 32.1925 83.5186 32.3522 83.4387 32.48L81.8727 35.4197L83.95 37.209L86.6347 35.212C86.7465 35.1321 86.9063 35.1161 87.0342 35.196C87.6734 35.5795 88.3605 35.899 89.0636 36.1706C89.1915 36.2185 89.2873 36.3463 89.3033 36.4901L89.4312 39.8292ZM93.8896 32.4641C92.5632 32.4641 91.2529 32.1605 90.0384 31.5853C87.8971 30.5469 86.2831 28.7415 85.4841 26.5049C83.8542 21.8717 86.3151 16.7752 90.9492 15.1456C93.2024 14.3628 95.6154 14.4906 97.7567 15.5291C99.898 16.5675 101.512 18.3729 102.311 20.6096C103.941 25.2427 101.48 30.3392 96.8458 31.9688C95.8711 32.3043 94.8803 32.4641 93.8896 32.4641ZM93.9055 15.3533C92.9947 15.3533 92.0838 15.5131 91.1889 15.8166C86.9223 17.3024 84.6851 21.9995 86.1713 26.2492C86.8904 28.3102 88.3765 29.9717 90.342 30.9143C92.3075 31.8569 94.5287 31.9848 96.5901 31.2658C100.857 29.78 103.094 25.083 101.608 20.8332C100.889 18.7723 99.4026 17.1107 97.4371 16.1681C96.3185 15.6249 95.104 15.3533 93.9055 15.3533Z" fill="#261D3F"/>
<path d="M34.8118 104.885L12.424 104.661C8.38107 104.661 4.91343 102.025 4.21031 97.9993L0.375134 76.2554C-0.088283 73.6672 1.89323 71.2867 4.49795 71.2867H19.1036L34.8118 104.885Z" fill="white"/>
<path d="M35.1794 105.125L12.408 104.901C8.14135 104.901 4.65773 102.073 3.95462 98.0312L0.11944 76.2873C-0.104279 74.9773 0.247279 73.6353 1.09421 72.6128C1.94115 71.6062 3.1716 71.0311 4.46597 71.0311H19.2314L35.1794 105.125ZM4.48195 71.5264C3.31542 71.5264 2.22879 72.0376 1.46175 72.9323C0.694716 73.8429 0.375118 75.0412 0.582857 76.2075L4.41803 97.9513C5.08919 101.754 8.36507 104.422 12.408 104.422L34.4123 104.645L18.9278 71.5264H4.48195Z" fill="#3E80FA"/>
<path d="M21.4522 126.038H17.7609V104.613L21.4522 104.741V126.038Z" fill="white"/>
<path d="M21.6924 126.277H17.5216V104.374L21.6924 104.502V126.277ZM18.001 125.798H21.213V104.965L18.001 104.869V125.798Z" fill="#3E80FA"/>
<path d="M28.3078 123.945H11.7367C9.14793 123.945 7.05457 126.038 7.05457 128.626H32.99C32.99 126.038 30.8966 123.945 28.3078 123.945Z" fill="white"/>
<path d="M33.2301 128.866H6.81531V128.626C6.81531 125.91 9.02053 123.705 11.7371 123.705H28.3083C31.0249 123.705 33.2301 125.91 33.2301 128.626V128.866ZM7.2947 128.386H32.7347C32.6069 126.054 30.6733 124.185 28.2923 124.185H11.7371C9.37209 124.185 7.42254 126.038 7.2947 128.386Z" fill="#3E80FA"/>
<path d="M6.41546 88.3176C6.3036 88.3176 6.20772 88.2377 6.17576 88.1258L4.32209 77.5654C4.30611 77.4376 4.38601 77.3098 4.51385 77.2938C4.64169 77.2779 4.76953 77.3577 4.78551 77.4856L6.65516 88.03C6.67114 88.1578 6.59124 88.2856 6.4634 88.3016C6.44742 88.3176 6.43144 88.3176 6.41546 88.3176Z" fill="#3E80FA"/>
<path d="M23.6738 64.4329C23.6738 64.4329 25.9749 61.637 28.34 63.0269C29.7142 63.8417 30.9127 65.2157 32.7824 66.0784C33.5654 66.4299 34.0128 66.5098 34.0128 66.5098C34.0128 66.5098 32.7185 67.2926 28.9951 67.4204C25.3038 67.5483 23.6738 64.4329 23.6738 64.4329Z" fill="#261D3F"/>
<path d="M30.2413 62.0044C28.3557 61.7009 27.2051 59.8316 26.8536 58.7932C26.6139 58.0902 26.7417 57.7068 26.8056 57.547C27.0613 56.9719 27.7005 56.7642 27.9722 56.6683C30.3691 55.8056 30.465 53.9843 32.3347 53.7926C33.8528 53.6328 33.8847 54.8151 36.4095 55.0387C36.9209 55.0866 37.7039 55.1026 38.4869 55.6139C38.8704 55.8535 39.3978 56.205 39.4777 56.6683C39.5576 57.1476 39.1741 57.8665 34.2363 60.5027C31.4078 61.9885 30.8805 62.1003 30.2413 62.0044Z" fill="#261D3F"/>
<path d="M35.227 58.6973C35.227 58.6973 32.4624 57.6908 31.5036 57.7388C30.5449 57.8027 30.5768 60.247 30.5768 60.247C30.5768 60.247 29.5861 59.1287 28.9948 59.8476C28.4035 60.5666 29.9376 61.3814 29.9376 61.3814L25.0957 65.8228L29.602 66.9891L31.8872 64.4968C31.8872 64.4968 32.6542 65.3755 33.3573 65.1997C34.0604 65.024 35.0672 63.1867 35.0672 63.1867C35.4507 63.1228 35.6904 62.7553 35.5945 62.3879L35.4187 61.7329C35.3069 61.3334 35.3069 60.9021 35.4027 60.5027C35.5306 59.9595 35.4986 59.4003 35.3069 58.8731L35.227 58.6973Z" fill="white"/>
<path d="M29.6024 67.2447C29.5864 67.2447 29.5544 67.2447 29.5385 67.2447L25.0321 66.0784C24.9522 66.0624 24.8883 65.9826 24.8563 65.9027C24.8404 65.8228 24.8564 65.7269 24.9203 65.663L29.5385 61.4293C29.2189 61.2216 28.7235 60.8222 28.6276 60.3589C28.5797 60.1192 28.6436 59.8956 28.8034 59.7038C28.9792 59.4961 29.2029 59.3843 29.4426 59.3683C29.7782 59.3524 30.0978 59.5441 30.3375 59.7198C30.3854 58.921 30.6091 57.563 31.472 57.4991C32.4788 57.4352 35.1794 58.4257 35.2912 58.4736C35.3551 58.4896 35.4031 58.5535 35.435 58.6174L35.499 58.7932C35.7067 59.3524 35.7546 59.9754 35.6108 60.5666C35.5149 60.934 35.5309 61.3174 35.6268 61.6849L35.8026 62.3399C35.8665 62.5796 35.8345 62.8352 35.6907 63.0589C35.5789 63.2346 35.4031 63.3624 35.2113 63.4263C34.9397 63.8896 34.1087 65.2796 33.4056 65.4713C32.7984 65.6311 32.1911 65.1678 31.8875 64.8802L29.7782 67.1648C29.7302 67.2127 29.6663 67.2447 29.6024 67.2447ZM25.5914 65.711L29.5225 66.7335L31.7117 64.353C31.7597 64.305 31.8236 64.2731 31.8875 64.2731C31.9514 64.2731 32.0153 64.305 32.0633 64.353C32.255 64.5607 32.8303 65.1039 33.2778 64.976C33.7092 64.8642 34.4763 63.7459 34.8438 63.0749C34.8757 63.0109 34.9397 62.963 35.0196 62.947C35.1314 62.9311 35.2273 62.8672 35.2912 62.7713C35.3551 62.6754 35.3711 62.5636 35.3392 62.4518L35.1634 61.7967C35.0515 61.3494 35.0355 60.8861 35.1474 60.4547C35.2752 59.9595 35.2433 59.4482 35.0515 58.9689L35.0196 58.905C34.1886 58.6015 32.2071 57.9624 31.488 57.9944C30.9287 58.0263 30.7849 59.5281 30.7849 60.263C30.7849 60.3589 30.721 60.4547 30.6251 60.4867C30.5292 60.5186 30.4174 60.5027 30.3534 60.4228C30.2256 60.279 29.7782 59.8636 29.4426 59.8636C29.4426 59.8636 29.4426 59.8636 29.4266 59.8636C29.3147 59.8636 29.2189 59.9115 29.139 60.0234C29.075 60.1032 29.0431 60.1991 29.0591 60.279C29.123 60.6145 29.6823 61.0139 30.0019 61.1896C30.0658 61.2216 30.1137 61.3015 30.1297 61.3654C30.1457 61.4453 30.1137 61.5251 30.0498 61.5731L25.5914 65.711Z" fill="#261D3F"/>
<path d="M31.8878 64.7524C31.8239 64.7524 31.76 64.7204 31.7121 64.6725C31.0729 63.9376 30.945 63.2186 30.929 63.1867C30.8971 63.0589 30.993 62.9311 31.1208 62.8991C31.2486 62.8672 31.3765 62.963 31.4084 63.0908C31.4084 63.1068 31.5363 63.7139 32.0796 64.353C32.1595 64.4488 32.1595 64.6086 32.0476 64.6885C31.9997 64.7204 31.9358 64.7524 31.8878 64.7524Z" fill="#261D3F"/>
<path d="M36.7451 121.612C37.0647 121.293 38.9024 115.557 38.9024 115.557L42.5458 118.161L38.5508 123.53L36.7451 121.612Z" fill="white"/>
<path d="M38.5668 123.753C38.5029 123.753 38.439 123.721 38.391 123.673L36.5853 121.772C36.5054 121.676 36.5054 121.532 36.5853 121.437C36.7931 121.149 37.8317 118.161 38.6947 115.477C38.7106 115.398 38.7746 115.35 38.8545 115.318C38.9344 115.286 39.0143 115.302 39.0622 115.35L42.7056 117.954C42.7536 117.986 42.7855 118.05 42.8015 118.114C42.8175 118.177 42.8015 118.241 42.7536 118.289L38.7586 123.657C38.7106 123.721 38.6467 123.753 38.5668 123.753ZM37.0487 121.564L38.5349 123.13L42.2102 118.193L39.0462 115.941C38.5668 117.395 37.4962 120.686 37.0487 121.564Z" fill="#261D3F"/>
<path d="M43.3134 128.85L40.9004 128.834C39.3024 128.818 37.8163 128.003 36.9374 126.661L34.5404 122.875C33.8852 121.82 34.2528 120.446 35.3394 119.855C36.3461 119.328 37.3848 118.801 37.6245 118.832C38.1199 118.88 38.3276 121.229 38.3276 121.229L40.4849 121.309C40.4849 121.309 41.5556 125.734 42.4824 126.246C43.1695 126.613 43.6489 127.156 43.9685 127.636C44.3041 128.179 43.9206 128.85 43.3134 128.85Z" fill="#261D3F"/>
<path d="M43.0734 128.147C43.0574 128.147 43.0574 128.147 43.0414 128.147L39.7336 127.651C38.9186 127.524 38.1995 127.044 37.784 126.341L34.8597 121.453C34.7958 121.341 34.8278 121.197 34.9396 121.117C35.0515 121.053 35.1953 121.085 35.2752 121.197L38.1995 126.086C38.5511 126.677 39.1423 127.06 39.8135 127.172L43.1213 127.667C43.2492 127.683 43.3451 127.811 43.3291 127.939C43.2811 128.067 43.1853 128.147 43.0734 128.147Z" fill="white"/>
<path d="M38.9828 124.472C38.871 124.472 38.7751 124.408 38.7591 124.296C38.7272 124.169 38.8071 124.041 38.9349 124.009L40.7726 123.514C40.9004 123.482 41.0283 123.562 41.0602 123.689C41.0922 123.817 41.0123 123.945 40.8845 123.977L39.0468 124.456C39.0308 124.472 38.9988 124.472 38.9828 124.472Z" fill="white"/>
<path d="M39.9421 125.415C39.8302 125.415 39.7343 125.335 39.7024 125.239C39.6704 125.111 39.7503 124.983 39.8781 124.951L41.1086 124.648C41.2364 124.616 41.3643 124.696 41.3962 124.824C41.4282 124.951 41.3483 125.079 41.2205 125.111L40.006 125.415C39.974 125.415 39.958 125.415 39.9421 125.415Z" fill="white"/>
<path d="M49.1777 120.51L53.3964 124.76L55.6336 123.945L51.7505 118.513L49.1777 120.51Z" fill="white"/>
<path d="M53.3961 124.999C53.3322 124.999 53.2683 124.967 53.2204 124.935L49.0017 120.686C48.9537 120.638 48.9218 120.574 48.9378 120.494C48.9378 120.43 48.9697 120.366 49.0336 120.318L51.6064 118.305C51.6543 118.257 51.7183 118.241 51.7822 118.257C51.8461 118.273 51.91 118.305 51.942 118.353L55.8411 123.785C55.889 123.849 55.905 123.929 55.873 123.993C55.857 124.057 55.7931 124.121 55.7292 124.153L53.492 124.967C53.4601 124.999 53.4281 124.999 53.3961 124.999ZM49.529 120.542L53.4601 124.488L55.2658 123.833L51.7023 118.864L49.529 120.542Z" fill="#261D3F"/>
<path d="M52.0699 124.089C52.0699 124.089 51.8621 125.894 52.2137 127.492C52.4054 128.338 53.1725 128.946 54.0354 128.946H64.4064C65.1414 128.946 65.477 128.019 64.9177 127.54C63.08 125.99 59.6763 123.641 55.5055 122.938L54.339 124.568L52.0699 124.089Z" fill="#261D3F"/>
<path d="M63.9113 127.763H53.1568C53.029 127.763 52.9171 127.651 52.9171 127.524C52.9171 127.396 53.029 127.284 53.1568 127.284H63.9113C64.0391 127.284 64.151 127.396 64.151 127.524C64.151 127.651 64.0391 127.763 63.9113 127.763Z" fill="white"/>
<path d="M57.9022 125.846C57.8703 125.846 57.8383 125.846 57.8064 125.83C57.6785 125.782 57.6306 125.638 57.6785 125.511L58.2538 124.137C58.3017 124.009 58.4456 123.961 58.5734 124.009C58.7012 124.057 58.7492 124.201 58.7012 124.328L58.1259 125.702C58.094 125.798 57.9981 125.846 57.9022 125.846Z" fill="white"/>
<path d="M59.7721 126.214C59.7402 126.214 59.7242 126.214 59.6922 126.198C59.5644 126.15 59.5005 126.022 59.5324 125.894L59.9479 124.648C59.9958 124.52 60.1237 124.456 60.2515 124.488C60.3794 124.536 60.4433 124.664 60.4113 124.792L59.9959 126.038C59.9799 126.15 59.884 126.214 59.7721 126.214Z" fill="white"/>
<path d="M26.8053 90.8099C26.8053 90.8099 46.125 88.5572 51.8618 93.5259C57.5986 98.4946 42.8012 119.871 42.8012 119.871L38.1191 116.404L42.5615 101.29L24.7119 96.2259L26.8053 90.8099Z" fill="#261D3F"/>
<path d="M16.179 100.651C18.9915 101.546 24.0092 102.696 31.0243 102.6C33.0218 102.569 34.8595 103.671 35.7704 105.444C37.8478 109.518 42.3541 116.851 49.6729 121.612L53.1725 119.727L44.2397 99.6289C43.4247 97.7916 41.9067 96.3697 40.021 95.6827L22.3153 89.1963C22.3153 89.1963 16.8342 87.6625 14.1336 92.5673C13.6542 93.446 13.3186 94.2288 13.1109 94.9318C12.3758 97.3442 13.766 99.8845 16.179 100.651Z" fill="#261D3F"/>
<path d="M48.2666 108.943C48.1707 108.943 48.0908 108.895 48.0429 108.799L44 99.7247C43.217 97.9514 41.7308 96.5614 39.9091 95.9064L31.4398 92.791C31.3119 92.743 31.248 92.6152 31.2959 92.4874C31.3439 92.3596 31.4717 92.2957 31.5996 92.3436L40.0689 95.459C42.0025 96.162 43.6005 97.6638 44.4314 99.533L48.4743 108.624C48.5223 108.751 48.4743 108.879 48.3465 108.943C48.3305 108.943 48.2986 108.943 48.2666 108.943Z" fill="white"/>
<path d="M43.5523 116.756C43.4884 116.756 43.4244 116.724 43.3765 116.676C42.5615 115.829 41.7625 114.918 40.9955 113.976C40.9156 113.88 40.9316 113.72 41.0275 113.64C41.1233 113.56 41.2831 113.576 41.363 113.672C42.1141 114.615 42.9131 115.509 43.7121 116.34C43.808 116.436 43.808 116.58 43.7121 116.676C43.6641 116.74 43.6162 116.756 43.5523 116.756Z" fill="white"/>
<path d="M41.1876 114.072C41.1236 114.072 41.0437 114.04 40.9958 113.976C40.6283 113.512 40.2447 113.033 39.8772 112.538C39.7973 112.426 39.8133 112.282 39.9251 112.202C40.037 112.122 40.1808 112.138 40.2607 112.25C40.6283 112.73 40.9958 113.209 41.3633 113.672C41.4432 113.768 41.4273 113.928 41.3314 114.008C41.2834 114.056 41.2355 114.072 41.1876 114.072Z" fill="white"/>
<path d="M52.022 60.3748C52.1178 60.1831 52.5972 59.608 52.8209 59.4482L55.138 57.2914C55.138 57.2914 55.4416 58.3298 55.0741 58.9369C55.7932 58.9529 56.3525 59.0807 56.3525 59.0807C56.3525 59.0807 57.4072 58.1541 57.6788 57.9784C57.9505 57.8186 58.2861 57.563 58.6376 57.563C58.9892 57.563 59.3407 57.8346 59.3407 57.8346L57.2953 60.4228L53.588 61.4452L52.8209 67.8198L51.1271 65.5512L52.022 60.3748Z" fill="white"/>
<path d="M52.8369 68.0755C52.757 68.0755 52.6931 68.0435 52.6451 67.9796L50.9513 65.711C50.9193 65.663 50.9033 65.5991 50.9033 65.5352L51.7822 60.3429C51.7822 60.3269 51.7982 60.295 51.7982 60.279C51.9101 60.0553 52.4054 59.4642 52.6611 59.2725L54.9782 57.1316C55.0421 57.0677 55.122 57.0517 55.2019 57.0837C55.2818 57.0997 55.3457 57.1636 55.3617 57.2435C55.3777 57.2754 55.6014 58.0742 55.4097 58.7452C55.7932 58.7772 56.0968 58.8251 56.2726 58.8571C56.5442 58.6174 57.3113 57.9624 57.535 57.8186C57.5669 57.8026 57.6149 57.7707 57.6468 57.7547C57.9185 57.579 58.2541 57.3713 58.6216 57.3713C59.0531 57.3713 59.4366 57.6588 59.4685 57.6908C59.5165 57.7228 59.5484 57.7867 59.5644 57.8506C59.5644 57.9145 59.5484 57.9784 59.5165 58.0263L57.4711 60.6145C57.4391 60.6624 57.3912 60.6784 57.3432 60.6944L53.7957 61.6689L53.0446 67.8837C53.0286 67.9796 52.9647 68.0595 52.8688 68.0914C52.8688 68.0755 52.8529 68.0755 52.8369 68.0755ZM51.3987 65.5192L52.6611 67.2127L53.3642 61.4293C53.3802 61.3334 53.4441 61.2535 53.54 61.2216L57.1674 60.2151L58.9891 57.9145C58.8773 57.8665 58.7495 57.8186 58.6376 57.8186C58.3979 57.8186 58.1422 57.9784 57.9185 58.1222C57.8706 58.1541 57.8386 58.1701 57.8066 58.202C57.6309 58.3139 56.9437 58.905 56.5123 59.2725C56.4483 59.3204 56.3844 59.3364 56.3045 59.3204C56.3045 59.3204 55.7452 59.2086 55.0741 59.1766C54.9942 59.1766 54.9143 59.1287 54.8663 59.0488C54.8184 58.9689 54.8344 58.889 54.8663 58.8091C55.0421 58.5216 55.0261 58.0902 54.9942 57.7547L52.9807 59.6239L52.9647 59.6399C52.7889 59.7677 52.3575 60.263 52.2456 60.4547L51.3987 65.5192Z" fill="#261D3F"/>
<path d="M33.1024 67.1968C33.1024 67.1968 36.8736 70.9033 44.0326 70.0565C51.1916 69.2258 51.3994 61.7488 51.3994 61.7488H53.7484C53.7484 61.7488 57.2161 74.8015 44.8316 78.9075C32.4472 83.0134 28.4043 75.808 28.4043 75.808L33.1024 67.1968Z" fill="#3E80FA"/>
<path d="M23.1305 97.488C23.1305 97.488 15.5081 100.524 11.2255 97.5998C5.80833 93.8933 8.63677 83.3489 10.5544 78.9075C12.2642 74.9773 14.8689 72.2293 18.6881 68.1713C19.7748 67.021 20.4459 66.4139 21.4527 65.9346C25.4476 64.0174 30.2895 66.1902 32.6705 67.2607C34.4763 68.0755 35.8665 68.9701 36.7934 69.6411C36.7934 69.6411 29.155 79.0672 29.2988 84.7868C29.4586 90.5063 31.8076 90.2667 31.8076 90.2667C31.8076 90.2667 28.5797 95.475 23.1305 97.488Z" fill="#3E80FA"/>
<path d="M29.4589 70.7755C29.6827 72.485 30.194 74.6418 31.4245 76.8625C35.3555 83.956 43.2656 85.6655 44.8316 85.969L43.2656 87.7105C43.2656 87.7105 26.4867 90.4584 21.6128 75.137C21.6128 75.137 19.7591 69.4175 23.882 67.9956C24.7449 67.708 25.8635 67.5323 26.9341 67.9477C28.8038 68.6826 29.395 70.5199 29.4589 70.7755Z" fill="#3E80FA"/>
<path d="M43.1055 87.375C43.2333 87.2951 44.3998 85.4897 45.6942 85.1063C46.9886 84.7229 49.7851 87.5507 49.7851 87.5507L43.1055 87.375Z" fill="white"/>
<path d="M49.7691 87.7903L43.0895 87.6146C42.9776 87.6146 42.8977 87.5347 42.8658 87.4389C42.8338 87.343 42.8817 87.2472 42.9457 87.1832C42.9776 87.1513 43.0415 87.0554 43.1055 86.9756C43.5209 86.4483 44.5117 85.1862 45.5983 84.8667C46.9886 84.4513 49.6253 87.0714 49.9289 87.375C49.9928 87.4389 50.0248 87.5507 49.9768 87.6466C49.9608 87.7264 49.865 87.7903 49.7691 87.7903ZM43.6008 87.1353L49.1618 87.2791C48.0752 86.2726 46.4932 85.1063 45.7581 85.314C44.8952 85.5856 44.0323 86.5921 43.6008 87.1353Z" fill="#261D3F"/>
<path d="M18.4325 68.4749C18.4325 68.4749 16.0195 64.1453 24.6966 63.634C26.1348 63.5541 26.5982 63.7459 28.6117 64.8962C32.9582 67.3725 34.0289 66.5257 34.0289 66.5257L33.102 69.5133L18.4325 68.4749Z" fill="#3E80FA"/>
<path d="M19.4871 67.9636C19.4551 67.9636 19.4072 67.9477 19.3752 67.9317C19.2634 67.8678 19.2154 67.724 19.2794 67.6122C19.2953 67.5642 21.6923 63.3145 26.758 65.4074C26.8858 65.4553 26.9337 65.5991 26.8858 65.7269C26.8379 65.8548 26.694 65.9027 26.5662 65.8548C21.9001 63.9376 19.7747 67.6761 19.6948 67.8358C19.6469 67.9317 19.567 67.9636 19.4871 67.9636Z" fill="#261D3F"/>
<path d="M29.3148 85.0264C29.2668 85.0264 29.2189 85.0105 29.171 84.9785C28.8673 84.7548 21.9001 79.6104 20.8614 73.8749C20.8454 73.7471 20.9253 73.6193 21.0532 73.6033C21.181 73.5873 21.3088 73.6672 21.3248 73.795C22.3316 79.3388 29.3787 84.5471 29.4586 84.5951C29.5704 84.675 29.5864 84.8187 29.5065 84.9306C29.4586 84.9945 29.3787 85.0264 29.3148 85.0264Z" fill="#261D3F"/>
<path d="M32.2871 78.8436C32.2232 78.8436 32.1752 78.8276 32.1273 78.7796C32.0314 78.6838 32.0154 78.54 32.1113 78.4441C34.6042 75.6642 34.1567 71.7341 34.1407 71.6861C34.1248 71.5583 34.2206 71.4305 34.3485 71.4145C34.4763 71.3985 34.6042 71.4944 34.6201 71.6222C34.6361 71.798 35.0995 75.808 32.4628 78.7477C32.4149 78.8276 32.351 78.8436 32.2871 78.8436Z" fill="#261D3F"/>
<path d="M31.8876 78.0607C31.8077 78.0607 31.7118 78.0128 31.6798 77.9329L29.2988 73.1719C29.2349 73.0601 29.2828 72.9163 29.4107 72.8524C29.5225 72.7885 29.6664 72.8364 29.7303 72.9642L32.1113 77.7252C32.1752 77.837 32.1273 77.9808 31.9994 78.0447C31.9675 78.0447 31.9195 78.0607 31.8876 78.0607Z" fill="#261D3F"/>
<path d="M16.1154 99.1176C14.3416 99.1176 12.5518 98.7821 11.0977 97.7916C8.6847 96.146 7.58208 92.9348 7.90168 88.5093C8.17334 84.8986 9.33987 81.1282 10.3466 78.8116C12.0245 74.9453 14.5973 72.1974 18.1608 68.4269C17.985 68.0435 17.9051 67.4045 17.9051 67.2926C17.8572 65.9826 18.6721 63.7459 24.6966 63.3784C26.1827 63.2825 26.6621 63.4902 28.7235 64.6725C32.7664 66.9891 33.869 66.3181 33.885 66.3181C33.9649 66.2542 34.0768 66.2542 34.1726 66.3181C34.2525 66.382 34.3005 66.4938 34.2685 66.5897L33.9649 67.5802C34.0608 67.6441 34.1567 67.724 34.2685 67.8039C34.7 68.0435 35.0995 68.2832 35.499 68.5228C37.2408 69.3855 40.1332 70.3281 44.0163 69.8808C46.8927 69.5453 48.97 68.1074 50.1845 65.5831C51.1113 63.6979 51.1753 61.8766 51.1753 61.8606C51.1753 61.7328 51.2871 61.621 51.415 61.621H53.748C53.8599 61.621 53.9558 61.7009 53.9717 61.7967C54.0037 61.9245 54.8506 65.1358 54.1635 68.9222C53.5243 72.421 51.415 77.0382 44.8952 79.211L44.8153 78.9874L44.8952 79.211C40.7404 80.585 37.081 80.8406 33.9649 79.9779C37.7202 83.972 42.7858 85.346 44.8632 85.7613C44.9431 85.7773 45.023 85.8412 45.039 85.9211C45.0709 86.001 45.055 86.0969 44.991 86.1608L43.425 87.9022C43.3931 87.9501 43.3451 87.9661 43.2812 87.9821C43.2013 87.998 35.8985 89.1324 29.5545 85.6176C29.7302 88.1259 30.3854 89.2123 30.9127 89.6915C31.3602 90.091 31.7437 90.075 31.7597 90.059C31.8556 90.059 31.9355 90.091 31.9834 90.1708C32.0313 90.2507 32.0313 90.3466 31.9834 90.4265C31.9514 90.4744 28.6276 95.7306 23.1785 97.7436C23.0187 97.7916 19.6309 99.1176 16.1154 99.1176ZM25.2559 63.8417C25.0961 63.8417 24.9203 63.8417 24.7285 63.8577C21.4526 64.0494 19.3593 64.8323 18.6562 66.1263C18.0489 67.2127 18.6721 68.3471 18.6721 68.3471C18.7201 68.4429 18.7041 68.5548 18.6402 68.6346C15.0447 72.437 12.456 75.185 10.794 79.0033C9.11615 82.8696 5.95213 93.7016 11.3693 97.3922C15.5081 100.22 22.9707 97.2963 23.0506 97.2644C27.5889 95.5868 30.6091 91.5927 31.4081 90.4424C31.2004 90.3785 30.9287 90.2667 30.6571 90.027C29.7302 89.2282 29.2029 87.5827 29.091 85.1702C29.091 85.0903 29.139 84.9945 29.2029 84.9466C29.2828 84.8986 29.3787 84.8986 29.4426 84.9466C35.3711 88.4294 42.3224 87.5986 43.1534 87.4708L44.3838 86.1128C41.9229 85.5696 36.7134 83.972 33.0381 79.6104C32.9742 79.5305 32.9582 79.4027 33.0221 79.3229C33.086 79.227 33.1979 79.195 33.2938 79.227C36.4738 80.3613 40.3249 80.2016 44.7513 78.7317C49.801 77.0542 52.8052 73.7151 53.7001 68.8264C54.2754 65.6471 53.7161 62.8192 53.5563 62.1003H51.6227C51.5108 63.3944 50.616 69.5932 44.0642 70.3441C40.0692 70.8074 37.081 69.8329 35.2753 68.9382C35.2753 68.9382 35.2593 68.9382 35.2593 68.9222C34.8598 68.6826 34.4603 68.4429 34.0288 68.2033C34.0288 68.2033 34.0128 68.2033 34.0128 68.1873C33.8371 68.0755 33.6773 67.9636 33.5494 67.8518L33.5334 67.8358C33.4536 67.7719 33.4216 67.6761 33.4536 67.5802L33.6773 66.8613C32.9901 66.9571 31.472 66.7814 28.4998 65.0719C26.758 64.0973 26.2466 63.8417 25.2559 63.8417Z" fill="#261D3F"/>
<path d="M66.3087 87.0714H52.1025L62.6333 70.8713C62.9689 70.3601 63.5282 70.0565 64.1514 70.0565H75.6889C76.424 70.0565 76.8714 70.8394 76.4719 71.4465L66.3087 87.0714Z" fill="#261D3F"/>
<path d="M69.3441 75.7441C68.8806 76.4471 67.8899 77.0223 67.1229 77.0223C66.3558 77.0223 66.1161 76.4471 66.5795 75.7441C67.043 75.0412 68.0337 74.466 68.8008 74.466C69.5678 74.466 69.8075 75.0412 69.3441 75.7441Z" fill="white"/>
<path d="M65.2376 88.4294H40.9002C40.277 88.4294 39.7656 87.9182 39.7656 87.2951V86.9596H66.3722V87.2951C66.3722 87.9182 65.8608 88.4294 65.2376 88.4294Z" fill="#261D3F"/>
<path d="M65.5732 87.327H53.3646C53.2367 87.327 53.1249 87.2152 53.1249 87.0874C53.1249 86.9596 53.2367 86.8477 53.3646 86.8477H65.5732C65.7011 86.8477 65.8129 86.9596 65.8129 87.0874C65.8129 87.2312 65.7011 87.327 65.5732 87.327Z" fill="white"/>
<path d="M72.5727 88.4454H19.2797C18.289 88.4454 17.5219 89.4838 17.6338 90.6661L21.3092 129.521H23.9618L21.6607 93.0466C21.6128 92.4075 22.0442 91.8484 22.5716 91.8484H68.322C69.121 91.8484 69.7602 92.6631 69.6963 93.6377L67.4112 129.744H70.0638L73.8031 90.1069C73.899 89.2282 73.3237 88.4454 72.5727 88.4454Z" fill="white"/>
<path d="M70.0798 130H67.4271C67.3632 130 67.2993 129.968 67.2513 129.92C67.2034 129.872 67.1874 129.808 67.1874 129.744L69.4725 93.6377C69.5045 93.1744 69.3607 92.743 69.073 92.4555C68.8653 92.2318 68.6096 92.1199 68.338 92.1199H22.5715C22.3638 92.1199 22.22 92.2318 22.1401 92.3276C21.9643 92.5034 21.8844 92.791 21.9004 93.0626L24.2015 129.537C24.2015 129.601 24.1855 129.665 24.1375 129.712C24.0896 129.76 24.0257 129.792 23.9618 129.792H21.3091C21.1813 129.792 21.0854 129.696 21.0694 129.569L17.394 90.714C17.3301 89.9951 17.5378 89.3081 17.9853 88.8288C18.3368 88.4454 18.8003 88.2217 19.2797 88.2217H72.5886C72.9721 88.2217 73.3397 88.3975 73.6113 88.701C73.9629 89.0844 74.1227 89.6117 74.0748 90.1708L70.3355 129.808C70.3035 129.904 70.2076 130 70.0798 130ZM67.6828 129.521H69.872L73.5794 90.1069C73.6113 89.6915 73.4835 89.2761 73.2438 89.0045C73.052 88.7969 72.8283 88.685 72.5726 88.685H19.2797C18.9281 88.685 18.5925 88.8448 18.3368 89.1324C17.9853 89.5158 17.8095 90.091 17.8734 90.6501L21.5328 129.297H23.7061L21.421 93.0785C21.389 92.6631 21.5328 92.2637 21.7885 91.9921C21.9962 91.7685 22.2839 91.6407 22.5715 91.6407H68.322C68.7215 91.6407 69.105 91.8164 69.4086 92.1359C69.7762 92.5353 69.9679 93.0945 69.936 93.6856L67.6828 129.521Z" fill="#261D3F"/>
<path d="M50.1526 8.25979C50.0567 8.25979 49.9768 8.21186 49.9288 8.11601C49.8649 8.00417 49.9288 7.86038 50.0407 7.79648C60.5235 2.79586 74.0745 1.13432 82.8315 1.70947C82.9593 1.72544 83.0712 1.83728 83.0552 1.96509C83.0392 2.0929 82.9273 2.18876 82.7995 2.18876C74.0905 1.61361 60.6514 3.27516 50.2484 8.24382C50.2325 8.24382 50.2005 8.25979 50.1526 8.25979Z" fill="#261D3F"/>
<path d="M52.0066 5.16038C51.9107 5.16038 51.8308 5.11245 51.7988 5.03257C51.7349 4.92073 51.7828 4.77694 51.9107 4.71304C59.3413 1.07042 68.386 -0.031953 71.5979 -2.05124e-07C71.7258 -2.05124e-07 71.8376 0.111835 71.8376 0.239646C71.8376 0.367457 71.7258 0.479292 71.5979 0.479292C68.4179 0.447339 59.4852 1.53373 52.1184 5.1444C52.0865 5.16038 52.0545 5.16038 52.0066 5.16038Z" fill="#261D3F"/>
<path d="M91.3486 109.998C91.2687 109.998 91.2047 109.966 91.1568 109.902C91.0769 109.79 91.1089 109.646 91.2207 109.566C95.4234 106.674 99.0509 103.559 101.975 100.316C102.071 100.22 102.215 100.204 102.311 100.3C102.407 100.396 102.423 100.54 102.327 100.635C99.3865 103.895 95.7271 107.042 91.4924 109.95C91.4445 109.982 91.3965 109.998 91.3486 109.998Z" fill="#261D3F"/>
<path d="M82.7037 118.433C82.6078 118.433 82.512 118.369 82.48 118.273C82.4321 118.146 82.512 118.018 82.6398 117.97C86.7626 116.66 96.6382 111.483 101.896 104.965C101.975 104.869 102.135 104.853 102.231 104.933C102.327 105.013 102.343 105.173 102.263 105.269C96.6222 112.25 86.5229 117.219 82.7836 118.417C82.7517 118.433 82.7197 118.433 82.7037 118.433Z" fill="#261D3F"/>
<path d="M80.3385 113.624C80.3225 113.624 80.3066 113.624 80.2906 113.624C80.1627 113.592 80.0828 113.464 80.0988 113.337L80.3225 112.266C80.3545 112.138 80.4823 112.058 80.6102 112.074C80.738 112.106 80.8179 112.234 80.8019 112.362L80.5782 113.432C80.5463 113.544 80.4504 113.624 80.3385 113.624Z" fill="#261D3F"/>
<path d="M79.5875 117.363C79.5716 117.363 79.5556 117.363 79.5396 117.363C79.4118 117.331 79.3319 117.203 79.3479 117.075L79.5716 116.005C79.6035 115.877 79.7314 115.797 79.8592 115.813C79.987 115.845 80.0669 115.973 80.051 116.101L79.8272 117.171C79.7953 117.283 79.6994 117.363 79.5875 117.363Z" fill="#261D3F"/>
<path d="M78.7563 114.663C78.7403 114.663 78.7243 114.663 78.7083 114.663L77.6537 114.439C77.5258 114.407 77.4459 114.279 77.4779 114.151C77.5098 114.024 77.6377 113.944 77.7655 113.976L78.8202 114.199C78.948 114.231 79.0279 114.359 78.996 114.487C78.964 114.599 78.8681 114.663 78.7563 114.663Z" fill="#261D3F"/>
<path d="M82.432 115.477C82.4161 115.477 82.4001 115.477 82.3841 115.477L81.3294 115.254C81.2016 115.222 81.1217 115.094 81.1537 114.966C81.1856 114.838 81.3135 114.759 81.4413 114.79L82.496 115.014C82.6238 115.046 82.7037 115.174 82.6717 115.302C82.6398 115.398 82.5439 115.477 82.432 115.477Z" fill="#261D3F"/>
<path d="M87.6411 113.369C87.4654 113.369 87.2896 113.337 87.1138 113.273C86.7463 113.129 86.4427 112.841 86.2829 112.458C85.9473 111.691 86.2988 110.796 87.0499 110.461C87.4174 110.301 87.8169 110.285 88.1845 110.429C88.552 110.573 88.8556 110.86 89.0154 111.244C89.351 112.011 88.9994 112.905 88.2484 113.241C88.0566 113.321 87.8489 113.369 87.6411 113.369ZM87.2417 110.892C86.7303 111.116 86.4906 111.739 86.7303 112.266C86.8422 112.522 87.0339 112.714 87.2896 112.809C87.5453 112.905 87.801 112.905 88.0566 112.793C88.568 112.57 88.8077 111.947 88.568 111.419C88.4561 111.164 88.2644 110.972 88.0087 110.876C87.753 110.78 87.4813 110.796 87.2417 110.892Z" fill="#261D3F"/>
</g>
<defs>
<clipPath id="clip0_6431_17277">
<rect width="132.889" height="130" fill="white" transform="translate(0.055542)"/>
</clipPath>
</defs>
</svg>
